<svg width="302" height="434" viewBox="0 0 302 434" fill="none" xmlns="http://www.w3.org/2000/svg">
<g clip-path="url(#clip0_246_174)">
<path d="M0.105038 163.956C0.482011 152.58 0.625621 140.204 1.35563 127.863C2.85755 102.62 6.01096 77.5929 13.347 53.3019C16.3927 43.219 20.8925 33.7648 29.3474 26.9092C36.6835 20.9637 45.1564 17.0778 54.0482 14.0722C68.5767 9.15646 83.5778 6.51001 98.7286 4.31262C124.788 0.540534 150.978 0.360911 177.163 1.03749C189.849 1.3668 202.48 3.47438 215.01 5.73763C228.384 8.15656 241.697 10.9647 254.365 15.9642C265.189 20.2392 275.344 25.8195 282.016 35.8964C286.539 42.734 289.244 50.4279 291.344 58.3133C294.797 71.3001 296.837 84.5264 298.178 97.8963C299.931 115.374 300.469 132.899 301.175 150.424C301.415 156.406 301.678 162.375 301.732 168.362C301.75 170.68 300.816 171.404 298.692 171.123C295.503 170.704 292.553 169.488 289.633 168.261C286.791 167.069 283.972 165.872 280.915 165.357C278.27 164.908 276.259 163.656 274.506 161.495C261.833 145.844 244.677 143.305 226.014 144.91C214.029 145.94 204.957 153.124 195.066 158.693C192.057 160.387 190.1 162.896 188.215 165.596C187.461 166.68 187.156 167.602 188.395 168.674C189.741 169.841 190.794 171.356 192.14 172.53C194.665 174.733 197.436 176.068 201.032 175.967C222.454 175.374 243.875 174.949 265.303 174.482C266.997 174.446 268.678 174.482 270.323 173.937C276.912 171.745 283.482 173.087 290.052 174.092C293.289 174.589 296.514 175.212 299.763 175.559C301.289 175.721 301.726 176.224 301.72 177.727C301.678 188.893 301.923 200.096 300.392 211.173C299.44 218.01 295.958 223.95 291.003 228.776C286.868 232.799 282.393 236.482 278.019 240.26C272.071 245.391 264.663 246.391 257.285 247.588C246.335 249.367 235.474 248.54 224.59 247.103C222.723 246.858 220.802 246.936 218.911 246.99C218.146 247.014 216.943 246.439 216.745 247.798C216.584 248.918 216.961 249.876 218.074 250.546C221.329 252.498 224.973 253.031 228.611 253.492C234.134 254.186 239.675 254.701 245.21 255.318C248.256 255.659 248.728 256.402 247.196 259.006C241.356 268.951 234.714 278.274 225.134 285.01C217.607 290.303 208.931 292.799 200.093 294.907C194.929 296.14 189.926 296.452 185.002 294.093C183.637 293.44 182.459 292.578 181.429 291.452C178.402 288.141 175.23 284.962 172.304 281.561C171.024 280.07 169.971 280.076 168.547 281.076C167.003 282.16 165.321 283.076 163.879 284.279C156.208 290.686 140.549 289.171 133.081 283.279C131.591 282.1 130.945 280.579 130.927 278.603C130.807 266.299 133.021 254.252 134.894 242.17C135.983 235.158 135.941 228.075 136.019 221.004C136.187 205.245 136.51 189.492 136.504 173.733C136.498 160.315 133.033 147.76 125.488 136.593C122.137 131.63 117.392 127.804 112.994 123.768C105.209 116.631 97.2087 109.739 88.3289 103.962C79.5089 98.2196 69.7674 96.13 59.3857 96.7168C57.3871 96.8305 54.6346 96.7288 54.2277 99.2794C53.8448 101.698 56.5733 102.088 58.2188 102.998C60.7679 104.411 63.6461 104.926 66.4405 105.434C74.2552 106.86 80.6398 110.943 86.5457 115.907C92.7209 121.104 98.7465 126.474 104.826 131.773C108.518 134.989 110.391 139.425 112.958 143.437C117.17 150.023 118.499 156.938 118.104 164.656C117.625 174.104 118.337 183.607 117.338 193.049C116.363 202.245 114.358 211.286 112.976 220.417C111.809 228.159 107.764 233.518 100.984 237.092C96.8317 239.278 93.4809 242.152 92.0927 246.966C90.0103 254.198 93.8937 264.329 100.386 268.017C103.043 269.526 105.323 268.401 105.149 265.413C104.736 258.318 108.997 253.282 112.611 247.995C113.831 246.211 115.393 246.804 116.141 249.169C117.511 253.51 116.524 257.833 116.01 262.168C115.704 264.736 115.519 267.317 115.333 269.898C115.262 270.927 115.591 271.819 116.392 272.574C117.553 273.664 118.624 274.855 119.719 276.011C122.43 278.879 122.292 282.645 119.534 285.483C113.365 291.841 106.124 293.596 97.825 290.566C86.3483 286.369 74.7877 282.232 65.0762 274.526C57.9675 268.886 52.7617 261.599 48.5731 253.576C47.5619 251.636 48.3756 250.78 50.3383 250.714C53.2284 250.618 56.1186 250.546 59.0087 250.528C68.1518 250.474 76.9 248.283 85.5764 245.69C86.0491 245.547 86.4919 245.301 86.9646 245.157C88.1314 244.804 88.5204 243.667 88.4127 242.846C88.275 241.804 87.1082 241.936 86.1867 242.014C77.9531 242.697 69.7315 243.547 61.4919 243.984C54.4371 244.355 47.3225 244.75 40.3036 244.199C33.931 243.702 28.5396 240.164 23.9082 235.799C13.1914 225.704 7.14188 212.783 1.97794 199.318C0.595702 195.719 -0.00865295 192.121 0.0691353 188.265C0.230696 180.487 0.117005 172.697 0.117005 163.938L0.105038 163.956ZM68.2894 144.91C66.8952 144.91 65.501 144.856 64.1068 144.916C51.0384 145.496 38.8137 148.335 30.0176 159.016C26.942 162.752 23.4355 165.213 18.7024 165.878C16.2431 166.219 15.7285 167.405 16.6919 169.566C18.487 173.59 18.5349 177.583 16.3329 181.505C16.1414 181.84 16.1354 182.271 15.9978 182.643C15.5251 183.888 15.1481 185.475 16.0636 186.277C17.1048 187.187 17.8587 185.582 18.7204 185.02C19.0375 184.81 19.4623 184.762 19.8333 184.636C26.3257 182.427 33.0274 180.745 39.777 180.056C50.7512 178.936 61.827 178.769 72.849 178.092C82.8717 177.475 92.9244 177.32 102.887 175.829C106.537 175.284 109.392 173.685 111.893 171.105C114.843 168.063 114.723 165.051 111.653 162.243C106.813 157.813 100.877 155.208 95.2461 152.083C86.8569 147.424 78.0668 144.329 68.2835 144.91H68.2894ZM281.92 111.069C282.064 110.949 282.207 110.823 282.351 110.703C282.225 110.374 282.123 110.027 281.968 109.716C271.089 87.8494 247.879 75.5871 223.645 79.5328C205.251 82.5266 189.645 91.0587 176.619 104.56C172.514 108.817 171.299 113.38 171.832 118.87C172.394 124.6 176.912 127.355 181.8 124.624C187.904 121.223 193.026 116.421 198.483 112.128C213.418 100.381 229.419 92.1963 249.273 93.5973C257.321 94.1661 264.124 96.8066 270.329 101.519C274.309 104.542 278.06 107.877 281.914 111.069H281.92ZM19.6658 111.859C24.0937 108.65 27.3429 104.985 31.0289 101.824C34.6071 98.7525 38.4905 96.2019 43.1519 95.1002C52.7019 92.8369 62.3356 92.6932 71.766 95.2618C85.0678 98.8902 96.9873 105.189 107.142 114.763C111.372 118.751 115.357 123.229 121.024 125.391C124.243 126.618 127.785 125.169 129.24 122.104C131.998 116.29 130.688 110.871 126.888 106.261C119.48 97.2796 110.229 90.5856 99.4107 86.2507C90.8241 82.808 82.028 80.3711 72.5798 80.389C66.5063 80.401 60.4986 80.2034 54.5329 81.5925C42.0449 84.5024 32.4231 91.6634 24.7879 101.704C22.5978 104.584 20.6471 107.692 19.6658 111.865V111.859ZM173.639 146.892C173.609 147.388 173.549 147.885 173.549 148.382C173.549 149.508 172.879 150.867 174.363 151.544C175.763 152.184 176.87 151.358 177.863 150.496C179.138 149.388 180.376 148.233 181.585 147.041C191.374 137.401 201.439 128.067 211.809 119.044C219.264 112.56 227.205 107.279 237.072 105.267C239.663 104.74 242.152 103.602 244.611 102.573C246.083 101.956 247.633 100.668 247.31 99.1417C246.969 97.5191 245.3 96.8006 243.373 96.615C233.847 95.6989 224.991 97.8664 216.799 102.531C202.48 110.685 190.202 121.373 179.826 134.126C176.864 137.767 173.058 141.371 173.645 146.892H173.639ZM198.746 255.372C198.782 253.779 198.71 252.235 198.094 250.69C195.647 244.589 191.392 240.236 185.594 237.278C182.513 235.703 180.622 235.949 179.73 238.38C178.701 241.194 180.454 242.415 182.836 242.936C187.82 244.026 191.075 247.008 192.757 251.756C193.517 253.899 194.097 256.102 194.887 258.234C195.276 259.282 195.246 261.222 196.317 261.144C197.855 261.03 198.333 259.168 198.716 257.749C198.914 257.007 198.752 256.162 198.752 255.366L198.746 255.372Z" fill="black"/>
<path d="M233.297 315.591C235.271 314.088 237.252 312.579 239.226 311.077C239.699 310.717 240.172 310.226 240.818 310.532C241.512 310.855 241.231 311.562 241.243 312.118C241.261 313.525 240.95 314.789 240.196 316.07C231.98 330.033 223.926 344.085 215.142 357.713C213.317 360.539 211.905 363.634 210.397 366.652C209.93 367.586 209.398 368.891 210.642 369.55C211.833 370.185 212.36 368.873 212.91 368.125C222.406 355.09 231.107 341.511 240.22 328.213C248.824 315.657 257.196 302.946 264.597 289.648C271.515 277.23 277.067 264.171 281.956 250.831C283.183 247.484 284.661 244.221 286.103 240.958C286.492 240.072 287.102 239.251 287.736 238.515C288.287 237.874 288.831 236.934 289.938 237.419C291.075 237.916 290.639 238.922 290.549 239.772C289.651 248.197 287.587 256.375 285.235 264.476C280.221 281.75 272.286 297.725 263.125 313.106C245.659 342.427 227.235 371.131 207.644 399.074C199.59 410.552 190.369 420.952 178.145 428.305C173.813 430.909 168.918 431.891 164.298 433.663C162.156 434.49 160.93 433.077 161.007 430.251C161.163 424.443 162.384 418.749 164.239 413.342C167.416 404.056 167.153 394.548 167.063 385.022C167.039 382.118 165.358 379.555 164.292 376.909C161.295 369.472 161.911 362.605 166.83 356.144C168.918 353.402 170.725 350.45 172.532 347.313C169.72 348.193 167.566 347.229 165.609 345.582C164.598 344.732 163.407 344.798 162.21 344.792C152.044 344.75 141.866 344.768 131.735 343.918C122.383 343.133 113.569 340.002 104.725 337.002C96.0183 334.056 88.7541 328.805 82.2498 322.704C71.0662 312.214 59.7091 301.85 49.9198 289.947C40.9502 279.044 34.0989 267.099 31.1549 253.142C30.9873 252.346 30.1616 251.22 31.2925 250.807C32.2619 250.454 32.6628 251.747 33.0996 252.448C37.4617 259.453 41.4528 266.686 44.9892 274.116C51.7089 288.229 62.4377 298.018 76.1644 305.005C87.4556 310.753 99.2375 315.088 111.582 317.83C115.741 318.753 120.055 318.956 124.345 318.854C125.434 318.83 126.553 318.729 127.535 319.357C133.716 323.345 140.902 322.579 147.706 323.584C159.643 325.345 171.222 322.285 182.938 320.878C193.942 319.555 204.659 317.328 214.831 312.825C225.979 307.891 236.288 301.64 243.463 291.546C248.172 284.917 251.966 277.643 256.214 270.691C259.272 265.692 262.048 260.507 265.627 255.836C266.189 255.1 266.68 253.771 267.853 254.208C269.079 254.663 268.391 255.932 268.373 256.872C268.032 270.608 261.133 281.403 252.744 291.48C247.005 298.371 241.117 305.143 235.301 311.969C234.428 312.993 233.602 314.058 232.752 315.106C232.938 315.268 233.123 315.435 233.303 315.597L233.297 315.591Z" fill="black"/>
<path d="M135.415 365.492C136.169 369.001 134.29 372.515 132.495 375.904C127.828 384.706 128.139 393.735 130.233 403.123C132.214 412.015 134.787 420.81 135.445 429.977C135.559 431.57 135.302 432.049 133.674 432.013C127.642 431.875 122.461 429.396 117.919 425.81C109.626 419.247 103.42 410.793 97.7957 401.938C90.1007 389.819 80.431 379.126 72.7299 367.043C54.0428 337.722 35.954 308.043 21.0187 276.573C14.67 263.197 9.4821 249.354 4.89259 235.289C4.5216 234.152 4.10274 233.014 4.29422 231.793C4.46176 230.709 3.25904 229.158 4.86267 228.619C6.44836 228.086 7.57329 229.218 8.53069 230.511C11.3251 234.295 13.7485 238.343 15.4 242.696C23.2207 263.316 35.4993 281.417 47.2393 299.84C61.2352 321.808 74.561 344.159 84.7931 368.198C85.8223 370.617 87.2943 372.719 88.9219 374.731C89.4424 375.371 90.0288 376.407 91.0102 375.958C92.0813 375.467 92.4702 374.39 92.165 373.168C91.3453 369.905 90.6631 366.588 89.6519 363.385C88.862 360.876 88.503 358.391 88.5329 355.781C88.6047 349.997 88.6586 344.213 88.509 338.429C88.4372 335.687 89.4963 335.184 91.9257 335.759C97.4606 337.058 102.595 339.441 107.848 341.483C112.468 343.279 117.141 344.871 121.91 346.201C131.49 348.871 135.978 355.074 135.409 365.492H135.415Z" fill="black"/>
<path d="M152.277 318.439C146.101 318.487 139.95 317.996 133.799 317.613C131.346 317.458 130.927 316.733 132.447 314.727C136.109 309.895 139.765 305.052 143.684 300.429C146.76 296.801 148.106 296.939 151.391 300.321C156.172 305.243 161.031 310.099 165.249 315.53C165.782 316.212 166.679 316.907 166.296 317.847C165.866 318.894 164.729 318.416 163.915 318.422C160.037 318.469 156.16 318.445 152.283 318.445L152.277 318.439Z" fill="black"/>
</g>
<defs>
<clipPath id="clip0_246_174">
<rect width="301.675" height="433.155" fill="white" transform="translate(0.0507812 0.734375)"/>
</clipPath>
</defs>
</svg>
