<svg width="505" height="724" viewBox="0 0 505 724" fill="none" xmlns="http://www.w3.org/2000/svg">
<g clip-path="url(#clip0_246_174)">
<path d="M0.0906202 272.609C0.72062 253.609 0.96062 232.939 2.18062 212.329C4.69062 170.169 9.96062 128.369 22.2206 87.7989C27.3106 70.9589 34.8306 55.1689 48.9606 43.7189C61.2206 33.7889 75.3806 27.2989 90.2406 22.2789C114.521 14.0689 139.591 9.64887 164.911 5.97887C208.461 -0.321128 252.231 -0.621128 295.991 0.508872C317.191 1.05887 338.301 4.57887 359.241 8.35887C381.591 12.3989 403.841 17.0889 425.011 25.4389C443.101 32.5789 460.071 41.8989 471.221 58.7289C478.781 70.1489 483.301 82.9989 486.811 96.1689C492.581 117.859 495.991 139.949 498.231 162.279C501.161 191.469 502.061 220.739 503.241 250.009C503.641 259.999 504.081 269.969 504.171 279.969C504.201 283.839 502.641 285.049 499.091 284.579C493.761 283.879 488.831 281.849 483.951 279.799C479.201 277.809 474.491 275.809 469.381 274.949C464.961 274.199 461.601 272.109 458.671 268.499C437.491 242.359 408.821 238.119 377.631 240.799C357.601 242.519 342.441 254.519 325.911 263.819C320.881 266.649 317.611 270.839 314.461 275.349C313.201 277.159 312.691 278.699 314.761 280.489C317.011 282.439 318.771 284.969 321.021 286.929C325.241 290.609 329.871 292.839 335.881 292.669C371.681 291.679 407.481 290.969 443.291 290.189C446.121 290.129 448.931 290.189 451.681 289.279C462.691 285.619 473.671 287.859 484.651 289.539C490.061 290.369 495.451 291.409 500.881 291.989C503.431 292.259 504.161 293.099 504.151 295.609C504.081 314.259 504.491 332.969 501.931 351.469C500.341 362.889 494.521 372.809 486.241 380.869C479.331 387.589 471.851 393.739 464.541 400.049C454.601 408.619 442.221 410.289 429.891 412.289C411.591 415.259 393.441 413.879 375.251 411.479C372.131 411.069 368.921 411.199 365.761 411.289C364.481 411.329 362.471 410.369 362.141 412.639C361.871 414.509 362.501 416.109 364.361 417.229C369.801 420.489 375.891 421.379 381.971 422.149C391.201 423.309 400.461 424.169 409.711 425.199C414.801 425.769 415.591 427.009 413.031 431.359C403.271 447.969 392.171 463.539 376.161 474.789C363.581 483.629 349.081 487.799 334.311 491.319C325.681 493.379 317.321 493.899 309.091 489.959C306.811 488.869 304.841 487.429 303.121 485.549C298.061 480.019 292.761 474.709 287.871 469.029C285.731 466.539 283.971 466.549 281.591 468.219C279.011 470.029 276.201 471.559 273.791 473.569C260.971 484.269 234.801 481.739 222.321 471.899C219.831 469.929 218.751 467.389 218.721 464.089C218.521 443.539 222.221 423.419 225.351 403.239C227.171 391.529 227.101 379.699 227.231 367.889C227.511 341.569 228.051 315.259 228.041 288.939C228.031 266.529 222.241 245.559 209.631 226.909C204.031 218.619 196.101 212.229 188.751 205.489C175.741 193.569 162.371 182.059 147.531 172.409C132.791 162.819 116.511 159.329 99.1606 160.309C95.8206 160.499 91.2206 160.329 90.5406 164.589C89.9006 168.629 94.4606 169.279 97.2106 170.799C101.471 173.159 106.281 174.019 110.951 174.869C124.011 177.249 134.681 184.069 144.551 192.359C154.871 201.039 164.941 210.009 175.101 218.859C181.271 224.229 184.401 231.639 188.691 238.339C195.731 249.339 197.951 260.889 197.291 273.779C196.491 289.559 197.681 305.429 196.011 321.199C194.381 336.559 191.031 351.659 188.721 366.909C186.771 379.839 180.011 388.789 168.681 394.759C161.741 398.409 156.141 403.209 153.821 411.249C150.341 423.329 156.831 440.249 167.681 446.409C172.121 448.929 175.931 447.049 175.641 442.059C174.951 430.209 182.071 421.799 188.111 412.969C190.151 409.989 192.761 410.979 194.011 414.929C196.301 422.179 194.651 429.399 193.791 436.639C193.281 440.929 192.971 445.239 192.661 449.549C192.541 451.269 193.091 452.759 194.431 454.019C196.371 455.839 198.161 457.829 199.991 459.759C204.521 464.549 204.291 470.839 199.681 475.579C189.371 486.199 177.271 489.129 163.401 484.069C144.221 477.059 124.901 470.149 108.671 457.279C96.7906 447.859 88.0906 435.689 81.0906 422.289C79.4006 419.049 80.7606 417.619 84.0406 417.509C88.8706 417.349 93.7006 417.229 98.5306 417.199C113.811 417.109 128.431 413.449 142.931 409.119C143.721 408.879 144.461 408.469 145.251 408.229C147.201 407.639 147.851 405.739 147.671 404.369C147.441 402.629 145.491 402.849 143.951 402.979C130.191 404.119 116.451 405.539 102.681 406.269C90.8906 406.889 79.0006 407.549 67.2706 406.629C56.6206 405.799 47.6106 399.889 39.8706 392.599C21.9606 375.739 11.8506 354.159 3.22062 331.669C0.91062 325.659 -0.0993798 319.649 0.0306202 313.209C0.30062 300.219 0.11062 287.209 0.11062 272.579L0.0906202 272.609ZM114.041 240.799C111.711 240.799 109.381 240.709 107.051 240.809C85.2106 241.779 64.7806 246.519 50.0806 264.359C44.9406 270.599 39.0806 274.709 31.1706 275.819C27.0606 276.389 26.2006 278.369 27.8106 281.979C30.8106 288.699 30.8906 295.369 27.2106 301.919C26.8906 302.479 26.8806 303.199 26.6506 303.819C25.8606 305.899 25.2306 308.549 26.7606 309.889C28.5006 311.409 29.7606 308.729 31.2006 307.789C31.7306 307.439 32.4406 307.359 33.0606 307.149C43.9106 303.459 55.1106 300.649 66.3906 299.499C84.7306 297.629 103.241 297.349 121.661 296.219C138.411 295.189 155.211 294.929 171.861 292.439C177.961 291.529 182.731 288.859 186.911 284.549C191.841 279.469 191.641 274.439 186.511 269.749C178.421 262.349 168.501 257.999 159.091 252.779C145.071 244.999 130.381 239.829 114.031 240.799H114.041ZM471.061 184.279C471.301 184.079 471.541 183.869 471.781 183.669C471.571 183.119 471.401 182.539 471.141 182.019C452.961 145.499 414.171 125.019 373.671 131.609C342.931 136.609 316.851 150.859 295.081 173.409C288.221 180.519 286.191 188.139 287.081 197.309C288.021 206.879 295.571 211.479 303.741 206.919C313.941 201.239 322.501 193.219 331.621 186.049C356.581 166.429 383.321 152.759 416.501 155.099C429.951 156.049 441.321 160.459 451.691 168.329C458.341 173.379 464.611 178.949 471.051 184.279H471.061ZM32.7806 185.599C40.1806 180.239 45.6106 174.119 51.7706 168.839C57.7506 163.709 64.2406 159.449 72.0306 157.609C87.9906 153.829 104.091 153.589 119.851 157.879C142.081 163.939 162.001 174.459 178.971 190.449C186.041 197.109 192.701 204.589 202.171 208.199C207.551 210.249 213.471 207.829 215.901 202.709C220.511 192.999 218.321 183.949 211.971 176.249C199.591 161.249 184.131 150.069 166.051 142.829C151.701 137.079 137.001 133.009 121.211 133.039C111.061 133.059 101.021 132.729 91.0506 135.049C70.1806 139.909 54.1006 151.869 41.3406 168.639C37.6806 173.449 34.4206 178.639 32.7806 185.609V185.599ZM290.101 244.109C290.051 244.939 289.951 245.769 289.951 246.599C289.951 248.479 288.831 250.749 291.311 251.879C293.651 252.949 295.501 251.569 297.161 250.129C299.291 248.279 301.361 246.349 303.381 244.359C319.741 228.259 336.561 212.669 353.891 197.599C366.351 186.769 379.621 177.949 396.111 174.589C400.441 173.709 404.601 171.809 408.711 170.089C411.171 169.059 413.761 166.909 413.221 164.359C412.651 161.649 409.861 160.449 406.641 160.139C390.721 158.609 375.921 162.229 362.231 170.019C338.301 183.639 317.781 201.489 300.441 222.789C295.491 228.869 289.131 234.889 290.111 244.109H290.101ZM332.061 425.289C332.121 422.629 332.001 420.049 330.971 417.469C326.881 407.279 319.771 400.009 310.081 395.069C304.931 392.439 301.771 392.849 300.281 396.909C298.561 401.609 301.491 403.649 305.471 404.519C313.801 406.339 319.241 411.319 322.051 419.249C323.321 422.829 324.291 426.509 325.611 430.069C326.261 431.819 326.211 435.059 328.001 434.929C330.571 434.739 331.371 431.629 332.011 429.259C332.341 428.019 332.071 426.609 332.071 425.279L332.061 425.289Z" fill="black"/>
<path d="M389.801 525.862C393.101 523.352 396.411 520.832 399.711 518.322C400.501 517.722 401.291 516.902 402.371 517.412C403.531 517.952 403.061 519.132 403.081 520.062C403.111 522.412 402.591 524.522 401.331 526.662C387.601 549.982 374.141 573.452 359.461 596.212C356.411 600.932 354.051 606.102 351.531 611.142C350.751 612.702 349.861 614.882 351.941 615.982C353.931 617.042 354.811 614.852 355.731 613.602C371.601 591.832 386.141 569.152 401.371 546.942C415.751 525.972 429.741 504.742 442.111 482.532C453.671 461.792 462.951 439.982 471.121 417.702C473.171 412.112 475.641 406.662 478.051 401.212C478.701 399.732 479.721 398.362 480.781 397.132C481.701 396.062 482.611 394.492 484.461 395.302C486.361 396.132 485.631 397.812 485.481 399.232C483.981 413.302 480.531 426.962 476.601 440.492C468.221 469.342 454.961 496.022 439.651 521.712C410.461 570.682 379.671 618.622 346.931 665.292C333.471 684.462 318.061 701.832 297.631 714.112C290.391 718.462 282.211 720.102 274.491 723.062C270.911 724.442 268.861 722.082 268.991 717.362C269.251 707.662 271.291 698.152 274.391 689.122C279.701 673.612 279.261 657.732 279.111 641.822C279.071 636.972 276.261 632.692 274.481 628.272C269.471 615.852 270.501 604.382 278.721 593.592C282.211 589.012 285.231 584.082 288.251 578.842C283.551 580.312 279.951 578.702 276.681 575.952C274.991 574.532 273.001 574.642 271.001 574.632C254.011 574.562 237.001 574.592 220.071 573.172C204.441 571.862 189.711 566.632 174.931 561.622C160.381 556.702 148.241 547.932 137.371 537.742C118.681 520.222 99.7009 502.912 83.3409 483.032C68.3509 464.822 56.9009 444.872 51.9809 421.562C51.7009 420.232 50.3209 418.352 52.2109 417.662C53.8309 417.072 54.5009 419.232 55.2309 420.402C62.5209 432.102 69.1909 444.182 75.1009 456.592C86.3309 480.162 104.261 496.512 127.201 508.182C146.071 517.782 165.761 525.022 186.391 529.602C193.341 531.142 200.551 531.482 207.721 531.312C209.541 531.272 211.411 531.102 213.051 532.152C223.381 538.812 235.391 537.532 246.761 539.212C266.711 542.152 286.061 537.042 305.641 534.692C324.031 532.482 341.941 528.762 358.941 521.242C377.571 513.002 394.801 502.562 406.791 485.702C414.661 474.632 421.001 462.482 428.101 450.872C433.211 442.522 437.851 433.862 443.831 426.062C444.771 424.832 445.591 422.612 447.551 423.342C449.601 424.102 448.451 426.222 448.421 427.792C447.851 450.732 436.321 468.762 422.301 485.592C412.711 497.102 402.871 508.412 393.151 519.812C391.691 521.522 390.311 523.302 388.891 525.052C389.201 525.322 389.511 525.602 389.811 525.872L389.801 525.862Z" fill="black"/>
<path d="M226.219 609.2C227.479 615.06 224.339 620.93 221.339 626.59C213.539 641.29 214.059 656.37 217.559 672.05C220.869 686.9 225.169 701.59 226.269 716.9C226.459 719.56 226.029 720.36 223.309 720.3C213.229 720.07 204.569 715.93 196.979 709.94C183.119 698.98 172.749 684.86 163.349 670.07C150.489 649.83 134.329 631.97 121.459 611.79C90.2293 562.82 59.9993 513.25 35.0393 460.69C24.4293 438.35 15.7593 415.23 8.08928 391.74C7.46928 389.84 6.76928 387.94 7.08928 385.9C7.36928 384.09 5.35928 381.5 8.03928 380.6C10.6893 379.71 12.5693 381.6 14.1693 383.76C18.8393 390.08 22.8893 396.84 25.6493 404.11C38.7193 438.55 59.2393 468.78 78.8593 499.55C102.249 536.24 124.519 573.57 141.619 613.72C143.339 617.76 145.799 621.27 148.519 624.63C149.389 625.7 150.369 627.43 152.009 626.68C153.799 625.86 154.449 624.06 153.939 622.02C152.569 616.57 151.429 611.03 149.739 605.68C148.419 601.49 147.819 597.34 147.869 592.98C147.989 583.32 148.079 573.66 147.829 564C147.709 559.42 149.479 558.58 153.539 559.54C162.789 561.71 171.369 565.69 180.149 569.1C187.869 572.1 195.679 574.76 203.649 576.98C219.659 581.44 227.159 591.8 226.209 609.2H226.219Z" fill="black"/>
<path d="M254.399 530.62C244.079 530.7 233.799 529.88 223.519 529.24C219.419 528.98 218.719 527.77 221.259 524.42C227.379 516.35 233.489 508.26 240.039 500.54C245.179 494.48 247.429 494.71 252.919 500.36C260.909 508.58 269.029 516.69 276.079 525.76C276.969 526.9 278.469 528.06 277.829 529.63C277.109 531.38 275.209 530.58 273.849 530.59C267.369 530.67 260.889 530.63 254.409 530.63L254.399 530.62Z" fill="black"/>
</g>
<defs>
<clipPath id="clip0_246_174">
<rect width="504.16" height="723.44" fill="white"/>
</clipPath>
</defs>
</svg>
