<svg width="275" height="260" viewBox="0 0 275 260" fill="none" xmlns="http://www.w3.org/2000/svg">
<path d="M106.255 259.996C88.9985 259.996 71.7416 260.007 54.4848 259.993C45.9687 259.986 37.4527 259.922 28.9367 259.912C20.3399 259.901 11.7396 259.919 3.1428 259.929C0.757339 259.929 0.915434 259.905 0.444664 257.526C-0.331754 253.614 0.0195668 249.782 0.651943 245.905C1.13677 242.917 2.45422 240.345 4.29514 238.062C6.79302 234.966 8.07534 231.423 8.26857 227.542C8.46179 223.59 9.94788 220.044 11.2197 216.416C12.6074 212.454 15.0631 209.02 16.8408 205.256C18.6536 201.413 20.6421 197.666 22.0192 193.602C23.558 189.06 26.0067 184.883 28.2306 180.633C30.061 177.132 32.0951 173.769 34.4981 170.623C36.0615 168.575 36.2266 165.936 37.1752 163.614C38.3486 160.743 39.4799 157.872 41.2821 155.321C41.4859 155.036 41.6756 154.688 41.7213 154.35C41.918 152.904 42.8666 152.056 44.0084 151.37C46.9068 149.632 49.4679 147.489 51.8885 145.132C53.9999 143.077 56.6946 141.863 59.3084 140.582C66.6966 136.958 74.4784 134.386 82.3199 131.962C86.5181 130.667 90.5127 128.823 94.4193 126.804C95.8492 126.065 97.3212 125.396 98.8073 124.77C99.777 124.358 100.813 124.26 101.808 124.752C102.38 125.034 102.851 124.872 103.301 124.52C105.584 122.726 107.794 120.847 109.856 118.796C110.499 118.155 110.671 117.585 110.331 116.656C109.691 114.908 109.365 113.177 109.761 111.178C110.155 109.197 109.354 107.121 108.398 105.263C108.082 104.651 107.889 104.043 107.833 103.356C107.569 100.207 106.947 97.1358 105.893 94.1451C105.581 93.2619 105.419 92.3154 105.444 91.3655C105.475 90.0988 105.005 88.8673 104.966 87.671C104.899 85.6655 103.796 83.959 103.67 82.0837C103.427 78.5019 101.976 75.49 100.17 72.4958C98.6844 70.0328 98.1539 67.2356 98.5122 64.3364C98.5755 63.8157 98.6246 63.0205 99.5697 63.4955C99.8683 63.6468 99.9526 63.5025 99.9807 63.2175C100.002 62.9572 99.9913 62.5561 100.142 62.4646C101.597 61.5885 100.943 60.6244 100.413 59.5477C100.174 59.0657 100.272 58.4007 100.283 57.8202C100.357 53.3024 99.5556 48.7671 100.139 44.2845C100.476 41.6914 100.43 39.0314 101.193 36.4911C101.428 35.7064 101.418 34.9042 101.242 34.095C101.028 33.1028 101.119 32.1633 101.653 31.245C102.387 29.9783 102.022 28.4126 102.682 27.1002C103.371 25.7245 103.726 24.2256 104.58 22.8851C105.352 21.6712 105.7 20.1617 105.307 18.6206C105.17 18.0894 104.991 17.5757 105.753 17.1534C106.449 16.7664 105.844 15.9325 105.915 15.2992C105.953 14.9649 105.686 14.5392 106.104 14.3281C106.526 14.117 106.768 14.4899 106.965 14.7749C108.395 16.8403 109.403 16.4955 111.954 15.9184C112.273 15.8481 112.495 15.6299 112.692 15.3696C113.781 13.934 115.147 12.794 116.472 11.5872C117.599 10.5598 118.703 9.38813 119.476 8.00536C120.519 6.13352 121.819 4.77187 124.166 4.46224C125.985 4.22298 127.746 3.47354 129.105 2.07318C129.594 1.57004 130.089 1.2393 130.584 2.11541C130.693 2.30892 131.009 2.43207 131.255 2.49892C133.967 3.25188 136.637 3.4278 139.441 2.67485C142.072 1.97115 144.757 1.54541 147.258 0.342085C148.934 -0.463649 150.641 0.33153 152.212 0.908563C155.138 1.9817 158.209 2.29837 161.219 2.92466C162.178 3.12521 162.923 3.52632 163.71 4.09983C165.347 5.2926 167.15 6.26019 168.822 7.40722C170.16 8.32554 171.748 8.68795 173.126 9.50776C175.237 10.7674 177.001 12.2205 177.777 14.7749C178.287 16.4497 179.242 18.0119 180.089 19.5918C181.22 21.7099 181.873 24.0532 182.278 26.4387C182.351 26.868 182.165 27.3535 182.808 27.4802C182.91 27.5013 183.068 27.6702 183.064 27.7582C182.949 29.3696 183.827 30.6222 184.392 32.0331C185.467 34.7213 185.422 37.7296 185.475 40.5655C185.531 43.6019 186.332 46.2197 187.755 48.7636C188.001 49.2034 188.032 49.6819 187.737 50.0373C186.286 51.7754 187.119 53.6472 187.459 55.4346C187.927 57.8835 188.837 60.2409 188.32 62.8235C188.123 63.8086 188.204 64.8607 188.556 65.8775C190.207 70.6521 189.437 75.0889 185.987 78.7235C183.205 81.6544 181.796 85.1307 180.76 88.8709C180.412 90.1234 180.328 91.4604 179.878 92.6673C179 95.0176 178.114 97.3258 177.549 99.8098C177.134 101.622 176.625 103.705 174.826 105.07C174.236 105.52 174.004 106.696 173.614 107.54C173.199 108.441 173.856 110.235 174.752 110.587C177.103 111.512 178.708 113.374 179.924 115.337C181.775 118.335 184.466 120.52 186.644 123.183C187.519 124.253 188.352 125.358 189.332 126.35C192.329 129.383 196.46 130.199 200.075 132.025C207.766 135.91 216.201 138.052 223.779 142.197C226.575 143.728 229.312 145.364 231.719 147.464C233.173 148.734 234.283 150.356 235.221 152.024C236.103 153.59 237.076 155.092 237.986 156.637C238.383 157.313 238.91 157.833 239.616 158.189C242.859 159.825 244.897 162.4 246.098 165.855C247.409 169.62 248.396 173.399 248.312 177.41C248.291 178.353 248.702 179.183 249.26 179.884C251.178 182.297 252.594 185.042 254.621 187.424C255.844 188.866 257.211 190.703 257.27 193.11C257.32 195.08 258.644 196.85 259.589 198.62C259.933 199.264 260.397 199.879 260.323 200.594C260.021 203.528 261.296 206.019 262.459 208.535C263.394 210.558 263.777 212.708 264.205 214.868C265.073 219.256 265.431 223.777 267.35 227.904C268.632 230.663 269.886 233.446 271.885 235.803C272.658 236.711 273.013 237.738 272.465 238.917C272.208 239.469 272.117 240.078 272.395 240.616C273.997 243.706 273.291 247.119 273.789 250.359C274.046 252.037 274.06 253.747 274.257 255.436C274.397 256.64 274.113 257.769 273.733 258.86C273.378 259.884 272.402 259.919 271.474 259.919C264.75 259.926 258.026 259.936 251.305 259.943C243.91 259.954 236.514 259.979 229.116 259.975C219.082 259.972 209.045 259.933 199.011 259.936C169.929 259.943 140.846 259.961 111.768 259.975C109.934 259.975 108.096 259.975 106.262 259.975C106.262 259.979 106.262 259.982 106.262 259.989L106.255 259.996Z" fill="black"/>
</svg>
