<svg width="367" height="166" viewBox="0 0 367 166" fill="none" xmlns="http://www.w3.org/2000/svg">
<path fill-rule="evenodd" clip-rule="evenodd" d="M201.649 4.09661L181.362 3L180.814 3.06579C177.079 3.13762 173.34 3.17637 169.599 3.21514C164.202 3.27108 158.8 3.32706 153.398 3.48251C133.342 3.68579 113.349 5.75637 93.6772 9.6674C70.7799 14.7118 48.9136 22.3003 29.5475 35.986C19.1078 43.3333 10.0936 52.0842 6.08002 64.4978C-1.7717 88.8206 5.53165 112.99 26.3014 128.496C44.4832 142.072 66.0206 146.678 87.7115 150.428C106.39 153.666 125.284 154.507 144.208 155.35C145.283 155.398 146.358 155.446 147.433 155.494C174.105 156.852 200.841 156.222 227.42 153.608C245.471 151.77 263.372 148.682 280.993 144.367C320.399 159.394 340.643 160.603 352.413 161.306C357.487 161.609 360.986 161.817 363.766 162.999C343.972 154.587 325.97 145.084 310.167 135.513C316.824 132.895 323.271 129.763 329.382 125.82C356.425 108.209 359.386 80.7715 348.419 54.6722C343.748 43.4868 333.878 36.9291 323.351 31.5996C302.515 21.0941 280.386 14.9311 257.554 10.6763C239.079 7.29176 220.406 5.09404 201.649 4.09661Z" fill="white"/>
<path d="M181.362 3L181.054 0.435849C181.203 0.41805 181.352 0.413155 181.501 0.421218L181.362 3ZM201.649 4.09661L201.512 6.67551L201.51 6.67539L201.649 4.09661ZM180.814 3.06579L181.121 5.62994C181.036 5.64022 180.95 5.6462 180.863 5.64786L180.814 3.06579ZM169.599 3.21514L169.572 0.632732L169.599 3.21514ZM153.398 3.48251L153.473 6.06399C153.457 6.06445 153.441 6.06476 153.425 6.06492L153.398 3.48251ZM93.6772 9.6674L93.1215 7.14533C93.1388 7.14152 93.1562 7.13789 93.1736 7.13443L93.6772 9.6674ZM29.5475 35.986L31.0379 38.0951L31.0338 38.098L29.5475 35.986ZM6.08002 64.4978L3.62235 63.7045L3.62272 63.7033L6.08002 64.4978ZM26.3014 128.496L27.8464 126.427L27.8466 126.427L26.3014 128.496ZM87.7115 150.428L88.1515 147.883L88.1526 147.884L87.7115 150.428ZM144.208 155.35L144.323 152.77L144.323 152.77L144.208 155.35ZM147.433 155.494L147.549 152.915C147.554 152.915 147.559 152.915 147.564 152.915L147.433 155.494ZM227.42 153.608L227.681 156.178L227.672 156.178L227.42 153.608ZM280.993 144.367L280.379 141.859C280.888 141.734 281.423 141.768 281.913 141.954L280.993 144.367ZM352.413 161.306L352.259 163.884L352.259 163.884L352.413 161.306ZM364.776 160.622C366.088 161.18 366.7 162.696 366.142 164.009C365.585 165.322 364.068 165.934 362.756 165.376L364.776 160.622ZM310.167 135.513L308.829 137.722C307.989 137.213 307.511 136.272 307.594 135.293C307.677 134.315 308.308 133.469 309.222 133.109L310.167 135.513ZM329.382 125.82L330.792 127.984L330.782 127.99L329.382 125.82ZM348.419 54.6722L346.039 55.6726L346.036 55.6675L348.419 54.6722ZM323.351 31.5996L324.514 29.2936L324.517 29.2955L323.351 31.5996ZM257.554 10.6763L258.02 8.13598L258.027 8.13743L257.554 10.6763ZM181.501 0.421218L201.789 1.51783L201.51 6.67539L181.223 5.57878L181.501 0.421218ZM180.506 0.501643L181.054 0.435849L181.67 5.56415L181.121 5.62994L180.506 0.501643ZM169.572 0.632732C173.315 0.593942 177.042 0.555295 180.764 0.483725L180.863 5.64786C177.115 5.71995 173.365 5.7588 169.626 5.79755L169.572 0.632732ZM153.324 0.901033C158.754 0.744789 164.179 0.68863 169.572 0.632732L169.626 5.79755C164.225 5.85353 158.847 5.90934 153.473 6.06399L153.324 0.901033ZM93.1736 7.13443C113.003 3.19214 133.156 1.105 153.372 0.900097L153.425 6.06492C133.529 6.26658 113.695 8.32061 94.1807 12.2004L93.1736 7.13443ZM28.057 33.877C47.8085 19.9189 70.0409 12.2301 93.1215 7.14533L94.2328 12.1895C71.5189 17.1935 50.0186 24.6817 31.0379 38.0951L28.057 33.877ZM3.62272 63.7033C7.8887 50.5092 17.4359 41.3519 28.0611 33.8741L31.0338 38.098C20.7796 45.3147 12.2986 53.6593 8.53731 65.2924L3.62272 63.7033ZM24.7564 130.565C3.08113 114.383 -4.56086 89.0542 3.62235 63.7045L8.53768 65.2912C1.01746 88.5871 7.98216 111.596 27.8464 126.427L24.7564 130.565ZM87.2715 152.973C65.5846 149.223 43.4824 144.548 24.7563 130.565L27.8466 126.427C45.484 139.596 66.4566 144.132 88.1515 147.883L87.2715 152.973ZM144.093 157.93C125.196 157.089 106.137 156.243 87.2705 152.973L88.1526 147.884C106.642 151.088 125.371 151.926 144.323 152.77L144.093 157.93ZM147.317 158.074C146.243 158.026 145.168 157.978 144.093 157.93L144.323 152.77C145.398 152.818 146.473 152.866 147.549 152.915L147.317 158.074ZM227.672 156.178C200.966 158.804 174.102 159.438 147.302 158.074L147.564 152.915C174.108 154.266 200.716 153.639 227.167 151.038L227.672 156.178ZM281.607 146.876C263.87 151.219 245.852 154.327 227.681 156.178L227.158 151.039C245.091 149.213 262.874 146.146 280.379 141.859L281.607 146.876ZM281.913 141.954C321.023 156.868 340.999 158.037 352.567 158.728L352.259 163.884C340.288 163.169 319.775 161.92 280.073 146.78L281.913 141.954ZM352.567 158.728C357.468 159.02 361.491 159.226 364.776 160.622L362.756 165.376C360.48 164.409 357.506 164.197 352.259 163.884L352.567 158.728ZM362.756 165.376C342.838 156.911 324.727 147.35 308.829 137.722L311.505 133.304C327.214 142.818 345.106 152.263 364.776 160.622L362.756 165.376ZM330.782 127.99C324.499 132.044 317.893 135.249 311.112 137.916L309.222 133.109C315.755 130.54 322.043 127.481 327.982 123.65L330.782 127.99ZM350.8 53.6718C356.432 67.0761 358.57 81.0154 355.675 93.9916C352.766 107.027 344.83 118.841 330.792 127.984L327.973 123.656C340.977 115.187 348.043 104.478 350.633 92.8667C353.237 81.1966 351.373 68.3676 346.039 55.6726L350.8 53.6718ZM324.517 29.2955C335.144 34.675 345.754 41.5884 350.803 53.6769L346.036 55.6675C341.742 45.3852 332.613 39.1832 322.184 33.9037L324.517 29.2955ZM258.027 8.13743C280.998 12.4183 303.385 18.6403 324.514 29.2936L322.188 33.9056C301.646 23.5479 279.773 17.444 257.081 13.2151L258.027 8.13743ZM201.786 1.51771C220.653 2.52099 239.436 4.73161 258.02 8.13599L257.089 13.2165C238.722 9.8519 220.158 7.66709 201.512 6.67551L201.786 1.51771Z" fill="black"/>
</svg>
