<svg width="567" height="256" viewBox="0 0 567 256" fill="none" xmlns="http://www.w3.org/2000/svg">
<path fill-rule="evenodd" clip-rule="evenodd" d="M255.095 5.69849L286.517 4L287.367 4.10191C293.152 4.21315 298.942 4.27317 304.736 4.33322C313.096 4.41986 321.462 4.50658 329.829 4.74734C360.893 5.06219 391.86 8.26923 422.329 14.3269C457.793 22.1399 491.661 33.8935 521.657 55.0907C537.826 66.4706 551.788 80.0246 558.004 99.2515C570.166 136.924 558.854 174.359 526.684 198.376C498.523 219.403 465.165 226.536 431.569 232.345C402.639 237.36 373.374 238.664 344.063 239.969C342.398 240.043 340.733 240.118 339.069 240.192C297.757 242.295 256.347 241.319 215.181 237.271C187.222 234.424 159.497 229.642 132.206 222.959C71.1694 246.234 39.8136 248.106 21.5842 249.195C13.7253 249.664 8.30602 249.987 4 251.817C34.6582 238.788 62.5405 224.07 87.0181 209.244C76.7071 205.189 66.7203 200.338 57.2549 194.231C15.37 166.953 10.7839 124.457 27.7689 84.033C35.0044 66.7083 50.291 56.5514 66.5966 48.2967C98.8679 32.0252 133.144 22.4796 168.506 15.8894C197.122 10.6473 226.044 7.24337 255.095 5.69849Z" fill="white"/>
<path d="M286.517 4L286.994 0.0284906C286.764 0.000923778 286.533 -0.00665787 286.301 0.0058309L286.517 4ZM255.095 5.69849L255.308 9.69285L255.311 9.69266L255.095 5.69849ZM287.367 4.10191L286.89 8.07341C287.023 8.08933 287.156 8.0986 287.29 8.10117L287.367 4.10191ZM304.736 4.33322L304.778 0.333436L304.736 4.33322ZM329.829 4.74734L329.714 8.74569C329.739 8.7464 329.764 8.74688 329.788 8.74714L329.829 4.74734ZM422.329 14.3269L423.189 10.4205C423.163 10.4146 423.136 10.409 423.109 10.4036L422.329 14.3269ZM521.657 55.0907L519.348 58.3573L519.354 58.3618L521.657 55.0907ZM558.004 99.2515L561.811 98.0227L561.81 98.0209L558.004 99.2515ZM526.684 198.376L524.291 195.17L524.291 195.17L526.684 198.376ZM431.569 232.345L430.887 228.404L430.886 228.404L431.569 232.345ZM344.063 239.969L344.241 243.965L344.241 243.965L344.063 239.969ZM339.069 240.192L338.889 236.196C338.881 236.197 338.873 236.197 338.865 236.198L339.069 240.192ZM215.181 237.271L214.776 241.25L214.789 241.252L215.181 237.271ZM132.206 222.959L133.157 219.074C132.368 218.88 131.539 218.932 130.78 219.221L132.206 222.959ZM21.5842 249.195L21.3458 245.202L21.3458 245.202L21.5842 249.195ZM2.43547 248.136C0.402322 249 -0.545404 251.349 0.318663 253.382C1.18273 255.415 3.53139 256.363 5.56453 255.499L2.43547 248.136ZM87.0181 209.244L89.0903 212.665C90.3912 211.877 91.1327 210.42 91.0036 208.905C90.8746 207.389 89.8973 206.078 88.482 205.521L87.0181 209.244ZM57.2549 194.231L55.072 197.583C55.0767 197.586 55.0816 197.589 55.0864 197.592L57.2549 194.231ZM27.7689 84.033L31.4566 85.5824L31.4599 85.5745L27.7689 84.033ZM66.5966 48.2967L64.7957 44.725L64.7899 44.728L66.5966 48.2967ZM168.506 15.8894L167.785 11.9549L167.773 11.9571L168.506 15.8894ZM286.301 0.0058309L254.879 1.70432L255.311 9.69266L286.733 7.99417L286.301 0.0058309ZM287.843 0.130396L286.994 0.0284906L286.041 7.97151L286.89 8.07341L287.843 0.130396ZM304.778 0.333436C298.981 0.273355 293.208 0.213496 287.444 0.102645L287.29 8.10117C293.095 8.21281 298.904 8.27299 304.695 8.33301L304.778 0.333436ZM329.944 0.748996C321.535 0.506996 313.131 0.420014 304.778 0.333436L304.695 8.33301C313.06 8.41971 321.39 8.50616 329.714 8.74569L329.944 0.748996ZM423.109 10.4036C392.396 4.29759 361.182 1.06492 329.869 0.747546L329.788 8.74714C360.604 9.05947 391.323 12.2409 421.549 18.2501L423.109 10.4036ZM523.965 51.824C493.373 30.2051 458.938 18.2962 423.189 10.4205L421.468 18.2332C456.649 25.9837 489.95 37.5819 519.348 58.3573L523.965 51.824ZM561.81 98.0209C555.203 77.585 540.416 63.4017 523.959 51.8196L519.354 58.3618C535.237 69.5395 548.373 82.4641 554.198 100.482L561.81 98.0209ZM529.077 201.581C562.649 176.517 574.486 137.286 561.811 98.0227L554.198 100.48C565.846 136.562 555.058 172.201 524.291 195.17L529.077 201.581ZM432.25 236.287C465.84 230.479 500.073 223.237 529.078 201.581L524.291 195.17C496.973 215.568 464.49 222.594 430.887 228.404L432.25 236.287ZM344.241 243.965C373.509 242.661 403.029 241.352 432.252 236.287L430.886 228.404C402.248 233.368 373.238 234.666 343.885 235.973L344.241 243.965ZM339.248 244.188C340.912 244.114 342.576 244.039 344.241 243.965L343.885 235.973C342.22 236.047 340.555 236.122 338.889 236.196L339.248 244.188ZM214.789 241.252C256.153 245.319 297.762 246.3 339.272 244.187L338.865 236.198C297.752 238.29 256.541 237.319 215.572 233.29L214.789 241.252ZM131.254 226.844C158.726 233.571 186.633 238.385 214.776 241.25L215.586 233.292C187.811 230.464 160.269 225.713 133.157 219.074L131.254 226.844ZM130.78 219.221C70.2034 242.321 39.2627 244.132 21.3458 245.202L21.8226 253.187C40.3645 252.08 72.1355 250.146 133.631 226.696L130.78 219.221ZM21.3458 245.202C13.7546 245.655 7.52256 245.974 2.43547 248.136L5.56453 255.499C9.08949 254.001 13.696 253.673 21.8226 253.187L21.3458 245.202ZM5.56453 255.499C36.4153 242.388 64.4669 227.579 89.0903 212.665L84.9458 205.823C60.6141 220.56 32.9011 235.189 2.43547 248.136L5.56453 255.499ZM55.0864 197.592C64.8185 203.871 75.0516 208.836 85.5541 212.966L88.482 205.521C78.3627 201.542 68.622 196.805 59.4234 190.87L55.0864 197.592ZM24.0811 82.4835C15.3579 103.245 12.047 124.835 16.5317 144.933C21.0369 165.123 33.328 183.422 55.072 197.583L59.4378 190.879C39.2969 177.762 28.3525 161.174 24.3397 143.191C20.3064 125.115 23.1949 105.245 31.4566 85.5824L24.0811 82.4835ZM64.7899 44.728C48.3312 53.0602 31.8976 63.7679 24.0778 82.4914L31.4599 85.5745C38.1112 69.6488 52.2509 60.0426 68.4033 51.8655L64.7899 44.728ZM167.773 11.9571C132.195 18.5876 97.521 28.2246 64.7957 44.725L68.3975 51.8684C100.215 35.8257 134.092 26.3716 169.239 19.8217L167.773 11.9571ZM254.883 1.70414C225.661 3.25808 196.569 6.68202 167.785 11.9549L169.227 19.824C197.675 14.6126 226.427 11.2287 255.308 9.69285L254.883 1.70414Z" fill="black"/>
</svg>
