<svg width="367" height="166" viewBox="0 0 367 166" fill="none" xmlns="http://www.w3.org/2000/svg">
<path fill-rule="evenodd" clip-rule="evenodd" d="M165.116 161.903L185.404 163L185.952 162.934C189.687 162.862 193.426 162.824 197.166 162.785C202.564 162.729 207.965 162.673 213.367 162.517C233.423 162.314 253.417 160.244 273.088 156.333C295.986 151.288 317.852 143.7 337.218 130.014C347.658 122.667 356.672 113.916 360.686 101.502C368.537 77.1794 361.234 53.0101 340.464 37.5041C322.282 23.928 300.745 19.3223 279.054 15.5719C260.376 12.3343 241.482 11.4927 222.557 10.6496C221.483 10.6018 220.408 10.5539 219.333 10.5056C192.661 9.14786 165.925 9.77834 139.346 12.3917C121.294 14.2297 103.394 17.3176 85.7727 21.6326C46.3665 6.60596 26.1224 5.39717 14.353 4.69441C9.27901 4.39145 5.78012 4.18253 3 3.00101C22.7936 11.4131 40.7952 20.9157 56.5985 30.4874C49.9418 33.1054 43.4943 36.2373 37.3834 40.1798C10.3411 57.7913 7.38009 85.2285 18.3462 111.328C23.0177 122.513 32.8873 129.071 43.4148 134.4C64.2503 144.906 86.3799 151.069 109.211 155.324C127.687 158.708 146.36 160.906 165.116 161.903Z" fill="white"/>
<path d="M185.404 163L185.711 165.564C185.563 165.582 185.413 165.587 185.264 165.579L185.404 163ZM165.116 161.903L165.254 159.324L165.256 159.325L165.116 161.903ZM185.952 162.934L185.644 160.37C185.73 160.36 185.816 160.354 185.902 160.352L185.952 162.934ZM197.166 162.785L197.193 165.367L197.166 162.785ZM213.367 162.517L213.293 159.936C213.309 159.936 213.325 159.935 213.341 159.935L213.367 162.517ZM273.088 156.333L273.644 158.855C273.627 158.858 273.609 158.862 273.592 158.866L273.088 156.333ZM337.218 130.014L335.728 127.905L335.732 127.902L337.218 130.014ZM360.686 101.502L363.143 102.296L363.143 102.297L360.686 101.502ZM340.464 37.5041L338.919 39.5735L338.919 39.5734L340.464 37.5041ZM279.054 15.5719L278.614 18.1167L278.613 18.1165L279.054 15.5719ZM222.557 10.6496L222.442 13.2296L222.442 13.2296L222.557 10.6496ZM219.333 10.5056L219.217 13.0855C219.212 13.0853 219.207 13.085 219.201 13.0848L219.333 10.5056ZM139.346 12.3917L139.085 9.82245L139.093 9.82157L139.346 12.3917ZM85.7727 21.6326L86.3869 24.141C85.8776 24.2658 85.3424 24.2325 84.8525 24.0457L85.7727 21.6326ZM14.353 4.69441L14.5069 2.11646L14.5069 2.11646L14.353 4.69441ZM1.98988 5.37781C0.677208 4.81994 0.0653212 3.30356 0.623194 1.99089C1.18107 0.678215 2.69744 0.0663283 4.01012 0.624201L1.98988 5.37781ZM56.5985 30.4874L57.9364 28.2785C58.7763 28.7872 59.2551 29.7282 59.1717 30.7065C59.0884 31.6849 58.4575 32.5314 57.5437 32.8908L56.5985 30.4874ZM37.3834 40.1798L35.974 38.0157L35.9834 38.0097L37.3834 40.1798ZM18.3462 111.328L20.7271 110.327L20.7292 110.333L18.3462 111.328ZM43.4148 134.4L42.2521 136.706L42.2483 136.705L43.4148 134.4ZM109.211 155.324L108.746 157.864L108.738 157.863L109.211 155.324ZM185.264 165.579L164.977 164.482L165.256 159.325L185.543 160.421L185.264 165.579ZM186.26 165.498L185.711 165.564L185.096 160.436L185.644 160.37L186.26 165.498ZM197.193 165.367C193.45 165.406 189.723 165.445 186.002 165.516L185.902 160.352C189.651 160.28 193.401 160.241 197.14 160.202L197.193 165.367ZM213.441 165.099C208.012 165.255 202.587 165.311 197.193 165.367L197.14 160.202C202.541 160.146 207.919 160.091 213.293 159.936L213.441 165.099ZM273.592 158.866C253.763 162.808 233.61 164.895 213.393 165.1L213.341 159.935C233.237 159.733 253.07 157.679 272.585 153.8L273.592 158.866ZM338.709 132.123C318.957 146.081 296.725 153.77 273.644 158.855L272.533 153.811C295.247 148.807 316.747 141.318 335.728 127.905L338.709 132.123ZM363.143 102.297C358.877 115.491 349.33 124.648 338.705 132.126L335.732 127.902C345.986 120.685 354.467 112.341 358.228 100.708L363.143 102.297ZM342.009 35.4346C363.684 51.6167 371.326 76.9458 363.143 102.296L358.228 100.709C365.748 77.4129 358.783 54.4035 338.919 39.5735L342.009 35.4346ZM279.494 13.0271C301.181 16.7768 323.283 21.4523 342.009 35.4347L338.919 39.5734C321.282 26.4038 300.309 21.8678 278.614 18.1167L279.494 13.0271ZM222.672 8.06966C241.569 8.91145 260.628 9.75699 279.495 13.0273L278.613 18.1165C260.124 14.9117 241.394 14.0739 222.442 13.2296L222.672 8.06966ZM219.449 7.92561C220.523 7.97391 221.597 8.02177 222.672 8.06966L222.442 13.2296C221.368 13.1818 220.292 13.1338 219.217 13.0855L219.449 7.92561ZM139.093 9.82157C165.799 7.19564 192.664 6.56213 219.464 7.92635L219.201 13.0848C192.657 11.7336 166.05 12.361 139.599 14.9619L139.093 9.82157ZM85.1584 19.1242C102.895 14.7808 120.914 11.6725 139.085 9.82246L139.608 14.961C121.675 16.7869 103.892 19.8545 86.3869 24.141L85.1584 19.1242ZM84.8525 24.0457C45.7428 9.13205 25.7667 7.96308 14.1991 7.27237L14.5069 2.11646C26.4781 2.83126 46.9902 4.07986 86.6928 19.2196L84.8525 24.0457ZM14.1991 7.27237C9.29789 6.97972 5.27429 6.77365 1.98989 5.37781L4.01011 0.624199C6.28596 1.5914 9.26012 1.80318 14.5069 2.11646L14.1991 7.27237ZM4.01012 0.624201C23.9281 9.08914 42.0389 18.6497 57.9364 28.2785L55.2606 32.6964C39.5514 23.1817 21.6592 13.7371 1.98988 5.37781L4.01012 0.624201ZM35.9834 38.0097C42.2664 33.9561 48.8729 30.7507 55.6533 28.0841L57.5437 32.8908C51.0107 35.4601 44.7222 38.5185 38.7835 42.3499L35.9834 38.0097ZM15.9653 112.328C10.3332 98.9239 8.19558 84.9846 11.0911 72.0084C13.9998 58.973 21.9354 47.1585 35.9741 38.0157L38.7928 42.3439C25.7891 50.8126 18.723 61.5225 16.1322 73.1333C13.5281 84.8034 15.3931 97.6324 20.7271 110.327L15.9653 112.328ZM42.2483 136.705C31.622 131.325 21.0119 124.412 15.9631 112.323L20.7292 110.333C25.0236 120.615 34.1527 126.817 44.5812 132.096L42.2483 136.705ZM108.738 157.863C85.7673 153.582 63.3807 147.36 42.2521 136.706L44.5775 132.094C65.12 142.452 86.9925 148.556 109.684 152.785L108.738 157.863ZM164.979 164.482C146.113 163.479 127.33 161.268 108.746 157.864L109.677 152.783C128.044 156.148 146.607 158.333 165.254 159.324L164.979 164.482Z" fill="black"/>
</svg>
