<svg width="367" height="166" viewBox="0 0 367 166" fill="none" xmlns="http://www.w3.org/2000/svg">
<path fill-rule="evenodd" clip-rule="evenodd" d="M165.116 4.09661L185.404 3L185.952 3.06579C189.687 3.13762 193.426 3.17637 197.166 3.21514C202.564 3.27108 207.965 3.32706 213.367 3.48251C233.423 3.68579 253.417 5.75637 273.088 9.6674C295.986 14.7118 317.852 22.3003 337.218 35.986C347.658 43.3333 356.672 52.0842 360.686 64.4978C368.537 88.8206 361.234 112.99 340.464 128.496C322.282 142.072 300.745 146.678 279.054 150.428C260.376 153.666 241.482 154.507 222.557 155.35C221.483 155.398 220.408 155.446 219.333 155.494C192.661 156.852 165.925 156.222 139.346 153.608C121.294 151.77 103.394 148.682 85.7727 144.367C46.3665 159.394 26.1224 160.603 14.353 161.306C9.27901 161.609 5.78012 161.817 3 162.999C22.7936 154.587 40.7952 145.084 56.5985 135.513C49.9418 132.895 43.4943 129.763 37.3834 125.82C10.3411 108.209 7.38009 80.7715 18.3462 54.6722C23.0177 43.4868 32.8873 36.9291 43.4148 31.5996C64.2503 21.0941 86.3799 14.9311 109.211 10.6763C127.687 7.29176 146.36 5.09404 165.116 4.09661Z" fill="white"/>
<path d="M185.404 3L185.711 0.435849C185.563 0.41805 185.413 0.413155 185.264 0.421218L185.404 3ZM165.116 4.09661L165.254 6.67551L165.256 6.67539L165.116 4.09661ZM185.952 3.06579L185.644 5.62994C185.73 5.64022 185.816 5.6462 185.902 5.64786L185.952 3.06579ZM197.166 3.21514L197.193 0.632733L197.193 0.632733L197.166 3.21514ZM213.367 3.48251L213.293 6.06399C213.309 6.06445 213.325 6.06476 213.341 6.06492L213.367 3.48251ZM273.088 9.6674L273.644 7.14533C273.627 7.14152 273.609 7.13789 273.592 7.13443L273.088 9.6674ZM337.218 35.986L335.728 38.0951L335.732 38.098L337.218 35.986ZM360.686 64.4978L363.143 63.7045L363.143 63.7033L360.686 64.4978ZM340.464 128.496L338.919 126.427L338.919 126.427L340.464 128.496ZM279.054 150.428L278.614 147.883L278.613 147.884L279.054 150.428ZM222.557 155.35L222.442 152.77L222.442 152.77L222.557 155.35ZM219.333 155.494L219.217 152.915C219.212 152.915 219.207 152.915 219.201 152.915L219.333 155.494ZM139.346 153.608L139.084 156.178L139.093 156.178L139.346 153.608ZM85.7727 144.367L86.3869 141.859C85.8776 141.734 85.3424 141.768 84.8525 141.954L85.7727 144.367ZM14.353 161.306L14.5069 163.884L14.5069 163.884L14.353 161.306ZM1.98988 160.622C0.677208 161.18 0.0653212 162.696 0.623194 164.009C1.18107 165.322 2.69744 165.934 4.01012 165.376L1.98988 160.622ZM56.5985 135.513L57.9364 137.722C58.7763 137.213 59.2551 136.272 59.1717 135.293C59.0884 134.315 58.4575 133.469 57.5437 133.109L56.5985 135.513ZM37.3834 125.82L35.974 127.984L35.9834 127.99L37.3834 125.82ZM18.3462 54.6722L20.7271 55.6726L20.7292 55.6675L18.3462 54.6722ZM43.4148 31.5996L42.2521 29.2936L42.2483 29.2955L43.4148 31.5996ZM109.211 10.6763L108.746 8.13598L108.738 8.13743L109.211 10.6763ZM185.264 0.421218L164.977 1.51783L165.256 6.67539L185.543 5.57878L185.264 0.421218ZM186.26 0.501643L185.711 0.435849L185.096 5.56415L185.644 5.62994L186.26 0.501643ZM197.193 0.632733C193.45 0.593942 189.723 0.555295 186.002 0.483725L185.902 5.64786C189.651 5.71995 193.401 5.7588 197.14 5.79755L197.193 0.632733ZM213.441 0.901033C208.012 0.744789 202.586 0.68863 197.193 0.632733L197.14 5.79755C202.541 5.85353 207.919 5.90934 213.293 6.06399L213.441 0.901033ZM273.592 7.13443C253.763 3.19214 233.61 1.105 213.393 0.900097L213.341 6.06492C233.237 6.26658 253.07 8.32061 272.585 12.2004L273.592 7.13443ZM338.709 33.877C318.957 19.9189 296.725 12.2301 273.644 7.14533L272.533 12.1895C295.247 17.1935 316.747 24.6817 335.728 38.0951L338.709 33.877ZM363.143 63.7033C358.877 50.5092 349.33 41.3519 338.705 33.8741L335.732 38.098C345.986 45.3147 354.467 53.6593 358.228 65.2924L363.143 63.7033ZM342.009 130.565C363.684 114.383 371.326 89.0542 363.143 63.7045L358.228 65.2912C365.748 88.5871 358.783 111.596 338.919 126.427L342.009 130.565ZM279.494 152.973C301.181 149.223 323.283 144.548 342.009 130.565L338.919 126.427C321.282 139.596 300.309 144.132 278.614 147.883L279.494 152.973ZM222.672 157.93C241.569 157.089 260.628 156.243 279.495 152.973L278.613 147.884C260.124 151.088 241.394 151.926 222.442 152.77L222.672 157.93ZM219.449 158.074C220.523 158.026 221.597 157.978 222.672 157.93L222.442 152.77C221.368 152.818 220.292 152.866 219.217 152.915L219.449 158.074ZM139.093 156.178C165.799 158.804 192.664 159.438 219.464 158.074L219.201 152.915C192.657 154.266 166.05 153.639 139.599 151.038L139.093 156.178ZM85.1584 146.876C102.895 151.219 120.914 154.327 139.084 156.178L139.608 151.039C121.675 149.213 103.892 146.146 86.3869 141.859L85.1584 146.876ZM84.8525 141.954C45.7428 156.868 25.7667 158.037 14.1991 158.728L14.5069 163.884C26.4781 163.169 46.9902 161.92 86.6928 146.78L84.8525 141.954ZM14.1991 158.728C9.29789 159.02 5.27429 159.226 1.98989 160.622L4.01011 165.376C6.28596 164.409 9.26012 164.197 14.5069 163.884L14.1991 158.728ZM4.01012 165.376C23.9281 156.911 42.0389 147.35 57.9364 137.722L55.2606 133.304C39.5514 142.818 21.6592 152.263 1.98988 160.622L4.01012 165.376ZM35.9834 127.99C42.2664 132.044 48.8729 135.249 55.6533 137.916L57.5437 133.109C51.0107 130.54 44.7222 127.481 38.7835 123.65L35.9834 127.99ZM15.9653 53.6718C10.3332 67.0761 8.19558 81.0154 11.0911 93.9916C13.9998 107.027 21.9354 118.841 35.9741 127.984L38.7928 123.656C25.7891 115.187 18.723 104.478 16.1322 92.8667C13.5281 81.1966 15.3931 68.3676 20.7271 55.6726L15.9653 53.6718ZM42.2483 29.2955C31.622 34.675 21.0119 41.5884 15.9631 53.6769L20.7292 55.6675C25.0236 45.3852 34.1527 39.1832 44.5812 33.9037L42.2483 29.2955ZM108.738 8.13743C85.7673 12.4183 63.3807 18.6403 42.2521 29.2936L44.5775 33.9056C65.12 23.5479 86.9925 17.444 109.684 13.2151L108.738 8.13743ZM164.979 1.51771C146.113 2.52099 127.33 4.73161 108.746 8.13599L109.677 13.2165C128.044 9.8519 146.607 7.66709 165.254 6.67551L164.979 1.51771Z" fill="black"/>
</svg>
