<svg width="367" height="166" viewBox="0 0 367 166" fill="none" xmlns="http://www.w3.org/2000/svg">
<path fill-rule="evenodd" clip-rule="evenodd" d="M201.649 161.903L181.362 163L180.814 162.934C177.079 162.862 173.34 162.824 169.599 162.785C164.202 162.729 158.8 162.673 153.398 162.517C133.342 162.314 113.349 160.244 93.6772 156.333C70.7799 151.288 48.9136 143.7 29.5475 130.014C19.1078 122.667 10.0936 113.916 6.08002 101.502C-1.7717 77.1794 5.53165 53.0101 26.3014 37.5041C44.4832 23.928 66.0206 19.3223 87.7115 15.5719C106.39 12.3343 125.284 11.4927 144.208 10.6496C145.283 10.6018 146.358 10.5539 147.433 10.5056C174.105 9.14786 200.841 9.77834 227.42 12.3917C245.471 14.2297 263.372 17.3176 280.993 21.6326C320.399 6.60596 340.643 5.39717 352.413 4.69441C357.487 4.39145 360.986 4.18253 363.766 3.00101C343.972 11.4131 325.97 20.9157 310.167 30.4874C316.824 33.1054 323.271 36.2373 329.382 40.1798C356.425 57.7913 359.386 85.2285 348.419 111.328C343.748 122.513 333.878 129.071 323.351 134.4C302.515 144.906 280.386 151.069 257.554 155.324C239.079 158.708 220.406 160.906 201.649 161.903Z" fill="white"/>
<path d="M181.362 163L181.054 165.564C181.203 165.582 181.352 165.587 181.501 165.579L181.362 163ZM201.649 161.903L201.512 159.324L201.51 159.325L201.649 161.903ZM180.814 162.934L181.121 160.37C181.036 160.36 180.95 160.354 180.863 160.352L180.814 162.934ZM169.599 162.785L169.572 165.367L169.599 162.785ZM153.398 162.517L153.473 159.936C153.457 159.936 153.441 159.935 153.425 159.935L153.398 162.517ZM93.6772 156.333L93.1215 158.855C93.1388 158.858 93.1562 158.862 93.1736 158.866L93.6772 156.333ZM29.5475 130.014L31.0379 127.905L31.0338 127.902L29.5475 130.014ZM6.08002 101.502L3.62235 102.296L3.62272 102.297L6.08002 101.502ZM26.3014 37.5041L27.8464 39.5735L27.8466 39.5734L26.3014 37.5041ZM87.7115 15.5719L88.1515 18.1167L88.1526 18.1165L87.7115 15.5719ZM144.208 10.6496L144.323 13.2296L144.323 13.2296L144.208 10.6496ZM147.433 10.5056L147.549 13.0855C147.554 13.0853 147.559 13.085 147.564 13.0848L147.433 10.5056ZM227.42 12.3917L227.681 9.82245L227.672 9.82157L227.42 12.3917ZM280.993 21.6326L280.379 24.141C280.888 24.2658 281.423 24.2325 281.913 24.0457L280.993 21.6326ZM352.413 4.69441L352.259 2.11646L352.259 2.11646L352.413 4.69441ZM364.776 5.37781C366.088 4.81994 366.7 3.30356 366.142 1.99089C365.585 0.678215 364.068 0.0663283 362.756 0.624201L364.776 5.37781ZM310.167 30.4874L308.829 28.2785C307.989 28.7872 307.511 29.7282 307.594 30.7065C307.677 31.6849 308.308 32.5314 309.222 32.8908L310.167 30.4874ZM329.382 40.1798L330.792 38.0157L330.782 38.0097L329.382 40.1798ZM348.419 111.328L346.039 110.327L346.036 110.333L348.419 111.328ZM323.351 134.4L324.514 136.706L324.517 136.705L323.351 134.4ZM257.554 155.324L258.02 157.864L258.027 157.863L257.554 155.324ZM181.501 165.579L201.789 164.482L201.51 159.325L181.223 160.421L181.501 165.579ZM180.506 165.498L181.054 165.564L181.67 160.436L181.121 160.37L180.506 165.498ZM169.572 165.367C173.315 165.406 177.042 165.445 180.764 165.516L180.863 160.352C177.115 160.28 173.365 160.241 169.626 160.202L169.572 165.367ZM153.324 165.099C158.754 165.255 164.179 165.311 169.572 165.367L169.626 160.202C164.225 160.146 158.847 160.091 153.473 159.936L153.324 165.099ZM93.1736 158.866C113.003 162.808 133.156 164.895 153.372 165.1L153.425 159.935C133.529 159.733 113.695 157.679 94.1807 153.8L93.1736 158.866ZM28.057 132.123C47.8085 146.081 70.0409 153.77 93.1215 158.855L94.2328 153.811C71.5189 148.807 50.0186 141.318 31.0379 127.905L28.057 132.123ZM3.62272 102.297C7.8887 115.491 17.4359 124.648 28.0611 132.126L31.0338 127.902C20.7796 120.685 12.2986 112.341 8.53731 100.708L3.62272 102.297ZM24.7564 35.4346C3.08113 51.6167 -4.56086 76.9458 3.62235 102.296L8.53768 100.709C1.01746 77.4129 7.98216 54.4035 27.8464 39.5735L24.7564 35.4346ZM87.2715 13.0271C65.5846 16.7768 43.4824 21.4523 24.7563 35.4347L27.8466 39.5734C45.484 26.4038 66.4566 21.8678 88.1515 18.1167L87.2715 13.0271ZM144.093 8.06966C125.196 8.91145 106.137 9.75699 87.2705 13.0273L88.1526 18.1165C106.642 14.9117 125.371 14.0739 144.323 13.2296L144.093 8.06966ZM147.317 7.92561C146.243 7.97391 145.168 8.02177 144.093 8.06966L144.323 13.2296C145.398 13.1818 146.473 13.1338 147.549 13.0855L147.317 7.92561ZM227.672 9.82157C200.966 7.19564 174.102 6.56213 147.302 7.92635L147.564 13.0848C174.108 11.7336 200.716 12.361 227.167 14.9619L227.672 9.82157ZM281.607 19.1242C263.87 14.7808 245.852 11.6725 227.681 9.82246L227.158 14.961C245.091 16.7869 262.874 19.8545 280.379 24.141L281.607 19.1242ZM281.913 24.0457C321.023 9.13205 340.999 7.96308 352.567 7.27237L352.259 2.11646C340.288 2.83126 319.775 4.07986 280.073 19.2196L281.913 24.0457ZM352.567 7.27237C357.468 6.97972 361.491 6.77365 364.776 5.37781L362.756 0.624199C360.48 1.5914 357.506 1.80318 352.259 2.11646L352.567 7.27237ZM362.756 0.624201C342.838 9.08914 324.727 18.6497 308.829 28.2785L311.505 32.6964C327.214 23.1817 345.106 13.7371 364.776 5.37781L362.756 0.624201ZM330.782 38.0097C324.499 33.9561 317.893 30.7507 311.112 28.0841L309.222 32.8908C315.755 35.4601 322.043 38.5185 327.982 42.3499L330.782 38.0097ZM350.8 112.328C356.432 98.9239 358.57 84.9846 355.675 72.0084C352.766 58.973 344.83 47.1585 330.792 38.0157L327.973 42.3439C340.977 50.8126 348.043 61.5225 350.633 73.1333C353.237 84.8034 351.373 97.6324 346.039 110.327L350.8 112.328ZM324.517 136.705C335.144 131.325 345.754 124.412 350.803 112.323L346.036 110.333C341.742 120.615 332.613 126.817 322.184 132.096L324.517 136.705ZM258.027 157.863C280.998 153.582 303.385 147.36 324.514 136.706L322.188 132.094C301.646 142.452 279.773 148.556 257.081 152.785L258.027 157.863ZM201.786 164.482C220.653 163.479 239.436 161.268 258.02 157.864L257.089 152.783C238.722 156.148 220.158 158.333 201.512 159.324L201.786 164.482Z" fill="black"/>
</svg>
