<svg width="301" height="300" viewBox="0 0 301 300" fill="none" xmlns="http://www.w3.org/2000/svg">
<path d="M80.5132 190.896C101.914 190.562 122.537 190.275 142.914 186.188C163.47 182.065 183.002 175.534 200.462 163.644C214.838 153.851 226.703 141.686 235.604 126.706C238.251 122.255 241.252 118.03 243.792 113.507C248.008 105.996 247.715 98.1034 246.625 89.9714C245.828 84.0501 244.678 78.2065 243.63 72.339C243.42 71.1559 243.54 70.1282 244.373 69.3036C246.906 66.7941 249.967 65.1151 253.405 64.3025C255.519 63.8006 257.664 65.2047 257.993 66.8479C258.7 70.4031 261.317 72.811 262.527 75.9897C262.857 76.8561 263.042 77.6867 262.959 78.5949C261.809 90.3478 264.204 101.306 270.194 111.529C272.506 115.479 274.417 119.548 274.794 124.322C275.142 128.738 277.891 132.711 277.478 137.389C276.711 146.131 277.478 155.01 274.051 163.477C270.266 172.828 265.007 181.133 258.155 188.5C255.106 191.78 252.111 195.085 248.733 198.06C243.121 203.008 237.149 207.465 230.968 211.648C215.766 221.937 198.809 228.372 181.343 233.421C167.555 237.406 153.485 240.166 139.08 241.278C129.018 242.055 118.967 242.664 108.91 242.246C94.1936 241.636 79.4231 241.188 65.0419 237.394C62.6221 236.755 60.3879 235.649 58.1058 234.657C49.2651 230.81 40.61 226.615 32.2784 221.721C27.9958 219.206 26.8757 215.256 26.2049 210.901C26.133 210.417 26.2707 209.897 26.1869 209.419C25.3963 204.854 25.4262 204.926 29.619 202.655C39.7415 197.176 50.7984 194.332 61.8853 191.906C68.1445 190.532 74.7691 190.603 80.5072 190.902L80.5132 190.896Z" fill="black"/>
</svg>
