<svg width="500" height="500" viewBox="0 0 500 500" fill="none" xmlns="http://www.w3.org/2000/svg">
<path d="M133.231 317.922C168.961 317.362 203.391 316.882 237.411 310.042C271.731 303.142 304.341 292.212 333.491 272.312C357.491 255.922 377.301 235.562 392.161 210.492C396.581 203.042 401.591 195.972 405.831 188.402C412.871 175.832 412.381 162.622 410.561 149.012C409.231 139.102 407.311 129.322 405.561 119.502C405.211 117.522 405.411 115.802 406.801 114.422C411.031 110.222 416.141 107.412 421.881 106.052C425.411 105.212 428.991 107.562 429.541 110.312C430.721 116.262 435.091 120.292 437.111 125.612C437.661 127.062 437.971 128.452 437.831 129.972C435.911 149.642 439.911 167.982 449.911 185.092C453.771 191.702 456.961 198.512 457.591 206.502C458.171 213.892 462.761 220.542 462.071 228.372C460.791 243.002 462.071 257.862 456.351 272.032C450.031 287.682 441.251 301.582 429.811 313.912C424.721 319.402 419.721 324.932 414.081 329.912C404.711 338.192 394.741 345.652 384.421 352.652C359.041 369.872 330.731 380.642 301.571 389.092C278.551 395.762 255.061 400.382 231.011 402.242C214.211 403.542 197.431 404.562 180.641 403.862C156.071 402.842 131.411 402.092 107.401 395.742C103.361 394.672 99.6307 392.822 95.8207 391.162C81.0607 384.722 66.6107 377.702 52.7007 369.512C45.5507 365.302 43.6807 358.692 42.5607 351.402C42.4407 350.592 42.6707 349.722 42.5307 348.922C41.2107 341.282 41.2607 341.402 48.2607 337.602C65.1607 328.432 83.6207 323.672 102.131 319.612C112.581 317.312 123.641 317.432 133.221 317.932L133.231 317.922Z" fill="black"/>
</svg>
