<svg width="321" height="390" viewBox="0 0 321 390" fill="none" xmlns="http://www.w3.org/2000/svg">
<path d="M273.776 342.83C270.46 346.971 265.946 348.52 261.373 349.762C258.305 350.594 254.938 351.171 253.499 346.957C253.083 345.73 252.359 345.737 251.22 346.051C245.537 347.607 243.777 346.621 241.834 340.996C241.439 339.85 241.008 338.71 240.687 337.549C240.19 335.752 239.701 334.663 237.21 335.24C235.011 335.752 233.134 334.094 234.339 331.698C236.005 328.389 235.377 325.292 234.42 322.151C233.587 319.426 233.711 316.95 234.975 314.393C235.778 312.772 236.297 311.033 236.611 309.2C237.422 304.489 241.6 302.502 244.799 299.879C247.663 297.535 249.657 294.489 252.206 291.91C253.791 290.303 253.74 288.543 252.089 286.198C247.509 279.683 242.915 273.043 243.083 264.402C243.149 260.939 244.251 257.74 245.895 255.081C249.27 249.61 251.461 243.43 255.793 238.522C257.531 236.55 257.553 233.796 258.269 231.371C258.444 230.786 258.123 229.559 257.714 229.391C254.821 228.171 253.302 225.849 252.067 223.146C251.739 222.43 250.687 222.503 250.154 223.088C248.693 224.695 246.961 226.207 246.005 228.098C240.818 238.39 237.867 248.975 240.504 260.779C241.52 265.329 242.469 270.304 240.65 275.168C239.847 277.309 238.956 279.098 236.998 280.384C233.594 282.626 231.943 285.263 233.2 289.843C234.741 295.453 232.272 300.793 230.402 306.096C227.532 314.225 224.865 322.436 222.28 330.661C221.593 332.845 221.746 334.999 222.995 337.293C225.494 341.902 224.274 346.672 221.812 350.85C217.985 357.344 214.909 364.247 210.702 370.528C209.621 372.15 208.408 373.655 207.284 375.225C206.049 376.956 205.801 378.176 208.306 378.98C210.841 379.798 213.164 381.222 215.859 381.638C217.218 381.843 218.693 382.318 218.467 384.064C218.284 385.481 216.925 385.824 215.662 385.912C209.073 386.401 202.521 385.692 196.013 384.977C192.127 384.553 191.586 382.99 193.5 379.79C194.179 378.658 193.697 377.687 193.412 376.65C189.789 363.633 188.957 350.529 192.93 337.49C193.865 334.415 193.084 331.785 192.733 328.988C192.083 323.685 191.331 318.382 190.315 313.13C190.14 312.239 191.177 308.601 187.532 310.602C186.831 310.99 186.415 309.251 186.327 308.302C186.174 306.607 186.254 304.883 185.998 303.21C185.772 301.713 184.983 300.42 183.354 300.055C181.864 299.711 180.761 300.457 179.928 301.625C177.752 304.686 175.597 307.754 173.303 310.741C171.134 313.575 170.527 316.972 170.776 320.675C171.031 324.474 169.885 325.043 166.576 323.078C165.202 322.26 164.406 322.421 163.501 323.561C162.441 324.89 161.2 326.088 160.257 327.498C157.438 331.734 154.436 335.832 150.944 339.528C149.746 340.792 149.374 342.041 149.512 343.779C150.418 355.313 147.204 366.153 143.501 376.854C142.865 378.68 142.478 379.732 144.684 380.419C146.233 380.901 147.248 382.223 148.388 383.318C149.257 384.151 150.506 384.845 150.141 386.269C149.732 387.862 148.329 388.527 146.861 388.826C141.828 389.871 136.708 390.097 131.609 389.659C127.818 389.33 126.876 386.949 129.14 383.837C129.98 382.683 130.952 381.733 129.688 380.389C122.829 373.092 122.07 363.275 118.746 354.488C116 347.212 116.54 339.316 113.83 332.26C110.616 323.897 107.117 315.613 103.399 307.425C100.821 301.757 99.2211 295.424 101.968 289.054C103.509 285.475 102.888 281.75 101.946 278.287C100.638 273.474 100.762 268.66 100.719 263.803C100.616 253.343 97.7091 243.745 92.3403 234.767C90.4192 231.561 88.374 228.084 87.8042 224.497C86.6574 217.31 81.0841 214.183 76.3873 210.129C75.7007 209.538 74.9337 209.297 74.0718 209.91C69.7476 212.985 68.1187 218.004 71.077 222.569C74.8607 228.42 77.5707 234.775 80.4705 240.998C83.9621 248.485 84.8751 256.389 81.705 264.621C79.7401 269.727 77.6802 274.73 75.3793 279.69C73.8673 282.955 76.8402 285.818 78.3961 288.484C80.6458 292.356 83.7429 295.687 86.9496 298.857C90.8502 302.706 92.1139 308.141 95.0722 312.567C95.8465 313.729 95.3936 315.19 95.2183 316.512C94.8238 319.572 94.685 322.414 96.8326 325.153C98.4542 327.227 97.154 329.185 94.7581 329.222C91.8874 329.265 91.2812 330.777 91.0182 333.027C90.894 334.116 90.7333 335.204 90.4923 336.263C89.1336 342.26 87.9138 343.188 81.8876 342.706C80.5509 342.596 79.3822 342.435 79.4479 344.335C79.5356 347.161 77.5341 347.746 75.3501 347.943C69.8644 348.454 64.6783 347.622 60.0984 344.291C59.5286 343.874 58.9004 343.538 58.2576 343.144C56.8917 347.768 56.2927 347.928 52.9984 344.51C44.4741 335.649 36.9943 326.095 31.5525 314.919C29.7556 311.231 27.104 307.739 24.6059 304.321C16.2058 292.831 7.95901 281.246 3.47406 267.506C0.844446 259.457 -0.441141 251.327 0.734879 242.766C1.83055 234.811 2.44413 226.82 5.36592 219.238C5.8261 218.04 5.97219 216.543 5.74575 215.279C4.56973 208.793 4.90573 202.153 3.91963 195.71C2.42221 185.959 3.56171 176.879 8.24388 168.224C8.53606 167.69 8.75519 167.048 9.19346 166.675C17.2576 159.816 16.7244 149.743 18.9522 140.7C20.1648 135.777 21.0851 130.715 22.904 126.018C25.2633 119.948 29.5218 114.937 34.708 111.095C40.3105 106.939 45.8327 102.622 52.7793 100.497C59.9523 98.3052 67.359 98.0568 74.6416 96.815C81.3398 95.6756 87.9138 96.5959 94.444 98.3563C98.1255 99.3497 101.493 97.0123 104.984 96.311C111.741 94.9524 118.249 92.3739 124.867 90.3214C126.744 89.737 127.84 88.5537 128.665 86.7276C135.473 71.6657 142.369 56.6477 149.271 41.6297C149.775 40.5414 150.382 39.38 151.258 38.6057C155.918 34.5006 157.182 28.4306 160.214 23.3905C161.185 21.7762 160.623 19.8113 160.659 17.9998C160.747 13.1277 160.827 8.24099 163.318 3.82908C165.538 -0.100724 168.497 -0.429426 171.397 3.01829C173.354 5.34111 175.173 7.78081 176.955 10.2424C179.001 13.0692 181.747 14.216 185.158 14.1065C186.619 14.0553 188.087 14.0261 189.541 14.1576C194.23 14.5886 197.817 12.8136 200.52 9.00796C201.71 7.32062 202.996 5.69172 204.325 4.11396C205.056 3.25203 206.042 2.70419 207.247 3.07672C208.503 3.46386 208.861 4.53031 208.861 5.66981C208.861 8.46743 209.132 11.3308 208.598 14.0334C208.014 16.9917 208.993 18.9932 211.023 20.8047C212.842 22.419 214.654 24.0406 216.524 25.5964C218.971 27.6271 220.651 30.2348 221.023 33.2953C221.812 39.6795 222.382 46.1074 222.718 52.528C222.93 56.5455 222.031 60.4242 220.548 64.259C218.474 69.6278 218.401 75.4422 217.729 81.1104C217.488 83.1776 218.766 84.5216 220.468 85.4712C227.028 89.1454 233.258 93.2943 239.131 97.9911C239.942 98.6412 240.884 98.7069 241.892 98.6558C254.317 98.0787 266.691 98.7361 278.853 101.322C284.032 102.425 289.211 103.908 294.105 106.121C299.641 108.626 302.088 113.813 304.835 118.634C311.876 131 314.82 144.389 314.097 158.567C313.929 161.854 314.601 164.849 316.303 167.625C320.525 174.491 321.036 182.088 320.452 189.801C319.656 200.254 317.209 210.458 314.762 220.597C313.257 226.842 313.922 232.963 314.287 239.077C315.134 253.138 314.25 266.922 310.971 280.676C308.472 291.151 303.126 299.938 297.004 308.462C296.442 309.244 295.66 310.077 295.558 310.953C294.806 317.542 290.861 322.903 288.758 328.973C287.216 333.422 282.768 335.985 281.022 340.375C280.496 341.705 279.612 342.925 278.758 344.101C278.057 345.072 277.253 346.197 275.887 346.088C274.193 345.949 274.821 344.137 273.805 342.779L273.776 342.83Z" fill="black"/>
</svg>
