<svg width="439" height="533" viewBox="0 0 439 533" fill="none" xmlns="http://www.w3.org/2000/svg">
<path d="M374.441 468.41C369.901 474.08 363.721 476.2 357.461 477.9C353.261 479.04 348.651 479.83 346.681 474.06C346.111 472.38 345.121 472.39 343.561 472.82C335.781 474.95 333.371 473.6 330.711 465.9C330.171 464.33 329.581 462.77 329.141 461.18C328.461 458.72 327.791 457.23 324.381 458.02C321.371 458.72 318.801 456.45 320.451 453.17C322.731 448.64 321.871 444.4 320.561 440.1C319.421 436.37 319.591 432.98 321.321 429.48C322.421 427.26 323.131 424.88 323.561 422.37C324.671 415.92 330.391 413.2 334.771 409.61C338.691 406.4 341.421 402.23 344.911 398.7C347.081 396.5 347.011 394.09 344.751 390.88C338.481 381.96 332.191 372.87 332.421 361.04C332.511 356.3 334.021 351.92 336.271 348.28C340.891 340.79 343.891 332.33 349.821 325.61C352.201 322.91 352.231 319.14 353.211 315.82C353.451 315.02 353.011 313.34 352.451 313.11C348.491 311.44 346.411 308.26 344.721 304.56C344.271 303.58 342.831 303.68 342.101 304.48C340.101 306.68 337.731 308.75 336.421 311.34C329.321 325.43 325.281 339.92 328.891 356.08C330.281 362.31 331.581 369.12 329.091 375.78C327.991 378.71 326.771 381.16 324.091 382.92C319.431 385.99 317.171 389.6 318.891 395.87C321.001 403.55 317.621 410.86 315.061 418.12C311.131 429.25 307.481 440.49 303.941 451.75C303.001 454.74 303.211 457.69 304.921 460.83C308.341 467.14 306.671 473.67 303.301 479.39C298.061 488.28 293.851 497.73 288.091 506.33C286.611 508.55 284.951 510.61 283.411 512.76C281.721 515.13 281.381 516.8 284.811 517.9C288.281 519.02 291.461 520.97 295.151 521.54C297.011 521.82 299.031 522.47 298.721 524.86C298.471 526.8 296.611 527.27 294.881 527.39C285.861 528.06 276.891 527.09 267.981 526.11C262.661 525.53 261.921 523.39 264.541 519.01C265.471 517.46 264.811 516.13 264.421 514.71C259.461 496.89 258.321 478.95 263.761 461.1C265.041 456.89 263.971 453.29 263.491 449.46C262.601 442.2 261.571 434.94 260.181 427.75C259.941 426.53 261.361 421.55 256.371 424.29C255.411 424.82 254.841 422.44 254.721 421.14C254.511 418.82 254.621 416.46 254.271 414.17C253.961 412.12 252.881 410.35 250.651 409.85C248.611 409.38 247.101 410.4 245.961 412C242.981 416.19 240.031 420.39 236.891 424.48C233.921 428.36 233.091 433.01 233.431 438.08C233.781 443.28 232.211 444.06 227.681 441.37C225.801 440.25 224.711 440.47 223.471 442.03C222.021 443.85 220.321 445.49 219.031 447.42C215.171 453.22 211.061 458.83 206.281 463.89C204.641 465.62 204.131 467.33 204.321 469.71C205.561 485.5 201.161 500.34 196.091 514.99C195.221 517.49 194.691 518.93 197.711 519.87C199.831 520.53 201.221 522.34 202.781 523.84C203.971 524.98 205.681 525.93 205.181 527.88C204.621 530.06 202.701 530.97 200.691 531.38C193.801 532.81 186.791 533.12 179.811 532.52C174.621 532.07 173.331 528.81 176.431 524.55C177.581 522.97 178.911 521.67 177.181 519.83C167.791 509.84 166.751 496.4 162.201 484.37C158.441 474.41 159.181 463.6 155.471 453.94C151.071 442.49 146.281 431.15 141.191 419.94C137.661 412.18 135.471 403.51 139.231 394.79C141.341 389.89 140.491 384.79 139.201 380.05C137.411 373.46 137.581 366.87 137.521 360.22C137.381 345.9 133.401 332.76 126.051 320.47C123.421 316.08 120.621 311.32 119.841 306.41C118.271 296.57 110.641 292.29 104.211 286.74C103.271 285.93 102.221 285.6 101.041 286.44C95.1207 290.65 92.8907 297.52 96.9407 303.77C102.121 311.78 105.831 320.48 109.801 329C114.581 339.25 115.831 350.07 111.491 361.34C108.801 368.33 105.981 375.18 102.831 381.97C100.761 386.44 104.831 390.36 106.961 394.01C110.041 399.31 114.281 403.87 118.671 408.21C124.011 413.48 125.741 420.92 129.791 426.98C130.851 428.57 130.231 430.57 129.991 432.38C129.451 436.57 129.261 440.46 132.201 444.21C134.421 447.05 132.641 449.73 129.361 449.78C125.431 449.84 124.601 451.91 124.241 454.99C124.071 456.48 123.851 457.97 123.521 459.42C121.661 467.63 119.991 468.9 111.741 468.24C109.911 468.09 108.311 467.87 108.401 470.47C108.521 474.34 105.781 475.14 102.791 475.41C95.2807 476.11 88.1807 474.97 81.9107 470.41C81.1307 469.84 80.2707 469.38 79.3907 468.84C77.5207 475.17 76.7007 475.39 72.1907 470.71C60.5207 458.58 50.2807 445.5 42.8307 430.2C40.3707 425.15 36.7407 420.37 33.3207 415.69C21.8207 399.96 10.5307 384.1 4.39065 365.29C0.790654 354.27 -0.969346 343.14 0.640654 331.42C2.14065 320.53 2.98065 309.59 6.98065 299.21C7.61065 297.57 7.81065 295.52 7.50065 293.79C5.89065 284.91 6.35065 275.82 5.00065 267C2.95065 253.65 4.51065 241.22 10.9207 229.37C11.3207 228.64 11.6207 227.76 12.2207 227.25C23.2607 217.86 22.5307 204.07 25.5807 191.69C27.2407 184.95 28.5007 178.02 30.9907 171.59C34.2207 163.28 40.0507 156.42 47.1507 151.16C54.8207 145.47 62.3807 139.56 71.8907 136.65C81.7107 133.65 91.8507 133.31 101.821 131.61C110.991 130.05 119.991 131.31 128.931 133.72C133.971 135.08 138.581 131.88 143.361 130.92C152.611 129.06 161.521 125.53 170.581 122.72C173.151 121.92 174.651 120.3 175.781 117.8C185.101 97.1804 194.541 76.6204 203.991 56.0604C204.681 54.5704 205.511 52.9804 206.711 51.9204C213.091 46.3004 214.821 37.9904 218.971 31.0904C220.301 28.8804 219.531 26.1904 219.581 23.7104C219.701 17.0404 219.811 10.3504 223.221 4.31039C226.261 -1.06961 230.311 -1.51961 234.281 3.20039C236.961 6.38039 239.451 9.72039 241.891 13.0904C244.691 16.9604 248.451 18.5304 253.121 18.3804C255.121 18.3104 257.131 18.2704 259.121 18.4504C265.541 19.0404 270.451 16.6104 274.151 11.4004C275.781 9.09039 277.541 6.86039 279.361 4.70039C280.361 3.52039 281.711 2.77039 283.361 3.28039C285.081 3.81039 285.571 5.27039 285.571 6.83039C285.571 10.6604 285.941 14.5804 285.211 18.2804C284.411 22.3304 285.751 25.0704 288.531 27.5504C291.021 29.7604 293.501 31.9804 296.061 34.1104C299.411 36.8904 301.711 40.4604 302.221 44.6504C303.301 53.3904 304.081 62.1904 304.541 70.9804C304.831 76.4804 303.601 81.7904 301.571 87.0404C298.731 94.3904 298.631 102.35 297.711 110.11C297.381 112.94 299.131 114.78 301.461 116.08C310.441 121.11 318.971 126.79 327.011 133.22C328.121 134.11 329.411 134.2 330.791 134.13C347.801 133.34 364.741 134.24 381.391 137.78C388.481 139.29 395.571 141.32 402.271 144.35C409.851 147.78 413.201 154.88 416.961 161.48C426.601 178.41 430.631 196.74 429.641 216.15C429.411 220.65 430.331 224.75 432.661 228.55C438.441 237.95 439.141 248.35 438.341 258.91C437.251 273.22 433.901 287.19 430.551 301.07C428.491 309.62 429.401 318 429.901 326.37C431.061 345.62 429.851 364.49 425.361 383.32C421.941 397.66 414.621 409.69 406.241 421.36C405.471 422.43 404.401 423.57 404.261 424.77C403.231 433.79 397.831 441.13 394.951 449.44C392.841 455.53 386.751 459.04 384.361 465.05C383.641 466.87 382.431 468.54 381.261 470.15C380.301 471.48 379.201 473.02 377.331 472.87C375.011 472.68 375.871 470.2 374.481 468.34L374.441 468.41Z" fill="black"/>
</svg>
