<svg width="175" height="729" viewBox="0 0 175 729" fill="none" xmlns="http://www.w3.org/2000/svg">
<path d="M129.789 714.518C127.949 717.408 126.239 720.108 124.519 722.788C122.599 725.778 119.859 727.588 116.459 728.508C114.589 729.018 112.839 728.838 111.589 727.298C110.249 725.648 109.269 723.478 110.519 721.628C113.089 717.848 113.089 713.368 114.429 709.278C115.699 705.418 117.029 701.568 117.969 697.468C115.919 699.988 113.309 701.908 111.269 704.368C109.299 706.748 106.649 708.238 104.229 709.988C102.569 711.188 100.369 711.898 98.5494 710.278C96.6794 708.618 97.0794 706.468 97.9794 704.368C103.169 692.158 109.769 680.678 116.739 669.448C124.759 656.518 131.539 643.098 134.929 628.208C136.749 620.228 137.169 612.168 136.079 603.908C135.509 599.568 134.339 595.238 134.519 590.768C134.899 581.528 132.829 572.708 130.179 563.888C129.079 560.218 128.049 556.578 126.149 553.298C124.199 549.928 122.169 546.608 120.569 543.058C120.139 542.118 119.449 541.748 118.409 542.038C117.469 542.298 116.409 542.318 115.579 542.758C111.099 545.148 106.099 545.638 101.269 546.088C96.4194 546.538 91.5594 547.438 86.5694 546.688C82.8394 546.128 78.9994 546.988 75.1694 546.698C71.6794 546.438 68.3794 545.568 65.2094 544.358C61.2994 542.868 60.1594 543.038 59.4694 547.038C58.2694 553.968 55.5694 560.448 53.8394 567.208C53.3094 569.258 53.0494 571.418 53.0094 573.528C52.8494 582.028 52.9994 590.538 52.6994 599.038C52.5294 603.908 51.6494 608.738 51.1994 613.608C49.9394 627.228 48.5594 640.848 52.1294 654.358C53.9894 661.398 56.0194 668.388 57.8094 675.448C60.1994 684.908 63.0194 694.268 64.1594 704.008C64.4094 706.168 64.6094 708.438 62.2294 709.608C59.9494 710.728 58.0094 709.498 56.4494 708.028C53.7994 705.548 51.0794 703.068 49.7894 699.498C49.5794 698.918 49.3694 698.128 48.6094 698.288C47.7594 698.468 48.1694 699.278 48.1394 699.868C47.7894 706.238 47.5294 712.618 47.0394 718.978C46.6794 723.638 44.3994 725.828 40.9194 725.398C39.0794 725.168 37.7794 724.358 37.0894 722.568C34.7594 716.538 33.1494 710.398 34.3694 703.868C34.5894 702.688 34.5194 701.538 33.3394 701.178C31.8094 700.718 31.6594 702.238 31.4294 703.158C30.2494 708.038 27.9394 712.438 25.8194 716.918C25.5194 717.558 25.1194 718.158 24.7194 718.748C23.5694 720.448 22.2094 721.868 19.9094 721.318C17.6794 720.788 16.9094 719.008 16.6094 716.958C16.2594 714.578 16.2794 712.228 16.3994 709.808C16.8194 701.608 19.0394 693.698 19.9894 685.598C21.4194 673.418 24.1494 661.448 25.5394 649.278C26.3694 642.048 26.7194 634.828 25.4794 627.518C23.6894 616.948 22.2894 606.298 21.0694 595.648C20.5194 590.828 21.2094 585.878 20.6394 581.068C20.0594 576.188 21.0894 571.258 19.2494 566.338C18.0594 563.158 18.0094 559.428 17.2494 555.958C16.8894 554.308 16.7594 552.638 15.8894 551.148C13.9194 547.798 15.0394 543.768 13.4494 540.328C10.3294 533.608 9.12938 526.308 7.41938 519.188C5.85938 512.668 5.22938 505.928 3.77938 499.398C2.28938 492.658 2.75938 485.848 2.01938 479.098C1.36938 473.178 2.06938 467.058 2.60938 461.068C3.37938 452.578 3.63938 444.098 2.84938 435.618C2.53938 432.328 3.94938 429.078 2.86938 425.828C1.74938 422.478 2.68938 419.218 3.26938 415.948C3.39938 415.228 3.39938 414.608 3.24938 413.878C2.71938 411.388 2.54938 408.988 3.07938 406.338C3.81938 402.598 4.32938 398.888 2.33938 394.848C-0.700619 388.658 -0.200619 381.748 0.869381 374.988C1.79938 369.118 2.52938 363.208 3.41938 357.328C3.59938 356.118 3.98938 354.908 4.46938 353.768C7.24938 347.188 6.73938 340.038 8.15938 333.228C9.41938 327.188 10.4294 321.098 11.8794 315.078C13.0594 310.148 14.3694 305.238 16.2394 300.608C18.5794 294.798 20.5594 288.838 23.2894 283.138C26.2094 277.008 29.5094 271.608 35.0394 267.428C38.2694 264.988 40.4794 261.458 41.7194 257.278C42.5994 254.308 44.3094 251.288 46.4494 249.058C49.3194 246.058 49.1294 242.678 48.9894 239.208C48.9194 237.438 48.7794 235.718 49.0294 233.928C50.6394 222.378 49.8194 210.788 49.3994 199.208C49.3294 197.348 49.1894 195.478 49.2394 193.618C49.5594 181.618 48.6194 169.648 48.6694 157.658C48.6694 156.388 48.4194 155.238 47.8094 154.088C46.2294 151.098 45.7994 147.878 46.5794 144.588C46.8694 143.378 46.3194 142.748 45.6294 142.048C41.0294 137.378 39.7694 131.708 41.3394 125.568C42.2794 121.888 41.1194 118.748 39.9494 115.568C38.1794 110.758 36.0494 106.068 36.8894 100.748C37.1994 98.7781 36.2194 97.0081 36.1894 95.0081C36.0794 87.9981 38.0694 81.1881 37.4494 74.0781C37.0194 69.2281 38.3694 64.2381 38.7294 59.2981C39.0194 55.3081 39.8994 51.4281 40.5494 47.5081C40.6194 47.0881 40.6294 46.5081 40.8994 46.2881C44.6694 43.2981 45.9394 38.6781 48.4094 34.8481C49.0694 33.8181 49.8194 32.9981 50.8894 32.5481C52.7994 31.7481 54.3994 30.7181 55.7394 29.0081C57.4594 26.8281 62.3994 27.1381 65.1694 29.4781C65.7194 26.7581 66.2594 24.1881 66.7694 21.6181C68.0894 14.9581 71.2294 9.07805 74.8094 3.43805C75.9394 1.65805 77.3694 -0.631947 80.0694 0.218053C82.8194 1.07805 82.8694 3.75805 82.7994 6.01805C82.6294 11.0681 82.1494 16.1081 81.8294 21.1581C81.7494 22.3481 81.6394 23.2281 83.3894 23.8481C86.6994 25.0281 89.2894 27.2981 90.3894 30.9481C90.6594 31.8381 90.8794 32.5681 90.4394 33.4481C100.599 30.5581 106.979 37.2681 107.839 47.3381C108.119 50.5981 108.179 53.9281 107.179 57.1281C106.309 59.8781 107.509 62.3981 108.029 64.9681C109.779 73.6481 112.109 82.1981 113.239 91.0081C113.939 96.4681 113.399 101.728 111.479 106.908C110.379 109.898 109.619 113.018 108.719 116.078C108.319 117.448 108.689 118.648 109.389 119.878C112.599 125.548 113.459 131.758 113.219 138.138C113.089 141.548 110.819 143.868 108.209 145.638C105.559 147.438 104.759 149.708 104.629 152.838C104.209 162.498 103.349 172.148 102.869 181.788C102.309 193.058 99.9794 204.158 99.9394 215.428C99.9194 220.548 99.5694 225.648 99.4894 230.758C99.4394 234.028 99.9594 237.298 100.099 240.578C100.459 248.958 102.269 257.128 103.719 265.348C104.219 268.158 105.199 270.648 107.859 272.118C111.649 274.198 114.249 277.438 115.199 281.508C116.269 286.138 118.469 290.328 119.619 294.888C120.049 296.608 120.749 298.268 120.599 300.098C120.549 300.758 120.739 301.348 121.209 301.788C125.769 306.038 128.279 311.718 131.649 316.788C132.359 317.858 133.009 318.328 134.399 318.298C138.549 318.198 141.259 320.148 142.519 324.268C143.519 327.578 144.199 330.988 144.869 334.388C145.869 339.448 147.789 344.308 148.799 349.278C150.349 356.978 153.529 364.128 155.309 371.718C156.339 376.108 157.699 380.438 158.889 384.788C160.359 390.168 161.089 395.778 159.119 401.248C158.309 403.488 158.249 405.508 159.159 407.688C162.369 415.348 164.059 423.318 165.209 431.578C166.679 442.168 168.179 452.778 170.889 463.208C172.819 470.628 173.039 478.478 173.479 486.188C173.909 493.808 174.549 501.408 174.699 509.048C174.889 518.638 174.449 528.138 172.539 537.568C171.239 543.988 169.549 550.348 169.689 556.998C169.719 558.728 169.029 560.458 168.679 562.198C167.589 567.638 168.139 573.218 167.469 578.628C166.499 586.538 165.879 594.518 163.969 602.318C159.359 621.128 155.229 640.058 152.139 659.168C150.559 668.958 149.889 678.918 148.589 688.778C147.709 695.478 146.439 702.098 144.579 708.598C143.369 712.828 140.799 716.048 137.379 718.558C134.209 720.878 130.719 719.008 129.839 714.558L129.789 714.518Z" fill="black"/>
</svg>
