<svg width="129" height="534" viewBox="0 0 129 534" fill="none" xmlns="http://www.w3.org/2000/svg">
<path d="M95.3681 522.666C94.0241 524.777 92.775 526.749 91.5187 528.706C90.1162 530.891 88.1148 532.213 85.6313 532.885C84.2653 533.257 82.987 533.126 82.074 532.001C81.0952 530.796 80.3793 529.211 81.2924 527.859C83.1696 525.098 83.1697 521.826 84.1485 518.838C85.0761 516.019 86.0476 513.206 86.7342 510.212C85.2368 512.052 83.3303 513.455 81.8402 515.252C80.4013 516.99 78.4656 518.078 76.6979 519.357C75.4853 520.233 73.8784 520.752 72.5489 519.569C71.183 518.356 71.4752 516.786 72.1326 515.252C75.9236 506.333 80.7446 497.947 85.8358 489.744C91.694 480.3 96.6464 470.497 99.1226 459.621C100.452 453.792 100.759 447.904 99.9626 441.871C99.5463 438.701 98.6917 435.538 98.8231 432.273C99.1007 425.523 97.5887 419.081 95.653 412.638C94.8495 409.958 94.0971 407.299 92.7093 404.903C91.2849 402.441 89.8021 400.016 88.6334 397.423C88.3193 396.737 87.8153 396.466 87.0556 396.678C86.369 396.868 85.5947 396.883 84.9885 397.204C81.7161 398.95 78.0638 399.308 74.5358 399.636C70.9931 399.965 67.4431 400.623 63.7982 400.075C61.0736 399.666 58.2687 400.294 55.4711 400.082C52.9218 399.892 50.5113 399.257 48.1958 398.373C45.3398 397.284 44.5071 397.409 44.0031 400.33C43.1265 405.392 41.1543 410.126 39.8906 415.063C39.5035 416.561 39.3136 418.139 39.2844 419.68C39.1675 425.889 39.2771 432.105 39.0579 438.314C38.9337 441.871 38.291 445.399 37.9623 448.956C37.0419 458.905 36.0339 468.854 38.6416 478.722C40.0002 483.864 41.483 488.97 42.7905 494.127C44.5363 501.037 46.5961 507.874 47.4289 514.989C47.6115 516.566 47.7576 518.225 46.0191 519.079C44.3537 519.897 42.9366 518.999 41.7971 517.925C39.8614 516.114 37.8746 514.302 36.9323 511.694C36.7789 511.271 36.6255 510.694 36.0704 510.811C35.4495 510.942 35.749 511.534 35.7271 511.965C35.4714 516.618 35.2815 521.278 34.9236 525.923C34.6606 529.327 32.9952 530.927 30.4533 530.613C29.1092 530.445 28.1596 529.853 27.6556 528.546C25.9537 524.141 24.7777 519.656 25.6688 514.886C25.8295 514.025 25.7784 513.184 24.9165 512.922C23.7989 512.586 23.6893 513.696 23.5213 514.368C22.6594 517.932 20.972 521.146 19.4235 524.419C19.2044 524.886 18.9122 525.325 18.62 525.755C17.78 526.997 16.7866 528.034 15.1065 527.633C13.4776 527.246 12.9152 525.945 12.6961 524.448C12.4404 522.71 12.455 520.993 12.5427 519.225C12.8495 513.236 14.4711 507.458 15.165 501.541C16.2095 492.644 18.2036 483.901 19.219 475.011C19.8252 469.73 20.0809 464.456 19.1751 459.117C17.8676 451.396 16.845 443.617 15.9539 435.837C15.5521 432.317 16.0561 428.701 15.6398 425.187C15.2161 421.623 15.9685 418.022 14.6245 414.428C13.7552 412.105 13.7187 409.381 13.1636 406.846C12.9006 405.641 12.8056 404.421 12.1701 403.333C10.7312 400.886 11.5493 397.942 10.3879 395.429C8.10886 390.52 7.23232 385.188 5.98326 379.987C4.84376 375.225 4.38358 370.302 3.32443 365.532C2.23606 360.609 2.57937 355.634 2.03884 350.704C1.56405 346.379 2.07536 341.909 2.46981 337.534C3.03225 331.332 3.22217 325.138 2.64511 318.944C2.41867 316.541 3.44861 314.167 2.65972 311.793C1.84162 309.346 2.52824 306.965 2.9519 304.576C3.04686 304.05 3.04686 303.597 2.93729 303.064C2.55016 301.245 2.42598 299.492 2.81312 297.556C3.35365 294.825 3.72618 292.115 2.27258 289.164C0.0520245 284.642 0.417248 279.595 1.19883 274.657C1.87814 270.369 2.41137 266.052 3.06147 261.757C3.19295 260.873 3.47782 259.989 3.82844 259.157C5.85908 254.35 5.48655 249.128 6.52379 244.153C7.44415 239.741 8.18191 235.293 9.24105 230.896C10.103 227.295 11.0599 223.708 12.4258 220.326C14.1351 216.082 15.5813 211.729 17.5755 207.565C19.7084 203.088 22.1188 199.143 26.1582 196.09C28.5176 194.308 30.1319 191.729 31.0376 188.676C31.6804 186.506 32.9295 184.3 34.4926 182.672C36.589 180.48 36.4502 178.011 36.348 175.477C36.2968 174.184 36.1946 172.927 36.3772 171.62C37.5532 163.183 36.9542 154.717 36.6474 146.259C36.5963 144.9 36.4941 143.534 36.5306 142.176C36.7643 133.41 36.0777 124.667 36.1142 115.909C36.1142 114.981 35.9316 114.141 35.486 113.301C34.3319 111.117 34.0178 108.765 34.5876 106.362C34.7994 105.478 34.3977 105.018 33.8937 104.506C30.5336 101.095 29.6132 96.9536 30.76 92.4686C31.4467 89.7806 30.5993 87.487 29.7447 85.1642C28.4518 81.6507 26.896 78.2249 27.5095 74.3389C27.736 72.8999 27.0201 71.6071 26.9982 70.1462C26.9179 65.0257 28.3715 60.0514 27.9186 54.8579C27.6045 51.3152 28.5906 47.6703 28.8536 44.0619C29.0654 41.1474 29.7082 38.3133 30.183 35.4499C30.2341 35.1431 30.2414 34.7195 30.4386 34.5588C33.1924 32.3747 34.1201 29 35.9243 26.2024C36.4064 25.4501 36.9542 24.8511 37.7358 24.5224C39.131 23.938 40.2997 23.1857 41.2785 21.9366C42.5349 20.3442 46.1433 20.5707 48.1666 22.2799C48.5683 20.2931 48.9628 18.4159 49.3353 16.5386C50.2995 11.6738 52.5931 7.3788 55.2081 3.25908C56.0335 1.95888 57.0781 0.286154 59.0503 0.907034C61.059 1.53522 61.0955 3.49282 61.0444 5.14363C60.9202 8.83239 60.5696 12.5138 60.3359 16.2026C60.2774 17.0718 60.1971 17.7146 61.4754 18.1675C63.8931 19.0294 65.785 20.6876 66.5885 23.3537C66.7857 24.0038 66.9464 24.537 66.625 25.1798C74.0464 23.0688 78.7066 27.9701 79.3348 35.3257C79.5393 37.707 79.5832 40.1394 78.8527 42.4768C78.2172 44.4855 79.0938 46.3263 79.4736 48.2035C80.7519 54.5438 82.4538 60.7891 83.2792 67.2244C83.7905 71.2126 83.3961 75.0548 81.9936 78.8385C81.1901 81.0225 80.635 83.3015 79.9776 85.5367C79.6854 86.5374 79.9557 87.4139 80.467 88.3124C82.8117 92.454 83.4399 96.9901 83.2646 101.65C83.1697 104.141 81.5115 105.836 79.6051 107.129C77.6694 108.444 77.085 110.102 76.9901 112.388C76.6833 119.444 76.0551 126.493 75.7045 133.534C75.2954 141.767 73.5935 149.874 73.5643 158.107C73.5497 161.847 73.294 165.572 73.2356 169.304C73.199 171.693 73.5789 174.082 73.6811 176.477C73.9441 182.599 75.2662 188.566 76.3254 194.571C76.6906 196.623 77.4064 198.442 79.3494 199.516C82.1178 201.035 84.017 203.402 84.7109 206.375C85.4925 209.757 87.0995 212.817 87.9395 216.148C88.2536 217.404 88.7649 218.617 88.6553 219.954C88.6188 220.436 88.7576 220.867 89.1009 221.188C92.4317 224.292 94.2651 228.441 96.7267 232.145C97.2454 232.926 97.7202 233.27 98.7355 233.248C101.767 233.175 103.746 234.599 104.667 237.609C105.397 240.026 105.894 242.517 106.383 245.001C107.114 248.697 108.516 252.247 109.254 255.877C110.386 261.501 112.709 266.724 114.009 272.268C114.761 275.475 115.755 278.638 116.624 281.815C117.698 285.745 118.231 289.843 116.792 293.838C116.2 295.475 116.157 296.95 116.821 298.542C119.166 304.138 120.401 309.959 121.241 315.993C122.314 323.728 123.41 331.478 125.39 339.097C126.799 344.517 126.96 350.251 127.281 355.883C127.595 361.449 128.063 367 128.173 372.581C128.311 379.586 127.99 386.525 126.595 393.413C125.645 398.102 124.411 402.748 124.513 407.606C124.535 408.869 124.031 410.133 123.775 411.404C122.979 415.378 123.381 419.453 122.891 423.405C122.183 429.183 121.73 435.012 120.335 440.709C116.967 454.449 113.951 468.277 111.694 482.235C110.54 489.386 110.05 496.662 109.101 503.864C108.458 508.758 107.53 513.594 106.171 518.341C105.288 521.431 103.41 523.783 100.912 525.617C98.5967 527.311 96.0474 525.945 95.4046 522.695L95.3681 522.666Z" fill="black"/>
</svg>
