<svg width="1615" height="574" viewBox="0 0 1615 574" fill="none" xmlns="http://www.w3.org/2000/svg">
<path d="M273.041 190.841C288.701 191.901 308.171 194.151 327.581 197.271C345.341 200.121 363.101 202.891 380.711 206.631C398.791 210.471 416.881 214.311 435.281 216.381C461.581 219.331 487.821 222.801 514.211 224.991C548.591 227.851 583.051 228.141 617.491 229.331C650.911 230.491 684.311 232.821 717.751 233.541C742.551 234.081 767.381 234.781 792.191 233.081C800.821 232.491 809.481 232.131 818.131 231.951C841.941 231.471 865.761 231.241 889.581 230.721C913.051 230.211 936.551 230.131 959.971 228.631C980.711 227.301 1001.49 226.441 1022.19 224.281C1039.05 222.521 1056.03 221.971 1072.96 220.951C1094.71 219.641 1116.49 218.671 1138.22 217.071C1159.48 215.511 1179.34 208.441 1199.16 201.031C1212.2 196.161 1225.22 191.261 1239.31 189.221C1247.94 187.971 1256.1 183.291 1264.36 179.881C1269.11 177.911 1273.43 174.951 1278.48 173.581C1281.45 172.781 1282.82 170.081 1284.46 167.801C1297.14 150.131 1307.09 130.871 1316.02 111.171C1323.95 93.6912 1331.97 76.4712 1344.02 61.3212C1347.69 56.7112 1349.89 50.9312 1351.62 45.1212C1354.55 35.3112 1358.28 25.8112 1366.18 18.8312C1373.01 12.8012 1381.25 9.1212 1389.73 5.9912C1408.02 -0.758803 1426.77 -0.908803 1445.89 1.2212C1463.81 3.2212 1479.71 10.7712 1495.78 17.9712C1499.79 19.7612 1502.45 22.8912 1504.54 27.0612C1508.75 35.4512 1517.07 39.4212 1525.3 42.3412C1540.83 47.8512 1557.01 51.3412 1572.79 56.0612C1582.14 58.8612 1590.98 63.3812 1600.02 67.1712C1603.09 68.4512 1606.22 69.6712 1609.13 71.2612C1614.1 73.9712 1615.35 78.7712 1613.49 84.0612C1608.43 98.4812 1597.81 108.031 1585.81 116.471C1585.13 116.951 1584.23 117.271 1583.78 117.911C1576.92 127.651 1565.46 129.371 1555.7 133.991C1551.53 135.961 1546.83 135.121 1542.36 135.101C1537.02 135.071 1531.79 135.151 1526.51 136.491C1520.08 138.121 1513.54 136.531 1507.16 135.551C1494.89 133.661 1484.75 138.011 1475.53 145.431C1471.96 148.301 1470.23 151.941 1470.55 156.791C1471.01 163.871 1472.79 170.561 1475.2 177.151C1477.29 182.871 1478.35 188.731 1477.21 194.811C1476.02 201.141 1469.56 204.751 1464.54 200.871C1458.48 196.181 1451.21 195.061 1444.75 191.821C1440.39 189.641 1437.98 191.251 1435.62 194.691C1429.68 203.331 1426.11 212.941 1423.48 223.011C1420.19 235.581 1417.48 248.241 1415.6 261.111C1413.44 275.831 1415.36 290.301 1417.12 304.861C1418.13 313.251 1418.46 321.761 1418.46 330.211C1418.46 336.371 1415.27 341.711 1411.88 346.701C1408.04 352.361 1404.32 358.071 1401.29 364.211C1398.23 370.421 1393.85 375.731 1388.92 380.431C1377.23 391.571 1366.38 403.681 1353.42 413.391C1344.74 419.891 1342.89 429.361 1342.24 438.551C1341.56 448.261 1339.6 457.681 1337.83 467.081C1336.41 474.591 1336.31 481.561 1337.03 489.151C1337.83 497.621 1341.72 504.551 1344.37 512.101C1345.94 516.571 1349.19 519.011 1354.24 519.081C1359.89 519.161 1364.98 520.641 1368.63 525.581C1371.94 530.061 1377.87 530.461 1382.24 533.601C1385.73 536.101 1387.16 538.631 1385.33 541.631C1381.6 547.751 1378.81 555.081 1370 556.261C1365.34 556.881 1360.7 557.171 1356.05 556.991C1343.61 556.511 1331.14 557.371 1318.74 555.221C1311.29 553.931 1308.7 552.331 1306.43 544.931C1305.44 541.691 1304.24 539.441 1300.69 537.391C1296.64 535.051 1292.49 529.921 1294.33 524.371C1297.91 513.601 1294.3 502.891 1295.22 492.211C1295.26 491.731 1295.25 491.131 1295.02 490.741C1288.67 480.511 1292.38 469.441 1292.31 458.681C1292.3 457.061 1292.99 455.101 1291.47 453.981C1289.76 452.731 1288.35 454.481 1286.99 455.231C1279.95 459.161 1272.09 461.001 1264.71 464.051C1259.01 466.401 1255.61 472.031 1256.22 478.151C1256.39 479.871 1256.41 481.661 1255.31 482.941C1251.08 487.881 1252.78 493.691 1252.72 499.231C1252.69 501.691 1254.31 502.661 1256.52 503.061C1260.52 503.801 1263.44 506.011 1265.58 509.501C1268.52 514.291 1274.83 514.601 1278.3 518.801C1279.24 519.931 1280.63 520.681 1281.7 521.721C1286.97 526.811 1286.66 528.151 1279.57 530.071C1277.55 530.621 1276.37 531.791 1275.79 533.651C1274.56 537.591 1271.73 539.101 1267.82 539.141C1252.72 539.311 1237.6 540.231 1222.56 537.841C1217.01 536.961 1215.46 532.131 1213.21 528.351C1209.31 521.811 1209.6 514.141 1209.95 506.941C1210.2 501.751 1209.31 496.241 1211.87 491.201C1212.71 489.551 1211.37 489.091 1209.84 488.701C1204.61 487.371 1203.56 485.521 1204.84 480.611C1207.86 469.071 1207.92 468.611 1195.99 466.911C1186.65 465.581 1177.09 465.841 1167.67 464.901C1156.17 463.761 1144.69 462.801 1133.39 459.621C1124.04 457.001 1114.1 456.551 1104.47 454.871C1092.7 452.811 1080.95 450.281 1069.04 449.721C1054.91 449.051 1041.36 445.001 1027.14 444.321C1014.33 443.711 1001.45 440.921 988.551 439.571C979.461 438.621 970.281 438.431 961.261 436.901C948.671 434.761 935.801 434.741 923.351 431.461C919.061 430.331 914.441 430.251 910.051 431.841C906.111 433.261 902.781 433.561 899.161 430.101C896.361 427.431 891.881 427.271 887.851 426.911C872.291 425.521 856.791 423.551 841.281 421.691C827.221 420.011 813.401 417.201 799.561 414.661C783.101 411.641 766.441 409.661 750.151 405.591C744.531 404.181 738.681 403.361 732.891 403.081C723.051 402.611 713.441 400.151 703.661 399.771C688.941 399.201 674.551 395.911 659.681 395.971C648.721 396.011 637.541 394.431 626.561 392.061C616.931 389.981 606.901 389.331 597.011 389.071C585.861 388.781 574.891 387.421 564.091 385.041C557.031 383.481 549.961 384.561 542.881 383.271C526.881 380.361 510.741 378.411 494.351 378.731C487.431 378.871 480.841 380.441 474.071 381.141C472.591 381.291 470.691 381.901 469.871 380.451C467.441 376.151 463.471 377.001 459.731 376.991C435.441 376.941 411.121 377.481 386.851 376.661C374.921 376.251 362.941 376.021 350.981 374.901C342.401 374.091 333.371 373.831 324.721 376.261C323.141 376.701 321.441 376.801 319.791 376.911C308.621 377.621 297.791 379.501 287.471 384.281C283.341 386.191 278.671 387.131 274.311 388.741C264.931 392.191 256.941 397.601 249.701 404.441C245.711 408.211 241.841 412.051 238.191 416.141C232.271 422.751 223.501 423.471 215.991 426.811C202.421 432.841 187.971 436.261 174.071 441.281C172.451 441.861 171.361 443.021 170.271 444.361C164.161 451.891 163.801 460.501 164.711 469.651C165.731 479.941 169.951 489.191 173.151 498.781C174.481 502.751 177.601 504.361 181.541 504.801C184.351 505.121 187.141 505.611 189.951 505.891C194.061 506.301 197.031 508.141 199.151 511.821C202.861 518.251 209.561 521.491 215.071 525.981C215.971 526.711 217.181 527.091 217.991 527.881C219.691 529.531 222.591 530.881 221.201 533.911C219.821 536.921 217.091 535.341 215.001 534.831C212.321 534.181 210.471 534.471 209.501 537.361C207.951 542.001 204.191 543.531 199.781 543.901C185.031 545.161 170.281 545.781 155.541 543.641C150.391 542.891 146.041 538.441 144.421 532.141C142.981 526.551 142.531 520.791 141.161 515.131C138.901 505.741 133.851 497.621 131.141 488.541C130.831 487.511 130.671 485.881 129.131 486.141C127.881 486.351 127.531 487.861 127.401 488.961C126.361 497.541 125.671 506.161 124.381 514.701C123.211 522.441 125.411 527.121 133.391 529.741C138.251 531.341 142.371 535.051 143.281 541.231C144.121 546.971 149.081 550.391 152.491 554.621C154.371 556.951 156.531 559.071 157.761 561.851C158.471 563.461 158.561 565.101 157.131 566.471C155.861 567.691 154.701 567.031 153.561 566.211C151.491 564.721 149.011 566.901 146.871 565.491C146.691 565.371 145.421 566.251 145.461 566.581C146.061 572.771 140.801 571.201 137.941 571.801C129.421 573.561 120.701 573.191 112.041 572.911C107.851 572.781 103.771 572.051 100.491 568.981C97.3309 566.021 93.701 563.821 89.841 561.761C81.631 557.361 77.021 547.281 81.471 539.631C91.071 523.121 86.821 506.051 85.661 489.031C85.271 483.231 84.111 477.491 84.401 471.621C84.831 462.811 82.051 454.951 77.261 447.621C75.331 444.661 73.931 445.101 71.951 447.381C61.5709 459.321 49.851 469.901 38.011 480.321C34.431 483.471 32.131 487.541 29.051 491.021C22.151 498.841 14.221 504.841 3.35095 505.881C0.110954 506.191 -0.519046 505.811 0.380954 502.241C4.36095 486.491 15.971 476.191 26.351 465.041C47.781 442.011 69.231 418.961 84.231 390.981C93.241 374.171 99.121 356.201 102.551 337.351C105.291 322.301 107.881 307.211 111.961 292.391C117.041 273.951 126.571 258.191 138.711 243.811C153.671 226.091 171.801 212.341 193.201 203.471C204.041 198.981 215.261 195.151 227.331 194.491C241.281 193.731 255.041 190.661 273.051 190.841H273.041ZM136.591 347.831C137.461 343.511 133.861 341.631 131.291 341.151C128.161 340.571 129.021 344.401 128.571 346.431C127.311 352.081 127.281 357.991 124.761 363.381C119.721 374.161 116.711 385.911 109.381 395.611C109.081 396.001 108.881 396.471 108.681 396.931C108.271 397.901 108.121 398.861 109.001 399.681C109.841 400.461 110.861 400.561 111.761 400.001C118.481 395.801 125.481 392.111 129.171 384.291C134.661 372.671 133.991 359.941 136.581 347.841L136.591 347.831Z" fill="black"/>
</svg>
