<svg width="1180" height="419" viewBox="0 0 1180 419" fill="none" xmlns="http://www.w3.org/2000/svg">
<path d="M199.466 139.398C210.904 140.172 225.126 141.815 239.304 144.094C252.277 146.176 265.25 148.2 278.113 150.931C291.319 153.736 304.533 156.541 317.973 158.053C337.184 160.208 356.351 162.743 375.628 164.342C400.741 166.432 425.912 166.643 451.068 167.513C475.48 168.36 499.877 170.062 524.303 170.588C542.418 170.982 560.555 171.494 578.678 170.252C584.981 169.821 591.307 169.558 597.625 169.426C615.017 169.076 632.417 168.908 649.816 168.528C666.959 168.155 684.125 168.097 701.232 167.001C716.381 166.03 731.56 165.402 746.68 163.824C758.996 162.538 771.399 162.137 783.765 161.391C799.652 160.435 815.562 159.726 831.434 158.557C846.964 157.418 861.47 152.254 875.948 146.841C885.473 143.284 894.983 139.704 905.275 138.214C911.579 137.301 917.539 133.883 923.573 131.392C927.043 129.953 930.198 127.791 933.887 126.79C936.056 126.206 937.057 124.234 938.255 122.568C947.517 109.661 954.785 95.5927 961.308 81.2029C967.1 68.4347 972.959 55.8564 981.76 44.7901C984.441 41.4228 986.048 37.2008 987.312 32.9569C989.452 25.7912 992.177 18.8519 997.947 13.7534C1002.94 9.3488 1008.95 6.66076 1015.15 4.37445C1028.51 -0.556066 1042.2 -0.665633 1056.17 0.89022C1069.26 2.35112 1080.87 7.86599 1092.61 13.1252C1095.54 14.4327 1097.49 16.719 1099.01 19.765C1102.09 25.8934 1108.16 28.7933 1114.18 30.9262C1125.52 34.951 1137.34 37.5003 1148.86 40.948C1155.69 42.9932 1162.15 46.2948 1168.75 49.0632C1171 49.9982 1173.28 50.8894 1175.41 52.0508C1179.04 54.0303 1179.95 57.5364 1178.59 61.4005C1174.9 71.9335 1167.14 78.9093 1158.38 85.0743C1157.88 85.4249 1157.22 85.6587 1156.89 86.1261C1151.88 93.2407 1143.51 94.4971 1136.38 97.8717C1133.34 99.3107 1129.9 98.6971 1126.64 98.6825C1122.74 98.6606 1118.92 98.7191 1115.06 99.6979C1110.36 100.888 1105.59 99.7271 1100.93 99.0112C1091.96 97.6307 1084.56 100.808 1077.82 106.228C1075.21 108.324 1073.95 110.983 1074.18 114.526C1074.52 119.698 1075.82 124.584 1077.58 129.398C1079.11 133.576 1079.88 137.856 1079.05 142.298C1078.18 146.921 1073.46 149.558 1069.79 146.724C1065.37 143.298 1060.06 142.48 1055.34 140.114C1052.15 138.521 1050.39 139.697 1048.67 142.21C1044.33 148.521 1041.72 155.541 1039.8 162.896C1037.4 172.078 1035.42 181.325 1034.05 190.726C1032.47 201.478 1033.87 212.048 1035.16 222.683C1035.89 228.812 1036.13 235.028 1036.13 241.2C1036.13 245.7 1033.8 249.6 1031.33 253.245C1028.52 257.38 1025.81 261.55 1023.59 266.035C1021.36 270.571 1018.16 274.45 1014.56 277.883C1006.02 286.02 998.093 294.866 988.627 301.959C982.286 306.707 980.935 313.624 980.46 320.337C979.963 327.429 978.532 334.31 977.239 341.176C976.202 346.662 976.129 351.753 976.655 357.297C977.239 363.484 980.08 368.546 982.016 374.061C983.163 377.326 985.537 379.109 989.226 379.16C993.353 379.218 997.071 380.299 999.737 383.908C1002.15 387.18 1006.49 387.472 1009.68 389.766C1012.23 391.592 1013.27 393.44 1011.94 395.631C1009.21 400.102 1007.17 405.456 1000.74 406.318C997.334 406.771 993.944 406.983 990.548 406.851C981.461 406.5 972.352 407.129 963.295 405.558C957.853 404.616 955.961 403.447 954.303 398.042C953.58 395.675 952.703 394.032 950.11 392.534C947.152 390.825 944.12 387.078 945.464 383.024C948.079 375.157 945.443 367.334 946.115 359.533C946.144 359.182 946.136 358.744 945.968 358.459C941.33 350.986 944.04 342.9 943.989 335.041C943.982 333.857 944.486 332.426 943.375 331.608C942.126 330.695 941.096 331.973 940.103 332.521C934.961 335.391 929.219 336.735 923.829 338.963C919.665 340.68 917.182 344.792 917.627 349.263C917.751 350.519 917.766 351.826 916.962 352.761C913.873 356.37 915.114 360.614 915.071 364.66C915.049 366.457 916.232 367.166 917.846 367.458C920.768 367.999 922.901 369.613 924.464 372.162C926.612 375.661 931.221 375.887 933.755 378.955C934.442 379.781 935.457 380.328 936.239 381.088C940.088 384.806 939.862 385.785 934.683 387.187C933.208 387.589 932.346 388.444 931.922 389.802C931.024 392.68 928.956 393.783 926.1 393.813C915.07 393.937 904.026 394.609 893.04 392.863C888.986 392.22 887.854 388.692 886.211 385.931C883.362 381.154 883.574 375.551 883.829 370.292C884.012 366.501 883.362 362.476 885.232 358.795C885.845 357.59 884.867 357.254 883.749 356.969C879.929 355.997 879.162 354.646 880.097 351.059C882.303 342.63 882.346 342.294 873.632 341.052C866.81 340.081 859.827 340.271 852.946 339.584C844.546 338.751 836.16 338.05 827.906 335.727C821.077 333.814 813.816 333.485 806.782 332.258C798.184 330.753 789.602 328.905 780.902 328.496C770.581 328.007 760.683 325.048 750.296 324.552C740.939 324.106 731.531 322.068 722.108 321.082C715.468 320.388 708.763 320.249 702.174 319.132C692.978 317.568 683.577 317.554 674.483 315.158C671.349 314.333 667.975 314.274 664.768 315.436C661.89 316.473 659.458 316.692 656.813 314.165C654.768 312.214 651.496 312.097 648.552 311.834C637.186 310.819 625.864 309.38 614.535 308.021C604.265 306.794 594.17 304.742 584.061 302.886C572.038 300.68 559.869 299.234 547.97 296.261C543.864 295.231 539.591 294.632 535.362 294.428C528.174 294.085 521.155 292.288 514.011 292.01C503.259 291.594 492.748 289.191 481.886 289.234C473.88 289.264 465.714 288.109 457.694 286.378C450.659 284.859 443.333 284.384 436.109 284.194C427.964 283.982 419.951 282.989 412.062 281.251C406.906 280.111 401.741 280.9 396.57 279.958C384.883 277.832 373.093 276.408 361.121 276.641C356.066 276.744 351.253 277.891 346.308 278.402C345.226 278.511 343.839 278.957 343.24 277.898C341.465 274.757 338.565 275.378 335.833 275.37C318.09 275.334 300.326 275.728 282.598 275.129C273.884 274.83 265.133 274.662 256.397 273.844C250.13 273.252 243.534 273.062 237.215 274.837C236.061 275.159 234.819 275.232 233.614 275.312C225.455 275.831 217.544 277.204 210.006 280.695C206.989 282.091 203.578 282.777 200.393 283.953C193.542 286.473 187.705 290.425 182.417 295.421C179.503 298.175 176.676 300.98 174.01 303.968C169.685 308.796 163.279 309.322 157.794 311.761C147.881 316.166 137.327 318.664 127.173 322.331C125.99 322.755 125.194 323.602 124.398 324.581C119.935 330.081 119.672 336.37 120.336 343.054C121.081 350.57 124.164 357.327 126.501 364.332C127.473 367.232 129.752 368.408 132.63 368.729C134.682 368.963 136.72 369.321 138.773 369.525C141.775 369.825 143.944 371.169 145.493 373.857C148.203 378.554 153.097 380.92 157.122 384.2C157.779 384.733 158.663 385.011 159.255 385.588C160.496 386.793 162.615 387.779 161.599 389.992C160.591 392.191 158.597 391.037 157.071 390.664C155.113 390.19 153.762 390.401 153.053 392.512C151.921 395.902 149.174 397.019 145.953 397.29C135.179 398.21 124.405 398.663 113.638 397.1C109.876 396.552 106.699 393.301 105.516 388.699C104.464 384.616 104.135 380.409 103.134 376.275C101.483 369.416 97.7947 363.484 95.8152 356.852C95.5887 356.1 95.4719 354.909 94.347 355.099C93.4339 355.252 93.1783 356.355 93.0833 357.159C92.3236 363.426 91.8196 369.722 90.8773 375.96C90.0227 381.614 91.6297 385.033 97.4587 386.946C101.009 388.115 104.018 390.825 104.683 395.339C105.296 399.532 108.919 402.03 111.41 405.12C112.783 406.822 114.361 408.37 115.26 410.401C115.778 411.577 115.844 412.775 114.8 413.776C113.872 414.667 113.025 414.185 112.192 413.586C110.68 412.497 108.868 414.09 107.305 413.06C107.174 412.972 106.246 413.615 106.275 413.856C106.713 418.378 102.871 417.231 100.782 417.669C94.5588 418.955 88.1893 418.684 81.8636 418.48C78.8031 418.385 75.8228 417.852 73.427 415.609C71.1187 413.447 68.4672 411.84 65.6477 410.335C59.6507 407.121 56.2834 399.758 59.5338 394.17C66.5461 382.111 63.4417 369.642 62.5944 357.21C62.3096 352.973 61.4622 348.78 61.6741 344.493C61.9882 338.057 59.9575 332.316 56.4587 326.962C55.0489 324.8 54.0263 325.121 52.58 326.787C44.9979 335.508 36.4371 343.236 27.7886 350.848C25.1736 353.149 23.4936 356.121 21.2438 358.663C16.2037 364.376 10.4113 368.758 2.47129 369.518C0.104636 369.744 -0.355546 369.467 0.301857 366.859C3.20904 355.354 11.6895 347.831 19.2716 339.686C34.9251 322.864 50.5932 306.027 61.5499 285.589C68.1312 273.311 72.4262 260.184 74.9317 246.416C76.9331 235.422 78.825 224.4 81.8052 213.575C85.5159 200.105 92.477 188.593 101.345 178.089C112.272 165.146 125.515 155.102 141.147 148.623C149.065 145.344 157.26 142.546 166.077 142.064C176.267 141.509 186.318 139.266 199.473 139.398H199.466ZM99.7961 254.071C100.432 250.915 97.802 249.542 95.9247 249.191C93.6384 248.768 94.2666 251.565 93.9379 253.048C93.0176 257.175 92.9957 261.492 91.1549 265.429C87.4735 273.303 85.2748 281.886 79.9206 288.971C79.7015 289.256 79.5554 289.6 79.4093 289.936C79.1098 290.644 79.0003 291.345 79.6431 291.944C80.2566 292.514 81.0017 292.587 81.6591 292.178C86.5677 289.11 91.6808 286.415 94.3762 280.703C98.3864 272.215 97.897 262.916 99.7888 254.078L99.7961 254.071Z" fill="black"/>
</svg>
