<svg width="659" height="551" viewBox="0 0 659 551" fill="none" xmlns="http://www.w3.org/2000/svg">
<path d="M330.31 456.152C337.95 455.262 344.37 457.092 349.55 463.242C353.23 467.632 353.59 469.892 349.1 473.542C346.79 475.412 344.01 476.702 341.53 478.372C340.35 479.162 338.6 479.762 338.84 481.612C339.04 483.202 340.67 483.392 341.87 483.862C343.26 484.412 344.71 485.152 346.14 485.162C353.06 485.212 356.89 490.002 360.62 494.652C363.31 498.012 362.43 502.362 358.86 504.692C354.26 507.682 349.4 509.632 343.81 506.962C342.2 506.192 340.29 505.672 338.52 505.682C336.09 505.692 333.07 505.552 331.83 508.082C330.55 510.712 333.36 512.042 334.7 513.852C341.36 522.802 342.75 530.912 330.21 534.362C323.22 536.282 318.39 532.942 313.78 528.592C311.48 526.422 310.23 521.952 306.18 523.322C302.32 524.632 304.23 528.892 303.72 531.792C302.83 536.922 302.12 542.002 298.6 546.152C292.11 553.792 282.96 552.182 278.61 543.112C275.24 536.082 273.62 528.482 274.61 521.282C276.94 504.322 271.3 489.492 265.07 474.482C259.84 461.872 255.35 448.982 252.44 435.592C251.74 432.362 250.5 429.232 249.38 426.102C248.3 423.072 247.67 420.102 248.52 416.832C249.64 412.522 246.75 408.832 246.22 404.732C245.08 395.812 244.9 387.022 246.82 378.122C249.95 363.602 258.68 353.242 269.01 343.052C275.7 336.452 281.99 330.502 291 327.602C293.75 326.722 293.9 324.362 292.56 321.832C290.4 317.742 286.28 315.822 282.5 314.992C268.25 311.842 260.05 299.992 249 292.352C243.71 288.692 240.81 281.972 238.39 275.742C236.99 272.132 235.44 268.682 233.14 265.582C229.67 260.902 224.36 260.962 222.01 266.142C214.98 281.642 202.66 292.542 190.48 303.682C185.67 308.082 181.21 312.682 174.91 315.032C165.36 318.592 153.6 315.442 147.35 307.502C145.6 305.282 143.74 303.152 141.87 301.032C138.93 297.692 136.39 297.792 133.73 301.362C132.21 303.402 131.56 305.822 130.78 308.212C128.93 313.862 126.23 314.902 120.97 312.392C117.74 310.852 115.34 308.292 112.58 306.152C108.56 303.032 106.15 303.572 104.08 308.262C102.67 311.442 101.72 314.832 100.58 318.132C99.7104 320.652 99.0704 323.252 97.9904 325.672C96.4904 329.032 93.7904 330.502 90.0004 330.522C86.3304 330.532 84.5403 328.442 83.3403 325.522C82.2703 322.922 81.0903 320.312 81.4203 317.342C81.6404 315.342 80.9404 313.662 79.0204 312.832C76.8904 311.922 74.9704 312.642 73.6804 314.382C71.0104 317.992 68.6404 321.812 65.9604 325.412C61.6003 331.302 54.1004 332.292 48.4304 327.672C45.4604 325.252 44.3804 322.312 46.1704 318.382C47.5104 315.442 50.8804 312.122 47.4704 308.862C43.7304 305.292 40.8604 309.402 37.7804 310.912C35.8404 311.862 33.9004 312.832 31.9704 313.802C27.1104 316.262 23.5104 315.652 19.8204 311.752C16.6204 308.372 16.1304 304.052 18.9204 299.822C20.3604 297.632 22.3704 295.782 24.2904 293.952C25.9504 292.372 28.5004 291.212 27.5004 288.372C26.4304 285.322 23.5704 285.012 20.8304 285.142C16.1604 285.352 11.5604 285.742 7.08035 283.712C3.65035 282.162 -0.0896459 280.872 0.130354 276.322C0.350354 271.852 3.37035 269.192 7.36035 267.632C25.7804 260.402 44.3704 253.572 62.5804 245.842C76.0504 240.122 89.1804 233.502 100.22 223.532C106.69 217.682 111.5 210.422 116.56 203.462C121.06 197.282 126.04 191.382 130.03 184.892C135.61 175.832 142.91 168.112 149.04 159.482C155.99 149.692 161.59 138.662 171.13 130.682C175.79 126.782 178.87 121.172 184.61 118.272C199.68 110.672 213.89 111.842 227.12 122.282C231.57 125.792 235.15 125.122 240.29 123.122C247.45 120.332 253.82 115.642 261.82 114.542C265.46 114.042 269.68 111.682 272.01 108.832C277.66 101.912 285.46 98.1619 292.37 93.0919C293.57 92.2119 294.68 91.1819 295.77 90.1519C298.27 87.7619 298.41 85.3619 295.88 82.8119C292.39 79.2919 290.65 75.0719 289.49 70.1419C286.1 55.7619 297.19 45.6719 308.64 43.3719C317.64 41.5619 326.56 42.6919 335.5 43.5919C341.77 44.2219 348 45.5019 354.36 44.4419C356.35 44.1119 358.35 44.5619 360.18 45.4919C372.1 51.5119 385.15 52.4619 398.05 53.1319C406.95 53.5919 416.02 54.5119 424.91 52.2619C429.17 51.1819 432.92 49.2019 436.56 46.7419C450.8 37.1019 463.93 26.1219 476.53 14.4419C481.51 9.82187 487.16 5.92185 492.55 1.74186C495.82 -0.798145 498.94 -0.19811 502.13 2.15189C505.29 4.48189 504.77 7.08187 503.39 10.0719C502.41 12.1719 501.73 14.4119 500.92 16.5919C499.44 20.5619 500.92 23.1219 504.78 22.0619C510.66 20.4419 516.89 20.0318 522.41 17.1718C524.81 15.9218 527.18 14.7219 529.95 16.2019C535.36 19.0919 535.84 23.6119 531.02 27.7519C524.85 33.0619 518.39 37.9418 511.1 41.7318C508.58 43.0418 504.97 44.7519 505.7 48.1419C506.44 51.5719 510.46 50.4319 513.04 50.9019C516.12 51.4619 519.35 51.2819 522.51 51.2719C525.82 51.2719 528.66 52.5319 531.44 54.1319C533.98 55.5919 534.49 57.7719 533.02 60.0519C530.66 63.7119 527.98 67.1018 523.05 67.5418C516.71 68.1118 510.74 70.3419 504.6 71.8319C502.54 72.3319 500.1 73.1518 500.27 75.9118C500.44 78.7118 503.08 78.2318 504.91 78.6618C508.48 79.4918 512.04 80.3319 515.64 81.0019C519.64 81.7519 522.04 84.2919 522.3 88.0619C522.56 91.8219 519.91 93.9719 516.44 95.2119C514.19 96.0219 511.92 96.3018 509.58 96.3018C506.24 96.3018 502.93 96.4019 499.65 97.1919C494.64 98.3919 494.09 99.4319 497.43 103.202C500.5 106.672 499.63 109.292 496.21 111.372C491.71 114.102 490.95 116.552 493.66 121.782C501.25 136.462 491.14 152.062 474.51 152.372C466.88 152.512 464.69 155.202 467.79 161.902C471.5 169.902 471.85 178.242 472.1 186.742C472.29 193.222 472.62 199.692 475.15 205.852C476.49 209.112 478.36 209.712 481.38 208.192C484.42 206.662 486.75 204.282 489.18 202.002C499.75 192.082 511.69 184.082 526.46 183.732C537.17 183.482 548.08 183.662 558.8 185.722C565.08 186.932 571.16 188.562 576.86 191.352C591.76 198.652 607.61 198.222 623.35 196.522C632.02 195.582 640.62 195.612 649.26 195.402C651.5 195.342 653.45 196.442 655.28 197.632C659.89 200.622 660.2 204.022 656.03 207.692C652.9 210.442 649.56 212.902 645.23 213.632C642.81 214.032 640.85 215.382 640.26 217.972C639.64 220.682 641.36 222.302 643.23 223.822C647.36 227.172 651.56 230.382 654.92 234.632C657.38 237.752 656.75 239.932 654.07 242.312C649.69 246.192 644.82 246.882 639.17 245.752C627.92 243.502 627.64 243.932 630.98 254.712C632.01 258.032 632.36 261.542 634.25 264.622C635.36 266.432 634.45 268.032 632.85 269.392C628.79 272.812 623.58 273.302 618.92 270.642C615.52 268.712 613.07 265.732 610.24 263.162C606.43 259.702 602.68 259.802 599.5 263.842C597.19 266.782 594.34 269.002 591.6 271.422C589.56 273.222 587.6 275.332 584.61 273.812C581.58 272.272 579.75 269.462 579.68 266.182C579.58 261.372 579.92 256.522 580.44 251.732C582.34 234.312 578.98 231.612 565.09 222.772C561.52 220.492 557.14 219.382 553.03 218.062C549.14 216.822 545.31 217.142 541.33 218.582C532.55 221.762 524.3 226.092 515.78 229.822C510.9 231.962 507.71 236.172 504.16 239.902C502.81 241.322 503.32 243.002 504.12 244.562C506.2 248.642 507.85 252.662 512.17 255.542C517.3 258.962 519.46 265.052 520.34 271.092C521.96 282.192 527.82 291.642 531.89 301.772C533.27 305.202 534.77 308.462 534.95 312.192C535 313.192 534.84 314.352 535.3 315.142C541.45 325.992 538.88 338.072 539.36 349.482C539.77 359.072 533.48 367.212 526.26 373.772C513.37 385.482 497.92 392.162 481.31 396.632C478.24 397.462 475.37 396.812 472.41 396.482C461.17 395.222 450.08 392.992 438.91 391.342C430.51 390.102 422.48 387.532 414.16 386.142C409.34 385.332 405.62 381.842 401.23 379.882C385.83 373.012 371.97 363.582 358.03 354.192C347.51 347.102 329.32 350.122 320.85 359.632C318.93 361.782 316.69 363.502 314.27 364.932C305.03 370.392 299.11 379.222 291.91 386.742C285.46 393.472 286.74 401.962 288.52 409.422C290.46 417.562 291.38 426.152 295.64 433.722C299.92 441.342 304.56 448.342 312.51 452.912C318.29 456.222 324.17 456.342 330.3 456.112L330.31 456.152Z" fill="black"/>
</svg>
