<svg width="488" height="420" viewBox="0 0 488 420" fill="none" xmlns="http://www.w3.org/2000/svg">
<path d="M125.24 288.138C126.73 280.877 126.131 271.703 128.067 262.762C128.776 259.497 127.22 256.21 127.271 252.755C127.381 245.604 130.339 240.571 136.175 237.102C140.353 234.618 142.756 231.47 142.179 226.43C142.004 224.889 142.756 223.588 143.808 222.5C145.554 220.689 145.167 219.03 143.487 217.453C142.954 216.956 142.508 216.269 141.88 215.977C134.78 212.639 130.302 206.101 124.196 201.551C120.12 198.505 115.394 196.423 111.669 192.851C110.062 191.31 108.404 191.872 106.921 193.487C103.955 196.715 100.96 199.871 98.6301 203.64C95.7595 208.286 92.7428 212.858 89.5288 217.27C85.3944 222.946 84.5325 229.885 81.8663 236.123C79.77 241.031 78.2726 246.203 76.0374 251.039C73.7146 256.064 74.4231 261.185 75.38 266.079C77.0235 274.486 80.5662 282.229 85.7889 289.146C88.9371 293.324 91.6251 297.816 93.6558 302.667C94.7953 305.391 96.2343 308.291 93.3052 310.672C90.0474 313.309 86.5631 315.428 81.9613 313.711C79.0322 312.623 77.5421 310.387 76.3296 307.838C74.4962 304.003 73.1594 299.971 72.0638 295.866C71.8738 295.165 71.8592 294.369 71.5086 293.762C70.5517 292.104 69.6241 289.898 67.1844 290.863C64.9419 291.746 64.489 293.755 65.2268 296.063C67.2647 302.447 68.9813 308.875 68.5357 315.698C68.1997 320.789 63.5906 325.128 59.1494 324.354C55.4242 323.704 50.8443 318.707 50.3476 314.69C49.6756 309.255 49.3249 303.799 49.3761 298.313C49.398 295.917 49.6463 292.82 46.5638 292.353C43.4668 291.878 42.8312 294.99 42.057 297.217C40.3696 302.06 38.5362 306.801 35.4099 310.943C32.437 314.894 28.2734 315.581 23.0288 312.915C18.7046 310.709 17.3021 307.334 18.9237 302.586C20.6256 297.605 23.0799 293.003 26.5423 289.007C27.7694 287.59 28.6825 286.232 27.3385 284.515C25.9944 282.798 24.1172 282.565 22.4664 283.799C18.6754 286.641 14.4095 287.371 9.81503 287.692C6.54263 287.919 4.16865 286.67 1.89696 284.756C1.04234 284.04 0.282681 282.966 0.582164 281.878C1.57557 278.233 1.52444 274.267 5.23511 271.608C9.04074 268.883 13.1385 266.853 17.324 264.888C33.8175 257.138 44.7304 244.216 52.5608 228.015C59.6461 213.355 65.5117 198.103 73.7292 183.991C77.0527 178.279 81.2309 173.195 85.6282 168.323C94.0283 159.009 104.569 155.825 116.913 157.592C133.714 160.003 148.001 167.402 160.368 178.797C163.976 182.121 164.407 182.048 166.065 177.38C168.687 169.995 169.038 162.099 171.273 154.641C174.765 143.02 175.722 130.756 180.44 119.434C182.822 113.722 180.221 110.844 174.02 111.764C167.679 112.706 161.653 111.07 155.751 109.178C152.055 107.988 150.244 104.832 148.965 101.143C146.65 94.4671 146.686 87.8055 147.943 81.0123C148.702 76.8853 151.763 74.0438 153.721 70.5888C154.276 69.6027 155.707 68.5509 154.582 67.4041C153.392 66.1915 152.04 67.2872 151.003 68.0542C146.606 71.3266 142.289 74.6501 139.338 79.4418C137.161 82.9699 134.517 86.1766 131.34 88.8792C126.972 92.5972 119.221 90.6761 117.264 85.3C116.095 82.0934 118.235 79.6391 119.85 77.3236C121.245 75.3148 122.443 73.2184 123.692 71.144C124.335 70.0702 124.926 68.8942 124.013 67.762C123.049 66.564 121.771 67.1484 120.646 67.5721C115.993 69.3105 111.618 71.8306 106.548 72.3711C103.159 72.7363 99.9888 72.1812 97.067 70.4354C93.7726 68.4632 93.3271 66.3887 96.0152 63.7007C98.579 61.1368 101.515 58.9382 104.342 56.6373C104.992 56.1114 106 55.8703 105.81 54.8112C105.642 53.8616 104.766 53.511 103.948 53.2553C101.494 52.4883 99.0246 51.9113 96.4096 52.4664C93.6412 53.0508 90.829 52.9631 88.0386 52.7075C82.6625 52.2108 79.5581 48.7922 79.5874 43.6061C79.6093 40.1291 82.962 37.4192 87.856 36.8787C89.9378 36.6449 92.9107 37.3242 93.3563 34.5851C93.7654 32.0942 91.238 30.7575 89.2366 29.5376C84.6786 26.7619 83.7217 23.7452 85.7743 18.7343C87.5346 14.432 90.4272 13.1318 95.5477 14.3517C98.2795 15.0018 101.004 15.6884 103.48 17.0543C107.344 19.1872 111.829 18.654 115.832 19.9469C132.983 25.5056 150.47 25.7247 168.169 23.8767C182.201 22.4158 195.444 18.4276 208.628 13.4459C218.606 9.6768 228.197 4.89237 238.482 1.89753C246.195 -0.344943 253.726 -0.951204 261.133 3.09548C269.591 7.7119 274.047 16.4042 272.601 25.9585C272.55 26.3164 272.469 26.6743 272.418 27.0395C271.366 35.0233 273.266 37.9597 281.286 38.0328C287.385 38.0912 292.739 39.3695 297.772 42.6127C301.147 44.7894 305.084 43.5184 308.729 44.0663C310.175 44.2854 311.095 44.563 312.052 45.5053C317.56 50.9252 324.265 49.3547 326.866 42.0575C329.035 35.9583 331.49 30.0051 336.354 25.4764C340.744 21.3932 345.799 20.9184 351.285 22.9782C358.984 25.8708 365.024 31.2177 370.948 36.5938C381.306 45.9947 388.946 57.638 396.813 69.0549C406.002 82.4002 413.694 96.6147 421.532 110.778C429.209 124.649 439.121 137.081 450.195 148.411C458.858 157.271 468.748 164.875 477.448 173.728C480.881 177.22 483.532 181.252 485.928 185.532C487.579 188.483 487.564 191.164 485.621 193.662C483.496 196.386 480.333 196.73 477.294 195.722C474.321 194.736 471.553 193.165 468.675 191.88C467.521 191.361 466.221 189.973 465.088 191.259C464.124 192.347 465.665 193.428 466.074 194.502C467.104 197.227 468.273 199.885 469.347 202.595C471.955 209.177 466.622 213.53 460.487 212.909C454.57 212.31 451.181 208.081 448.106 203.611C446.937 201.909 446.031 200.031 444.972 198.256C444.351 197.219 443.686 195.831 442.225 196.525C440.633 197.285 441.524 198.651 442.065 199.674C443.299 201.982 443.847 204.451 444.066 207.022C444.139 207.855 444.19 208.746 443.986 209.542C442.927 213.603 437.784 216.233 430.969 216.277C427.492 216.299 424.592 213.932 423.475 209.929C422.525 206.525 422.036 203.026 421.882 199.484C421.78 197.161 421.451 194.86 420.202 192.829C419.45 191.602 418.362 190.872 416.857 191.083C415.491 191.273 414.673 192.208 414.33 193.428C413.869 195.064 413.555 196.744 413.241 198.417C412.781 200.828 412.226 203.245 410.692 205.188C408.924 207.431 407.347 210.396 403.818 209.703C400.006 208.95 396.777 207.387 395.601 202.99C393.651 195.685 395.988 188.994 398.318 182.384C400.144 177.212 401.883 172.048 402.986 166.679C403.11 166.08 403.051 165.372 403.358 164.904C406.711 159.908 404.133 154.97 403.497 149.923C401.927 137.425 393.979 128.382 387.193 118.681C386.149 117.191 385.039 115.745 383.95 114.284C383.432 113.59 382.84 112.779 381.876 113.364C381.138 113.809 381.518 114.628 381.642 115.351C383.556 126.695 383.461 138.031 381.438 149.346C380.605 153.991 380.634 158.768 378.932 163.297C377.515 167.066 376.083 170.982 373.673 174.042C365.769 184.078 360.218 184.597 348.765 179.835C337.465 175.138 329.758 166.139 322.615 156.636C321.38 154.985 320.365 153.173 319.233 151.442C318.78 150.748 318.502 149.769 317.436 149.864C316.245 149.974 315.8 151.004 315.705 151.939C315.047 158.527 312.841 164.758 310.869 170.974C308.166 179.52 304.507 187.745 298.722 194.801C297.721 196.021 296.413 197.183 295.931 198.607C294.127 203.961 289.978 207.351 286.1 210.988C284.39 212.588 282.9 214.341 282.038 216.54C280.373 220.783 275.691 222.485 273.748 226.583C272.352 229.527 272.433 230.418 275.683 230.228C284.091 229.724 290.65 234.457 297.86 237.445C302.001 239.162 306.004 241.258 309.817 243.435C320.635 249.6 331.811 255.655 336.909 268.204C337.611 269.935 338.034 271.674 337.976 273.522C337.72 282.002 335.953 289.986 331.957 297.656C323.119 314.609 310.818 329.036 299.248 344.032C293.083 352.016 290.278 361.475 289.094 371.314C287.743 382.512 289.598 393.892 287.56 405.083C286.574 410.495 284.507 415.316 279.701 418.501C277.677 419.845 275.238 420.261 273.711 418.282C270.841 414.571 267.678 410.663 269.065 405.463C270.154 401.372 270.242 396.997 272.345 393.176C272.521 392.862 272.608 392.49 272.659 392.132C272.871 390.759 272.988 389.195 271.388 388.757C269.898 388.341 269.27 389.846 268.927 390.934C268.043 393.71 267.225 396.522 266.633 399.371C265.318 405.718 261.199 410.466 257.378 415.28C254.866 418.443 251.133 417.121 247.839 416.134C244.983 415.28 243.31 413.286 243.018 410.335C242.273 402.972 243.419 396.04 248.014 389.97C248.671 389.093 249.3 388.195 249.942 387.311C250.534 386.507 251.228 385.587 250.359 384.711C249.234 383.571 248.35 384.681 247.59 385.39C243.748 388.976 239.753 392.322 234.851 394.425C230.52 396.288 227.328 395.667 224.435 392.336C222.054 389.597 221.827 385.236 223.953 381.752C225.173 379.758 226.838 378.158 228.694 376.741C229.811 375.894 231.594 375.112 230.783 373.374C229.95 371.577 228.044 372.103 226.539 372.454C224.296 372.972 222.258 373.783 219.906 372.344C214.662 369.145 214.391 362.775 219.68 359.656C224.99 356.523 231.206 355.916 236.911 353.878C248.313 349.81 258.883 344.843 266.458 334.448C271.564 327.436 277.575 320.957 283.295 314.339C290.548 305.946 295.69 296.093 299.05 285.45C299.905 282.747 299.036 280.373 296.297 279.029C281.717 271.864 267.568 263.566 250.855 262.076C247.7 261.798 244.873 263.588 243.478 267.824C242.141 271.871 240.454 275.764 238.956 279.738C237.028 284.844 233.931 289.08 230.33 293.098C225.392 298.62 220.023 303.74 215.619 309.767C211.36 315.588 204.392 318.138 198.899 322.506C197.672 323.484 196.189 324.149 195.239 325.464C188.797 334.397 179.41 338.115 169.075 339.766C163.83 340.606 158.498 341.198 153.092 340.248C144.451 338.736 139.104 332.885 134.232 326.406C126.051 315.522 125.861 302.623 125.255 288.131L125.24 288.138Z" fill="black"/>
</svg>
