<svg width="667" height="575" viewBox="0 0 667 575" fill="none" xmlns="http://www.w3.org/2000/svg">
<path d="M170.79 394.438C172.83 384.498 172.01 371.938 174.66 359.698C175.63 355.228 173.5 350.728 173.57 345.998C173.72 336.208 177.77 329.318 185.76 324.568C191.48 321.168 194.77 316.858 193.98 309.958C193.74 307.848 194.77 306.068 196.21 304.578C198.6 302.098 198.07 299.828 195.77 297.668C195.04 296.988 194.43 296.048 193.57 295.648C183.85 291.078 177.72 282.128 169.36 275.898C163.78 271.728 157.31 268.878 152.21 263.988C150.01 261.878 147.74 262.648 145.71 264.858C141.65 269.278 137.55 273.598 134.36 278.758C130.43 285.118 126.3 291.378 121.9 297.418C116.24 305.188 115.06 314.688 111.41 323.228C108.54 329.948 106.49 337.028 103.43 343.648C100.25 350.528 101.22 357.538 102.53 364.238C104.78 375.748 109.63 386.348 116.78 395.818C121.09 401.538 124.77 407.688 127.55 414.328C129.11 418.058 131.08 422.028 127.07 425.288C122.61 428.898 117.84 431.798 111.54 429.448C107.53 427.958 105.49 424.898 103.83 421.408C101.32 416.158 99.4901 410.638 97.9901 405.018C97.7301 404.058 97.7101 402.968 97.2301 402.138C95.9201 399.868 94.6501 396.848 91.3102 398.168C88.2402 399.378 87.6202 402.128 88.6302 405.288C91.4202 414.028 93.7701 422.828 93.1601 432.168C92.7001 439.138 86.3902 445.078 80.3102 444.018C75.2102 443.128 68.9402 436.288 68.2602 430.788C67.3402 423.348 66.8601 415.878 66.9301 408.368C66.9601 405.088 67.3002 400.848 63.0802 400.208C58.8402 399.558 57.9701 403.818 56.9101 406.868C54.6001 413.498 52.0901 419.988 47.8102 425.658C43.7402 431.068 38.0401 432.008 30.8601 428.358C24.9401 425.338 23.0201 420.718 25.2401 414.218C27.5701 407.398 30.9301 401.098 35.6701 395.628C37.3501 393.688 38.6002 391.828 36.7602 389.478C34.9202 387.128 32.3502 386.808 30.0902 388.498C24.9002 392.388 19.0602 393.388 12.7702 393.828C8.29017 394.138 5.04014 392.428 1.93014 389.808C0.760144 388.828 -0.279844 387.358 0.130156 385.868C1.49016 380.878 1.42015 375.448 6.50015 371.808C11.7102 368.078 17.3201 365.298 23.0501 362.608C45.6301 351.998 60.5701 334.308 71.2901 312.128C80.9901 292.058 89.0202 271.178 100.27 251.858C104.82 244.038 110.54 237.078 116.56 230.408C128.06 217.658 142.49 213.298 159.39 215.718C182.39 219.018 201.95 229.148 218.88 244.748C223.82 249.298 224.41 249.198 226.68 242.808C230.27 232.698 230.75 221.888 233.81 211.678C238.59 195.768 239.9 178.978 246.36 163.478C249.62 155.658 246.06 151.718 237.57 152.978C228.89 154.268 220.64 152.028 212.56 149.438C207.5 147.808 205.02 143.488 203.27 138.438C200.1 129.298 200.15 120.178 201.87 110.878C202.91 105.228 207.1 101.338 209.78 96.6083C210.54 95.2583 212.5 93.8183 210.96 92.2483C209.33 90.5883 207.48 92.0883 206.06 93.1383C200.04 97.6183 194.13 102.168 190.09 108.728C187.11 113.558 183.49 117.948 179.14 121.648C173.16 126.738 162.55 124.108 159.87 116.748C158.27 112.358 161.2 108.998 163.41 105.828C165.32 103.078 166.96 100.208 168.67 97.3683C169.55 95.8983 170.36 94.2883 169.11 92.7383C167.79 91.0983 166.04 91.8983 164.5 92.4783C158.13 94.8583 152.14 98.3083 145.2 99.0483C140.56 99.5483 136.22 98.7883 132.22 96.3983C127.71 93.6983 127.1 90.8583 130.78 87.1783C134.29 83.6683 138.31 80.6583 142.18 77.5083C143.07 76.7883 144.45 76.4583 144.19 75.0083C143.96 73.7083 142.76 73.2283 141.64 72.8783C138.28 71.8283 134.9 71.0383 131.32 71.7983C127.53 72.5983 123.68 72.4783 119.86 72.1283C112.5 71.4483 108.25 66.7683 108.29 59.6683C108.32 54.9083 112.91 51.1983 119.61 50.4583C122.46 50.1383 126.53 51.0683 127.14 47.3183C127.7 43.9083 124.24 42.0783 121.5 40.4083C115.26 36.6083 113.95 32.4783 116.76 25.6183C119.17 19.7283 123.13 17.9483 130.14 19.6183C133.88 20.5083 137.61 21.4483 141 23.3183C146.29 26.2383 152.43 25.5083 157.91 27.2783C181.39 34.8883 205.33 35.1883 229.56 32.6583C248.77 30.6583 266.9 25.1983 284.95 18.3783C298.61 13.2183 311.74 6.66829 325.82 2.56829C336.38 -0.501714 346.69 -1.3317 356.83 4.2083C368.41 10.5283 374.51 22.4283 372.53 35.5083C372.46 35.9983 372.35 36.4883 372.28 36.9883C370.84 47.9183 373.44 51.9383 384.42 52.0383C392.77 52.1183 400.1 53.8683 406.99 58.3083C411.61 61.2883 417 59.5483 421.99 60.2983C423.97 60.5983 425.23 60.9783 426.54 62.2683C434.08 69.6883 443.26 67.5383 446.82 57.5483C449.79 49.1983 453.15 41.0483 459.81 34.8483C465.82 29.2583 472.74 28.6083 480.25 31.4283C490.79 35.3883 499.06 42.7083 507.17 50.0683C521.35 62.9383 531.81 78.8783 542.58 94.5083C555.16 112.778 565.69 132.238 576.42 151.628C586.93 170.618 600.5 187.638 615.66 203.148C627.52 215.278 641.06 225.688 652.97 237.808C657.67 242.588 661.3 248.108 664.58 253.968C666.84 258.008 666.82 261.678 664.16 265.098C661.25 268.828 656.92 269.298 652.76 267.918C648.69 266.568 644.9 264.418 640.96 262.658C639.38 261.948 637.6 260.048 636.05 261.808C634.73 263.298 636.84 264.778 637.4 266.248C638.81 269.978 640.41 273.618 641.88 277.328C645.45 286.338 638.15 292.298 629.75 291.448C621.65 290.628 617.01 284.838 612.8 278.718C611.2 276.388 609.96 273.818 608.51 271.388C607.66 269.968 606.75 268.068 604.75 269.018C602.57 270.058 603.79 271.928 604.53 273.328C606.22 276.488 606.97 279.868 607.27 283.388C607.37 284.528 607.44 285.748 607.16 286.838C605.71 292.398 598.67 295.998 589.34 296.058C584.58 296.088 580.61 292.848 579.08 287.368C577.78 282.708 577.11 277.918 576.9 273.068C576.76 269.888 576.31 266.738 574.6 263.958C573.57 262.278 572.08 261.278 570.02 261.568C568.15 261.828 567.03 263.108 566.56 264.778C565.93 267.018 565.5 269.318 565.07 271.608C564.44 274.908 563.68 278.218 561.58 280.878C559.16 283.948 557 288.008 552.17 287.058C546.95 286.028 542.53 283.888 540.92 277.868C538.25 267.868 541.45 258.708 544.64 249.658C547.14 242.578 549.52 235.508 551.03 228.158C551.2 227.338 551.12 226.368 551.54 225.728C556.13 218.888 552.6 212.128 551.73 205.218C549.58 188.108 538.7 175.728 529.41 162.448C527.98 160.408 526.46 158.428 524.97 156.428C524.26 155.478 523.45 154.368 522.13 155.168C521.12 155.778 521.64 156.898 521.81 157.888C524.43 173.418 524.3 188.938 521.53 204.428C520.39 210.788 520.43 217.328 518.1 223.528C516.16 228.688 514.2 234.048 510.9 238.238C500.08 251.978 492.48 252.688 476.8 246.168C461.33 239.738 450.78 227.418 441 214.408C439.31 212.148 437.92 209.668 436.37 207.298C435.75 206.348 435.37 205.008 433.91 205.138C432.28 205.288 431.67 206.698 431.54 207.978C430.64 216.998 427.62 225.528 424.92 234.038C421.22 245.738 416.21 256.998 408.29 266.658C406.92 268.328 405.13 269.918 404.47 271.868C402 279.198 396.32 283.838 391.01 288.818C388.67 291.008 386.63 293.408 385.45 296.418C383.17 302.228 376.76 304.558 374.1 310.168C372.19 314.198 372.3 315.418 376.75 315.158C388.26 314.468 397.24 320.948 407.11 325.038C412.78 327.388 418.26 330.258 423.48 333.238C438.29 341.678 453.59 349.968 460.57 367.148C461.53 369.518 462.11 371.898 462.03 374.428C461.68 386.038 459.26 396.968 453.79 407.468C441.69 430.678 424.85 450.428 409.01 470.958C400.57 481.888 396.73 494.838 395.11 508.308C393.26 523.638 395.8 539.218 393.01 554.538C391.66 561.948 388.83 568.548 382.25 572.908C379.48 574.748 376.14 575.318 374.05 572.608C370.12 567.528 365.79 562.178 367.69 555.058C369.18 549.458 369.3 543.468 372.18 538.238C372.42 537.808 372.54 537.298 372.61 536.808C372.9 534.928 373.06 532.788 370.87 532.188C368.83 531.618 367.97 533.678 367.5 535.168C366.29 538.968 365.17 542.818 364.36 546.718C362.56 555.408 356.92 561.908 351.69 568.498C348.25 572.828 343.14 571.018 338.63 569.668C334.72 568.498 332.43 565.768 332.03 561.728C331.01 551.648 332.58 542.158 338.87 533.848C339.77 532.648 340.63 531.418 341.51 530.208C342.32 529.108 343.27 527.848 342.08 526.648C340.54 525.088 339.33 526.608 338.29 527.578C333.03 532.488 327.56 537.068 320.85 539.948C314.92 542.498 310.55 541.648 306.59 537.088C303.33 533.338 303.02 527.368 305.93 522.598C307.6 519.868 309.88 517.678 312.42 515.738C313.95 514.578 316.39 513.508 315.28 511.128C314.14 508.668 311.53 509.388 309.47 509.868C306.4 510.578 303.61 511.688 300.39 509.718C293.21 505.338 292.84 496.618 300.08 492.348C307.35 488.058 315.86 487.228 323.67 484.438C339.28 478.868 353.75 472.068 364.12 457.838C371.11 448.238 379.34 439.368 387.17 430.308C397.1 418.818 404.14 405.328 408.74 390.758C409.91 387.058 408.72 383.808 404.97 381.968C385.01 372.158 365.64 360.798 342.76 358.758C338.44 358.378 334.57 360.828 332.66 366.628C330.83 372.168 328.52 377.498 326.47 382.938C323.83 389.928 319.59 395.728 314.66 401.228C307.9 408.788 300.55 415.798 294.52 424.048C288.69 432.018 279.15 435.508 271.63 441.488C269.95 442.828 267.92 443.738 266.62 445.538C257.8 457.768 244.95 462.858 230.8 465.118C223.62 466.268 216.32 467.078 208.92 465.778C197.09 463.708 189.77 455.698 183.1 446.828C171.9 431.928 171.64 414.268 170.81 394.428L170.79 394.438Z" fill="black"/>
</svg>
