<svg width="566" height="434" viewBox="0 0 566 434" fill="none" xmlns="http://www.w3.org/2000/svg">
<path d="M0.554688 24.4296C1.86219 24.0351 2.28585 22.8153 3.00169 21.8511C4.94468 19.2434 7.45011 18.2938 10.686 19.1411C16.4857 20.6458 17.3331 20.2076 20.0357 14.8096C22.2855 10.31 28.319 7.56352 34.5278 8.58614C39.5679 9.41155 44.6372 10.3027 49.5166 11.7636C63.5412 15.9491 76.9376 21.6685 89.5743 29.0971C105.527 38.4761 121.831 47.1392 138.887 54.3998C145.497 57.212 151.48 61.2003 157.104 65.7656C162.385 70.0533 168.105 73.8005 173.422 78.0517C180.975 84.0925 185.665 92.4488 190.865 100.367C195.745 107.796 200.201 115.451 203.787 123.61C205.401 127.291 206.446 127.547 209.448 124.983C216.942 118.592 224.546 112.302 231.603 105.451C239.25 98.0221 248.585 93.3181 257.526 87.9566C260.755 86.0209 264.268 84.56 267.504 82.6389C273.917 78.826 280.63 75.7508 287.774 73.596C296.284 71.0321 304.253 67.0658 312.558 63.9541C320.41 61.0104 328.496 61.0396 336.67 62.033C338.357 62.2375 340.067 62.3398 341.761 62.3471C343.054 62.3471 344.661 62.705 345.37 61.2441C346.042 59.849 344.953 58.6656 344.223 57.5992C338.679 49.4693 333.113 41.3467 327.496 33.268C321.995 25.3645 321.791 16.9936 325.282 8.3524C326.875 4.40798 329.738 2.21664 334.143 1.13558C340.439 -0.412969 346.305 0.266347 352.44 1.78568C371.008 6.3875 387.853 15.2843 405.405 22.4135C414.857 26.2557 424.528 29.6449 434.273 32.6909C451.913 38.2131 469.86 42.6615 487.5 48.2056C496.404 51.0105 505.696 52.581 514.286 56.4816C517.229 57.8183 519.83 59.5203 521.992 61.8869C525.688 65.9263 526.039 69.2498 522.803 73.6252C520.787 76.3498 521.568 77.8764 524.088 79.5126C527.558 81.7697 530.787 84.3628 533.599 87.4233C536.857 90.966 536.053 93.7417 531.429 95.1807C529.757 95.6993 528.084 95.5386 526.367 95.4364C522.985 95.2464 521.831 96.364 522.394 99.7387C522.876 102.602 521.473 103.727 519.202 104.589C515.469 106.006 511.78 105.626 508.106 104.465C506.368 103.917 504.688 103.208 502.986 102.551C499.027 101.036 495.725 101.842 493.081 104.969C491.467 106.89 489.684 107.766 487.025 107.299C483.804 106.729 480.554 106.641 477.449 105.275C475.01 104.209 472.475 104.414 470.444 106.678C467.895 109.519 464.871 109.3 461.409 108.336C455.857 106.788 451.299 103.515 446.763 100.345C441.489 96.6562 435.47 94.0485 430.825 89.454C430.262 88.8989 429.503 87.9347 428.67 88.5994C427.611 89.454 428.546 90.3744 429.13 91.0975C433.221 96.1449 436.376 101.755 438.991 107.671C443.147 117.065 442.344 126.685 438.502 135.669C435.668 142.287 429.101 145.757 422.41 148.014C414.441 150.702 406.201 150.994 397.911 149.519C396.874 149.336 395.625 148.54 394.828 149.57C393.923 150.731 395.011 151.82 395.544 152.886C398.488 158.744 400.482 164.99 402.71 171.125C404.01 174.712 401.855 178.517 402.907 182.33C404.069 186.545 404.938 187.217 408.941 185.464C418.962 181.074 428.349 175.114 438.882 172.09C450.992 168.605 462.541 169.913 473.067 177.948C486.668 188.335 496.66 201.607 505.798 215.821C514.87 229.934 524.563 243.673 535.812 256.164C542.189 263.242 550.078 268.669 557.952 273.929C561.48 276.288 563.438 279.348 564.76 283.052C565.782 285.915 563.92 287.442 561.604 288.318C558.785 289.385 555.819 289.275 553.007 288.26C549.676 287.055 546.666 288.172 543.913 289.611C541.086 291.087 539.917 293.512 541.159 296.974C542.839 301.656 544.585 306.338 545.279 311.327C545.607 313.701 545.658 316.024 544.366 318.048C541.955 321.817 537.806 324.41 533.957 318.975C532.065 316.302 530.509 313.395 528.785 310.604C528.15 309.574 527.521 308.523 526.762 307.58C523.679 303.767 520.115 304.169 517.938 308.581C516.441 311.612 515.557 314.95 512.978 317.412C509.143 321.086 506.506 320.699 503.658 316.207C500.853 311.795 501.861 306.755 500.97 302.029C500.342 298.72 500.794 295.236 498.924 292.131C497.697 290.093 496.499 289.604 494.6 291.24C491.372 294.016 487.99 296.616 484.871 299.509C483.191 301.065 481.766 300.984 479.977 299.954C475.711 297.493 474.301 291.394 476.836 285.995C478.092 283.337 479.918 281.102 481.854 278.881C485.806 274.338 490.787 270.663 493.015 264.652C494.345 261.051 494.089 257.881 492.818 254.411C488.559 242.848 481.123 233.454 472.804 224.66C468.72 220.343 465.689 215.069 460.7 211.57C456.989 208.977 454.353 208.517 450.7 211.198C440.847 218.422 429.89 224.317 422.958 235.069C420.905 238.253 417.706 240.7 415.858 244.192C415.011 245.792 414.448 247.326 414.894 249.042C415.938 253.038 416.983 257.033 418.225 260.963C421.877 272.468 423.352 284.162 421.417 296.156C419.832 305.995 418.064 315.769 415.464 325.432C411.556 339.939 392.82 349.705 376.721 341.553C365.494 335.87 354.668 329.545 344.574 322.182C336.093 315.995 329.651 307.558 324.567 298.289C321.937 293.497 318.489 289.239 316.093 284.257C314.552 281.05 310.491 280.707 307.335 279.516C294.655 274.754 281.704 276.763 268.833 278.165C262.391 278.866 256.971 282.993 250.675 284.513C248.651 285.002 247.68 287.274 247.563 289.502C247.409 292.416 247.38 295.331 247.797 298.245C248.534 303.424 249.17 308.603 249.046 313.862C248.834 323.051 251.646 331.612 255.167 339.917C257.548 345.527 262.216 348.084 268.293 348.003C272.668 347.945 277.036 348.04 281.412 347.412C284.655 346.944 287.957 347.09 291.222 347.726C296.174 348.683 299.242 351.151 299.6 354.628C299.863 357.185 296.547 361.663 293.143 363.313C290.404 364.643 287.621 365.877 284.925 367.28C280.952 369.354 280.835 372.597 284.502 375.074C288.84 378.003 293.355 380.596 298.059 382.911C301.112 384.416 303.844 386.432 305.831 389.376C308.073 392.692 307.766 395.906 305.458 398.835C303.23 401.655 300.17 402.553 296.627 401.421C292.69 400.164 288.731 398.981 284.794 397.71C280.301 396.257 277.453 398.587 278.38 403.232C279.162 407.162 280.265 411.034 281.302 414.912C281.996 417.505 282.602 420.076 282.573 422.808C282.544 425.518 281.558 427.651 279.118 428.74C276.81 429.762 274.604 428.981 272.639 427.49C268.892 424.649 266.248 420.851 263.545 417.096C262.194 415.219 260.908 413.298 259.476 411.479C257.709 409.229 256.182 406.293 252.559 407.345C250.119 408.053 247.417 413.093 247.797 416.198C248.403 421.158 246.526 425.27 243.764 429.097C242.201 431.274 240.331 433.78 237.322 432.896C234.086 431.946 232.881 429.119 232.764 425.73C232.472 417.44 233.122 409.164 233.823 400.953C234.575 392.042 233.246 383.466 231.595 374.898C229.397 363.452 226.993 352.021 224.013 340.764C221.595 331.627 217.907 322.825 215.306 313.723C211.873 301.7 210.237 289.392 212.45 276.923C214.547 265.134 222.165 257.632 232.53 252.57C241.968 247.961 251.96 244.944 262.179 242.622C266.284 241.687 267.46 239.261 265.101 235.733C260.039 228.181 257.022 219.554 252.369 211.797C251.88 210.979 251.347 209.963 251.405 209.079C251.785 203.097 248.52 198.473 246.043 193.47C244.144 189.628 243.852 185.274 243.743 181.008C243.648 177.239 243.867 173.463 243.816 169.686C243.757 165.442 242.691 164.887 239.024 166.786C230.675 171.118 223.538 177.32 215.394 181.958C209.258 185.457 203.086 188.831 195.869 189.693C184.35 191.074 172.224 186.421 166.688 176.027C163.62 170.278 163.591 163.821 162.707 157.597C160.727 143.668 161.063 129.366 156.345 115.874C151.575 102.244 142.78 93.8002 127.762 91.3605C114.57 89.2202 101.327 89.4102 88.1353 88.687C78.7783 88.1757 69.2314 88.9427 59.7502 89.6731C50.6561 90.3744 41.3064 88.7966 32.7017 84.9471C30.1743 83.8149 28.4943 81.6382 27.2745 79.2058C25.1635 74.9984 22.0152 72.1205 17.596 70.3309C12.7312 68.366 10.5472 64.385 12.03 59.4983C13.3448 55.1595 12.293 51.8725 9.29814 48.9434C5.50712 45.2327 4.91546 40.9158 6.82923 36.2117C7.82264 33.7647 7.25289 32.1285 4.94468 31.2081C3.1843 30.5069 2.54881 28.3813 0.569296 28.0672V24.4149L0.554688 24.4296Z" fill="black"/>
</svg>
