<svg width="773" height="593" viewBox="0 0 773 593" fill="none" xmlns="http://www.w3.org/2000/svg">
<path d="M0 33.369C1.79 32.829 2.37 31.159 3.35 29.839C6.01 26.269 9.44 24.969 13.87 26.129C21.81 28.189 22.97 27.589 26.67 20.199C29.75 14.039 38.01 10.279 46.51 11.679C53.41 12.809 60.35 14.029 67.03 16.029C86.23 21.759 104.57 29.589 121.87 39.759C143.71 52.599 166.03 64.459 189.38 74.399C198.43 78.249 206.62 83.709 214.32 89.959C221.55 95.829 229.38 100.959 236.66 106.779C247 115.049 253.42 126.489 260.54 137.329C267.22 147.499 273.32 157.979 278.23 169.149C280.44 174.189 281.87 174.539 285.98 171.029C296.24 162.279 306.65 153.669 316.31 144.289C326.78 134.119 339.56 127.679 351.8 120.339C356.22 117.689 361.03 115.689 365.46 113.059C374.24 107.839 383.43 103.629 393.21 100.679C404.86 97.169 415.77 91.739 427.14 87.479C437.89 83.449 448.96 83.489 460.15 84.849C462.46 85.129 464.8 85.269 467.12 85.279C468.89 85.279 471.09 85.769 472.06 83.769C472.98 81.859 471.49 80.239 470.49 78.779C462.9 67.649 455.28 56.529 447.59 45.469C440.06 34.649 439.78 23.189 444.56 11.359C446.74 5.95903 450.66 2.95903 456.69 1.47903C465.31 -0.640972 473.34 0.289027 481.74 2.36903C507.16 8.66903 530.22 20.849 554.25 30.609C567.19 35.869 580.43 40.509 593.77 44.679C617.92 52.239 642.49 58.329 666.64 65.919C678.83 69.759 691.55 71.909 703.31 77.249C707.34 79.079 710.9 81.409 713.86 84.649C718.92 90.179 719.4 94.729 714.97 100.719C712.21 104.449 713.28 106.539 716.73 108.779C721.48 111.869 725.9 115.419 729.75 119.609C734.21 124.459 733.11 128.259 726.78 130.229C724.49 130.939 722.2 130.719 719.85 130.579C715.22 130.319 713.64 131.849 714.41 136.469C715.07 140.389 713.15 141.929 710.04 143.109C704.93 145.049 699.88 144.529 694.85 142.939C692.47 142.189 690.17 141.219 687.84 140.319C682.42 138.246 677.9 139.349 674.28 143.629C672.07 146.259 669.63 147.459 665.99 146.819C661.58 146.039 657.13 145.919 652.88 144.049C649.54 142.589 646.07 142.869 643.29 145.969C639.8 149.859 635.66 149.559 630.92 148.239C623.32 146.119 617.08 141.639 610.87 137.299C603.65 132.249 595.41 128.679 589.05 122.389C588.28 121.629 587.24 120.309 586.1 121.219C584.65 122.389 585.93 123.649 586.73 124.639C592.33 131.549 596.65 139.229 600.23 147.329C605.92 160.189 604.82 173.359 599.56 185.659C595.68 194.719 586.69 199.469 577.53 202.559C566.62 206.239 555.34 206.639 543.99 204.619C542.57 204.369 540.86 203.279 539.77 204.689C538.53 206.279 540.02 207.769 540.75 209.229C544.78 217.249 547.51 225.799 550.56 234.199C552.34 239.109 549.39 244.319 550.83 249.539C552.42 255.309 553.61 256.229 559.09 253.829C572.81 247.819 585.66 239.659 600.08 235.519C616.66 230.749 632.47 232.539 646.88 243.539C665.5 257.759 679.18 275.929 691.69 295.389C704.11 314.709 717.38 333.519 732.78 350.619C741.51 360.309 752.31 367.739 763.09 374.939C767.92 378.169 770.6 382.359 772.41 387.429C773.81 391.349 771.26 393.439 768.09 394.639C764.23 396.099 760.17 395.949 756.32 394.559C751.76 392.909 747.64 394.439 743.87 396.409C740 398.429 738.4 401.749 740.1 406.489C742.4 412.899 744.79 419.309 745.74 426.139C746.19 429.389 746.26 432.569 744.49 435.339C741.19 440.499 735.51 444.049 730.24 436.609C727.65 432.949 725.52 428.969 723.16 425.149C722.29 423.739 721.43 422.299 720.39 421.009C716.17 415.789 711.29 416.339 708.31 422.379C706.26 426.529 705.05 431.099 701.52 434.469C696.27 439.499 692.66 438.969 688.76 432.819C684.92 426.779 686.3 419.879 685.08 413.409C684.22 408.879 684.84 404.109 682.28 399.859C680.6 397.069 678.96 396.399 676.36 398.639C671.94 402.439 667.31 405.999 663.04 409.959C660.74 412.089 658.79 411.979 656.34 410.569C650.5 407.199 648.57 398.849 652.04 391.459C653.76 387.819 656.26 384.759 658.91 381.719C664.32 375.499 671.14 370.469 674.19 362.239C676.01 357.309 675.66 352.969 673.92 348.219C668.09 332.389 657.91 319.529 646.52 307.489C640.93 301.579 636.78 294.359 629.95 289.569C624.87 286.019 621.26 285.389 616.26 289.059C602.77 298.949 587.77 307.019 578.28 321.739C575.47 326.099 571.09 329.449 568.56 334.229C567.4 336.419 566.63 338.519 567.24 340.869C568.67 346.339 570.1 351.809 571.8 357.189C576.8 372.939 578.82 388.949 576.17 405.369C574 418.839 571.58 432.219 568.02 445.449C562.67 465.309 537.02 478.679 514.98 467.519C499.61 459.739 484.79 451.079 470.97 440.999C459.36 432.529 450.54 420.979 443.58 408.289C439.98 401.729 435.26 395.899 431.98 389.079C429.87 384.689 424.31 384.219 419.99 382.589C402.63 376.069 384.9 378.819 367.28 380.739C358.46 381.699 351.04 387.349 342.42 389.429C339.65 390.099 338.32 393.209 338.16 396.259C337.95 400.249 337.91 404.239 338.48 408.229C339.49 415.319 340.36 422.409 340.19 429.609C339.9 442.189 343.75 453.909 348.57 465.279C351.83 472.959 358.22 476.459 366.54 476.349C372.53 476.269 378.51 476.399 384.5 475.539C388.94 474.899 393.46 475.099 397.93 475.969C404.71 477.279 408.91 480.659 409.4 485.419C409.76 488.919 405.22 495.049 400.56 497.309C396.81 499.129 393 500.819 389.31 502.739C383.87 505.579 383.71 510.019 388.73 513.409C394.67 517.419 400.85 520.969 407.29 524.139C411.47 526.199 415.21 528.959 417.93 532.989C421 537.529 420.58 541.929 417.42 545.939C414.37 549.799 410.18 551.029 405.33 549.479C399.94 547.759 394.52 546.139 389.13 544.399C382.98 542.409 379.08 545.599 380.35 551.959C381.42 557.339 382.93 562.639 384.35 567.949C385.3 571.499 386.13 575.019 386.09 578.759C386.05 582.469 384.7 585.389 381.36 586.879C378.2 588.279 375.18 587.209 372.49 585.169C367.36 581.279 363.74 576.079 360.04 570.939C358.19 568.369 356.43 565.739 354.47 563.249C352.05 560.169 349.96 556.149 345 557.589C341.66 558.559 337.96 565.459 338.48 569.709C339.31 576.499 336.74 582.129 332.96 587.369C330.82 590.349 328.26 593.779 324.14 592.569C319.71 591.269 318.06 587.399 317.9 582.759C317.5 571.409 318.39 560.079 319.35 548.839C320.38 536.639 318.56 524.899 316.3 513.169C313.29 497.499 310 481.849 305.92 466.439C302.61 453.929 297.56 441.879 294 429.419C289.3 412.959 287.06 396.109 290.09 379.039C292.96 362.899 303.39 352.629 317.58 345.699C330.5 339.389 344.18 335.259 358.17 332.079C363.79 330.799 365.4 327.479 362.17 322.649C355.24 312.309 351.11 300.499 344.74 289.879C344.07 288.759 343.34 287.369 343.42 286.159C343.94 277.969 339.47 271.639 336.08 264.789C333.48 259.529 333.08 253.569 332.93 247.729C332.8 242.569 333.1 237.399 333.03 232.229C332.95 226.419 331.49 225.659 326.47 228.259C315.04 234.189 305.27 242.679 294.12 249.029C285.72 253.819 277.27 258.439 267.39 259.619C251.62 261.509 235.02 255.139 227.44 240.909C223.24 233.039 223.2 224.199 221.99 215.679C219.28 196.609 219.74 177.029 213.28 158.559C206.75 139.899 194.71 128.339 174.15 124.999C156.09 122.069 137.96 122.329 119.9 121.339C107.09 120.639 94.02 121.689 81.04 122.689C68.59 123.649 55.79 121.489 44.01 116.219C40.55 114.669 38.25 111.689 36.58 108.359C33.69 102.599 29.38 98.659 23.33 96.209C16.67 93.519 13.68 88.069 15.71 81.379C17.51 75.439 16.07 70.939 11.97 66.929C6.78 61.849 5.97 55.939 8.59 49.499C9.95 46.149 9.17 43.909 6.01 42.649C3.6 41.689 2.73 38.779 0.02 38.349V33.349L0 33.369Z" fill="black"/>
</svg>
