<svg width="402" height="401" viewBox="0 0 402 401" fill="none" xmlns="http://www.w3.org/2000/svg">
<path d="M92.3662 126.115C90.1822 126.24 87.9616 126.174 85.8141 126.517C75.5732 128.161 69.3863 134.574 65.8729 143.931C64.9379 146.429 64.3316 149.051 63.6304 151.63C62.1184 157.203 58.2616 160.782 54.0031 160.556C51.3735 160.417 49.6715 159.285 49.1529 156.539C48.5832 153.544 47.5679 150.695 43.9156 150.469C40.2634 150.235 37.5242 151.827 36.2605 155.406C35.2379 158.299 33.2365 160.045 30.322 160.797C26.1438 161.878 23.0029 159.614 22.9226 155.414C22.8787 152.864 22.9006 150.301 23.0467 147.759C23.2586 144.157 21.6808 142.886 18.4595 144.669C14.9096 146.634 11.1697 147.32 7.26177 147.423C1.9222 147.569 -0.816999 143.719 0.987206 138.745C2.83524 133.654 5.41374 128.942 9.18285 125.064C11.6883 122.485 11.418 120.535 8.9199 118.343C7.45901 117.065 6.18801 115.553 4.69789 114.304C2.74029 112.653 0.928767 110.878 1.98792 108.117C3.13472 105.108 5.61096 103.771 8.81763 103.493C14.0768 103.033 19.2119 103.735 24.4054 104.465C32.1992 105.568 39.8616 106.35 47.5532 102.544C53.6379 99.5344 60.8036 99.6586 67.5456 98.8989C80.1896 97.4673 92.6219 93.7128 105.492 94.8888C113.542 95.6265 122.03 95.3124 128.932 100.469C132.19 102.902 135.762 104.501 139.327 106.233C141.986 107.526 144.454 109.001 146.383 111.295C147.975 113.194 149.831 113.406 151.868 112.003C156.989 108.482 161.613 104.385 165.55 99.5783C168.413 96.0794 172.306 93.9903 176.061 91.8574C178.91 90.2431 181.795 88.6946 184.556 86.9196C187.697 84.8963 191.006 83.6472 194.892 84.195C197.777 84.6041 200.275 82.8729 202.985 82.2374C204.512 81.8795 204.417 80.5793 203.577 79.6663C199.625 75.3785 195.98 70.6744 191.437 67.1245C188.61 64.9185 184.242 65.123 180.487 64.9696C174.425 64.714 169.173 62.4058 164.191 59.2429C162.051 57.8843 160.166 56.0874 160.327 53.4286C160.532 49.9809 158.72 47.9283 156.244 46.2118C154.074 44.707 152.584 42.6326 151.175 40.5289C149.962 38.7101 148.771 36.5114 149.743 34.3566C151.335 30.8431 149.509 28.6664 147.157 26.8476C144.506 24.7877 143.089 22.3334 143.461 19.0245C143.804 15.942 142.658 13.6484 140.349 11.6689C138.421 10.0108 137.004 8.06779 138.618 5.314C140.349 2.34838 142.665 0.135128 146.281 1.04819C151.109 2.26804 155.835 3.88963 160.568 5.4747C164.176 6.67994 167.186 7.01594 169.867 3.27605C171.89 0.456525 175.272 -0.105919 178.8 0.639137C191.218 3.26875 203.073 7.73909 215.096 11.6251C230.136 16.4752 244.935 22.1508 260.143 26.4093C273.576 30.1711 287.147 33.6408 300.865 36.3507C307.571 37.6801 313.195 41.1498 318.6 45.2841C325.474 50.536 325.43 57.972 325.817 65.3568C325.861 66.2187 325.196 67.1829 324.678 67.9864C323.494 69.8271 322.223 71.6167 320.96 73.399C316.248 80.0461 316.84 81.916 322.53 87.6135C326.365 91.4484 330.952 94.8742 332.588 100.681C333.516 103.968 336.175 106.459 338.717 108.738C341.003 110.783 343.012 113.011 344.772 115.524C347.044 118.767 348.286 118.884 351.142 116.145C355.203 112.244 359.359 108.563 365.086 107.219C372.332 105.517 377.942 108.212 382.602 113.522C387.854 119.512 391.119 126.641 392.924 134.245C395.495 145.107 398.073 155.976 399.183 167.152C400.374 179.146 400.469 191.162 400.535 203.185C400.63 222.038 401.959 240.883 401.163 259.729C400.849 267.084 400.418 274.52 398.161 281.679C396.758 286.12 393.617 288.786 389.359 289.517C384.341 290.378 382.873 293.622 382.193 297.836C381.733 300.729 381.434 303.629 378.921 305.703C375.517 308.508 373.852 308.479 370.835 305.323C368.015 302.382 365.132 302.36 362.186 305.258C357.73 309.648 355.583 309.297 352.698 303.643C351.339 300.985 350.828 298.063 350.945 295.148C351.083 291.722 349.44 290.539 346.343 290.583C345.488 290.598 344.626 290.619 343.794 290.495C338.87 289.758 335.832 289.524 335.204 282.716C334.78 278.143 333.202 274.382 329.25 271.241C321.449 265.039 321.887 256.413 323.231 247.487C324.02 242.242 325.467 237.063 325.342 231.665C325.291 229.452 324.7 227.925 322.99 226.318C317.037 220.723 311.983 214.361 308.031 207.173C307.074 205.435 306.482 204.69 304.196 206.034C298.601 209.321 294.247 214.12 289.105 217.947C280.069 224.689 270.113 228.919 259.697 232.534C256.826 233.528 253.905 234.39 250.99 235.244C248.39 236.004 247.718 237.465 249.018 239.89C251.202 243.966 253.642 247.874 256.191 251.73C264.518 264.323 267.045 278.465 267.732 293.278C268.419 308.084 269.266 322.913 271.954 337.543C272.743 341.838 274.05 346.024 274.591 350.385C274.971 353.431 277.184 355.564 279.025 357.813C282.502 362.065 285.628 366.535 288.155 371.422C290.339 375.651 289.916 379.34 286.724 382.846C283.911 385.936 280.566 386.505 276.118 384.482C272.692 382.926 269.361 381.29 266.249 379.047C260.544 374.928 257.162 376.075 254.526 382.546C252.824 386.717 250.961 390.808 248.792 394.759C246.593 398.755 243.211 401.019 238.689 400.625C234.175 400.23 232.276 396.724 230.983 392.824C230.319 390.815 230.34 388.755 230.289 386.688C230.194 383.094 228.456 381.604 224.928 382.276C223.394 382.568 221.94 383.299 220.443 383.788C213.533 386.023 209.019 382.32 208.975 375.125C208.931 368.646 211.992 364.066 216.294 359.851C219.099 357.098 218.872 356.404 215.227 354.892C211.071 353.16 207.865 350.231 207.207 345.724C206.506 340.947 209.537 337.003 214.628 334.731C217.857 333.285 221.086 332.197 224.76 332.131C230.691 332.021 232.985 329.435 232.291 323.482C231.516 316.835 231.904 310.071 230.779 303.527C229.822 297.997 228.77 292.409 227.462 286.902C226.411 282.468 224.665 278.246 223.708 273.753C222.057 266.003 219.742 258.217 215.038 251.555C210.611 245.288 204.833 243.199 196.864 243.418C186.192 243.71 176.046 246.917 165.491 247.406C162.036 247.567 158.618 247.253 155.338 246.61C145.09 244.601 134.513 245.376 124.367 242.22C118.516 240.401 112.059 241.212 106.033 239.532C98.6627 237.487 90.7592 236.552 84.565 231.789C75.1277 224.529 66.9539 215.646 66.9759 203.053C66.9905 193.171 69.4082 183.171 74.0393 174.267C76.5666 169.409 81.0223 165.596 84.7184 161.44C91.5627 153.726 98.5458 145.984 108.392 141.791C109.495 141.323 110.438 140.476 111.431 139.782C116.464 136.261 116.405 133.895 110.781 131.024C105.047 128.095 99.247 125.005 92.3808 126.145L92.3662 126.115Z" fill="black"/>
</svg>
