<svg width="483" height="403" viewBox="0 0 483 403" fill="none" xmlns="http://www.w3.org/2000/svg">
<path d="M242.082 333.209C247.663 332.558 252.353 333.895 256.136 338.387C258.824 341.594 259.087 343.245 255.808 345.911C254.12 347.277 252.09 348.219 250.278 349.439C249.416 350.016 248.138 350.454 248.313 351.806C248.459 352.967 249.65 353.106 250.526 353.449C251.542 353.851 252.601 354.392 253.645 354.399C258.7 354.435 261.498 357.934 264.222 361.331C266.187 363.785 265.544 366.963 262.937 368.664C259.577 370.849 256.027 372.273 251.943 370.323C250.767 369.76 249.372 369.38 248.079 369.388C246.304 369.395 244.098 369.293 243.193 371.141C242.258 373.062 244.31 374.033 245.289 375.355C250.154 381.893 251.169 387.817 242.009 390.337C236.904 391.739 233.375 389.3 230.008 386.122C228.328 384.537 227.415 381.272 224.457 382.273C221.637 383.23 223.032 386.341 222.66 388.46C222.01 392.207 221.491 395.918 218.92 398.949C214.179 404.53 207.496 403.353 204.318 396.728C201.857 391.593 200.673 386.042 201.396 380.783C203.098 368.394 198.979 357.562 194.428 346.598C190.608 337.387 187.328 327.971 185.202 318.191C184.691 315.831 183.785 313.545 182.967 311.259C182.178 309.045 181.718 306.876 182.339 304.487C183.157 301.339 181.046 298.644 180.659 295.649C179.826 289.133 179.695 282.713 181.097 276.212C183.384 265.606 189.76 258.038 197.306 250.595C202.193 245.774 206.787 241.428 213.369 239.31C215.377 238.667 215.487 236.943 214.508 235.095C212.93 232.107 209.921 230.705 207.16 230.099C196.751 227.798 190.761 219.142 182.69 213.561C178.826 210.888 176.707 205.979 174.94 201.429C173.917 198.792 172.785 196.272 171.105 194.007C168.57 190.589 164.692 190.633 162.975 194.416C157.84 205.738 148.841 213.7 139.944 221.837C136.43 225.051 133.173 228.411 128.571 230.128C121.595 232.728 113.005 230.427 108.44 224.628C107.161 223.006 105.803 221.45 104.437 219.902C102.289 217.462 100.434 217.535 98.491 220.143C97.3808 221.633 96.906 223.4 96.3362 225.146C94.9849 229.273 93.0127 230.033 89.1705 228.199C86.8112 227.075 85.0581 225.205 83.0421 223.641C80.1057 221.362 78.3453 221.757 76.8333 225.183C75.8033 227.506 75.1094 229.982 74.2767 232.392C73.6412 234.233 73.1737 236.132 72.3848 237.9C71.2892 240.354 69.317 241.428 66.5486 241.442C63.8678 241.45 62.5603 239.923 61.6838 237.79C60.9022 235.891 60.0403 233.985 60.2813 231.815C60.442 230.354 59.9307 229.127 58.5283 228.521C56.9724 227.856 55.5699 228.382 54.6277 229.653C52.6774 232.29 50.9462 235.08 48.9886 237.71C45.8039 242.012 40.3255 242.735 36.1839 239.361C34.0144 237.593 33.2256 235.445 34.5331 232.575C35.5119 230.427 37.9735 228.002 35.4826 225.621C32.7508 223.013 30.6544 226.015 28.4046 227.118C26.9875 227.812 25.5705 228.521 24.1607 229.229C20.6107 231.026 17.9811 230.581 15.2858 227.732C12.9483 225.263 12.5904 222.108 14.6284 219.018C15.6802 217.418 17.1484 216.067 18.5509 214.73C19.7634 213.576 21.626 212.729 20.8956 210.654C20.114 208.426 18.0249 208.2 16.0235 208.295C12.6123 208.448 9.25226 208.733 5.97986 207.25C3.47442 206.118 0.74255 205.176 0.903249 201.852C1.06395 198.587 3.2699 196.644 6.18438 195.505C19.6392 190.223 33.2182 185.235 46.5197 179.588C56.3588 175.41 65.9496 170.574 74.0137 163.292C78.7397 159.019 82.2532 153.716 85.9493 148.632C89.2363 144.118 92.8739 139.808 95.7884 135.067C99.8643 128.45 105.197 122.81 109.674 116.507C114.751 109.356 118.841 101.299 125.81 95.4698C129.214 92.6211 131.463 88.5233 135.656 86.405C146.664 80.8536 157.044 81.7082 166.708 89.3341C169.958 91.8979 172.573 91.4085 176.328 89.9476C181.558 87.9097 186.21 84.4839 192.054 83.6804C194.713 83.3151 197.795 81.5913 199.497 79.5095C203.624 74.4548 209.322 71.7157 214.369 68.0123C215.246 67.3695 216.057 66.6171 216.853 65.8648C218.679 64.119 218.781 62.3659 216.933 60.5033C214.384 57.9321 213.113 54.8496 212.266 51.2485C209.789 40.7447 217.89 33.3745 226.254 31.6944C232.828 30.3723 239.343 31.1977 245.873 31.8551C250.453 32.3153 255.004 33.2503 259.65 32.476C261.103 32.235 262.564 32.5637 263.901 33.243C272.608 37.6403 282.14 38.3342 291.563 38.8236C298.064 39.1596 304.689 39.8316 311.183 38.1881C314.294 37.3992 317.034 35.9529 319.692 34.156C330.094 27.1145 339.685 19.0942 348.888 10.5626C352.526 7.18791 356.653 4.33916 360.59 1.28589C362.979 -0.569451 365.258 -0.131157 367.588 1.58539C369.896 3.28734 369.516 5.18649 368.508 7.37053C367.792 8.90447 367.296 10.5407 366.704 12.1331C365.623 15.0329 366.704 16.9029 369.524 16.1286C373.819 14.9453 378.369 14.6458 382.401 12.5567C384.154 11.6436 385.886 10.7671 387.909 11.8482C391.861 13.9592 392.211 17.2608 388.691 20.2848C384.184 24.1635 379.465 27.7281 374.14 30.4965C372.299 31.4534 369.662 32.7025 370.196 35.1787C370.736 37.6841 373.673 36.8514 375.557 37.1947C377.807 37.6038 380.166 37.4723 382.474 37.465C384.892 37.465 386.967 38.3853 388.997 39.554C390.853 40.6205 391.225 42.2129 390.151 43.8783C388.428 46.5517 386.47 49.0279 382.869 49.3493C378.238 49.7657 373.877 51.3946 369.392 52.483C367.887 52.8482 366.105 53.4471 366.229 55.4632C366.353 57.5084 368.282 57.1578 369.619 57.4719C372.226 58.0782 374.827 58.6918 377.456 59.1812C380.378 59.729 382.131 61.5843 382.321 64.3381C382.511 67.0846 380.575 68.6551 378.041 69.5608C376.397 70.1525 374.739 70.357 373.03 70.357C370.59 70.357 368.172 70.4301 365.776 71.0071C362.117 71.8837 361.715 72.6433 364.155 75.3971C366.397 77.9318 365.762 79.8455 363.264 81.3649C359.977 83.359 359.421 85.1486 361.401 88.9688C366.945 99.6918 359.56 111.087 347.413 111.313C341.84 111.415 340.24 113.38 342.504 118.274C345.214 124.118 345.47 130.21 345.653 136.419C345.791 141.152 346.032 145.878 347.88 150.378C348.859 152.759 350.225 153.197 352.431 152.087C354.652 150.969 356.354 149.231 358.129 147.565C365.849 140.319 374.571 134.476 385.36 134.22C393.183 134.037 401.152 134.169 408.982 135.674C413.57 136.557 418.011 137.748 422.174 139.786C433.058 145.118 444.636 144.804 456.133 143.562C462.466 142.876 468.748 142.898 475.059 142.744C476.695 142.701 478.119 143.504 479.456 144.373C482.823 146.557 483.05 149.041 480.004 151.722C477.718 153.73 475.278 155.527 472.115 156.06C470.347 156.353 468.916 157.339 468.485 159.231C468.032 161.21 469.288 162.393 470.654 163.504C473.671 165.951 476.739 168.295 479.193 171.4C480.99 173.679 480.53 175.271 478.572 177.01C475.373 179.844 471.815 180.348 467.688 179.522C459.471 177.879 459.266 178.193 461.706 186.067C462.458 188.492 462.714 191.056 464.095 193.306C464.905 194.628 464.241 195.797 463.072 196.79C460.106 199.288 456.301 199.646 452.897 197.703C450.413 196.293 448.624 194.117 446.557 192.239C443.774 189.712 441.034 189.785 438.712 192.736C437.024 194.884 434.942 196.505 432.941 198.273C431.451 199.588 430.019 201.129 427.835 200.019C425.622 198.894 424.285 196.841 424.234 194.445C424.161 190.932 424.409 187.389 424.789 183.89C426.177 171.166 423.723 169.194 413.577 162.737C410.969 161.071 407.77 160.261 404.768 159.296C401.926 158.391 399.129 158.624 396.221 159.676C389.808 161.999 383.782 165.162 377.559 167.886C373.994 169.45 371.664 172.525 369.071 175.249C368.085 176.287 368.457 177.514 369.042 178.653C370.561 181.633 371.766 184.57 374.922 186.673C378.669 189.172 380.247 193.62 380.889 198.032C382.073 206.14 386.353 213.043 389.326 220.442C390.334 222.948 391.43 225.329 391.561 228.053C391.598 228.784 391.481 229.631 391.817 230.208C396.309 238.134 394.432 246.957 394.782 255.292C395.082 262.297 390.487 268.243 385.214 273.034C375.798 281.588 364.513 286.467 352.38 289.732C350.138 290.339 348.041 289.864 345.879 289.623C337.669 288.702 329.568 287.074 321.409 285.868C315.273 284.963 309.408 283.085 303.33 282.07C299.81 281.478 297.092 278.929 293.886 277.497C282.637 272.479 272.513 265.591 262.33 258.732C254.646 253.553 241.359 255.759 235.172 262.706C233.77 264.276 232.134 265.533 230.366 266.577C223.617 270.565 219.292 277.015 214.033 282.508C209.322 287.424 210.257 293.626 211.557 299.075C212.974 305.021 213.646 311.295 216.758 316.825C219.884 322.391 223.273 327.504 229.08 330.842C233.302 333.26 237.597 333.347 242.075 333.179L242.082 333.209Z" fill="black"/>
</svg>
