<svg width="550" height="549" viewBox="0 0 550 549" fill="none" xmlns="http://www.w3.org/2000/svg">
<path d="M126.081 172.209C123.091 172.379 120.051 172.289 117.111 172.759C103.091 175.009 94.6206 183.789 89.8106 196.599C88.5306 200.019 87.7006 203.609 86.7406 207.139C84.6706 214.769 79.3906 219.669 73.5606 219.359C69.9606 219.169 67.6306 217.619 66.9206 213.859C66.1406 209.759 64.7506 205.859 59.7506 205.549C54.7506 205.229 51.0006 207.409 49.2706 212.309C47.8706 216.269 45.1306 218.659 41.1406 219.689C35.4206 221.169 31.1206 218.069 31.0106 212.319C30.9506 208.829 30.9806 205.319 31.1806 201.839C31.4706 196.909 29.3106 195.169 24.9006 197.609C20.0406 200.299 14.9206 201.239 9.57059 201.379C2.26059 201.579 -1.48944 196.309 0.980565 189.499C3.51056 182.529 7.0406 176.079 12.2006 170.769C15.6306 167.239 15.2606 164.569 11.8406 161.569C9.84061 159.819 8.10058 157.749 6.06058 156.039C3.38058 153.779 0.90056 151.349 2.35056 147.569C3.92056 143.449 7.3106 141.619 11.7006 141.239C18.9006 140.609 25.9306 141.569 33.0406 142.569C43.7106 144.079 54.2006 145.149 64.7306 139.939C73.0606 135.819 82.8706 135.989 92.1006 134.949C109.411 132.989 126.431 127.849 144.051 129.459C155.071 130.469 166.691 130.039 176.141 137.099C180.601 140.429 185.491 142.619 190.371 144.989C194.011 146.759 197.391 148.779 200.031 151.919C202.211 154.519 204.751 154.809 207.541 152.889C214.551 148.069 220.881 142.459 226.271 135.879C230.191 131.089 235.521 128.229 240.661 125.309C244.561 123.099 248.511 120.979 252.291 118.549C256.591 115.779 261.121 114.069 266.441 114.819C270.391 115.379 273.811 113.009 277.521 112.139C279.611 111.649 279.481 109.869 278.331 108.619C272.921 102.749 267.931 96.3093 261.711 91.4493C257.841 88.4293 251.861 88.7093 246.721 88.4993C238.421 88.1493 231.231 84.9893 224.411 80.6593C221.481 78.7993 218.901 76.3393 219.121 72.6993C219.401 67.9793 216.921 65.1693 213.531 62.8193C210.561 60.7593 208.521 57.9193 206.591 55.0393C204.931 52.5493 203.301 49.5393 204.631 46.5893C206.811 41.7793 204.311 38.7993 201.091 36.3093C197.461 33.4893 195.521 30.1293 196.031 25.5993C196.501 21.3793 194.931 18.2393 191.771 15.5293C189.131 13.2593 187.191 10.5993 189.401 6.82927C191.771 2.76927 194.941 -0.260729 199.891 0.989271C206.501 2.65927 212.971 4.87927 219.451 7.04927C224.391 8.69927 228.511 9.15927 232.181 4.03927C234.951 0.179271 239.581 -0.590729 244.411 0.429271C261.411 4.02927 277.641 10.1493 294.101 15.4693C314.691 22.1093 334.951 29.8793 355.771 35.7093C374.161 40.8593 392.741 45.6093 411.521 49.3193C420.701 51.1393 428.401 55.8893 435.801 61.5493C445.211 68.7393 445.151 78.9193 445.681 89.0293C445.741 90.2093 444.831 91.5293 444.121 92.6293C442.501 95.1493 440.761 97.5993 439.031 100.039C432.581 109.139 433.391 111.699 441.181 119.499C446.431 124.749 452.711 129.439 454.951 137.389C456.221 141.889 459.861 145.299 463.341 148.419C466.471 151.219 469.221 154.269 471.631 157.709C474.741 162.149 476.441 162.309 480.351 158.559C485.911 153.219 491.601 148.179 499.441 146.339C509.361 144.009 517.041 147.699 523.421 154.969C530.611 163.169 535.081 172.929 537.551 183.339C541.071 198.209 544.601 213.089 546.121 228.389C547.751 244.809 547.881 261.259 547.971 277.719C548.101 303.529 549.921 329.329 548.831 355.129C548.401 365.199 547.811 375.379 544.721 385.179C542.801 391.259 538.501 394.909 532.671 395.909C525.801 397.089 523.791 401.529 522.861 407.299C522.231 411.259 521.821 415.229 518.381 418.069C513.721 421.909 511.441 421.869 507.311 417.549C503.451 413.523 499.504 413.493 495.471 417.459C489.371 423.469 486.431 422.989 482.481 415.249C480.621 411.609 479.921 407.609 480.081 403.619C480.271 398.929 478.021 397.309 473.781 397.369C472.611 397.389 471.431 397.419 470.291 397.249C463.551 396.239 459.391 395.919 458.531 386.599C457.951 380.339 455.791 375.189 450.381 370.889C439.701 362.399 440.301 350.589 442.141 338.369C443.221 331.189 445.201 324.099 445.031 316.709C444.961 313.679 444.151 311.589 441.811 309.389C433.661 301.729 426.741 293.019 421.331 283.179C420.021 280.799 419.211 279.779 416.081 281.619C408.421 286.119 402.461 292.689 395.421 297.929C383.051 307.159 369.421 312.949 355.161 317.899C351.231 319.259 347.231 320.439 343.241 321.609C339.681 322.649 338.761 324.649 340.541 327.969C343.531 333.549 346.871 338.899 350.361 344.179C361.761 361.419 365.221 380.779 366.161 401.059C367.101 421.329 368.261 441.629 371.941 461.659C373.021 467.539 374.811 473.269 375.551 479.239C376.071 483.409 379.101 486.329 381.621 489.409C386.381 495.229 390.661 501.349 394.121 508.039C397.111 513.829 396.531 518.879 392.161 523.679C388.311 527.909 383.731 528.689 377.641 525.919C372.951 523.789 368.391 521.549 364.131 518.479C356.321 512.839 351.691 514.409 348.081 523.269C345.751 528.979 343.201 534.579 340.231 539.989C337.221 545.459 332.591 548.559 326.401 548.019C320.221 547.479 317.621 542.679 315.851 537.339C314.941 534.589 314.971 531.769 314.901 528.939C314.771 524.019 312.391 521.979 307.561 522.899C305.461 523.299 303.471 524.299 301.421 524.969C291.961 528.029 285.781 522.959 285.721 513.109C285.661 504.239 289.851 497.969 295.741 492.199C299.581 488.429 299.271 487.479 294.281 485.409C288.591 483.039 284.201 479.029 283.301 472.859C282.341 466.319 286.491 460.919 293.461 457.809C297.881 455.829 302.301 454.339 307.331 454.249C315.451 454.099 318.591 450.559 317.641 442.409C316.581 433.309 317.111 424.049 315.571 415.089C314.261 407.519 312.821 399.869 311.031 392.329C309.591 386.259 307.201 380.479 305.891 374.329C303.631 363.719 300.461 353.059 294.021 343.939C287.961 335.359 280.051 332.499 269.141 332.799C254.531 333.199 240.641 337.589 226.191 338.259C221.461 338.479 216.781 338.049 212.291 337.169C198.261 334.419 183.781 335.479 169.891 331.159C161.881 328.669 153.041 329.779 144.791 327.479C134.701 324.679 123.881 323.399 115.401 316.879C102.481 306.939 91.2906 294.779 91.3206 277.539C91.3406 264.009 94.6506 250.319 100.991 238.129C104.451 231.479 110.551 226.259 115.611 220.569C124.981 210.009 134.541 199.409 148.021 193.669C149.531 193.029 150.821 191.869 152.181 190.919C159.071 186.099 158.991 182.859 151.291 178.929C143.441 174.919 135.501 170.689 126.101 172.249L126.081 172.209Z" fill="black"/>
</svg>
