<svg width="629" height="428" viewBox="0 0 629 428" fill="none" xmlns="http://www.w3.org/2000/svg">
<path d="M29.7193 41.8317C29.9593 36.3617 31.2193 31.6917 33.4293 27.4017C38.0393 18.4617 43.1193 9.7317 53.0993 5.7117C71.5493 -1.7283 89.9393 -2.4383 108.069 6.8917C110.839 8.3217 113.629 9.72171 116.379 11.1817C117.509 11.7817 117.429 11.8517 118.569 14.5817C118.749 15.0217 119.569 15.3817 120.139 15.4617C129.589 16.6517 136.559 22.5017 143.529 28.1617C148.989 32.5917 154.079 37.4717 159.289 42.2017C160.409 43.2117 161.389 44.5117 161.599 45.9917C162.139 49.6717 164.719 51.4617 167.619 53.0417C168.439 53.4817 169.759 53.4317 169.489 54.8917C169.409 55.3417 169.099 55.9217 168.729 56.1017C167.469 56.7117 166.989 55.5617 166.389 54.8317C165.569 53.8517 164.709 52.9917 163.219 52.8517C163.759 55.7117 165.519 57.3017 168.149 58.0717C168.509 58.1717 168.879 58.4917 169.189 58.4217C172.119 57.8117 172.999 58.1217 174.909 60.2117C188.659 75.3317 202.369 90.4917 216.249 105.492C219.209 108.692 222.999 111.042 226.879 113.092C240.569 120.332 254.669 126.642 269.089 132.352C282.529 137.672 294.929 145.222 307.569 152.252C313.119 155.332 319.229 157.692 324.929 160.722C330.959 163.942 337.039 167.022 342.749 170.852C345.429 172.642 348.809 173.282 351.829 174.632C359.109 177.902 366.609 180.642 373.269 185.182C375.469 186.682 378.609 186.282 380.309 188.982C380.939 187.542 379.349 187.622 379.799 186.432C384.919 188.342 389.679 191.082 394.339 193.962C406.529 201.482 418.329 209.712 430.859 216.612C443.629 223.652 456.709 230.272 470.379 235.472C474.769 237.142 479.529 237.992 484.199 238.682C494.889 240.252 505.149 243.382 515.219 247.102C525.509 250.902 536.289 252.232 546.949 254.242C555.419 255.842 563.719 257.992 571.599 261.592C578.539 264.762 585.699 267.182 593.099 269.172C612.039 274.262 627.449 290.782 628.209 310.982C628.459 317.642 627.919 324.652 625.659 331.212C625.209 332.512 624.899 334.082 623.709 334.772C618.019 338.022 614.939 344.232 609.149 347.352C604.749 349.722 599.889 348.902 595.239 349.462C589.639 350.142 584.029 348.992 578.419 348.772C563.479 348.172 548.819 351.032 534.009 352.092C521.189 353.012 508.379 354.042 495.599 355.462C489.319 356.162 483.289 357.512 477.459 359.752C464.949 364.572 451.779 367.002 438.939 370.632C426.759 374.082 415.029 378.632 403.969 384.802C399.109 387.512 393.789 388.832 388.599 390.572C372.509 395.952 356.329 401.062 340.339 406.712C332.829 409.362 325.459 412.512 318.069 415.512C305.789 420.502 292.839 421.282 279.999 423.072C263.669 425.362 247.219 426.572 230.789 427.242C216.749 427.812 202.579 428.922 188.569 426.262C188.449 426.242 188.319 426.202 188.199 426.212C174.069 426.972 161.119 421.532 147.809 418.222C134.559 414.922 122.849 408.172 114.949 396.812C111.689 392.122 107.779 387.352 106.779 381.172C105.929 375.972 102.349 372.292 98.3993 369.152C92.6393 364.572 88.5093 358.642 84.2593 352.792C74.0493 338.752 66.8593 323.102 59.9593 307.302C58.4493 303.852 57.5393 300.212 57.8993 296.362C57.9693 295.632 57.9393 294.842 57.7593 294.132C54.3493 280.422 55.2993 266.322 54.0493 252.412C53.8193 249.842 54.0793 247.162 54.5093 244.592C55.8393 236.702 53.2493 229.002 53.6993 221.122C54.1993 212.372 55.3693 203.682 56.9493 195.162C58.8093 185.162 58.5793 175.032 60.2193 165.062C60.6093 162.712 61.1793 160.442 61.7893 158.162C64.5493 147.812 65.1893 137.382 64.6393 126.652C63.8593 111.292 58.6193 97.1417 54.3193 82.7117C52.8193 77.6817 49.1993 75.1117 43.9493 75.0917C30.8093 75.0517 17.8593 73.1517 4.89934 71.3817C2.80934 71.0917 0.299342 70.5717 0.0193418 68.0417C-0.370658 64.5817 1.63934 61.8217 4.08934 59.6617L29.7193 48V41.8317Z" fill="black"/>
</svg>
