<svg width="460" height="314" viewBox="0 0 460 314" fill="none" xmlns="http://www.w3.org/2000/svg">
<path d="M22.5599 31.0825C22.7352 27.0869 23.6556 23.6757 25.2699 20.5421C28.6372 14.0119 32.3479 7.6351 39.6378 4.6987C53.1145 -0.735833 66.5474 -1.25445 79.7905 5.56062C81.8138 6.60516 83.8517 7.62779 85.8605 8.69425C86.6859 9.13251 86.6275 9.18365 87.4602 11.1778C87.5916 11.4992 88.1906 11.7621 88.607 11.8206C95.5097 12.6898 100.601 16.9629 105.692 21.0972C109.68 24.3331 113.398 27.8977 117.204 31.3527C118.022 32.0905 118.738 33.0401 118.891 34.1211C119.286 36.8092 121.17 38.1167 123.289 39.2708C123.888 39.5922 124.852 39.5557 124.655 40.6221C124.596 40.9508 124.37 41.3745 124.099 41.5059C123.179 41.9515 122.828 41.1115 122.39 40.5783C121.791 39.8624 121.163 39.2343 120.075 39.132C120.469 41.2211 121.755 42.3825 123.676 42.9449C123.939 43.018 124.209 43.2517 124.435 43.2006C126.576 42.755 127.218 42.9815 128.614 44.5081C138.657 55.5525 148.672 66.626 158.81 77.5827C160.972 79.9202 163.741 81.6367 166.575 83.1341C176.575 88.4226 186.874 93.0317 197.407 97.2026C207.224 101.089 216.282 106.603 225.515 111.738C229.569 113.988 234.032 115.712 238.195 117.925C242.6 120.277 247.041 122.527 251.212 125.325C253.169 126.632 255.638 127.1 257.844 128.086C263.162 130.474 268.64 132.476 273.505 135.792C275.112 136.888 277.406 136.596 278.647 138.568C279.108 137.516 277.946 137.574 278.275 136.705C282.015 138.1 285.492 140.102 288.896 142.205C297.8 147.698 306.419 153.71 315.572 158.75C324.899 163.892 334.454 168.728 344.439 172.526C347.646 173.746 351.123 174.367 354.534 174.871C362.342 176.018 369.837 178.304 377.192 181.021C384.708 183.797 392.583 184.769 400.369 186.237C406.556 187.406 412.619 188.976 418.375 191.606C423.444 193.921 428.674 195.689 434.079 197.142C447.914 200.86 459.17 212.927 459.725 227.682C459.908 232.547 459.514 237.668 457.863 242.459C457.534 243.409 457.308 244.556 456.438 245.06C452.282 247.434 450.032 251.97 445.803 254.249C442.589 255.98 439.039 255.381 435.643 255.79C431.552 256.287 427.454 255.447 423.356 255.286C412.444 254.848 401.735 256.937 390.917 257.711C381.553 258.383 372.196 259.135 362.861 260.173C358.274 260.684 353.869 261.67 349.61 263.306C340.473 266.827 330.853 268.602 321.474 271.254C312.577 273.774 304.009 277.097 295.93 281.604C292.38 283.584 288.494 284.548 284.703 285.819C272.95 289.749 261.131 293.481 249.451 297.608C243.966 299.544 238.582 301.845 233.184 304.036C224.215 307.681 214.755 308.251 205.376 309.558C193.448 311.231 181.432 312.115 169.431 312.604C159.175 313.021 148.825 313.831 138.591 311.888C138.504 311.874 138.409 311.845 138.321 311.852C128 312.407 118.541 308.433 108.818 306.016C99.14 303.605 90.5865 298.675 84.8159 290.377C82.4347 286.951 79.5786 283.467 78.8482 278.953C78.2273 275.154 75.6123 272.466 72.727 270.173C68.5197 266.827 65.5029 262.496 62.3985 258.222C54.9406 247.967 49.6887 236.535 44.6486 224.994C43.5457 222.474 42.8809 219.815 43.1439 217.003C43.195 216.47 43.1731 215.893 43.0416 215.374C40.5508 205.36 41.2447 195.061 40.3317 184.9C40.1637 183.023 40.3536 181.065 40.6677 179.188C41.6392 173.425 39.7473 167.8 40.076 162.044C40.4413 155.653 41.2959 149.305 42.45 143.082C43.8086 135.778 43.6406 128.378 44.8385 121.096C45.1234 119.379 45.5398 117.721 45.9853 116.055C48.0014 108.495 48.4689 100.877 48.0671 93.039C47.4974 81.8193 43.6698 71.4835 40.5289 60.9432C39.4332 57.269 36.789 55.3918 32.9542 55.3771C23.3561 55.3479 13.8968 53.9601 4.43019 52.6672C2.90355 52.4554 1.07013 52.0755 0.865606 50.2275C0.580732 47.7001 2.04893 45.6841 3.83853 44.1063L22.5599 35.5881V31.0825Z" fill="black"/>
</svg>
