<svg width="325" height="401" viewBox="0 0 325 401" fill="none" xmlns="http://www.w3.org/2000/svg">
<g clip-path="url(#clip0_246_243)">
<path d="M317.437 318.708C316.69 318.302 316.97 317.804 316.841 317.28C316.917 323.914 314.133 329.533 311.417 335.194C309.285 339.637 306.406 343.601 303.686 347.664C300.917 351.795 297.75 355.736 293.399 358.181C290.622 359.742 287.774 361.363 284.621 362.29C283.1 362.734 281.667 363.653 280.35 364.576C277.911 366.28 275.161 367.374 272.544 368.714C268.026 371.023 263.649 373.552 259.298 376.156C256.957 377.558 255.269 379.608 253.187 381.229C250.323 383.462 247.042 385.087 243.537 386.044C239.755 387.077 236.091 388.436 232.024 388.618C229.308 388.74 226.888 390.801 224.498 392.366C220.516 394.974 216.688 398.02 212.041 399.307C207.672 400.518 203.188 401.547 198.549 400.67C197.627 400.495 196.576 400.803 195.727 400.495C192.233 399.219 188.637 399.975 185.098 399.831C183.471 399.766 182.53 398.601 181.153 398.149C178.069 397.135 175.334 395.252 171.966 394.792C170.137 394.542 168.332 393.528 166.705 392.54C164.584 391.253 162.202 390.653 160.013 389.575C157.214 388.201 154.384 386.887 151.619 385.452C150.416 384.825 149.096 384.506 147.89 384.707C145.504 385.102 143.441 384.134 141.419 383.367C139.465 382.627 137.417 382.334 135.475 381.594C133.093 380.686 130.866 379.486 128.556 378.454C126.481 377.527 124.285 376.851 122.217 375.868C116.194 372.997 109.832 370.856 104.283 366.975C102.136 365.472 99.6323 364.374 97.1553 363.471C94.8528 362.632 93.2104 360.961 91.2834 359.651C88.6926 357.889 86.2194 355.945 83.5641 354.293C79.4522 351.738 75.549 348.905 71.9378 345.701C68.7287 342.853 65.2617 340.301 62.3826 337.07C59.1811 333.478 55.642 330.167 52.6567 326.408C46.8265 319.065 42.2481 310.909 38.25 302.442C35.993 297.665 33.9333 292.797 31.7825 287.967C30.1817 284.372 28.1789 280.962 26.8588 277.237C25.8157 274.294 24.8712 271.314 23.7825 268.386C22.5876 265.17 21.2638 262 20.0272 258.795C19.4582 257.318 18.9841 255.807 18.4454 254.318C17.3605 251.323 16.2339 248.338 15.187 245.331C14.967 244.693 15.096 243.945 14.9405 243.273C14.2159 240.095 13.2828 237.034 11.8262 234.05C10.472 231.271 9.72094 228.13 9.11781 225.066C8.37813 221.311 7.01635 217.73 6.3146 213.975C6.11735 212.927 5.8101 211.891 5.6963 210.835C5.43836 208.462 4.86179 206.115 4.20935 203.879C3.10931 200.109 2.98792 196.114 1.83857 192.499C0.537483 188.414 1.50856 184.457 0.950948 180.482C-0.209787 172.193 0.23023 163.828 0.400926 155.501C0.52231 149.578 0.981294 143.655 1.51235 137.754C1.84995 133.988 3.23069 130.396 3.86037 126.652C4.01589 125.737 4.55833 124.712 4.46729 123.728C3.88313 117.452 5.72286 111.513 6.8798 105.476C7.55879 101.93 8.64745 98.4858 9.52369 94.9963C10.4834 91.1689 10.0889 87.1973 11.5265 83.4231C13.8518 77.3213 15.3805 70.855 19.6213 65.6835C21.7266 63.1129 23.6801 60.4209 25.9333 57.9566C28.0423 55.6518 29.6962 52.9294 31.828 50.6474C34.3012 48.0047 36.0044 44.6785 38.7621 42.3775C42.3846 39.3551 45.901 36.2226 49.3718 33.0369C53.7492 29.0235 58.4794 25.4353 63.2095 21.8737C68.2811 18.0577 73.5424 14.5493 79.4295 11.9142C84.4328 9.67397 89.3261 7.19453 94.5797 5.59979C100.194 3.89494 105.865 2.39892 111.691 1.57118C111.816 1.55219 111.941 1.5446 112.067 1.52182C120.211 0.280199 128.412 0.310575 136.598 0.386515C147.241 0.485237 157.897 -0.122283 168.525 0.572568C172.542 0.834561 176.567 0.887719 180.565 1.22185C193.083 2.26223 205.392 4.48348 217.189 8.96393C224.419 11.7092 231.417 15.0619 238.757 17.5338C243.226 19.0374 247.778 19.96 252.538 20.2638C257.716 20.5941 262.852 21.6611 267.905 22.9141C273.678 24.3494 279.436 25.8454 285.141 27.5275C291.453 29.388 296.271 33.5343 300.458 38.4172C303.356 41.7966 306.034 45.3658 308.826 48.8362C309.228 49.3374 309.809 49.8538 309.342 50.4765C308.967 50.9739 308.307 50.5525 307.791 50.4575C305.014 49.9487 302.412 48.5438 299.711 48.1755C296.904 47.792 294.666 46.5694 292.345 45.3202C290.933 44.5608 289.78 43.4027 288.248 42.7496C285.395 41.5346 282.755 39.8639 280.039 38.3793C278.033 37.2857 275.927 36.2302 274.148 34.7607C273.094 33.8874 271.649 34.0241 270.659 33.0863C270.488 32.923 269.794 32.904 269.657 33.2913C269.441 33.9064 269.968 34.4 270.355 34.738C272.229 36.3669 274.239 37.8363 276.056 39.5222C280.191 43.3533 285.153 45.9201 289.887 48.8476C291.969 50.1348 293.93 51.6346 295.884 53.1192C300.132 56.3543 301.661 60.8879 301.82 66.0138C301.904 68.7325 302.01 71.4625 301.835 74.1698C301.574 78.1984 302.92 81.8853 303.861 85.6747C304.51 88.2908 305.048 90.8994 306.364 93.3218C307.768 95.9076 307.313 98.8731 307.476 101.668C307.7 105.514 307.252 109.414 307.669 113.229C307.995 116.214 307.946 119.381 308.929 122.16C310.097 125.475 312.346 128.345 314.702 131.037C316.8 133.437 318.837 135.913 320.327 138.745C321.26 140.519 321.879 142.447 321.958 144.486C322.023 146.115 322.596 147.596 323.123 149.1C324.625 153.387 324.526 157.859 324.508 162.302C324.477 168.692 324.788 175.109 323.491 181.439C322.964 184.021 322.065 186.519 321.446 189.056C320.877 191.402 320.616 193.832 319.804 196.156C318.298 200.454 317.004 204.836 315.73 209.202C315.07 211.458 314.44 213.861 314.273 216.269C313.826 222.815 312.919 229.353 313.363 235.929C313.625 239.806 314.607 243.584 315.658 247.32C316.841 251.531 316.94 255.917 317.793 260.17C319.129 266.818 318.62 273.52 318.435 280.18C318.355 283.039 317.892 285.94 317.847 288.837C317.809 291.438 317.953 293.989 318.526 296.587C319.645 301.637 318.704 306.774 318.366 311.847C318.218 314.06 317.027 316.213 317.441 318.712L317.437 318.708ZM224.957 20.8751C218.998 17.8109 212.975 15.5327 206.769 13.733C199.235 11.5459 191.554 10.1486 183.774 9.1272C177.094 8.2501 170.388 7.73371 163.674 7.30844C157.392 6.90976 151.092 6.70472 144.795 6.56803C137.258 6.40476 129.724 6.34401 122.27 7.93874C119.718 8.48551 117.187 9.43476 114.502 9.19935C112.715 9.04367 111.004 9.03228 109.574 10.3878C109.066 10.87 108.342 11.0865 107.651 11.0713C105.436 11.0219 103.285 11.4737 101.134 11.8648C93.2331 13.2963 85.8097 16.0377 79.604 21.2055C76.3949 23.8785 73.163 26.1681 69.2636 27.7553C65.0341 29.4753 61.7795 32.7939 58.32 35.7328C50.2897 42.5522 42.1836 49.2843 35.3405 57.3719C29.351 64.4533 24.3325 72.1422 21.2562 80.9246C18.2178 89.6008 16.3629 98.6111 14.5346 107.61C12.3231 118.485 10.5782 129.435 9.37575 140.465C8.6171 147.429 7.91156 154.397 7.23636 161.368C6.64082 167.546 6.56496 173.735 7.25533 179.912C8.26813 189.006 10.5137 197.861 12.6417 206.731C16.7005 223.669 21.6242 240.357 27.5796 256.729C34.5402 275.866 42.6881 294.464 52.744 312.196C61.7074 327.995 73.6713 340.973 89.5233 349.931C107.116 359.871 125.388 368.414 144.601 374.827C154.49 378.127 164.269 381.681 173.384 386.887C186.778 394.534 200.764 394.872 215.095 389.837C216.04 389.507 216.62 388.892 217.083 387.98C218.426 385.338 219.499 382.589 220.444 379.794C220.906 378.423 221.475 377.949 223.023 378.34C229.255 379.919 235.533 379.851 241.72 378.138C246.124 376.92 250.213 374.964 253.832 371.801C251.233 370.48 248.639 369.774 246.04 369.086C240.707 367.678 235.245 366.717 230.147 364.511C226.585 362.969 223.482 360.915 221.149 357.623C217.982 353.147 214.268 349.091 210.316 345.287C209.272 344.284 208.574 343.225 208.134 341.866C206.678 337.34 204.432 333.197 201.652 329.355C196.576 322.338 190.132 316.707 183.558 311.152C173.972 303.049 163.12 297.49 151.175 293.883C146.251 292.395 141.237 291.278 136.006 290.01C138.722 288.26 141.502 287.58 144.419 287.474C149.817 287.269 154.862 288.844 159.824 290.739C172.766 295.683 183.52 303.968 193.716 313.081C197.085 316.088 200.366 319.19 203.875 322.421C204.303 315.169 204.755 308.202 205.119 301.23C205.566 292.695 206.776 284.303 209.409 276.14C211.567 269.449 213.931 262.827 215.744 256.027C217.989 247.594 218.243 238.956 218.414 230.31C218.592 221.265 218.141 212.286 216.567 203.347C215.364 196.524 212.796 190.054 211.761 183.204C210.794 176.803 210.903 170.564 213.76 164.538C215.895 160.031 218.407 155.756 221.028 151.53C222.465 149.206 223.888 146.871 225.432 144.35C224.722 144.35 224.335 144.285 223.979 144.361C220.102 145.166 216.237 146.013 212.36 146.803C204.216 148.462 196.072 150.205 187.696 149.981C181.453 149.814 175.205 149.597 168.977 149.172C164.588 148.868 160.275 148.01 156.231 145.546C156.747 145.345 157.066 145.139 157.404 145.094C165.51 144.027 173.677 144.008 181.798 144.448C195.822 145.204 209.291 143.287 222.154 137.526C230.321 133.87 237.293 128.809 241.978 120.96C242.664 119.81 242.638 119.453 241.238 119.195C236.914 118.393 232.59 117.562 228.307 116.556C223.228 115.36 218.433 113.37 215.694 108.635C210.524 99.7046 209.128 90.045 211.45 79.9982C214.029 68.8464 220.364 60.1285 229.532 53.4268C235.279 49.2273 241.693 46.0037 247.182 41.4207C247.69 40.9954 248.347 40.8853 248.98 40.984C253.612 41.7206 258.228 40.7524 263.083 41.0182C262.605 40.3575 262.298 39.8867 261.949 39.4538C256.555 32.8167 249.151 30.3258 241.033 29.7487C232.024 29.107 223.08 30.4322 214.135 31.3586C213.02 31.4725 211.503 32.1636 210.926 31.3017C210.202 30.2195 211.082 28.7691 211.617 27.5692C211.814 27.125 212.22 26.7681 212.55 26.3884C214.105 24.5962 216.275 23.9089 218.403 23.1457C220.5 22.3939 222.746 22.0598 224.946 20.8941L224.957 20.8751ZM257.386 361.542C260.504 361.686 264.013 361.291 267.51 360.733C276.614 359.279 284.853 355.888 291.628 349.498C303.903 337.924 309.418 323.135 310.875 306.762C311.876 295.504 312.02 284.174 311.421 272.855C310.992 264.771 310.093 256.767 307.961 248.949C306.406 243.239 304.684 237.577 304.547 231.59C304.35 222.856 306.171 214.435 308.454 206.085C311.208 196.019 314.607 186.117 316.098 175.739C317.293 167.409 316.921 159.074 315.279 150.877C313.276 140.879 307.59 133.069 299.722 126.77C291.066 119.84 281.204 116.172 270.097 116.297C266.232 116.343 262.272 116.552 258.782 118.678C250.391 123.8 243.799 130.741 238.465 138.924C232.013 148.815 227.654 159.644 224.491 170.97C223.448 174.707 222.048 178.375 221.813 182.308C221.487 187.692 222.784 192.83 224.206 197.937C225.769 203.545 226.994 209.172 226.782 215.057C226.68 217.829 226.953 220.612 227.025 223.392C227.23 231.544 227.214 239.681 226.141 247.795C225.25 254.523 222.962 260.853 220.876 267.236C216.825 279.633 212.762 291.981 212.542 305.255C212.39 314.315 212.451 323.317 214.689 332.138C217.208 342.075 222.431 350.151 231.581 355.269C239.459 359.677 247.945 361.709 257.39 361.542H257.386ZM278.488 51.0878C274.41 50.2525 270.788 49.4323 267.135 48.7793C262.207 47.8984 257.276 47.4541 252.417 49.2767C238.515 54.4937 228.303 63.9407 221.297 76.8695C216.775 85.2115 217.124 93.6977 221.828 101.914C223.334 104.542 225.272 106.759 228.318 107.955C236.739 111.266 245.43 111.346 254.2 110.348C261.331 109.535 268.413 108.286 275.552 107.583C279.857 107.158 282.949 105.028 285.16 101.694C290.573 93.5383 293.786 84.509 294.567 74.7317C295.004 69.2982 293.938 64.0698 291.055 59.3349C290.399 58.2566 289.795 57.1023 288.604 56.2745C288.089 59.6728 288.229 63.0028 287.413 66.1885C285.441 73.8926 282.687 76.5885 275.548 75.924C270.408 75.4456 266.088 73.4597 263.372 68.7667C262.856 67.8744 262.765 67.0884 263.19 66.1202C264.646 62.794 267.006 60.2234 269.782 57.9908C272.567 55.7468 275.385 53.5483 278.492 51.0916L278.488 51.0878ZM298.914 95.3305C295.451 100.726 292.534 105.7 289.792 110.78C289.302 111.684 289.412 112.064 290.346 112.428C293.38 113.609 296.4 114.824 299.404 116.077C300.443 116.51 300.599 116.104 300.542 115.185C300.322 111.794 300.189 108.4 299.92 105.017C299.677 101.96 299.294 98.911 298.914 95.3305Z" fill="black"/>
<path d="M65.0448 109.242C66.4862 107.784 68.087 106.812 69.3236 105.396C72.9993 101.181 74.3952 96.2222 73.7427 90.8608C72.912 84.0186 74.801 78.0232 78.4312 72.4302C82.8693 65.5918 88.5212 59.8242 94.7308 54.6147C98.5164 51.4404 103.231 50.4418 107.969 49.6634C120.373 47.632 132.121 50.2975 143.698 54.5273C153.735 58.1952 159.387 65.4969 162.205 75.5513C164.424 83.4681 165.702 91.4569 164.849 99.6509C163.829 109.443 160.069 117.968 152.612 124.677C149.281 127.673 146.031 130.756 142.184 133.091C138.353 135.419 134.222 136.634 129.682 136.751C119.243 137.025 109.096 135.791 99.3699 131.754C91.6772 128.561 85.4677 123.42 79.9712 117.296C77.058 114.053 74.1069 110.871 69.6802 109.645C68.2236 109.242 66.7214 109.629 65.041 109.246L65.0448 109.242ZM156.261 97.0158C156.189 89.3686 155.753 82.6973 153.556 76.2955C151.466 70.2051 148.401 65.0564 142.082 62.1251C132.709 57.7776 123.04 56.0803 112.859 57.4207C108.948 57.937 104.973 58.556 101.528 60.7126C87.4477 69.5369 79.6147 81.9758 79.9864 98.918C80.1495 106.391 83.2524 112.709 89.2988 117.132C99.9579 124.931 112.184 128.307 125.24 128.314C133.555 128.322 140.762 124.814 146.846 119.247C153.606 113.062 156.895 105.343 156.257 97.0158H156.261Z" fill="black"/>
<path d="M27.6522 78.0243C31.0055 75.0019 34.3359 72.0402 37.6209 69.033C42.6469 64.4348 47.5933 59.7455 52.6687 55.2043C60.259 48.4191 69.01 43.4754 78.3338 39.5189C84.6799 36.8268 91.1057 34.279 97.8767 32.8666C101.302 32.1527 104.822 31.868 108.312 31.4807C113.668 30.8807 118.956 29.8707 124.206 28.7164C125.29 28.4772 126 28.5987 126.758 29.2025C128.234 30.3871 130.222 31.6705 130.199 33.4095C130.188 34.374 127.441 34.5031 125.913 34.9397C118.743 36.9939 111.407 38.4026 104.295 40.6732C92.953 44.2955 83.1285 50.4846 74.2637 58.2989C68.3614 63.5045 62.5349 68.7938 56.6668 74.0412C56.3064 74.364 56.0295 74.8348 55.415 74.755C45.966 73.4869 36.8736 75.1158 27.9519 78.1306C27.9064 78.1458 27.8343 78.0926 27.6484 78.0243H27.6522Z" fill="black"/>
<path d="M227.939 293.826C228.3 284.28 229.286 275.767 230.815 267.319C232.605 257.409 234.551 247.521 236.076 237.569C236.763 233.1 236.717 228.498 236.797 223.953C237.032 210.873 236.402 197.796 236.649 184.711C236.91 170.89 240.488 158.109 248.112 146.548C251.196 141.874 255.11 137.993 259.784 134.849C264.833 131.455 270.412 131.193 276.129 131.944C281.766 132.685 286.936 134.849 291.613 138.042C295.235 140.518 297.037 144.436 298.797 148.268C301.866 154.943 303.224 162.138 304.889 169.235C305.895 173.518 307.127 177.767 307.131 182.213C307.135 190.084 304.84 197.458 302.116 204.721C299.564 211.529 296.381 218.121 294.663 225.218C292.667 233.442 292.463 241.826 292.96 250.24C293.335 256.649 295.38 262.648 297.246 268.727C300.629 279.75 300.121 290.913 297.587 302.027C295.285 312.112 291.211 321.517 285.931 330.368C282.141 336.72 276.319 340.457 269.13 341.861C257.292 344.178 246.667 341.622 238.007 332.98C232.324 327.311 229.533 320.124 228.656 312.173C227.951 305.756 228.03 299.308 227.939 293.833V293.826ZM291.021 293.374C291.939 289.133 291.518 285.187 291.048 281.254C290.24 274.48 288.355 267.93 286.492 261.407C282.547 247.586 282.778 233.936 287.505 220.361C290.065 213.006 293.199 205.864 295.638 198.46C297.424 193.038 298.441 187.487 298.809 181.791C298.911 180.212 298.665 179.297 296.757 179.559C295.52 179.73 294.234 179.604 292.975 179.559C277.578 178.97 262.177 179.13 246.773 179.357C245.248 179.38 244.929 179.836 244.922 181.279C244.869 194.807 245.578 208.332 245.036 221.869C244.649 231.532 244 241.146 242.373 250.692C241.754 254.314 240.886 257.883 240.18 261.471C244.148 261.904 247.964 262.383 251.791 262.724C263.964 263.807 273.493 269.517 280.734 279.219C284.159 283.809 287.474 288.483 291.025 293.374H291.021ZM254.246 294.338C256.958 294.338 259.674 294.338 262.386 294.338C269.013 294.346 275.621 293.875 282.228 293.472C283.511 293.393 284.125 293.207 283.15 291.764C281.246 288.946 279.497 286.03 277.529 283.251C272.965 276.811 267.093 272.038 259.708 269.255C254.124 267.152 248.199 267.326 242.369 266.992C239.111 266.806 239.167 266.875 238.504 270.185C237.013 277.616 236.239 285.127 235.7 292.675C235.602 294.057 235.856 294.384 237.203 294.369C242.885 294.304 248.567 294.342 254.249 294.342L254.246 294.338ZM281.603 324.953C281.09 324.783 280.916 324.676 280.741 324.672C272.567 324.498 264.844 322.535 257.534 318.886C255.968 318.104 254.303 317.933 252.577 318.062C248.613 318.354 245.176 320.348 241.466 321.445C240.249 321.806 240.29 322.22 240.84 323.123C242.536 325.914 244.702 328.249 247.456 330.003C254.208 334.302 261.517 334.78 269.047 332.825C273.925 331.556 278.139 329.039 281.599 324.957L281.603 324.953ZM271.759 139.774C271.569 139.774 271.38 139.778 271.19 139.774C266.809 139.645 263.334 141.012 261.502 145.378C260.728 147.223 259.674 148.951 258.76 150.74C257.682 152.843 257.686 152.858 260.148 152.847C264.317 152.828 268.467 153.044 272.601 153.618C278.773 154.472 284.827 155.835 290.733 157.828C291.841 158.204 292.258 157.897 292.205 156.765C292.061 153.705 291.514 150.774 289.686 148.207C285.29 142.033 278.864 140.184 271.763 139.77L271.759 139.774ZM282.949 318.149C285.548 311.987 287.732 306.082 289.511 300.022C289.823 298.959 289.333 298.993 288.631 299.008C285.233 299.077 281.83 299.179 278.431 299.183C277.4 299.183 277.1 299.525 277.248 300.501C277.521 302.304 277.673 304.131 277.988 305.923C278.746 310.213 280.036 314.303 282.949 318.149ZM259.45 172.329C263.19 172.971 266.907 173.632 270.632 174.247C273.261 174.683 273.356 174.645 273.026 171.953C272.355 166.425 271.266 160.972 269.832 155.497C267.932 157.403 260.637 169.261 259.45 172.329ZM244.63 317.458C246.045 311.816 246.708 306.451 247.573 301.127C247.698 300.36 247.357 300.117 246.633 300.144C242.919 300.277 239.205 300.417 235.492 300.489C234.388 300.512 234.225 300.804 234.646 301.826C237.005 307.518 240.309 312.594 244.626 317.458H244.63ZM256.541 157.126C253.809 159.23 251.776 161.086 250.138 163.342C248.032 166.235 246.504 169.368 246.075 172.982C245.95 174.03 246.215 174.418 247.342 174.376C249.993 174.281 252.649 174.311 255.304 174.3C255.953 174.3 256.56 174.364 256.556 173.377C256.529 168.137 256.544 162.901 256.544 157.13L256.541 157.126ZM272.184 322.242C272.229 321.194 272.256 320.583 272.283 319.972C272.491 314.929 272.738 309.891 272.893 304.848C273.049 299.912 273.845 300.679 269.043 300.326C268.478 300.284 267.905 300.254 267.359 300.117C266.471 299.897 266.107 300.087 266.145 301.101C266.232 303.432 266.05 305.782 266.259 308.102C266.725 313.247 268.061 318.092 272.176 322.242H272.184ZM260.99 306.785C260.948 306.785 260.907 306.785 260.861 306.785C260.861 305.141 260.74 303.485 260.895 301.852C261.032 300.413 260.345 300.144 259.184 300.151C257.223 300.163 255.255 300.258 253.309 300.091C252.102 299.988 252.061 300.497 252.163 301.366C252.554 304.685 252.952 308.004 253.316 311.326C253.388 311.975 253.711 312.139 254.299 312.195C256.241 312.378 258.183 312.613 260.121 312.83C260.827 312.909 261.085 312.761 261.024 311.903C260.895 310.206 260.986 308.49 260.986 306.785H260.99ZM280.92 157.882C280.745 157.889 280.571 157.897 280.396 157.904C279.004 163.091 277.616 168.278 276.205 173.457C275.981 174.285 276.455 174.247 276.994 174.247C279.266 174.243 281.538 174.213 283.806 174.262C284.709 174.281 284.861 173.992 284.652 173.157C283.385 168.073 282.156 162.977 280.916 157.882H280.92ZM299.131 173.761C297.276 169.793 295.467 165.92 293.445 161.588C292.193 165.844 291.15 169.618 289.951 173.343C289.549 174.585 289.898 174.801 290.995 174.676C293.616 174.372 296.237 174.083 299.131 173.761Z" fill="black"/>
<path d="M104.35 89.5504C110.685 89.5504 115.639 90.8148 119.448 95.1548C121.386 97.3608 121.792 99.5365 120.559 102.339C116.538 111.455 104.946 117.508 95.8232 115.089C94.9659 114.861 94.4159 114.444 93.9038 113.741C90.6758 109.329 90.8464 104.427 91.8479 99.4378C92.2917 97.2242 93.1414 95.1206 93.9455 93.0057C94.45 91.6767 95.2921 91.0578 96.6236 90.7237C99.4457 90.0099 102.272 89.4251 104.354 89.558L104.35 89.5504Z" fill="black"/>
</g>
<defs>
<clipPath id="clip0_246_243">
<rect width="324.319" height="400.766" fill="white" transform="translate(0.183594 0.234375)"/>
</clipPath>
</defs>
</svg>
