<svg width="855" height="1056" viewBox="0 0 855 1056" fill="none" xmlns="http://www.w3.org/2000/svg">
<g clip-path="url(#clip0_246_243)">
<path d="M836.36 838.751C834.39 837.681 835.13 836.371 834.79 834.991C834.99 852.461 827.65 867.261 820.49 882.171C814.87 893.871 807.28 904.311 800.11 915.011C792.81 925.891 784.46 936.271 772.99 942.711C765.67 946.821 758.16 951.091 749.85 953.531C745.84 954.701 742.06 957.121 738.59 959.551C732.16 964.041 724.91 966.921 718.01 970.451C706.1 976.531 694.56 983.191 683.09 990.051C676.92 993.741 672.47 999.141 666.98 1003.41C659.43 1009.29 650.78 1013.57 641.54 1016.09C631.57 1018.81 621.91 1022.39 611.19 1022.87C604.03 1023.19 597.65 1028.62 591.35 1032.74C580.85 1039.61 570.76 1047.63 558.51 1051.02C546.99 1054.21 535.17 1056.92 522.94 1054.61C520.51 1054.15 517.74 1054.96 515.5 1054.15C506.29 1050.79 496.81 1052.78 487.48 1052.4C483.19 1052.23 480.71 1049.16 477.08 1047.97C468.95 1045.3 461.74 1040.34 452.86 1039.13C448.04 1038.47 443.28 1035.8 438.99 1033.2C433.4 1029.81 427.12 1028.23 421.35 1025.39C413.97 1021.77 406.51 1018.31 399.22 1014.53C396.05 1012.88 392.57 1012.04 389.39 1012.57C383.1 1013.61 377.66 1011.06 372.33 1009.04C367.18 1007.09 361.78 1006.32 356.66 1004.37C350.38 1001.98 344.51 998.821 338.42 996.101C332.95 993.661 327.16 991.881 321.71 989.291C305.83 981.731 289.06 976.091 274.43 965.871C268.77 961.911 262.17 959.021 255.64 956.641C249.57 954.431 245.24 950.031 240.16 946.581C233.33 941.941 226.81 936.821 219.81 932.471C208.97 925.741 198.68 918.281 189.16 909.841C180.7 902.341 171.56 895.621 163.97 887.111C155.53 877.651 146.2 868.931 138.33 859.031C122.96 839.691 110.89 818.211 100.35 795.911C94.4001 783.331 88.9701 770.511 83.3001 757.791C79.0801 748.321 73.8001 739.341 70.3201 729.531C67.5701 721.781 65.0801 713.931 62.2101 706.221C59.0601 697.751 55.5701 689.401 52.3101 680.961C50.8101 677.071 49.5601 673.091 48.1401 669.171C45.2801 661.281 42.3101 653.421 39.5501 645.501C38.9701 643.821 39.3101 641.851 38.9001 640.081C36.9901 631.711 34.5301 623.651 30.6901 615.791C27.1201 608.471 25.1401 600.201 23.5501 592.131C21.6001 582.241 18.0101 572.811 16.1601 562.921C15.6401 560.161 14.8301 557.431 14.5301 554.651C13.8501 548.401 12.3301 542.221 10.6101 536.331C7.7101 526.401 7.3901 515.881 4.3601 506.361C0.930104 495.601 3.4901 485.181 2.0201 474.711C-1.0399 452.881 0.120104 430.851 0.570104 408.921C0.890104 393.321 2.1001 377.721 3.5001 362.181C4.3901 352.261 8.0301 342.801 9.6901 332.941C10.1001 330.531 11.5301 327.831 11.2901 325.241C9.7501 308.711 14.6001 293.071 17.6501 277.171C19.4401 267.831 22.3101 258.761 24.6201 249.571C27.1501 239.491 26.1101 229.031 29.9001 219.091C36.0301 203.021 40.0601 185.991 51.2401 172.371C56.7901 165.601 61.9401 158.511 67.8801 152.021C73.4401 145.951 77.8001 138.781 83.4201 132.771C89.9401 125.811 94.4301 117.051 101.7 110.991C111.25 103.031 120.52 94.7807 129.67 86.3907C141.21 75.8207 153.68 66.3707 166.15 56.9907C179.52 46.9407 193.39 37.7007 208.91 30.7607C222.1 24.8607 235 18.3307 248.85 14.1307C263.65 9.64069 278.6 5.70068 293.96 3.52068C294.29 3.47068 294.62 3.45068 294.95 3.39068C316.42 0.120685 338.04 0.200685 359.62 0.400685C387.68 0.660685 415.77 -0.939315 443.79 0.890685C454.38 1.58068 464.99 1.72068 475.53 2.60068C508.53 5.34068 540.98 11.1907 572.08 22.9907C591.14 30.2207 609.59 39.0507 628.94 45.5607C640.72 49.5207 652.72 51.9507 665.27 52.7507C678.92 53.6207 692.46 56.4307 705.78 59.7307C721 63.5107 736.18 67.4507 751.22 71.8807C767.86 76.7807 780.56 87.7007 791.6 100.561C799.24 109.461 806.3 118.861 813.66 128.001C814.72 129.321 816.25 130.681 815.02 132.321C814.03 133.631 812.29 132.521 810.93 132.271C803.61 130.931 796.75 127.231 789.63 126.261C782.23 125.251 776.33 122.031 770.21 118.741C766.49 116.741 763.45 113.691 759.41 111.971C751.89 108.771 744.93 104.371 737.77 100.461C732.48 97.5807 726.93 94.8007 722.24 90.9307C719.46 88.6307 715.65 88.9907 713.04 86.5207C712.59 86.0907 710.76 86.0407 710.4 87.0607C709.83 88.6807 711.22 89.9807 712.24 90.8707C717.18 95.1607 722.48 99.0307 727.27 103.471C738.17 113.561 751.25 120.321 763.73 128.031C769.22 131.421 774.39 135.371 779.54 139.281C790.74 147.801 794.77 159.741 795.19 173.241C795.41 180.401 795.69 187.591 795.23 194.721C794.54 205.331 798.09 215.041 800.57 225.021C802.28 231.911 803.7 238.781 807.17 245.161C810.87 251.971 809.67 259.781 810.1 267.141C810.69 277.271 809.51 287.541 810.61 297.591C811.47 305.451 811.34 313.791 813.93 321.111C817.01 329.841 822.94 337.401 829.15 344.491C834.68 350.811 840.05 357.331 843.98 364.791C846.44 369.461 848.07 374.541 848.28 379.911C848.45 384.201 849.96 388.101 851.35 392.061C855.31 403.351 855.05 415.131 855 426.831C854.92 443.661 855.74 460.561 852.32 477.231C850.93 484.031 848.56 490.611 846.93 497.291C845.43 503.471 844.74 509.871 842.6 515.991C838.63 527.311 835.22 538.851 831.86 550.351C830.12 556.291 828.46 562.621 828.02 568.961C826.84 586.201 824.45 603.421 825.62 620.741C826.31 630.951 828.9 640.901 831.67 650.741C834.79 661.831 835.05 673.381 837.3 684.581C840.82 702.091 839.48 719.741 838.99 737.281C838.78 744.811 837.56 752.451 837.44 760.081C837.34 766.931 837.72 773.651 839.23 780.491C842.18 793.791 839.7 807.321 838.81 820.681C838.42 826.511 835.28 832.181 836.37 838.761L836.36 838.751ZM592.56 54.3607C576.85 46.2907 560.97 40.2907 544.61 35.5507C524.75 29.7907 504.5 26.1107 483.99 23.4207C466.38 21.1107 448.7 19.7507 431 18.6307C414.44 17.5807 397.83 17.0407 381.23 16.6807C361.36 16.2507 341.5 16.0907 321.85 20.2907C315.12 21.7307 308.45 24.2307 301.37 23.6107C296.66 23.2007 292.15 23.1707 288.38 26.7407C287.04 28.0107 285.13 28.5807 283.31 28.5407C277.47 28.4107 271.8 29.6007 266.13 30.6307C245.3 34.4007 225.73 41.6207 209.37 55.2307C200.91 62.2707 192.39 68.3007 182.11 72.4807C170.96 77.0107 162.38 85.7507 153.26 93.4907C132.09 111.451 110.72 129.181 92.6801 150.481C76.8901 169.131 63.6601 189.381 55.5501 212.511C47.5401 235.361 42.6501 259.091 37.8301 282.791C32.0001 311.431 27.4001 340.271 24.2301 369.321C22.2301 387.661 20.3701 406.011 18.5901 424.371C17.0201 440.641 16.8201 456.941 18.6401 473.211C21.3101 497.161 27.2301 520.481 32.8401 543.841C43.5401 588.451 56.5201 632.401 72.2201 675.521C90.5701 725.921 112.05 774.901 138.56 821.601C162.19 863.211 193.73 897.391 235.52 920.981C281.9 947.161 330.07 969.661 380.72 986.551C406.79 995.241 432.57 1004.6 456.6 1018.31C491.91 1038.45 528.78 1039.34 566.56 1026.08C569.05 1025.21 570.58 1023.59 571.8 1021.19C575.34 1014.23 578.17 1006.99 580.66 999.631C581.88 996.021 583.38 994.771 587.46 995.801C603.89 999.961 620.44 999.781 636.75 995.271C648.36 992.061 659.14 986.911 668.68 978.581C661.83 975.101 654.99 973.241 648.14 971.431C634.08 967.721 619.68 965.191 606.24 959.381C596.85 955.321 588.67 949.911 582.52 941.241C574.17 929.451 564.38 918.771 553.96 908.751C551.21 906.111 549.37 903.321 548.21 899.741C544.37 887.821 538.45 876.911 531.12 866.791C517.74 848.311 500.75 833.481 483.42 818.851C458.15 797.511 429.54 782.871 398.05 773.371C385.07 769.451 371.85 766.511 358.06 763.171C365.22 758.561 372.55 756.771 380.24 756.491C394.47 755.951 407.77 760.101 420.85 765.091C454.97 778.111 483.32 799.931 510.2 823.931C519.08 831.851 527.73 840.021 536.98 848.531C538.11 829.431 539.3 811.081 540.26 792.721C541.44 770.241 544.63 748.141 551.57 726.641C557.26 709.021 563.49 691.581 568.27 673.671C574.19 651.461 574.86 628.711 575.31 605.941C575.78 582.121 574.59 558.471 570.44 534.931C567.27 516.961 560.5 499.921 557.77 481.881C555.22 465.021 555.51 448.591 563.04 432.721C568.67 420.851 575.29 409.591 582.2 398.461C585.99 392.341 589.74 386.191 593.81 379.551C591.94 379.551 590.92 379.381 589.98 379.581C579.76 381.701 569.57 383.931 559.35 386.011C537.88 390.381 516.41 394.971 494.33 394.381C477.87 393.941 461.4 393.371 444.98 392.251C433.41 391.451 422.04 389.191 411.38 382.701C412.74 382.171 413.58 381.631 414.47 381.511C435.84 378.701 457.37 378.651 478.78 379.811C515.75 381.801 551.26 376.751 585.17 361.581C606.7 351.951 625.08 338.621 637.43 317.951C639.24 314.921 639.17 313.981 635.48 313.301C624.08 311.191 612.68 309.001 601.39 306.351C588 303.201 575.36 297.961 568.14 285.491C554.51 261.971 550.83 236.531 556.95 210.071C563.75 180.701 580.45 157.741 604.62 140.091C619.77 129.031 636.68 120.541 651.15 108.471C652.49 107.351 654.22 107.061 655.89 107.321C668.1 109.261 680.27 106.711 693.07 107.411C691.81 105.671 691 104.431 690.08 103.291C675.86 85.8107 656.34 79.2507 634.94 77.7307C611.19 76.0407 587.61 79.5307 564.03 81.9707C561.09 82.2707 557.09 84.0907 555.57 81.8207C553.66 78.9707 555.98 75.1507 557.39 71.9907C557.91 70.8207 558.98 69.8807 559.85 68.8807C563.95 64.1607 569.67 62.3507 575.28 60.3407C580.81 58.3607 586.73 57.4807 592.53 54.4107L592.56 54.3607ZM678.05 951.561C686.27 951.941 695.52 950.901 704.74 949.431C728.74 945.601 750.46 936.671 768.32 919.841C800.68 889.361 815.22 850.411 819.06 807.291C821.7 777.641 822.08 747.801 820.5 717.991C819.37 696.701 817 675.621 811.38 655.031C807.28 639.991 802.74 625.081 802.38 609.311C801.86 586.311 806.66 564.131 812.68 542.141C819.94 515.631 828.9 489.551 832.83 462.221C835.98 440.281 835 418.331 830.67 396.741C825.39 370.411 810.4 349.841 789.66 333.251C766.84 315.001 740.84 305.341 711.56 305.671C701.37 305.791 690.93 306.341 681.73 311.941C659.61 325.431 642.23 343.711 628.17 365.261C611.16 391.311 599.67 419.831 591.33 449.661C588.58 459.501 584.89 469.161 584.27 479.521C583.41 493.701 586.83 507.231 590.58 520.681C594.7 535.451 597.93 550.271 597.37 565.771C597.1 573.071 597.82 580.401 598.01 587.721C598.55 609.191 598.51 630.621 595.68 651.991C593.33 669.711 587.3 686.381 581.8 703.191C571.12 735.841 560.41 768.361 559.83 803.321C559.43 827.181 559.59 850.891 565.49 874.121C572.13 900.291 585.9 921.561 610.02 935.041C630.79 946.651 653.16 952.001 678.06 951.561H678.05ZM733.68 133.931C722.93 131.731 713.38 129.571 703.75 127.851C690.76 125.531 677.76 124.361 664.95 129.161C628.3 142.901 601.38 167.781 582.91 201.831C570.99 223.801 571.91 246.151 584.31 267.791C588.28 274.711 593.39 280.551 601.42 283.701C623.62 292.421 646.53 292.631 669.65 290.001C688.45 287.861 707.12 284.571 725.94 282.721C737.29 281.601 745.44 275.991 751.27 267.211C765.54 245.731 774.01 221.951 776.07 196.201C777.22 181.891 774.41 168.121 766.81 155.651C765.08 152.811 763.49 149.771 760.35 147.591C758.99 156.541 759.36 165.311 757.21 173.701C752.01 193.991 744.75 201.091 725.93 199.341C712.38 198.081 700.99 192.851 693.83 180.491C692.47 178.141 692.23 176.071 693.35 173.521C697.19 164.761 703.41 157.991 710.73 152.111C718.07 146.201 725.5 140.411 733.69 133.941L733.68 133.931ZM787.53 250.451C778.4 264.661 770.71 277.761 763.48 291.141C762.19 293.521 762.48 294.521 764.94 295.481C772.94 298.591 780.9 301.791 788.82 305.091C791.56 306.231 791.97 305.161 791.82 302.741C791.24 293.811 790.89 284.871 790.18 275.961C789.54 267.911 788.53 259.881 787.53 250.451Z" fill="black"/>
<path d="M170.99 287.091C174.79 283.251 179.01 280.691 182.27 276.961C191.96 265.861 195.64 252.801 193.92 238.681C191.73 220.661 196.71 204.871 206.28 190.141C217.98 172.131 232.88 156.941 249.25 143.221C259.23 134.861 271.66 132.231 284.15 130.181C316.85 124.831 347.82 131.851 378.34 142.991C404.8 152.651 419.7 171.881 427.13 198.361C432.98 219.211 436.35 240.251 434.1 261.831C431.41 287.621 421.5 310.071 401.84 327.741C393.06 335.631 384.49 343.751 374.35 349.901C364.25 356.031 353.36 359.231 341.39 359.541C313.87 360.261 287.12 357.011 261.48 346.381C241.2 337.971 224.83 324.431 210.34 308.301C202.66 299.761 194.88 291.381 183.21 288.151C179.37 287.091 175.41 288.111 170.98 287.101L170.99 287.091ZM411.46 254.891C411.27 234.751 410.12 217.181 404.33 200.321C398.82 184.281 390.74 170.721 374.08 163.001C349.37 151.551 323.88 147.081 297.04 150.611C286.73 151.971 276.25 153.601 267.17 159.281C230.05 182.521 209.4 215.281 210.38 259.901C210.81 279.581 218.99 296.221 234.93 307.871C263.03 328.411 295.26 337.301 329.68 337.321C351.6 337.341 370.6 328.101 386.64 313.441C404.46 297.151 413.13 276.821 411.45 254.891H411.46Z" fill="black"/>
<path d="M72.4104 204.87C81.2504 196.91 90.0304 189.11 98.6904 181.19C111.94 169.08 124.98 156.73 138.36 144.77C158.37 126.9 181.44 113.88 206.02 103.46C222.75 96.3696 239.69 89.6596 257.54 85.9396C266.57 84.0596 275.85 83.3096 285.05 82.2896C299.17 80.7096 313.11 78.0496 326.95 75.0096C329.81 74.3796 331.68 74.6996 333.68 76.2896C337.57 79.4096 342.81 82.7896 342.75 87.3696C342.72 89.9096 335.48 90.2496 331.45 91.3996C312.55 96.8096 293.21 100.52 274.46 106.5C244.56 116.04 218.66 132.34 195.29 152.92C179.73 166.63 164.37 180.56 148.9 194.38C147.95 195.23 147.22 196.47 145.6 196.26C120.69 192.92 96.7204 197.21 73.2004 205.15C73.0804 205.19 72.8904 205.05 72.4004 204.87H72.4104Z" fill="black"/>
<path d="M600.42 773.222C601.37 748.082 603.97 725.662 608 703.412C612.72 677.312 617.85 651.272 621.87 625.062C623.68 613.292 623.56 601.172 623.77 589.202C624.39 554.752 622.73 520.312 623.38 485.852C624.07 449.452 633.5 415.792 653.6 385.342C661.73 373.032 672.05 362.812 684.37 354.532C697.68 345.592 712.39 344.902 727.46 346.882C742.32 348.832 755.95 354.532 768.28 362.942C777.83 369.462 782.58 379.782 787.22 389.872C795.31 407.452 798.89 426.402 803.28 445.092C805.93 456.372 809.18 467.562 809.19 479.272C809.2 500.002 803.15 519.422 795.97 538.552C789.24 556.482 780.85 573.842 776.32 592.532C771.06 614.192 770.52 636.272 771.83 658.432C772.82 675.312 778.21 691.112 783.13 707.122C792.05 736.152 790.71 765.552 784.03 794.822C777.96 821.382 767.22 846.152 753.3 869.462C743.31 886.192 727.96 896.032 709.01 899.732C677.8 905.832 649.79 899.102 626.96 876.342C611.98 861.412 604.62 842.482 602.31 821.542C600.45 804.642 600.66 787.662 600.42 773.242V773.222ZM766.72 772.032C769.14 760.862 768.03 750.472 766.79 740.112C764.66 722.272 759.69 705.022 754.78 687.842C744.38 651.442 744.99 615.492 757.45 579.742C764.2 560.372 772.46 541.562 778.89 522.062C783.6 507.782 786.28 493.162 787.25 478.162C787.52 474.002 786.87 471.592 781.84 472.282C778.58 472.732 775.19 472.402 771.87 472.282C731.28 470.732 690.68 471.152 650.07 471.752C646.05 471.812 645.21 473.012 645.19 476.812C645.05 512.442 646.92 548.062 645.49 583.712C644.47 609.162 642.76 634.482 638.47 659.622C636.84 669.162 634.55 678.562 632.69 688.012C643.15 689.152 653.21 690.412 663.3 691.312C695.39 694.162 720.51 709.202 739.6 734.752C748.63 746.842 757.37 759.152 766.73 772.032H766.72ZM669.77 774.572C676.92 774.572 684.08 774.572 691.23 774.572C708.7 774.592 726.12 773.352 743.54 772.292C746.92 772.082 748.54 771.592 745.97 767.792C740.95 760.372 736.34 752.692 731.15 745.372C719.12 728.412 703.64 715.842 684.17 708.512C669.45 702.972 653.83 703.432 638.46 702.552C629.87 702.062 630.02 702.242 628.27 710.962C624.34 730.532 622.3 750.312 620.88 770.192C620.62 773.832 621.29 774.692 624.84 774.652C639.82 774.482 654.8 774.582 669.78 774.582L669.77 774.572ZM741.89 855.202C740.54 854.752 740.08 854.472 739.62 854.462C718.07 854.002 697.71 848.832 678.44 839.222C674.31 837.162 669.92 836.712 665.37 837.052C654.92 837.822 645.86 843.072 636.08 845.962C632.87 846.912 632.98 848.002 634.43 850.382C638.9 857.732 644.61 863.882 651.87 868.502C669.67 879.822 688.94 881.082 708.79 875.932C721.65 872.592 732.76 865.962 741.88 855.212L741.89 855.202ZM715.94 367.502C715.44 367.502 714.94 367.512 714.44 367.502C702.89 367.162 693.73 370.762 688.9 382.262C686.86 387.122 684.08 391.672 681.67 396.382C678.83 401.922 678.84 401.962 685.33 401.932C696.32 401.882 707.26 402.452 718.16 403.962C734.43 406.212 750.39 409.802 765.96 415.052C768.88 416.042 769.98 415.232 769.84 412.252C769.46 404.192 768.02 396.472 763.2 389.712C751.61 373.452 734.67 368.582 715.95 367.492L715.94 367.502ZM745.44 837.282C752.29 821.052 758.05 805.502 762.74 789.542C763.56 786.742 762.27 786.832 760.42 786.872C751.46 787.052 742.49 787.322 733.53 787.332C730.81 787.332 730.02 788.232 730.41 790.802C731.13 795.552 731.53 800.362 732.36 805.082C734.36 816.382 737.76 827.152 745.44 837.282ZM683.49 453.242C693.35 454.932 703.15 456.672 712.97 458.292C719.9 459.442 720.15 459.342 719.28 452.252C717.51 437.692 714.64 423.332 710.86 408.912C705.85 413.932 686.62 445.162 683.49 453.242ZM644.42 835.462C648.15 820.602 649.9 806.472 652.18 792.452C652.51 790.432 651.61 789.792 649.7 789.862C639.91 790.212 630.12 790.582 620.33 790.772C617.42 790.832 616.99 791.602 618.1 794.292C624.32 809.282 633.03 822.652 644.41 835.462H644.42ZM675.82 413.202C668.62 418.742 663.26 423.632 658.94 429.572C653.39 437.192 649.36 445.442 648.23 454.962C647.9 457.722 648.6 458.742 651.57 458.632C658.56 458.382 665.56 458.462 672.56 458.432C674.27 458.432 675.87 458.602 675.86 456.002C675.79 442.202 675.83 428.412 675.83 413.212L675.82 413.202ZM717.06 848.062C717.18 845.302 717.25 843.692 717.32 842.082C717.87 828.802 718.52 815.532 718.93 802.252C719.34 789.252 721.44 791.272 708.78 790.342C707.29 790.232 705.78 790.152 704.34 789.792C702 789.212 701.04 789.712 701.14 792.382C701.37 798.522 700.89 804.712 701.44 810.822C702.67 824.372 706.19 837.132 717.04 848.062H717.06ZM687.55 807.352C687.44 807.352 687.33 807.352 687.21 807.352C687.21 803.022 686.89 798.662 687.3 794.362C687.66 790.572 685.85 789.862 682.79 789.882C677.62 789.912 672.43 790.162 667.3 789.722C664.12 789.452 664.01 790.792 664.28 793.082C665.31 801.822 666.36 810.562 667.32 819.312C667.51 821.022 668.36 821.452 669.91 821.602C675.03 822.082 680.15 822.702 685.26 823.272C687.12 823.482 687.8 823.092 687.64 820.832C687.3 816.362 687.54 811.842 687.54 807.352H687.55ZM740.09 415.192C739.63 415.212 739.17 415.232 738.71 415.252C735.04 428.912 731.38 442.572 727.66 456.212C727.07 458.392 728.32 458.292 729.74 458.292C735.73 458.282 741.72 458.202 747.7 458.332C750.08 458.382 750.48 457.622 749.93 455.422C746.59 442.032 743.35 428.612 740.08 415.192H740.09ZM788.1 457.012C783.21 446.562 778.44 436.362 773.11 424.952C769.81 436.162 767.06 446.102 763.9 455.912C762.84 459.182 763.76 459.752 766.65 459.422C773.56 458.622 780.47 457.862 788.1 457.012Z" fill="black"/>
<path d="M274.61 235.229C291.31 235.229 304.37 238.559 314.41 249.989C319.52 255.799 320.59 261.529 317.34 268.909C306.74 292.919 276.18 308.859 252.13 302.489C249.87 301.889 248.42 300.789 247.07 298.939C238.56 287.319 239.01 274.409 241.65 261.269C242.82 255.439 245.06 249.899 247.18 244.329C248.51 240.829 250.73 239.199 254.24 238.319C261.68 236.439 269.13 234.899 274.62 235.249L274.61 235.229Z" fill="black"/>
</g>
<defs>
<clipPath id="clip0_246_243">
<rect width="854.99" height="1055.48" fill="white"/>
</clipPath>
</defs>
</svg>
