<svg width="209" height="261" viewBox="0 0 209 261" fill="none" xmlns="http://www.w3.org/2000/svg">
<path fill-rule="evenodd" clip-rule="evenodd" d="M73.587 0.556332C53.4576 3.21996 33.8519 15.6729 17.3495 36.2763C10.4909 44.8396 9.55498 46.3723 7.96471 51.6476C5.49467 59.8398 2.46439 73.974 2.45126 77.3608C2.44542 78.9214 1.88955 82.339 1.21551 84.9557C0.239458 88.7459 -0.00783699 93.1369 0.000187347 106.549C0.00967065 123.38 0.0104001 123.387 2.75983 135.461C8.56434 160.947 21.6265 194.938 30.8567 208.577C35.3809 215.261 44.0771 223.714 52.7967 229.902C64.2686 238.044 87.1584 249.189 94.3292 250.123C95.7597 250.31 99.7208 251.752 103.131 253.329C116.166 259.354 118.528 260.017 127.424 260.142C136.284 260.267 137.023 260.039 144.712 254.814C146.517 253.586 148.698 252.581 149.559 252.579C152.907 252.572 160.564 249.593 163.344 247.214C166.172 244.795 180.124 236.818 185.381 234.614C191.2 232.174 195.74 226.973 200.691 217.076C204.519 209.424 205.177 204.512 204.964 185.235C204.802 170.53 204.533 166.919 203.109 160.348C201.048 150.839 201.421 142.039 204.289 132.534C207.878 120.635 208.906 115.092 208.906 107.646C208.906 97.1818 207.404 91.4534 203.245 86.0537C198.81 80.296 198.035 77.8879 197.996 69.744C197.973 64.7944 197.543 61.7151 196.412 58.3985C195.477 55.6602 194.66 50.8549 194.359 46.3357C193.755 37.2564 193.193 36.3048 185.334 31.0588C178.763 26.6729 173.371 22.3104 173.891 21.8017C174.092 21.6055 177.703 23.4347 181.916 25.8663C188.466 29.6476 198.366 33.5585 199.22 32.7021C200.07 31.8494 189.51 20.7696 186.217 19.0597C182.804 17.2869 171.001 14.3056 162.219 12.9983C157.405 12.281 152.395 10.8222 145.806 8.21856C133.805 3.47541 127.273 1.80726 116.883 0.83082C109.155 0.104709 78.4724 -0.0899941 73.587 0.556332Z" fill="black"/>
</svg>
