<svg width="301" height="267" viewBox="0 0 301 267" fill="none" xmlns="http://www.w3.org/2000/svg">
<path d="M30.8543 225.345C27.5016 225.623 24.6382 225.974 21.7676 226.076C16.2381 226.266 11.3222 224.016 6.49391 221.737C1.97975 219.611 -0.189683 214.476 0.949815 209.034C3.19229 198.341 5.0111 187.618 4.98189 176.617C4.95267 165.251 12.6881 158.48 20.4528 151.906C22.0086 150.591 24.2292 150.16 26.3475 150.277C37.6402 150.884 47.2529 146.092 56.252 140.27C67.9757 132.673 79.2757 124.427 90.1448 115.603C96.6457 110.322 104.009 106.187 110.385 100.702C111.773 99.5111 112.431 98.4374 112.095 96.6916C110.795 89.9423 112.621 83.5801 115.017 77.4516C117.865 70.191 123.855 66.0566 130.882 63.3028C132.35 62.7258 133.913 62.4117 135.447 62.01C140.495 60.6805 140.553 60.0231 141.006 54.4571C141.13 52.9451 141.32 52.6018 140.217 51.5499C139.158 50.5419 140.042 48.9569 140.925 47.9561C142.116 46.6048 142.372 47.9342 142.847 48.7669C143.292 49.5412 144.088 49.4536 144.782 49.1103C145.6 48.7085 145.615 47.9927 145.315 47.2403C145.133 46.7874 144.914 46.3565 144.687 45.9255C143.088 42.8868 143.073 42.8649 145.695 40.7539C146.375 40.2061 146.659 39.819 146.024 38.9862C145.374 38.1462 144.936 37.1382 144.052 35.5751C149.172 37.6787 150.611 32.6314 153.957 31.4846C154.329 31.3531 154.117 29.863 154.563 29.5489C155.469 28.9207 151.963 24.6037 156.63 27.1092C157.441 27.5401 157.784 25.5168 158.076 24.5453C158.544 23.0041 158.938 23.026 160.735 23.1867C165.125 23.5884 168.975 25.8236 173.314 26.1304C176.622 26.3641 178.47 24.9105 179.186 21.7258C179.384 20.8492 179.442 19.6367 180.676 19.4614C182.006 19.2715 181.385 21.1925 182.408 21.324C184.65 20.3233 182.32 17.2408 184.373 16.6784C186.557 16.0794 186.389 19.1254 188.156 19.98C194.328 22.9602 195.147 22.668 198.879 16.5396C203.014 9.75374 208.791 4.53103 216.081 1.27324C219.953 -0.457922 222.056 1.29515 221.808 5.6121C221.669 8.03718 220.413 10.3162 220.734 12.7997C220.888 13.9611 220.749 15.4804 222.034 16.0064C223.327 16.5323 223.941 15.3563 224.423 14.3336C224.722 13.6908 225.175 13.2964 225.789 13.8589C226.096 14.1364 226.315 14.7062 226.278 15.1079C226.234 15.5462 225.862 15.9552 225.606 16.3716C224.788 17.7083 223.641 18.9647 225.278 20.5571C226.811 22.0472 228.667 21.3386 229.587 20.4402C231.618 18.4461 232.173 19.8923 232.816 21.3825C233.758 23.5738 234.627 25.641 236.957 21.6966C236.826 24.8302 237.717 27.0069 236.767 29.5927C236.022 31.616 242.019 35.2098 244.474 34.6109C249.616 33.3691 249.623 33.6613 250.244 38.8402C250.361 39.8336 252.618 42.1929 255.496 42.3974C264.481 43.0256 270.675 38.4968 276.591 32.624C283.034 26.2326 290.959 21.3679 296.233 13.7274C296.934 12.712 298.118 12.0839 299.447 12.6901C300.477 13.1576 300.769 14.151 300.557 15.1664C298.454 25.3561 298.739 36.0645 293.94 45.6845C291.105 51.36 287.599 56.5608 283.75 61.6009C282.34 63.4489 279.309 65.129 280.068 67.5467C280.96 70.3882 280.2 73.4195 281.639 76.0565C281.814 76.3779 282.063 76.6627 282.201 76.9914C282.61 77.9995 284.904 78.3866 283.67 79.7525C282.64 80.8993 281.317 79.8329 280.178 78.9783C277.059 76.6262 273.728 77.1887 270.324 80.7167C273.253 80.6729 275.649 78.4889 278.425 79.4603C278.323 79.8183 278.323 80.1616 278.198 80.22C271.829 83.1564 271.551 83.5801 271.917 90.4536C271.946 91.0306 272.041 91.8268 272.421 92.1336C276.643 95.5667 278.191 100.943 281.763 104.924C281.303 106.326 279.513 104.734 279.09 105.924C278.622 107.261 279.944 108.087 280.404 109.16C281.697 112.214 284.51 114.179 286.19 117.064C287.731 119.723 288.52 122.644 289.959 125.311C290.455 126.231 291.544 128.24 288.564 127.341C286.292 126.655 286.957 128.386 287.563 129.153C291.588 134.215 291.091 140.847 294.261 146.654C291.624 145.99 291.025 144.229 290.214 142.673C289.089 140.526 287.541 138.926 285.028 138.488C284.013 138.313 283.034 138.283 282.435 139.269C281.836 140.255 282.179 141.373 282.924 141.936C285.81 144.112 287.015 147.633 289.615 150.022C291.208 151.482 292.26 153.886 291.858 155.456C290.967 158.918 292.815 160.43 294.991 162.081C295.948 162.804 296.92 163.491 297.387 164.689C296.051 165.558 294.904 164.105 293.494 164.864C293.845 166.143 294.203 167.479 294.568 168.816C291.566 165.244 286.73 171.044 285.393 168.531C288.198 170.284 287.49 176.011 289.973 180.423C291.398 182.943 292.296 185.865 293.567 188.553C293.845 189.137 293.881 189.743 293.406 190.255C289.053 194.937 292.917 199.378 293.852 203.885C294.21 205.631 295.313 207.194 295.335 209.319C293.574 208.771 293.742 206.492 291.376 205.974C292.917 209.137 292.449 212.139 292.179 215.178C291.208 215.733 291.361 214.089 290.499 214.301C290.061 215.243 290.653 216.134 290.784 217.04C290.937 218.121 291.434 219.334 290.119 219.933C288.856 220.51 288.556 219.217 287.95 218.523C287.022 217.449 286.745 216.938 285.598 218.837C283.677 222.014 281.712 225.382 278.586 227.668C277.044 228.793 276.036 230.174 275.357 231.949C273.122 237.807 268.652 240.984 262.56 241.116C252.684 241.328 244.108 245.177 235.19 248.888C219.04 255.6 202.626 261.824 185.527 265.863C176.71 267.945 167.879 266.806 159.062 265.615C158.098 265.483 157.127 265.169 156.177 265.228C149.837 265.586 147.025 261.933 146.557 255.031C146.097 248.216 144.994 241.488 142.737 235.016C140.575 228.83 138.223 227.749 131.685 228.201C120.845 228.954 110.276 231.313 99.6187 233.154C90.3858 234.746 82.5992 239.465 75.2802 245.075C60.5397 256.382 45.12 254.687 30.7009 246.061C26.8296 243.745 26.5958 239.713 27.1802 235.667C27.6915 232.168 29.2474 228.983 30.8324 225.375L30.8543 225.345Z" fill="black"/>
</svg>
