<svg width="411" height="365" viewBox="0 0 411 365" fill="none" xmlns="http://www.w3.org/2000/svg">
<path d="M41.3499 307.679C36.7599 308.059 32.8399 308.539 28.9099 308.679C21.3399 308.939 14.6099 305.859 7.99992 302.739C1.81992 299.829 -1.15008 292.799 0.409919 285.349C3.47992 270.709 5.96992 256.029 5.92992 240.969C5.88992 225.409 16.4799 216.139 27.1099 207.139C29.2399 205.339 32.2799 204.749 35.1799 204.909C50.6399 205.739 63.7999 199.179 76.1199 191.209C92.1699 180.809 107.64 169.519 122.52 157.439C131.42 150.209 141.5 144.549 150.23 137.039C152.13 135.409 153.03 133.939 152.57 131.549C150.79 122.309 153.29 113.599 156.57 105.209C160.47 95.2691 168.67 89.6091 178.29 85.8391C180.3 85.0491 182.44 84.6191 184.54 84.0691C191.45 82.2491 191.53 81.3491 192.15 73.7291C192.32 71.6591 192.58 71.1891 191.07 69.7491C189.62 68.3691 190.83 66.1991 192.04 64.8291C193.67 62.9791 194.02 64.7991 194.67 65.9391C195.28 66.9991 196.37 66.8791 197.32 66.4091C198.44 65.8591 198.46 64.8791 198.05 63.8491C197.8 63.2291 197.5 62.6391 197.19 62.0491C195 57.8891 194.98 57.8591 198.57 54.9691C199.5 54.2191 199.89 53.6891 199.02 52.5491C198.13 51.3991 197.53 50.0191 196.32 47.8791C203.33 50.7591 205.3 43.8491 209.88 42.2791C210.39 42.0991 210.1 40.0591 210.71 39.6291C211.95 38.7691 207.15 32.8591 213.54 36.2891C214.65 36.8791 215.12 34.1091 215.52 32.7791C216.16 30.6691 216.7 30.6991 219.16 30.9191C225.17 31.4691 230.44 34.5291 236.38 34.9491C240.91 35.2691 243.44 33.2791 244.42 28.9191C244.69 27.7191 244.77 26.0591 246.46 25.8191C248.28 25.5591 247.43 28.1891 248.83 28.3691C251.9 26.9991 248.71 22.7791 251.52 22.0091C254.51 21.1891 254.28 25.3591 256.7 26.5291C265.15 30.6091 266.27 30.2091 271.38 21.8191C277.04 12.5291 284.95 5.37912 294.93 0.919122C300.23 -1.45088 303.11 0.949122 302.77 6.85912C302.58 10.1791 300.86 13.2991 301.3 16.6991C301.51 18.2891 301.32 20.3691 303.08 21.0891C304.85 21.8091 305.69 20.1991 306.35 18.7991C306.76 17.9191 307.38 17.3791 308.22 18.1491C308.64 18.5291 308.94 19.3091 308.89 19.8591C308.83 20.4591 308.32 21.0191 307.97 21.5891C306.85 23.4191 305.28 25.1391 307.52 27.3191C309.62 29.3591 312.16 28.3891 313.42 27.1591C316.2 24.4291 316.96 26.4091 317.84 28.4491C319.13 31.4491 320.32 34.2791 323.51 28.8791C323.33 33.1691 324.55 36.1491 323.25 39.6891C322.23 42.4591 330.44 47.3791 333.8 46.5591C340.84 44.8591 340.85 45.2591 341.7 52.3491C341.86 53.7091 344.95 56.9391 348.89 57.2191C361.19 58.0791 369.67 51.8791 377.77 43.8391C386.59 35.0891 397.44 28.4291 404.66 17.9691C405.62 16.5791 407.24 15.7191 409.06 16.5491C410.47 17.1891 410.87 18.5491 410.58 19.9391C407.7 33.8891 408.09 48.5491 401.52 61.7191C397.64 69.4891 392.84 76.6091 387.57 83.5091C385.64 86.0391 381.49 88.3391 382.53 91.6491C383.75 95.5391 382.71 99.6891 384.68 103.299C384.92 103.739 385.26 104.129 385.45 104.579C386.01 105.959 389.15 106.489 387.46 108.359C386.05 109.929 384.24 108.469 382.68 107.299C378.41 104.079 373.85 104.849 369.19 109.679C373.2 109.619 376.48 106.629 380.28 107.959C380.14 108.449 380.14 108.919 379.97 108.999C371.25 113.019 370.87 113.599 371.37 123.009C371.41 123.799 371.54 124.889 372.06 125.309C377.84 130.009 379.96 137.369 384.85 142.819C384.22 144.739 381.77 142.559 381.19 144.189C380.55 146.019 382.36 147.149 382.99 148.619C384.76 152.799 388.61 155.489 390.91 159.439C393.02 163.079 394.1 167.079 396.07 170.729C396.75 171.989 398.24 174.739 394.16 173.509C391.05 172.569 391.96 174.939 392.79 175.989C398.3 182.919 397.62 191.999 401.96 199.949C398.35 199.039 397.53 196.629 396.42 194.499C394.88 191.559 392.76 189.369 389.32 188.769C387.93 188.529 386.59 188.489 385.77 189.839C384.95 191.189 385.42 192.719 386.44 193.489C390.39 196.469 392.04 201.289 395.6 204.559C397.78 206.559 399.22 209.849 398.67 211.999C397.45 216.739 399.98 218.809 402.96 221.069C404.27 222.059 405.6 222.999 406.24 224.639C404.41 225.829 402.84 223.839 400.91 224.879C401.39 226.629 401.88 228.459 402.38 230.289C398.27 225.399 391.65 233.339 389.82 229.899C393.66 232.299 392.69 240.139 396.09 246.179C398.04 249.629 399.27 253.629 401.01 257.309C401.39 258.109 401.44 258.939 400.79 259.639C394.83 266.049 400.12 272.129 401.4 278.299C401.89 280.689 403.4 282.829 403.43 285.739C401.02 284.989 401.25 281.869 398.01 281.159C400.12 285.489 399.48 289.599 399.11 293.759C397.78 294.519 397.99 292.269 396.81 292.559C396.21 293.849 397.02 295.069 397.2 296.309C397.41 297.789 398.09 299.449 396.29 300.269C394.56 301.059 394.15 299.289 393.32 298.339C392.05 296.869 391.67 296.169 390.1 298.769C387.47 303.119 384.78 307.729 380.5 310.859C378.39 312.399 377.01 314.289 376.08 316.719C373.02 324.739 366.9 329.089 358.56 329.269C345.04 329.559 333.3 334.829 321.09 339.909C298.98 349.099 276.51 357.619 253.1 363.149C241.03 365.999 228.94 364.439 216.87 362.809C215.55 362.629 214.22 362.199 212.92 362.279C204.24 362.769 200.39 357.769 199.75 348.319C199.12 338.989 197.61 329.779 194.52 320.919C191.56 312.449 188.34 310.969 179.39 311.589C164.55 312.619 150.08 315.849 135.49 318.369C122.85 320.549 112.19 327.009 102.17 334.689C81.9899 350.169 60.8799 347.849 41.1399 336.039C35.8399 332.869 35.5199 327.349 36.3199 321.809C37.0199 317.019 39.1499 312.659 41.3199 307.719L41.3499 307.679Z" fill="black"/>
</svg>
