<svg width="193" height="261" viewBox="0 0 193 261" fill="none" xmlns="http://www.w3.org/2000/svg">
<path fill-rule="evenodd" clip-rule="evenodd" d="M137.229 3.00021C136.197 4.56049 133.854 7.0647 132.021 8.56576L128.691 11.2952L121.083 7.96255C110.285 3.23418 105.559 2.10089 96.5049 2.06945C87.9284 2.03947 81.7758 3.67653 72.0529 8.57453C69.2613 9.98054 66.4332 11.1314 65.7679 11.1314C62.9186 11.1314 58.7495 8.1585 54.6324 3.1925C53.3865 1.68925 52.1911 0.909109 51.525 1.16501C49.9516 1.76895 50.1343 7.82656 51.895 13.4426C52.6941 15.9914 53.3522 18.6579 53.3573 19.3671C53.3624 20.0763 51.8855 22.476 50.0751 24.6987C45.4842 30.3351 38.8205 40.3922 35.0835 47.3235C33.3492 50.5406 30.3939 54.9824 28.517 57.1941C26.6394 59.4058 23.9429 63.0251 22.5252 65.2368C21.1075 67.4485 19.1948 69.9162 18.275 70.7204C15.7811 72.9015 12.5618 80.2401 12.0573 84.8961C10.5475 98.8231 8.42419 113.477 6.9085 120.439C5.6787 126.085 4.8196 133.819 4.0241 146.395C2.91859 163.891 2.43969 168.226 0.72367 176.307C0.247688 178.547 -0.0133337 184.413 0.121199 189.834L0.358093 199.404L3.10723 203.633C4.61926 205.96 6.42887 208.077 7.12858 208.337C7.8283 208.597 9.22334 209.374 10.2287 210.065C11.234 210.756 13.8201 211.506 15.9755 211.735C18.1303 211.963 21.0286 212.818 22.4148 213.636C25.2042 215.282 26.7221 215.506 27.421 214.375C27.9943 213.448 22.3417 206.58 20.5328 206.005C19.5823 205.704 19.3089 205.075 19.5597 203.766C19.8507 202.243 19.5246 201.813 17.5548 201.127C15.5091 200.414 15.2546 200.048 15.6005 198.317C15.8198 197.223 15.6619 195.99 15.2502 195.578C14.3246 194.653 14.7077 190.606 15.7123 190.693C16.1145 190.727 17.4444 192.612 18.6684 194.881C22.235 201.496 27.0606 205.685 27.0364 202.145C27.0101 198.27 20.4707 181.128 17.2397 176.466C16.189 174.95 14.3465 172.983 13.1445 172.095C11.1214 170.598 10.9598 170.139 10.9598 165.872C10.9598 163.339 11.5894 157.837 12.3593 153.647C18.5339 120.024 20.4546 110.568 21.1112 110.568C21.3612 110.568 22.3402 112.784 23.2856 115.493C26.1605 123.733 31.4468 130.922 40.9372 139.504L44.2273 142.479L44.2222 181.909C44.2178 220.491 44.1842 221.42 42.6554 225.156C39.7549 232.245 37.296 234.558 23.755 242.937C17.2149 246.983 15.5259 248.495 13.8135 251.835C12.0514 255.27 12.0595 255.337 14.2244 255.337C15.2634 255.337 16.3499 255.942 16.7901 256.764C17.4452 257.987 18.0747 258.129 21.2026 257.758C24.2237 257.401 24.8518 257.525 24.8518 258.482C24.8518 259.118 25.1537 259.824 25.523 260.053C26.5612 260.694 34.4986 258.419 36.5861 256.883C37.6111 256.128 40.0788 254.678 42.0697 253.661C44.0606 252.644 46.8171 250.637 48.1953 249.202C49.8448 247.484 52.031 246.205 54.5893 245.461C61.7882 243.369 62.7263 239.426 58.7642 227.919C55.6721 218.938 55.7481 220.169 56.4544 190.63C56.6943 180.62 57.307 172.893 58.3986 166.136C60.9072 150.606 60.5401 151.157 67.1139 153.043C79.6613 156.645 94.5775 158.275 105.619 157.251C111.765 156.681 116.487 155.814 127.618 153.211C129.03 152.881 129.265 153.671 131.51 166.261C133.422 176.983 133.857 181.197 133.683 187.34C133.563 191.562 133.734 200.281 134.061 206.715C134.639 218.063 134.598 218.633 132.692 225.725C129.885 236.168 129.921 235.937 130.458 240.24L130.948 244.159L135.031 245.544C137.811 246.487 139.696 247.692 140.939 249.32C143.06 252.098 152.415 257.067 158.518 258.656C163.851 260.046 164.256 260.013 164.738 258.171C165.154 256.578 165.134 256.578 170.169 257.976C171.363 258.307 171.814 258.122 171.814 257.301C171.814 256.679 172.554 256.064 173.459 255.936C174.846 255.739 175.092 255.276 175.023 252.988C174.899 248.849 173.168 246.94 164.161 241.018C152.141 233.113 148.637 228.712 146.541 218.884C144.814 210.787 146.18 160.922 148.499 147.394C149.265 142.929 149.293 142.89 155.113 138.305C164.083 131.241 170.514 122.994 172.977 115.398C173.642 113.345 174.442 111.387 174.754 111.045C175.634 110.082 177.52 119.537 178.377 129.22C178.805 134.041 179.559 141.77 180.054 146.395C180.548 151.019 180.953 158.304 180.953 162.583V170.363L177.253 174.282C172.918 178.871 165.377 191.172 164.45 195.164C163.644 198.639 163.577 204.887 164.347 204.887C165.429 204.887 170.305 198.454 171.514 195.431C172.702 192.462 174.334 190.995 176.449 190.995C177.647 190.995 177.497 194.795 176.089 200.135C174.738 205.258 174.13 206.248 171.112 208.245C169.487 209.32 168.158 210.611 168.158 211.114C168.158 211.617 167.418 212.236 166.513 212.491C165.034 212.907 164.994 213.028 166.117 213.692C167.708 214.633 175.818 213.418 181.164 211.438C183.29 210.649 185.636 210.005 186.378 210.005C188.608 210.005 191.368 205.556 192.313 200.437C193.357 194.785 192.738 181.463 191.16 175.637C190.253 172.287 190.151 167.734 190.547 148.223L191.021 124.826L188.679 115.321C185.982 104.381 183.952 94.2651 182.391 83.9953C181.789 80.0368 180.928 76.0886 180.476 75.2214C179.296 72.9519 175.189 67.265 169.572 60.1187C166.885 56.7006 162.314 50.1202 159.415 45.4956C153.766 36.4849 150.502 32.0205 144.796 25.5L141.194 21.3844L141.619 12.3831C142.029 3.70651 141.477 0.164062 139.715 0.164062C139.38 0.164062 138.262 1.44066 137.229 3.00021Z" fill="black"/>
</svg>
