<svg width="360" height="260" viewBox="0 0 360 260" fill="none" xmlns="http://www.w3.org/2000/svg">
<path fill-rule="evenodd" clip-rule="evenodd" d="M16.0527 1.32792C10.469 4.73557 2.6161 17.6129 0.775312 26.3804C-1.34867 36.4938 0.425694 44.8499 11.985 79.1697C22.2648 109.69 27.9689 125.052 36.3889 144.893L42.8864 160.204L40.2383 179.963C34.6583 221.611 30.5775 257.425 31.265 258.721C31.9059 259.931 38.4172 260 152.26 260C253.418 260 272.709 259.84 273.409 258.996C274.257 257.973 277.744 235.531 279.342 220.814L280.224 212.679L283.804 209.947C285.772 208.445 289.541 204.881 292.18 202.029C303.468 189.825 311.219 177.475 324.143 151.105C333.804 131.393 339.099 118.85 349.691 90.5806C360.006 63.0506 361.201 57.6776 358.134 52.6406C355.903 48.9787 352.482 47.8689 344.769 48.3065C329.209 49.1891 318.192 59.2243 297.885 91.011C294.857 95.7498 290.018 103.659 287.13 108.586L281.879 117.545L281.013 111.509C274.809 68.295 251.656 34.825 216.497 18.2456C207.907 14.195 195.285 10.0757 185.533 8.14102C180.366 7.11595 175.537 6.84854 162.907 6.88946C147.322 6.9406 146.594 7.00928 138.208 9.23039C128.192 11.8833 115.68 17.6333 106.409 23.8429C99.5514 28.4371 86.3156 40.795 80.8363 47.7206C75.3556 54.6469 70.2317 62.6217 65.4838 71.6172C63.0788 76.1727 61.1059 79.3027 61.0993 78.5713C61.076 76.0302 43.0528 32.8041 35.178 16.4015C28.2747 2.02348 22.4436 -2.5729 16.0527 1.32792Z" fill="black"/>
</svg>
