<svg width="627" height="432" viewBox="0 0 627 432" fill="none" xmlns="http://www.w3.org/2000/svg">
<g clip-path="url(#clip0_246_236)">
<path d="M269.049 431.9C205.229 431.9 141.399 431.9 77.5794 431.9C65.2994 431.9 65.4194 431.9 66.9194 419.86C71.1794 385.68 75.0893 351.45 79.5893 317.31C83.9893 283.99 88.4794 250.68 93.9494 217.5C99.0094 186.78 105.949 156.65 119.279 128.42C138.569 87.5705 166.089 53.7305 205.949 31.1905C227.429 19.0505 250.709 12.2105 275.359 10.9405C317.729 8.76046 357.409 18.3005 393.919 40.0305C417.669 54.1605 436.549 73.4105 451.359 96.6905C469.569 125.32 479.819 156.72 483.849 190.28C484.399 194.85 483.679 199.16 481.789 203.41C475.539 217.46 466.849 230.16 459.669 243.69C447.359 266.88 440.239 291.46 440.899 317.91C441.129 327.01 442.579 335.89 449.509 342.76C456.959 350.14 466.119 351.12 475.939 349.89C481.679 349.17 481.989 349.66 481.509 355.15C479.409 378.87 475.809 402.39 472.289 425.92C471.609 430.43 469.629 431.96 465.519 431.87C463.519 431.82 461.519 431.9 459.519 431.9C396.029 431.9 332.539 431.9 269.049 431.9ZM241.479 164.14C228.499 163.51 216.249 166.47 204.709 172.07C165.749 190.97 147.139 235.28 150.609 276.44C151.849 291.18 156.969 304.63 164.439 317.25C177.189 338.8 194.729 353.77 220.329 357.55C237.509 360.09 254.149 357.26 270.609 352.6C301.179 343.93 321.699 324.51 332.919 294.87C340.299 275.39 342.279 255.27 339.109 234.94C334.929 208.17 321.469 187.44 296.289 175.5C278.939 167.28 260.419 164.65 241.479 164.15V164.14ZM327.049 127.37C326.999 136.78 328.079 140.83 331.199 145.4C337.659 154.86 350.649 155.46 356.719 145.84C363.779 134.64 366.399 122.06 362.819 109.03C359.579 97.2605 345.779 93.9105 336.859 102.4C329.039 109.84 327.579 119.69 327.059 127.37H327.049ZM164.769 105.94C164.669 109.97 165.099 113.89 166.529 117.7C168.359 122.58 170.779 126.99 176.539 127.62C182.729 128.29 187.699 125.8 190.629 120.23C195.719 110.56 197.659 100.23 195.939 89.3805C195.009 83.5305 192.049 78.8705 185.949 77.6305C179.879 76.4005 174.899 79.0105 171.209 83.9005C166.279 90.4205 164.779 97.9805 164.779 105.95L164.769 105.94Z" fill="black"/>
<path d="M472.079 340.042C459.699 340.002 454.929 336.401 451.989 326.411C448.779 315.521 449.909 304.621 452.179 293.811C457.889 266.631 469.569 241.741 482.419 217.401C500.309 183.511 519.199 150.171 540.939 118.561C549.519 106.081 558.269 93.6315 569.639 83.4615C581.179 73.1515 594.829 67.9615 610.399 68.9215C622.939 69.7015 628.859 77.6415 626.359 90.0515C623.349 104.981 617.349 118.961 612.109 133.171C599.209 168.191 585.419 202.861 568.489 236.171C555.959 260.831 543.169 285.411 524.719 306.361C513.539 319.061 501.229 330.471 485.129 336.901C480.279 338.841 475.289 339.952 472.069 340.042H472.079Z" fill="black"/>
<path d="M73.1196 269.888C68.7796 259.828 64.4696 249.768 60.1096 239.728C40.1196 193.678 24.7796 145.938 8.83957 98.4181C4.71957 86.1581 1.25957 73.6481 0.209573 60.5381C-0.710427 49.0381 1.29957 38.3481 6.55957 28.2181C10.2496 21.0981 14.7496 14.4781 19.8496 8.30809C29.1496 -2.93191 39.0296 -2.77191 47.9496 8.81809C52.8596 15.1981 56.2596 22.4681 59.6496 29.7081C74.5696 61.5381 87.7296 94.1281 100.96 126.678C102.72 130.998 102.57 134.738 100.97 139.098C90.2496 168.478 83.7296 198.868 79.7696 229.838C78.3196 241.218 77.0896 252.638 75.7096 264.028C75.4796 265.958 74.9596 267.848 74.5796 269.758C74.0896 269.798 73.6096 269.848 73.1196 269.888Z" fill="black"/>
<path d="M272.821 280.469C273.181 272.139 277.311 266.439 284.191 262.629C293.481 257.479 303.621 257.189 313.841 257.889C317.651 258.149 321.401 259.109 325.211 259.399C328.861 259.679 330.181 261.439 329.851 264.939C328.011 284.389 320.901 301.689 308.661 316.889C307.391 318.469 306.201 320.179 303.731 318.959C288.081 311.229 276.041 300.489 273.031 282.209C272.921 281.549 272.871 280.889 272.811 280.469H272.821Z" fill="black"/>
</g>
<defs>
<clipPath id="clip0_246_236">
<rect width="626.93" height="431.9" fill="white"/>
</clipPath>
</defs>
</svg>
