<svg width="351" height="260" viewBox="0 0 351 260" fill="none" xmlns="http://www.w3.org/2000/svg">
<g clip-path="url(#clip0_282_6680)">
<path d="M159.745 260H24.9144C25.5739 256.162 26.3946 252.339 26.8563 248.479C30.0512 221.498 33.3926 194.531 37.738 167.704C38.2216 164.723 38.0458 161.735 36.8367 159.083C33.334 151.445 30.2051 143.696 27.5817 135.705C24.1303 125.174 20.1733 114.81 16.678 104.286C13.6223 95.0721 10.9184 85.7414 8.04589 76.462C7.35708 74.2575 6.60965 72.0749 5.90618 69.8704C3.41474 62.0924 2.68929 53.8749 0 46.1408V30.0282C1.29701 25.3335 2.15436 20.4997 4.20614 16.0541C7.892 8.03437 12.9482 1.53803 22.8187 1.50873C30.293 1.48676 35.525 5.17803 39.4307 11.5352C47.2201 24.2056 51.7927 38.2603 57.4643 51.8462C58.8566 55.1713 60.0657 58.5696 61.6851 62.7735C64.521 58.0496 66.5654 53.809 69.1008 49.8614C81.0011 31.3025 96.7632 17.2845 116.973 8.35662C119.413 7.28 121.883 6.32056 124.513 5.63211C133.475 3.28113 142.554 1.5307 151.685 0H168.539C169.777 0.644507 171.125 0.651831 172.466 0.695775C187.679 1.13521 202.422 4.32845 215.971 10.9932C229.315 17.5482 242.395 24.7989 251.548 37.4839C255.058 42.3617 259.3 46.5876 262.07 52.1538C267.815 63.6963 274.52 74.7921 276.872 87.7408C277.085 88.8907 277.034 90.6777 278.243 90.9121C279.759 91.1977 280.177 89.3155 280.873 88.2682C286.941 79.1352 291.924 69.3504 298.863 60.7301C307.055 50.5718 316.406 42.4642 329.442 39.4468C337.935 37.4766 345.292 39.1611 351 46.1408V55.662C349.586 58.3059 349.762 61.36 348.838 64.1358C341.686 85.6535 333.97 106.959 323.917 127.327C319.549 136.167 314.889 144.846 309.811 153.312C301.42 167.315 291.777 180.213 278.631 190.21C275.971 192.232 273.773 194.37 273.304 198.376C270.871 218.949 267.991 239.464 265.265 260H159.745Z" fill="black"/>
</g>
<defs>
<clipPath id="clip0_282_6680">
<rect width="351" height="260" fill="white"/>
</clipPath>
</defs>
</svg>
