<svg width="376" height="259" viewBox="0 0 376 259" fill="none" xmlns="http://www.w3.org/2000/svg">
<g clip-path="url(#clip0_246_236)">
<path d="M161.57 258.742C123.425 258.742 85.2734 258.742 47.1278 258.742C39.788 258.742 39.8597 258.742 40.7563 251.533C43.3025 231.07 45.6395 210.576 48.3292 190.137C50.9591 170.188 53.6428 150.245 56.9122 130.381C59.9366 111.988 64.0847 93.9497 72.0521 77.0484C83.5819 52.5915 100.031 32.3315 123.855 18.8368C136.694 11.5686 150.609 7.47345 165.342 6.7131C190.667 5.40794 214.384 11.1195 236.206 24.1293C250.402 32.5889 261.686 44.1139 270.538 58.0516C281.422 75.1924 287.549 93.9916 289.958 114.084C290.286 116.82 289.856 119.4 288.726 121.945C284.991 130.357 279.797 137.96 275.505 146.06C268.147 159.944 263.892 174.66 264.286 190.496C264.424 195.944 265.29 201.261 269.432 205.374C273.885 209.792 279.36 210.379 285.23 209.642C288.661 209.211 288.846 209.505 288.559 212.792C287.304 226.993 285.152 241.074 283.048 255.162C282.642 257.862 281.458 258.778 279.002 258.724C277.806 258.694 276.611 258.742 275.415 258.742C237.467 258.742 199.519 258.742 161.57 258.742ZM145.092 98.4339C137.334 98.0567 130.012 99.8289 123.114 103.182C99.8275 114.497 88.7042 141.025 90.7782 165.668C91.5194 174.493 94.5797 182.545 99.0445 190.101C106.665 203.003 117.149 211.965 132.45 214.228C142.719 215.749 152.665 214.055 162.503 211.265C180.775 206.074 193.04 194.447 199.746 176.702C204.157 165.039 205.34 152.993 203.446 140.822C200.947 124.795 192.902 112.384 177.852 105.235C167.482 100.314 156.412 98.7392 145.092 98.4399V98.4339ZM196.237 76.4197C196.208 82.0535 196.853 84.4782 198.718 87.2143C202.579 92.878 210.343 93.2372 213.971 87.4777C218.191 80.7723 219.757 73.2406 217.617 65.4396C215.681 58.3929 207.432 56.3872 202.101 61.4702C197.427 65.9245 196.554 71.8217 196.243 76.4197H196.237ZM99.2418 63.5896C99.182 66.0023 99.439 68.3492 100.294 70.6303C101.388 73.5519 102.834 76.1922 106.277 76.5694C109.977 76.9705 112.947 75.4798 114.698 72.145C117.741 66.3556 118.9 60.171 117.872 53.6751C117.316 50.1727 115.547 47.3828 111.901 46.6404C108.273 45.904 105.297 47.4666 103.091 50.3942C100.144 54.2978 99.2477 58.8239 99.2477 63.5956L99.2418 63.5896Z" fill="black"/>
<path d="M282.921 203.746C275.522 203.723 272.671 201.567 270.914 195.586C268.995 189.066 269.67 182.541 271.027 176.069C274.44 159.796 281.421 144.894 289.102 130.322C299.795 110.032 311.085 90.0713 324.079 71.1464C329.208 63.6746 334.438 56.2208 341.234 50.1321C348.131 43.9595 356.29 40.8522 365.596 41.427C373.091 41.8939 376.63 46.6476 375.135 54.0775C373.336 63.0161 369.75 71.3859 366.618 79.8934C358.908 100.86 350.665 121.617 340.546 141.56C333.057 156.323 325.412 171.039 314.385 183.582C307.702 191.186 300.345 198.017 290.722 201.867C287.823 203.028 284.84 203.693 282.915 203.746H282.921Z" fill="black"/>
<path d="M44.4614 161.746C41.8674 155.723 39.2912 149.7 36.6852 143.689C24.7371 116.119 15.5683 87.5372 6.04087 59.0869C3.57832 51.7469 1.51026 44.2572 0.882672 36.4082C0.332782 29.5232 1.53417 23.1231 4.6781 17.0582C6.88364 12.7955 9.57331 8.83209 12.6216 5.13812C18.1803 -1.59127 24.0856 -1.49548 29.4171 5.44345C32.3519 9.26316 34.3841 13.6157 36.4103 17.9503C45.3281 37.0069 53.1939 56.5185 61.1015 76.0062C62.1535 78.5926 62.0638 80.8317 61.1075 83.4421C54.7001 101.032 50.803 119.226 48.4361 137.768C47.5695 144.581 46.8343 151.418 46.0094 158.238C45.872 159.393 45.5612 160.525 45.334 161.668C45.0412 161.692 44.7543 161.722 44.4614 161.746Z" fill="black"/>
<path d="M163.822 168.08C164.038 163.093 166.506 159.681 170.618 157.4C176.171 154.316 182.232 154.143 188.34 154.562C190.618 154.717 192.859 155.292 195.136 155.466C197.318 155.633 198.107 156.687 197.91 158.783C196.81 170.427 192.56 180.785 185.244 189.885C184.485 190.831 183.774 191.855 182.297 191.124C172.943 186.496 165.747 180.066 163.948 169.122C163.882 168.727 163.852 168.332 163.816 168.08H163.822Z" fill="black"/>
</g>
<defs>
<clipPath id="clip0_246_236">
<rect width="374.72" height="258.578" fill="white" transform="translate(0.757812 0.164062)"/>
</clipPath>
</defs>
</svg>
