<svg width="673" height="250" viewBox="0 0 673 250" fill="none" xmlns="http://www.w3.org/2000/svg">
<g clip-path="url(#clip0_284_9255)">
<path d="M-0.000672992 236.661V11.7868C34.7807 11.7868 69.562 11.7868 104.336 11.7868C110.505 11.7868 110.505 11.7715 110.558 5.66774C110.604 0.221814 110.673 0.12238 116.146 0.12238C150.293 0.107083 184.432 0.114732 218.579 0.12238C224.114 0.12238 224.167 0.206517 224.213 5.6142C224.266 11.7715 224.266 11.7944 230.374 11.7944C267.579 11.7791 304.776 11.7638 341.98 11.7409C346.164 11.7409 348.279 9.6247 348.325 5.39238C348.378 0.183571 348.447 0.0764877 353.729 0.0764877C425.203 0.0611901 496.677 0.0917852 568.151 0C571.889 0 573.418 1.03258 573.379 4.93346C573.326 11.6644 573.502 11.6644 580.083 11.7409C585.603 11.802 585.755 11.9397 585.778 17.2403C585.809 26.1205 585.106 25.2333 593.805 25.2792C598.827 25.3098 598.85 25.348 598.896 30.4497C598.904 31.5971 598.896 32.7444 598.896 33.8917C598.896 49.8241 598.888 65.7641 598.919 81.6965C598.919 83.2874 598.43 85.1384 600.257 86.171C604.4 88.5116 609.017 85.8957 609.078 81.1993C609.078 80.6869 609.132 80.1744 609.078 79.6696C608.803 76.5795 610.209 75.3939 613.282 75.2562C622.234 74.8508 622.326 74.7667 622.616 65.8024C622.708 62.9341 623.9 62.0086 626.56 62.0468C631.781 62.1233 637.01 62.0468 642.231 62.0545C646.4 62.0596 648.489 64.1859 648.499 68.4335C648.499 68.6859 648.499 68.946 648.499 69.1984C648.51 73.1656 650.467 75.1925 654.37 75.2792C659.423 75.3939 659.752 75.6769 659.759 80.7939C659.79 92.5195 659.767 104.253 659.775 115.978C659.775 125.883 659.201 124.851 668.237 124.782C671.554 124.751 673.03 125.738 672.999 129.364C672.862 147.078 672.877 164.8 672.984 182.523C673.007 185.903 671.983 187.28 668.413 187.272C660.081 187.242 659.981 187.395 659.805 195.839C659.737 198.975 658.819 200.727 655.379 200.321C654.5 200.214 653.59 200.382 652.704 200.298C649.593 200.008 648.408 201.331 648.438 204.505C648.515 212.452 649.692 212.406 640.649 212.406C635.512 212.406 635.382 212.552 635.374 217.883C635.359 226.679 635.382 235.475 635.359 244.271C635.344 249.801 635.206 249.931 629.87 249.946C621.714 249.962 613.565 249.962 605.409 249.946C597.497 249.931 598.269 250.367 598.223 242.65C598.185 236.844 598.208 236.844 592.544 236.821C584.853 236.783 584.364 237.471 584.647 229.257C584.746 226.427 583.432 225.287 580.71 225.501C580.076 225.547 579.434 225.501 578.799 225.501C573.563 225.509 573.341 225.715 573.311 230.802C573.28 235.643 573.196 240.493 573.326 245.334C573.418 248.707 572.217 250.084 568.648 250.008C558.97 249.809 549.285 249.954 539.599 249.939C534.715 249.931 534.524 249.709 534.394 244.738C534.195 237.142 534.203 237.028 526.841 236.852C523.73 236.775 522.369 235.574 522.629 232.484C522.706 231.597 522.545 230.695 522.644 229.807C523.011 226.388 521.36 225.447 518.142 225.455C492.282 225.539 466.413 225.562 440.553 225.432C436.769 225.409 435.638 226.824 435.783 230.381C435.982 235.345 435.722 240.324 435.859 245.296C435.951 248.654 434.812 250.099 431.219 250.008C422.94 249.801 414.662 249.969 406.375 249.939C397.875 249.916 398.746 250.558 398.685 242.382C398.647 236.882 398.624 236.844 393.128 236.814C388.144 236.788 385.468 234.18 385.101 228.989C385.002 227.543 384.918 226.22 383.213 225.639C377.419 223.665 373.811 225.914 373.819 231.819C373.819 235.276 372.779 236.875 369.003 236.875C360.533 236.875 360.418 237.028 360.334 245.717C360.304 248.814 359.287 250.031 356.122 249.977C347.461 249.839 338.793 249.939 330.132 249.939C325.469 249.939 323.13 247.552 323.114 242.78C323.091 236.683 323.091 236.668 316.877 236.668C288.211 236.668 259.545 236.668 230.879 236.668C223.907 236.668 223.777 236.661 223.792 229.876C223.8 226.656 222.776 225.317 219.389 225.325C184.738 225.402 150.079 225.402 115.428 225.325C112.095 225.325 110.971 226.564 110.971 229.83C110.986 236.661 110.856 236.668 103.931 236.676C69.2792 236.676 34.6201 236.683 -0.03125 236.691L-0.000672992 236.661Z" fill="black"/>
</g>
<defs>
<clipPath id="clip0_284_9255">
<rect width="673" height="250" fill="white"/>
</clipPath>
</defs>
</svg>
