<svg width="571" height="260" viewBox="0 0 571 260" fill="none" xmlns="http://www.w3.org/2000/svg">
<path fill-rule="evenodd" clip-rule="evenodd" d="M74.2841 15.5184C74.0023 16.0209 73.6282 18.5675 73.455 21.1785L73.1387 25.9257L3.56933 25.6613L-66 25.3962V128.821V232.246H-14.6168H36.7663V237.577C36.7663 240.75 37.3275 243.264 38.1519 243.785C40.153 245.051 88.2326 245.028 89.4704 243.761C89.9542 243.266 90.2094 240.472 90.0374 237.553L89.7256 232.246H98.9723C104.649 232.246 108.534 231.925 109.033 231.413C109.481 230.955 109.755 228.641 109.643 226.27L109.438 221.959L118.423 222.172L127.409 222.386L127.986 227.134L128.563 231.881L137.512 232.094L146.461 232.307V237.608C146.461 240.757 147.023 243.265 147.846 243.785C148.837 244.412 156.228 244.662 173.786 244.662C197.627 244.662 198.378 244.616 199.651 243.112C200.492 242.119 200.823 238.381 200.573 232.705C200.359 227.833 200.598 223.437 201.102 222.934C201.819 222.222 215.849 222.021 264.861 222.021H327.701L328.425 223.847C328.824 224.851 328.813 226.522 328.401 227.561C326.848 231.475 328.272 232.246 337.06 232.246H345.065V237.634C345.065 241.317 345.569 243.286 346.654 243.856C347.766 244.44 355.992 244.631 374.078 244.493L399.912 244.296L400.49 233.341L401.067 222.386H409.727H418.387L418.965 227.134L419.542 231.881L429.022 232.093L438.502 232.304L438.837 238.3L439.171 244.296L462.842 244.503C475.861 244.617 487.682 244.529 489.111 244.307L491.709 243.904V226.66V209.417L499.653 209.912C510.017 210.558 511.339 209.819 511.339 203.379V198.717L519.133 198.501L526.927 198.285L527.264 192.625L527.601 186.965H536.072C541.827 186.965 544.962 186.645 545.852 185.967C546.79 185.252 547.076 177.21 546.859 157.666L546.556 130.364L536.742 130.156L526.927 129.948L527.293 108.015C527.577 91.0184 527.328 85.8287 526.186 84.9581C525.074 84.1102 523.077 83.9086 518.068 84.1379L511.425 84.4418L511.093 78.5545L510.761 72.6673L492.575 72.4664L474.389 72.2648V78.556V84.8464L466.018 84.704C461.413 84.6258 456.997 84.5966 456.203 84.6397C455.208 84.6937 454.76 86.2026 454.76 89.4986V94.2787L446.966 94.0632L439.171 93.847L438.594 66.0942L438.017 38.3414L429.255 38.1304L420.493 37.9193L419.44 31.9225L418.387 25.9257L409.27 26.1923L400.153 26.4596L400.769 21.5984C401.237 17.9088 400.979 16.4802 399.701 15.6718C398.239 14.7472 376.528 14.6055 236.407 14.6055C108.163 14.6055 74.6917 14.7939 74.2841 15.5184Z" fill="black"/>
</svg>
