<svg width="269" height="260" viewBox="0 0 269 260" fill="none" xmlns="http://www.w3.org/2000/svg">
<g clip-path="url(#clip0_273_6634)">
<path fill-rule="evenodd" clip-rule="evenodd" d="M90.6249 1.39402C81.9822 4.51475 75.6066 10.2333 69.4655 20.374C66.1291 25.8844 60.3545 33.3587 53.6088 40.8994C46.4931 48.8535 36.6004 65.9047 22.4643 94.5792C12.1214 115.558 9.45516 123.749 6.22364 144.467C4.86504 153.181 3.40371 163.596 2.9761 167.613C2.54848 171.63 1.79815 178.038 1.30789 181.854C0.746963 186.223 0.33246 201.977 0.18895 224.397L-0.0390625 260.001H133.657H267.352V250.448C267.352 241.811 267.166 240.431 265.415 236.042C264.35 233.372 262.579 229.66 261.48 227.792C260.382 225.924 258.421 222.465 257.122 220.105C254.183 214.763 244.986 203.291 240.144 198.928C238.142 197.123 233.283 193.662 229.345 191.236C224.246 188.094 222.186 186.416 222.186 185.404C222.186 184.622 223.468 182.271 225.034 180.18C228.356 175.743 229.794 171.084 229.194 166.696C228.807 163.865 229.072 163.128 232.033 158.792C235.433 153.812 236.155 150.497 234.508 147.413C233.333 145.211 234.148 143.243 238.182 138.544C244.121 131.625 244.315 128.052 239.143 120.871C237.986 119.265 236.318 116.446 235.437 114.608C234.556 112.77 232.689 109.924 231.288 108.284C229.888 106.644 228.742 104.908 228.742 104.428C228.742 103.947 229.681 102.356 230.828 100.892C235.146 95.3833 235.544 93.9233 235.983 82.0152C236.256 74.5957 236.694 70.6095 237.302 70.0012C239.793 67.51 237.679 64.1365 230.513 59.1703C227.529 57.1027 224.572 54.4092 223.941 53.1859C222.435 50.266 214.416 42.3805 210.297 39.7674C207.789 38.1775 206.673 36.8095 205.433 33.81C203.143 28.2704 193.055 13.2532 189.4 9.94335C187.703 8.40599 183.814 5.9506 180.757 4.48773C175.45 1.94689 174.794 1.81543 166.217 1.56711C155.459 1.25672 153.094 1.95784 146.752 7.33897C140.7 12.474 139.943 12.5455 135.363 8.41694C127.902 1.692 121.892 0.0187975 105.266 0.039247C96.524 0.050202 93.5963 0.321157 90.6249 1.39402Z" fill="black"/>
</g>
<defs>
<clipPath id="clip0_273_6634">
<rect width="268.079" height="260" fill="white"/>
</clipPath>
</defs>
</svg>
