<svg width="401" height="392" viewBox="0 0 401 392" fill="none" xmlns="http://www.w3.org/2000/svg">
<g clip-path="url(#clip0_246_241)">
<path d="M220.187 96.4662C220.337 84.0801 219.552 71.7501 217.865 59.4762C215.805 44.4503 214.922 29.4104 217.664 14.3752C218.304 10.8617 219.337 7.42295 220.131 3.9328C220.411 2.69933 221.719 2.07792 221.794 0.624862C221.827 -0.00121565 223.093 0.0361622 223.803 0.582812C224.579 1.18086 224.962 2.04055 225.289 2.91425C230.489 16.7627 238.501 28.9479 247.457 40.5957C260.683 57.7895 271.568 76.2868 278.558 96.9334C284.538 114.599 286.145 132.456 281.174 150.659C279.842 155.528 279.945 155.514 284.612 157.481C298.516 163.335 310.892 171.311 320.31 183.36C322.329 185.944 324.216 188.626 325.622 191.579C326.342 193.097 327.323 193.985 328.874 194.62C343.572 200.638 357.424 208.137 369.66 218.383C379.326 226.475 387.319 235.932 392.771 247.37C401.952 266.619 402.461 286.247 394.701 306.025C388.188 322.62 377.013 335.703 363.208 346.72C358.765 350.266 354.065 353.406 349.351 356.569C343.277 360.643 336.905 364.222 330.715 368.086C328.285 369.604 325.267 370.193 322.487 371.118C321.296 371.515 320.151 371.852 319.329 372.931C318.656 373.814 317.666 374.375 316.554 374.538C311.167 375.342 306.052 377.169 300.973 378.981C298.605 379.827 296.105 380.355 293.821 381.593C292.578 382.271 290.775 381.86 289.247 382.079C284.267 382.799 279.282 383.546 274.582 385.457C272.877 386.149 271.041 385.887 269.335 386.037C265.626 386.359 262.136 387.686 258.356 387.737C253.792 387.798 249.288 388.975 244.724 389.503C224.653 391.839 204.522 392.344 184.354 391.793C168.698 391.363 153.108 389.975 137.63 387.681C109.557 383.523 82.226 376.687 56.7315 363.759C43.8091 357.209 31.9097 349.219 21.9119 338.59C12.0122 328.064 4.8081 316.019 2.0984 301.731C-1.45691 282.981 2.77115 265.932 14.3341 250.71C24.0797 237.88 37.1236 229.461 51.6158 223.121C54.0639 222.051 54.6058 220.472 54.9889 218.439C57.778 203.67 65.8884 192.578 78.325 184.449C90.4719 176.506 104.165 173.156 118.274 171.1C123.74 170.306 129.244 169.797 134.729 169.119C135.766 168.993 136.873 169.105 137.635 167.998C143.647 159.289 152.346 154.715 162.227 151.739C174.192 148.136 185.311 142.492 196.402 136.83C201.537 134.208 206.475 131.256 211.273 128.055C214.782 125.714 216.791 122.514 217.767 118.463C219.519 111.226 219.967 103.858 220.182 96.4568L220.187 96.4662Z" fill="black"/>
</g>
<defs>
<clipPath id="clip0_246_241">
<rect width="399.251" height="391.836" fill="white" transform="translate(0.878906 0.164062)"/>
</clipPath>
</defs>
</svg>
