<svg width="855" height="839" viewBox="0 0 855 839" fill="none" xmlns="http://www.w3.org/2000/svg">
<g clip-path="url(#clip0_246_241)">
<path d="M469.421 206.12C469.741 179.61 468.061 153.22 464.451 126.95C460.041 94.7902 458.151 62.6002 464.021 30.4202C465.391 22.9002 467.601 15.5402 469.301 8.07016C469.901 5.43016 472.701 4.10016 472.861 0.99016C472.931 -0.34984 475.641 -0.26984 477.161 0.90016C478.821 2.18016 479.641 4.02016 480.341 5.89016C491.471 35.5302 508.621 61.6102 527.791 86.5402C556.101 123.34 579.401 162.93 594.361 207.12C607.161 244.93 610.601 283.15 599.961 322.11C597.111 332.53 597.331 332.5 607.321 336.71C637.081 349.24 663.571 366.31 683.731 392.1C688.051 397.63 692.091 403.37 695.101 409.69C696.641 412.94 698.741 414.84 702.061 416.2C733.521 429.08 763.171 445.13 789.361 467.06C810.051 484.38 827.161 504.62 838.831 529.1C858.481 570.3 859.571 612.31 842.961 654.64C829.021 690.16 805.101 718.16 775.551 741.74C766.041 749.33 755.981 756.05 745.891 762.82C732.891 771.54 719.251 779.2 706.001 787.47C700.801 790.72 694.341 791.98 688.391 793.96C685.841 794.81 683.391 795.53 681.631 797.84C680.191 799.73 678.071 800.93 675.691 801.28C664.161 803 653.211 806.91 642.341 810.79C637.271 812.6 631.921 813.73 627.031 816.38C624.371 817.83 620.511 816.95 617.241 817.42C606.581 818.96 595.911 820.56 585.851 824.65C582.201 826.13 578.271 825.57 574.621 825.89C566.681 826.58 559.211 829.42 551.121 829.53C541.351 829.66 531.711 832.18 521.941 833.31C478.981 838.31 435.891 839.39 392.721 838.21C359.211 837.29 325.841 834.32 292.711 829.41C232.621 820.51 174.121 805.88 119.551 778.21C91.8908 764.19 66.4208 747.09 45.0208 724.34C23.8308 701.81 8.41083 676.03 2.61083 645.45C-4.99917 605.32 4.05083 568.83 28.8008 536.25C49.6608 508.79 77.5808 490.77 108.601 477.2C113.841 474.91 115.001 471.53 115.821 467.18C121.791 435.57 139.151 411.83 165.771 394.43C191.771 377.43 221.081 370.26 251.281 365.86C262.981 364.16 274.761 363.07 286.501 361.62C288.721 361.35 291.091 361.59 292.721 359.22C305.591 340.58 324.211 330.79 345.361 324.42C370.971 316.71 394.771 304.63 418.511 292.51C429.501 286.9 440.071 280.58 450.341 273.73C457.851 268.72 462.151 261.87 464.241 253.2C467.991 237.71 468.951 221.94 469.411 206.1L469.421 206.12Z" fill="black"/>
</g>
<defs>
<clipPath id="clip0_246_241">
<rect width="854.58" height="838.65" fill="white"/>
</clipPath>
</defs>
</svg>
