<svg width="445" height="478" viewBox="0 0 445 478" fill="none" xmlns="http://www.w3.org/2000/svg">
<g clip-path="url(#clip0_246_234)">
<path d="M414.786 34.8062C418.772 32.018 422.297 29.1819 424.32 24.2397C426.373 19.2197 428.001 13.9066 430.909 9.25754C433.058 5.82313 435.649 2.83148 440.359 3.04089C442.861 3.15458 443.998 4.41107 444.13 6.73857C444.25 8.85666 444.489 11.1363 441.395 11.3577C440.192 11.4414 439.599 12.303 440.012 13.1646C444.04 21.5233 437.57 27.716 435.631 34.8242C433.926 41.0707 429.371 45.618 425.792 50.7337C419.735 59.3796 413.768 68.0853 407.58 76.6294C404.845 80.4109 401.864 84.0786 397.579 86.3343C396.173 87.0763 395.263 87.9498 396.699 89.5593C397.13 90.044 397.442 90.8338 397.43 91.474C397.262 100.132 401.751 107.294 405.06 114.767C409.25 124.233 413.882 133.495 417.706 143.134C418.909 146.167 420.813 148.92 422.273 151.857C424.996 157.326 423.608 160.778 417.97 163.13C403.103 169.335 388.332 175.791 373.358 181.732C364.411 185.28 355.355 188.631 346.073 191.275C343.368 192.047 342.302 194.082 342.266 196.714C342.213 200.603 342.219 204.492 342.242 208.382C342.308 218.703 340.884 228.701 336.928 238.358C335.402 242.074 334.654 246.166 335.001 250.33C335.474 255.961 334.007 261.094 331.188 265.995C329.716 268.55 328.639 271.398 327.783 274.234C325.832 280.684 321.648 285.506 316.95 290.036C312.964 293.877 309.774 298.484 305.094 301.679C301.389 304.21 297.625 306.645 293.525 308.35C288.264 310.54 283.536 313.909 278.401 315.973C269.029 319.743 268.933 326.677 269.951 334.545C270.34 337.525 270.328 340.511 270.507 343.49C270.962 351.113 272.015 358.7 271.692 366.371C271.548 369.709 270.675 372.665 268.508 375.172C262.248 382.418 258.292 390.98 254.055 399.452C251.074 405.411 248.105 411.395 244.874 417.24C242.372 421.77 240.026 426.395 237.781 431.056C235.812 435.154 236.896 437.757 240.852 439.941C245.394 442.442 250.487 443.106 255.329 444.596C264.642 447.468 274.116 447.414 283.728 446.678C288.246 446.331 292.55 448.066 296.56 450.19C298.594 451.267 300.563 452.386 302.933 452.608C304.537 452.757 305.687 453.739 306.423 455.139C308.751 459.596 312.24 463.192 315.274 467.123C315.819 467.829 316.741 468.565 316.058 469.445C315.149 470.623 314.592 469.283 313.922 468.858C312.605 468.021 311.719 467.59 311.432 469.899C310.846 474.554 308.344 476.93 303.646 476.918C297.703 476.9 291.682 477.905 285.823 476.026C285.727 475.996 285.619 475.966 285.529 475.99C279.143 477.462 273.242 474.453 267.06 473.944C264.51 473.735 262.044 472.688 259.507 472.221C250.93 470.635 242.348 469.062 233.742 467.644C229.923 467.016 226.003 467.584 222.167 466.525C218.42 465.49 214.62 464.772 211.125 462.911C209.676 462.139 208.084 461.373 206.301 461.499C201.644 461.822 198.688 459.309 197.084 455.336C195.582 451.62 196.605 447.701 199.101 444.997C205.648 437.889 211.502 430.206 218.001 423.056C223.059 417.486 226.284 410.695 229.606 403.97C235.298 392.452 241.217 381.065 249.5 371.067C252.6 367.322 253.959 362.966 251.607 358.03C247.699 349.827 245.221 341.085 242.545 332.439C241.666 329.591 240.128 328.897 237.243 329.059C218.743 330.106 200.232 330.65 181.936 326.851C173.545 325.11 165.244 322.746 157.296 319.683C147.11 315.758 137.283 310.804 129.173 303.181C127.467 301.577 126.689 302.601 126.103 303.995C123.481 310.223 120.854 316.452 118.4 322.746C114.683 332.284 112.391 342.306 108.196 351.705C105.395 357.976 106.011 364.815 106.861 371.45C107.124 373.509 107.747 375.549 107.567 377.631C106.999 384.099 107.334 390.549 107.519 397.017C107.693 403.078 107.837 409.163 107.178 415.242C106.777 418.97 108.926 422.38 109.261 426.042C109.716 430.99 112.72 434.688 115.264 438.559C119.088 444.369 116.275 447.372 110.584 449.951C106.352 451.866 101.756 453.015 97.2673 454.307C93.6464 455.348 89.84 455.504 86.1892 456.563C84.3817 457.089 82.4845 457.454 80.8087 458.25C76.4337 460.332 72.5196 459.656 68.36 457.406C64.021 455.055 59.1013 454.421 54.1757 454.301C48.7953 454.169 43.4208 454.397 38.0404 453.84C33.6534 453.386 29.7213 451.842 25.9388 449.808C23.7484 448.629 21.7374 447.169 19.122 446.948C17.6737 446.828 17.2487 445.978 18.1465 444.668C19.8163 442.233 21.0551 439.492 24.5982 438.984C26.4356 438.721 27.9857 437.338 29.2186 435.843C29.865 435.065 30.4994 434.197 29.7512 433.156C28.249 431.08 29.5238 430.517 31.3073 430.296C34.3596 429.919 37.3282 429.189 40.2548 428.274C43.3849 427.292 46.0722 429.123 48.9569 429.644C49.9444 429.823 50.9199 430.344 51.8117 429.722C56.1268 426.694 60.442 428.639 64.7152 429.734C65.99 430.063 67.2349 430.464 68.5216 430.272C73.3275 429.572 78.2292 429.267 82.7478 427.221C84.7588 426.311 86.1293 424.899 86.7637 422.709C87.8111 419.053 88.5771 415.41 88.4933 411.55C88.3377 404.275 88.6071 396.987 88.4275 389.717C88.3138 384.907 90.0913 380.288 89.5766 375.471C89.1756 371.755 89.4629 368.022 88.3736 364.306C87.1707 360.22 88.4455 356.013 88.9721 351.885C89.9597 344.184 90.9711 336.49 92.1262 328.819C93.012 322.926 94.203 317.074 95.1366 311.193C96.172 304.707 96.98 298.179 98.0633 291.705C99.0029 286.087 96.3755 281.707 93.5985 277.285C88.1941 268.681 83.7413 259.545 78.6481 250.773C74.5125 243.653 71.4602 235.923 66.008 229.527C62.7462 225.703 62.0519 220.659 61.6031 215.765C61.3816 213.384 60.6694 213.15 58.9757 214.646C52.2366 220.593 44.959 225.823 37.4718 230.777C36.1312 231.663 35.7362 232.883 35.814 234.367C36.3766 244.916 32.5163 254.65 30.3198 264.702C28.7099 272.062 25.5618 278.996 24.8017 286.619C24.3708 290.903 23.102 295.133 22.7429 299.471C22.6172 301.015 22.9643 302.487 23.9818 303.678C30.5472 311.348 31.1996 321.113 33.3841 330.315C34.9043 336.699 35.2155 343.281 36.0534 349.773C36.5202 353.405 38.4234 356.809 38.5611 360.698C38.6568 363.319 38.4773 365.82 37.9147 368.339C35.5746 366.987 32.7437 366.089 31.0021 364.187C27.6984 360.579 25.1668 356.396 25.5558 351.053C25.7413 348.486 25.5558 345.866 25.2326 343.305C25.083 342.132 24.6581 340.517 23.1259 340.337C21.5459 340.152 21.0132 341.689 20.4985 342.814C18.2542 347.733 17.0811 352.818 19.4093 358.03C20.3429 360.13 19.924 362.38 20.6123 364.45C22.1085 368.955 24.7897 372.82 27.9498 376.219C32.1871 380.778 34.9701 385.421 32.8634 391.973C31.7263 395.515 31.9357 395.312 28.4645 393.846C22.0187 391.117 18.3859 385.296 13.3106 381.077C12.7959 380.653 12.4189 379.988 12.1316 379.366C9.34861 373.311 5.96713 367.442 3.9921 361.129C1.41858 352.92 0.0779543 344.376 1.26896 335.622C1.8854 331.093 2.6036 326.528 2.23253 321.933C1.82555 316.907 2.31632 311.743 3.84248 307.232C5.51826 302.289 6.05092 297.156 7.72071 292.285C10.7132 283.556 11.4374 274.365 13.0174 265.355C14.7829 255.273 15.95 245.083 18.3679 235.115C18.8587 233.093 19.1759 231.022 19.541 228.97C20.8457 221.706 25.7653 216.878 30.9422 212.301C38.0404 206.03 44.6118 199.227 51.3628 192.604C54.3493 189.672 57.7368 187.195 60.5078 184.024C62.2315 182.049 62.9856 179.943 63.3985 177.358C64.7212 169.119 66.1995 160.91 68.3301 152.803C71.2927 141.536 74.9614 130.527 78.6601 119.5C80.9404 112.697 80.1563 106.013 75.6676 99.6771C70.4129 92.2578 64.8469 85.1556 56.8091 80.8776C49.8187 77.156 42.6787 73.5002 34.9701 71.3043C31.8759 70.4188 28.9732 69.0546 26.1723 67.5827C19.0502 63.8372 17.6557 56.7769 22.4377 49.5371C25.9448 44.2179 29.5178 38.9586 34.6768 34.9977C38.3995 32.1496 42.3435 30.0734 47.0956 31.7188C51.4526 33.2266 54.3972 36.5653 56.1807 40.6818C58.9517 47.06 61.0165 53.7673 64.0808 59.9899C68.5635 69.1024 74.728 76.9944 83.2505 82.8461C85.8001 84.5992 88.0804 86.7711 91.5516 86.2625C93.1616 86.0232 94.8194 85.7779 95.9566 84.6052C99.8887 80.5605 103.551 76.4978 106.245 71.2564C109.973 64.0047 113.576 56.4717 119.609 50.5722C122.302 47.9336 124.511 44.8043 127.108 42.058C133.38 35.4225 141.376 31.4675 149.366 27.3211C157.595 23.049 166.208 20.2189 175.089 17.9273C175.67 17.7777 176.244 17.6102 176.837 17.5444C190.177 16.0426 203.596 14.3852 216.84 17.6282C226.225 19.9258 235.818 21.4575 244.598 26.2561C249.362 28.8528 254.15 31.4974 258.992 34.0044C261.853 35.4883 264.091 37.7919 266.605 39.7005C273.966 45.3009 280.825 51.4996 286.032 59.2779C286.708 60.2891 287.486 61.4079 288.791 61.3182C291.963 61.1088 292.502 63.2508 292.556 65.5364C292.609 67.822 293.495 69.611 295.051 71.0949C300.019 75.8157 302.712 81.9785 305.375 88.0216C309.212 96.7213 316.088 98.4146 323.42 92.2399C334.073 83.2649 341.129 72.136 344.391 58.5958C344.505 58.1111 344.696 57.6504 344.858 57.1777C347.336 49.8721 352.231 48.0712 359.545 50.656C365.41 52.7322 370.019 56.5854 375.279 59.954C376.321 56.9085 374.902 54.1143 375.13 51.3021C375.537 46.342 374.812 41.5434 372.598 37.0559C371.419 34.6626 370.031 32.371 368.726 30.0315C368.486 29.5948 368.151 29.1939 367.984 28.7391C367.116 26.3937 365.847 23.7371 368.127 21.7985C370.156 20.0694 372.49 21.5951 374.507 22.6541C378.888 24.9577 381.192 28.6135 381.905 33.5318C382.491 37.5765 384.029 41.4177 385.633 45.1453C386.95 48.2028 391.678 48.472 394.042 45.6539C398.118 40.7955 402.056 35.8533 405.701 30.6059C410.142 24.2218 411.907 16.9042 415.103 10.1191C416.797 6.51719 419.197 3.78282 422.387 1.67072C424.224 0.450127 426.433 -0.704649 428.408 1.25787C430.365 3.20244 430.035 5.66756 428.809 7.88736C426.881 11.3696 424.541 14.5946 422.704 18.1487C421.321 20.8232 420.16 23.5456 419.179 26.3578C418.125 29.3794 417.024 32.3531 414.78 34.8182L414.786 34.8062ZM323.037 123.443C322.929 125.202 323.306 126.781 324.048 128.379C326.897 134.5 330.44 140.286 332.661 146.706C334.701 152.593 337.245 158.319 337.49 164.698C337.604 167.546 338.813 168.359 341.59 167.803C344.81 167.157 348.006 166.265 351.262 165.942C358.767 165.194 365.745 162.831 372.652 159.947C381.252 156.351 389.314 151.409 398.597 149.494C400.901 149.021 401.26 147.615 399.973 145.772C398.824 144.127 397.95 142.362 397.196 140.507C394.461 133.776 392.372 126.823 389.996 119.972C387.59 113.038 385.962 105.876 383.114 99.0548C381.151 94.346 378.858 89.5952 378.745 84.2641C378.673 80.8297 377.53 80.1835 374.489 81.7571C370.048 84.0607 365.374 85.748 360.532 86.9267C350.98 89.2542 342.883 94.0109 336.096 101.083C334.378 102.872 333.062 105.002 331.039 106.546C325.485 110.794 323.845 116.939 323.037 123.437V123.443Z" fill="black"/>
</g>
<defs>
<clipPath id="clip0_246_234">
<rect width="443.382" height="476.982" fill="white" transform="translate(0.808594 0.1875)"/>
</clipPath>
</defs>
</svg>
