<svg width="741" height="798" viewBox="0 0 741 798" fill="none" xmlns="http://www.w3.org/2000/svg">
<g clip-path="url(#clip0_246_234)">
<path d="M691.7 57.8602C698.36 53.2002 704.25 48.4602 707.63 40.2002C711.06 31.8102 713.78 22.9302 718.64 15.1602C722.23 9.42016 726.56 4.42016 734.43 4.77016C738.61 4.96016 740.51 7.06016 740.73 10.9502C740.93 14.4902 741.33 18.3002 736.16 18.6702C734.15 18.8102 733.16 20.2502 733.85 21.6902C740.58 35.6602 729.77 46.0102 726.53 57.8902C723.68 68.3302 716.07 75.9302 710.09 84.4802C699.97 98.9302 690 113.48 679.66 127.76C675.09 134.08 670.11 140.21 662.95 143.98C660.6 145.22 659.08 146.68 661.48 149.37C662.2 150.18 662.72 151.5 662.7 152.57C662.42 167.04 669.92 179.01 675.45 191.5C682.45 207.32 690.19 222.8 696.58 238.91C698.59 243.98 701.77 248.58 704.21 253.49C708.76 262.63 706.44 268.4 697.02 272.33C672.18 282.7 647.5 293.49 622.48 303.42C607.53 309.35 592.4 314.95 576.89 319.37C572.37 320.66 570.59 324.06 570.53 328.46C570.44 334.96 570.45 341.46 570.49 347.96C570.6 365.21 568.22 381.92 561.61 398.06C559.06 404.27 557.81 411.11 558.39 418.07C559.18 427.48 556.73 436.06 552.02 444.25C549.56 448.52 547.76 453.28 546.33 458.02C543.07 468.8 536.08 476.86 528.23 484.43C521.57 490.85 516.24 498.55 508.42 503.89C502.23 508.12 495.94 512.19 489.09 515.04C480.3 518.7 472.4 524.33 463.82 527.78C448.16 534.08 448 545.67 449.7 558.82C450.35 563.8 450.33 568.79 450.63 573.77C451.39 586.51 453.15 599.19 452.61 612.01C452.37 617.59 450.91 622.53 447.29 626.72C436.83 638.83 430.22 653.14 423.14 667.3C418.16 677.26 413.2 687.26 407.8 697.03C403.62 704.6 399.7 712.33 395.95 720.12C392.66 726.97 394.47 731.32 401.08 734.97C408.67 739.15 417.18 740.26 425.27 742.75C440.83 747.55 456.66 747.46 472.72 746.23C480.27 745.65 487.46 748.55 494.16 752.1C497.56 753.9 500.85 755.77 504.81 756.14C507.49 756.39 509.41 758.03 510.64 760.37C514.53 767.82 520.36 773.83 525.43 780.4C526.34 781.58 527.88 782.81 526.74 784.28C525.22 786.25 524.29 784.01 523.17 783.3C520.97 781.9 519.49 781.18 519.01 785.04C518.03 792.82 513.85 796.79 506 796.77C496.07 796.74 486.01 798.42 476.22 795.28C476.06 795.23 475.88 795.18 475.73 795.22C465.06 797.68 455.2 792.65 444.87 791.8C440.61 791.45 436.49 789.7 432.25 788.92C417.92 786.27 403.58 783.64 389.2 781.27C382.82 780.22 376.27 781.17 369.86 779.4C363.6 777.67 357.25 776.47 351.41 773.36C348.99 772.07 346.33 770.79 343.35 771C335.57 771.54 330.63 767.34 327.95 760.7C325.44 754.49 327.15 747.94 331.32 743.42C342.26 731.54 352.04 718.7 362.9 706.75C371.35 697.44 376.74 686.09 382.29 674.85C391.8 655.6 401.69 636.57 415.53 619.86C420.71 613.6 422.98 606.32 419.05 598.07C412.52 584.36 408.38 569.75 403.91 555.3C402.44 550.54 399.87 549.38 395.05 549.65C364.14 551.4 333.21 552.31 302.64 545.96C288.62 543.05 274.75 539.1 261.47 533.98C244.45 527.42 228.03 519.14 214.48 506.4C211.63 503.72 210.33 505.43 209.35 507.76C204.97 518.17 200.58 528.58 196.48 539.1C190.27 555.04 186.44 571.79 179.43 587.5C174.75 597.98 175.78 609.41 177.2 620.5C177.64 623.94 178.68 627.35 178.38 630.83C177.43 641.64 177.99 652.42 178.3 663.23C178.59 673.36 178.83 683.53 177.73 693.69C177.06 699.92 180.65 705.62 181.21 711.74C181.97 720.01 186.99 726.19 191.24 732.66C197.63 742.37 192.93 747.39 183.42 751.7C176.35 754.9 168.67 756.82 161.17 758.98C155.12 760.72 148.76 760.98 142.66 762.75C139.64 763.63 136.47 764.24 133.67 765.57C126.36 769.05 119.82 767.92 112.87 764.16C105.62 760.23 97.4004 759.17 89.1704 758.97C80.1804 758.75 71.2004 759.13 62.2104 758.2C54.8804 757.44 48.3104 754.86 41.9904 751.46C38.3304 749.49 34.9704 747.05 30.6004 746.68C28.1804 746.48 27.4704 745.06 28.9704 742.87C31.7604 738.8 33.8304 734.22 39.7504 733.37C42.8204 732.93 45.4104 730.62 47.4704 728.12C48.5504 726.82 49.6104 725.37 48.3604 723.63C45.8504 720.16 47.9804 719.22 50.9604 718.85C56.0604 718.22 61.0204 717 65.9104 715.47C71.1404 713.83 75.6304 716.89 80.4504 717.76C82.1004 718.06 83.7304 718.93 85.2204 717.89C92.4304 712.83 99.6404 716.08 106.78 717.91C108.91 718.46 110.99 719.13 113.14 718.81C121.17 717.64 129.36 717.13 136.91 713.71C140.27 712.19 142.56 709.83 143.62 706.17C145.37 700.06 146.65 693.97 146.51 687.52C146.25 675.36 146.7 663.18 146.4 651.03C146.21 642.99 149.18 635.27 148.32 627.22C147.65 621.01 148.13 614.77 146.31 608.56C144.3 601.73 146.43 594.7 147.31 587.8C148.96 574.93 150.65 562.07 152.58 549.25C154.06 539.4 156.05 529.62 157.61 519.79C159.34 508.95 160.69 498.04 162.5 487.22C164.07 477.83 159.68 470.51 155.04 463.12C146.01 448.74 138.57 433.47 130.06 418.81C123.15 406.91 118.05 393.99 108.94 383.3C103.49 376.91 102.33 368.48 101.58 360.3C101.21 356.32 100.02 355.93 97.1904 358.43C85.9304 368.37 73.7704 377.11 61.2604 385.39C59.0204 386.87 58.3604 388.91 58.4904 391.39C59.4304 409.02 52.9804 425.29 49.3104 442.09C46.6204 454.39 41.3604 465.98 40.0904 478.72C39.3704 485.88 37.2504 492.95 36.6504 500.2C36.4404 502.78 37.0204 505.24 38.7204 507.23C49.6904 520.05 50.7804 536.37 54.4304 551.75C56.9704 562.42 57.4904 573.42 58.8904 584.27C59.6704 590.34 62.8504 596.03 63.0804 602.53C63.2404 606.91 62.9404 611.09 62.0004 615.3C58.0904 613.04 53.3604 611.54 50.4504 608.36C44.9304 602.33 40.7004 595.34 41.3504 586.41C41.6604 582.12 41.3504 577.74 40.8104 573.46C40.5604 571.5 39.8504 568.8 37.2904 568.5C34.6504 568.19 33.7604 570.76 32.9004 572.64C29.1504 580.86 27.1904 589.36 31.0804 598.07C32.6404 601.58 31.9404 605.34 33.0904 608.8C35.5904 616.33 40.0704 622.79 45.3504 628.47C52.4304 636.09 57.0804 643.85 53.5604 654.8C51.6604 660.72 52.0104 660.38 46.2104 657.93C35.4404 653.37 29.3704 643.64 20.8904 636.59C20.0304 635.88 19.4004 634.77 18.9204 633.73C14.2704 623.61 8.62041 613.8 5.32041 603.25C1.02041 589.53 -1.21959 575.25 0.770414 560.62C1.80041 553.05 3.00041 545.42 2.38041 537.74C1.70041 529.34 2.52041 520.71 5.07041 513.17C7.87041 504.91 8.76041 496.33 11.5504 488.19C16.5504 473.6 17.7604 458.24 20.4004 443.18C23.3504 426.33 25.3004 409.3 29.3404 392.64C30.1604 389.26 30.6904 385.8 31.3004 382.37C33.4804 370.23 41.7004 362.16 50.3504 354.51C62.2104 344.03 73.1904 332.66 84.4704 321.59C89.4604 316.69 95.1204 312.55 99.7504 307.25C102.63 303.95 103.89 300.43 104.58 296.11C106.79 282.34 109.26 268.62 112.82 255.07C117.77 236.24 123.9 217.84 130.08 199.41C133.89 188.04 132.58 176.87 125.08 166.28C116.3 153.88 107 142.01 93.5704 134.86C81.8904 128.64 69.9604 122.53 57.0804 118.86C51.9104 117.38 47.0604 115.1 42.3804 112.64C30.4804 106.38 28.1504 94.5802 36.1404 82.4802C42.0004 73.5902 47.9704 64.8002 56.5904 58.1802C62.8104 53.4202 69.4004 49.9502 77.3404 52.7002C84.6204 55.2202 89.5404 60.8002 92.5204 67.6802C97.1504 78.3402 100.6 89.5502 105.72 99.9502C113.21 115.18 123.51 128.37 137.75 138.15C142.01 141.08 145.82 144.71 151.62 143.86C154.31 143.46 157.08 143.05 158.98 141.09C165.55 134.33 171.67 127.54 176.17 118.78C182.4 106.66 188.42 94.0702 198.5 84.2102C203 79.8002 206.69 74.5702 211.03 69.9802C221.51 58.8902 234.87 52.2802 248.22 45.3502C261.97 38.2102 276.36 33.4802 291.2 29.6502C292.17 29.4002 293.13 29.1202 294.12 29.0102C316.41 26.5002 338.83 23.7302 360.96 29.1502C376.64 32.9902 392.67 35.5502 407.34 43.5702C415.3 47.9102 423.3 52.3302 431.39 56.5202C436.17 59.0002 439.91 62.8502 444.11 66.0402C456.41 75.4002 467.87 85.7602 476.57 98.7602C477.7 100.45 479 102.32 481.18 102.17C486.48 101.82 487.38 105.4 487.47 109.22C487.56 113.04 489.04 116.03 491.64 118.51C499.94 126.4 504.44 136.7 508.89 146.8C515.3 161.34 526.79 164.17 539.04 153.85C556.84 138.85 568.63 120.25 574.08 97.6202C574.27 96.8102 574.59 96.0402 574.86 95.2502C579 83.0402 587.18 80.0302 599.4 84.3502C609.2 87.8202 616.9 94.2602 625.69 99.8902C627.43 94.8002 625.06 90.1302 625.44 85.4302C626.12 77.1402 624.91 69.1202 621.21 61.6202C619.24 57.6202 616.92 53.7902 614.74 49.8802C614.34 49.1502 613.78 48.4802 613.5 47.7202C612.05 43.8002 609.93 39.3602 613.74 36.1202C617.13 33.2302 621.03 35.7802 624.4 37.5502C631.72 41.4002 635.57 47.5102 636.76 55.7302C637.74 62.4902 640.31 68.9102 642.99 75.1402C645.19 80.2502 653.09 80.7002 657.04 75.9902C663.85 67.8702 670.43 59.6102 676.52 50.8402C683.94 40.1702 686.89 27.9402 692.23 16.6002C695.06 10.5802 699.07 6.01016 704.4 2.48016C707.47 0.440163 711.16 -1.48984 714.46 1.79016C717.73 5.04016 717.18 9.16016 715.13 12.8702C711.91 18.6902 708 24.0802 704.93 30.0202C702.62 34.4902 700.68 39.0402 699.04 43.7402C697.28 48.7902 695.44 53.7602 691.69 57.8802L691.7 57.8602ZM538.4 206C538.22 208.94 538.85 211.58 540.09 214.25C544.85 224.48 550.77 234.15 554.48 244.88C557.89 254.72 562.14 264.29 562.55 274.95C562.74 279.71 564.76 281.07 569.4 280.14C574.78 279.06 580.12 277.57 585.56 277.03C598.1 275.78 609.76 271.83 621.3 267.01C635.67 261 649.14 252.74 664.65 249.54C668.5 248.75 669.1 246.4 666.95 243.32C665.03 240.57 663.57 237.62 662.31 234.52C657.74 223.27 654.25 211.65 650.28 200.2C646.26 188.61 643.54 176.64 638.78 165.24C635.5 157.37 631.67 149.43 631.48 140.52C631.36 134.78 629.45 133.7 624.37 136.33C616.95 140.18 609.14 143 601.05 144.97C585.09 148.86 571.56 156.81 560.22 168.63C557.35 171.62 555.15 175.18 551.77 177.76C542.49 184.86 539.75 195.13 538.4 205.99V206Z" fill="black"/>
</g>
<defs>
<clipPath id="clip0_246_234">
<rect width="740.83" height="797.19" fill="white"/>
</clipPath>
</defs>
</svg>
