<svg width="205" height="260" viewBox="0 0 205 260" fill="none" xmlns="http://www.w3.org/2000/svg">
<path d="M117.541 259.969C117.203 259.969 116.854 259.969 116.516 259.969C108.959 259.949 105.611 256.187 106.472 248.683C106.903 245.03 106.165 241.48 105.273 238.043C104.341 234.493 100.743 234.688 98.0273 234.462C90.556 233.847 82.9617 234.247 75.5928 233.118C63.9092 231.323 54.4804 233.529 47.8289 244.23C44.9695 248.837 39.3942 251.115 36.3708 255.824C35.7866 256.737 34.5158 257.497 33.4192 257.743C25.9171 259.456 18.2305 260.308 10.7694 258.328C5.08136 256.82 -1.47788 243.481 0.29516 237.981C1.71974 233.539 5.22485 231.446 9.75481 230.409C18.0461 228.521 26.2348 226.213 34.4748 224.12C37.2317 223.422 38.8203 221.534 39.9169 219.102C40.911 216.896 42.0998 214.147 41.034 212.238C39.8041 210.063 37.4572 212.587 35.5612 212.751C30.0986 213.213 24.9332 214.66 20.0855 217.522C15.3916 220.293 10.011 218.733 5.16332 217.964C0.551379 217.235 -0.350522 211.13 3.10331 207.139C6.47515 203.24 11.2306 201.434 15.8323 199.813C20.9464 198.017 26.1425 196.324 31.5641 195.36C37.8774 194.231 40.3166 191.071 41.3005 184.884C43.4117 171.7 41.7207 158.587 40.0911 145.587C38.974 136.63 38.8203 127.867 40.2449 119.074C41.9769 108.373 40.2653 97.5788 41.444 86.8464C41.9359 82.3524 38.3795 79.541 33.8496 79.6334C26.4705 79.777 21.2539 76.8426 17.1954 70.6864C15.5146 68.1418 15.5965 66.4386 17.0621 64.3249C18.7122 61.9445 20.065 59.0921 22.2788 57.3992C30.5905 51.048 31.6051 41.5674 33.3474 32.487C34.813 24.8841 38.5845 18.8715 44.0676 13.7311C45.7279 12.1818 47.0807 10.6325 47.1832 8.12895C47.5214 0.0643107 52.1334 -1.55683 60.3119 1.32633C63.6222 2.49601 66.6866 3.30658 70.12 3.28606C81.0451 3.2245 91.9498 3.28605 102.65 6.09739C104.74 6.65145 107.067 6.44624 109.28 6.3539C112.519 6.21025 115.317 7.24656 117.869 9.12421C128.876 17.2402 137.967 27.0388 142.989 39.9258C146.033 47.7134 151.106 53.7055 157.378 58.7843C161.385 62.0266 164.603 65.7101 165.618 70.7479C167.217 78.6997 172.966 83.3579 178.972 87.421C185.582 91.8842 190.43 96.7066 192.572 104.987C195.165 115.011 199.613 124.574 203.456 134.26C204.594 137.112 204.153 139.267 202.759 141.924C199.193 148.757 194.355 154.739 190.348 161.265C189.887 162.014 189.395 162.794 188.462 162.804C182.877 162.876 182.805 166.6 182.457 170.889C181.565 181.755 181.729 192.744 178.531 203.373C177.343 207.334 175.528 210.494 172.28 213.018C165.679 218.138 158.085 221.862 151.946 227.66C150.276 229.24 148.041 230.974 145.643 230.83C136.757 230.307 134.626 236.966 132.443 243.204C131.162 246.857 130.526 250.879 130.393 254.767C130.26 258.902 128.517 260.226 124.715 259.969C122.337 259.816 119.939 259.939 117.541 259.939V259.969Z" fill="black"/>
</svg>
