<svg width="146" height="186" viewBox="0 0 146 186" fill="none" xmlns="http://www.w3.org/2000/svg">
<path d="M84.0236 185.724C83.7825 185.724 83.5342 185.724 83.2931 185.724C77.9073 185.709 75.5212 183.031 76.1348 177.689C76.4415 175.089 75.9156 172.561 75.2801 170.114C74.6154 167.587 72.0515 167.726 70.1158 167.565C64.7909 167.127 59.3783 167.412 54.1264 166.608C45.7993 165.33 39.0791 166.9 34.3385 174.519C32.3006 177.799 28.3269 179.42 26.1721 182.773C25.7558 183.423 24.85 183.964 24.0684 184.139C18.7216 185.359 13.2432 185.965 7.92556 184.555C3.87158 183.481 -0.803308 173.986 0.460366 170.07C1.47569 166.908 3.97385 165.417 7.20243 164.68C13.1117 163.336 18.948 161.692 24.8208 160.202C26.7857 159.705 27.9179 158.361 28.6995 156.63C29.408 155.06 30.2553 153.102 29.4957 151.743C28.6191 150.195 26.9464 151.992 25.5951 152.109C21.7018 152.437 18.0203 153.467 14.5653 155.505C11.2199 157.477 7.38501 156.367 3.92999 155.819C0.642978 155.301 0.000176838 150.955 2.46178 148.113C4.86496 145.337 8.25427 144.052 11.534 142.898C15.1789 141.619 18.8823 140.414 22.7463 139.728C27.2459 138.924 28.9843 136.674 29.6856 132.27C31.1903 122.883 29.9851 113.548 28.8237 104.294C28.0275 97.9168 27.9179 91.6788 28.9332 85.4188C30.1677 77.8003 28.9478 70.116 29.7879 62.4755C30.1385 59.2761 27.6038 57.2747 24.3752 57.3404C19.116 57.4427 15.398 55.3536 12.5054 50.9709C11.3075 49.1594 11.3659 47.9469 12.4105 46.4421C13.5865 44.7475 14.5507 42.7169 16.1285 41.5116C22.0524 36.9902 22.7755 30.2408 24.0173 23.7764C25.0618 18.3637 27.7499 14.0833 31.6578 10.4238C32.8411 9.3208 33.8053 8.21783 33.8783 6.43554C34.1194 0.694221 37.4064 -0.459889 43.2354 1.59267C45.5947 2.42538 47.7788 3.00243 50.2258 2.98783C58.0123 2.944 65.7843 2.98782 73.4102 4.98924C74.9003 5.38369 76.5584 5.2376 78.1362 5.17186C80.4444 5.06959 82.4385 5.80735 84.2573 7.14407C92.1023 12.9219 98.5814 19.8977 102.161 29.0721C104.33 34.6162 107.946 38.882 112.416 42.4977C115.272 44.8059 117.566 47.4283 118.289 51.0147C119.428 56.6757 123.526 59.9919 127.807 62.8845C132.518 66.062 135.973 69.4951 137.5 75.3898C139.348 82.5263 142.518 89.334 145.257 96.2295C146.068 98.2601 145.754 99.794 144.76 101.686C142.218 106.551 138.771 110.809 135.915 115.455C135.586 115.988 135.235 116.543 134.571 116.551C130.59 116.602 130.538 119.253 130.29 122.306C129.655 130.042 129.772 137.865 127.493 145.432C126.645 148.252 125.352 150.502 123.037 152.299C118.333 155.944 112.92 158.595 108.545 162.722C107.354 163.847 105.762 165.081 104.052 164.979C97.7195 164.607 96.2001 169.347 94.6443 173.788C93.7312 176.389 93.2783 179.252 93.1834 182.021C93.0884 184.964 91.8467 185.906 89.1367 185.724C87.4421 185.614 85.7328 185.702 84.0236 185.702V185.724Z" fill="black"/>
</svg>
