<svg width="200" height="254" viewBox="0 0 200 254" fill="none" xmlns="http://www.w3.org/2000/svg">
<path d="M115.2 253.611C114.87 253.611 114.53 253.611 114.2 253.611C106.826 253.591 103.56 249.924 104.4 242.611C104.82 239.051 104.1 235.591 103.23 232.241C102.32 228.781 98.8097 228.971 96.1597 228.751C88.8697 228.151 81.4597 228.541 74.2697 227.441C62.8697 225.691 53.6697 227.841 47.1797 238.271C44.3897 242.761 38.9497 244.981 35.9997 249.571C35.4297 250.461 34.1897 251.201 33.1197 251.441C25.7997 253.111 18.2997 253.941 11.0197 252.011C5.46975 250.541 -0.930285 237.541 0.799715 232.181C2.18971 227.851 5.60976 225.811 10.0298 224.801C18.1198 222.961 26.1097 220.711 34.1497 218.671C36.8397 217.991 38.3897 216.151 39.4597 213.781C40.4297 211.631 41.5897 208.951 40.5497 207.091C39.3497 204.971 37.0597 207.431 35.2097 207.591C29.8797 208.041 24.8397 209.451 20.1097 212.241C15.5297 214.941 10.2797 213.421 5.54971 212.671C1.04971 211.961 0.169705 206.011 3.5397 202.121C6.8297 198.321 11.4697 196.561 15.9597 194.981C20.9497 193.231 26.0197 191.581 31.3097 190.641C37.4697 189.541 39.8497 186.461 40.8097 180.431C42.8697 167.581 41.2197 154.801 39.6297 142.131C38.5397 133.401 38.3898 124.861 39.7798 116.291C41.4698 105.861 39.7997 95.341 40.9497 84.881C41.4297 80.501 37.9597 77.761 33.5397 77.851C26.3397 77.991 21.2497 75.131 17.2897 69.131C15.6497 66.651 15.7297 64.991 17.1597 62.931C18.7697 60.611 20.0897 57.831 22.2497 56.181C30.3597 49.991 31.3497 40.751 33.0497 31.901C34.4797 24.491 38.1597 18.631 43.5097 13.621C45.1297 12.111 46.4497 10.601 46.5497 8.16096C46.8797 0.30096 51.3797 -1.27904 59.3597 1.53096C62.5897 2.67096 65.5797 3.46096 68.9297 3.44096C79.5897 3.38096 90.2297 3.44095 100.67 6.18095C102.71 6.72095 104.98 6.52095 107.14 6.43095C110.3 6.29095 113.03 7.30096 115.52 9.13096C126.26 17.041 135.13 26.591 140.03 39.151C143 46.741 147.95 52.581 154.07 57.531C157.98 60.691 161.12 64.281 162.11 69.191C163.67 76.941 169.28 81.481 175.14 85.441C181.59 89.791 186.32 94.491 188.41 102.561C190.94 112.331 195.28 121.651 199.03 131.091C200.14 133.871 199.71 135.971 198.35 138.561C194.87 145.221 190.15 151.051 186.24 157.411C185.79 158.141 185.31 158.901 184.4 158.911C178.95 158.981 178.88 162.611 178.54 166.791C177.67 177.381 177.83 188.091 174.71 198.451C173.55 202.311 171.78 205.391 168.61 207.851C162.17 212.841 154.76 216.471 148.77 222.121C147.14 223.661 144.96 225.351 142.62 225.211C133.95 224.701 131.87 231.191 129.74 237.271C128.49 240.831 127.87 244.751 127.74 248.541C127.61 252.571 125.91 253.861 122.2 253.611C119.88 253.461 117.54 253.581 115.2 253.581V253.611Z" fill="black"/>
</svg>
