<svg width="239" height="270" viewBox="0 0 239 270" fill="none" xmlns="http://www.w3.org/2000/svg">
<path d="M122 -0.00171875H127C129.73 2.95828 131.13 7.36828 136.11 7.86828C141.88 8.43828 147.12 8.03828 150.57 2.44828C151.18 1.46828 152.39 0.848281 153.62 1.57828C154.94 2.35828 155.17 3.82828 154.99 5.11828C154.33 9.98828 156.28 13.3783 160.29 16.0483C162.75 17.6883 163.63 20.3883 164.09 23.3483C165.33 31.3483 165.64 39.1883 162.85 47.0283C161.72 50.2183 160.29 54.7783 163.4 56.9183C169.81 61.3283 175.63 67.3783 184.57 66.8883C193.43 66.3983 202.2 67.2983 210.75 69.9083C216.29 71.5983 221.38 73.9083 224.66 78.9883C230.02 87.2983 233.22 96.2983 233.02 106.298C232.95 109.718 233.53 112.898 235.14 115.928C237.92 121.138 238.74 126.728 237.38 132.428C233.59 148.258 232.61 164.278 232.96 180.508C233.12 188.068 230.74 195.318 227.14 202.018C223.38 209.008 218.72 215.458 215.83 222.998C212.46 231.808 207.06 238.908 196.79 240.678C193.66 241.218 191.03 241.348 187.73 240.508C182.77 239.248 179.28 237.528 177.69 232.518C177.49 231.888 176.03 231.628 175.13 231.248C174.3 230.898 173.42 230.308 173.69 229.468C175.39 224.278 171.79 218.828 175.08 213.478C177.12 210.168 179.9 208.088 182.59 205.678C187.96 200.878 188.08 200.008 184.2 194.238C178.72 186.088 178.71 180.358 184.08 172.058C186.16 168.848 188.23 165.608 190.04 162.248C191.71 159.138 189.7 157.048 187.27 155.718C184.22 154.048 183.49 157.058 182.75 158.808C180.04 165.218 177.16 171.578 178.49 178.978C179.07 182.178 179.73 186.458 178.16 188.748C174.05 194.758 173.65 201.558 171.88 208.128C170.19 214.378 167.66 220.408 165.5 226.538C164.82 228.478 164.5 230.398 165.55 232.338C167.35 235.668 166.45 238.848 164.71 241.828C161.69 247.008 158.78 252.278 155.33 257.168C153.12 260.308 154.05 261.458 157.1 262.518C158.55 263.018 161.11 262.818 160.9 264.948C160.66 267.378 158.09 266.648 156.39 266.878C155.41 267.008 154.37 266.988 153.4 266.798C150.15 266.178 146.46 267.028 143.69 265.048C141.27 263.318 143.2 260.128 142.5 257.558C140.75 251.098 139.68 244.218 141.44 237.778C143.67 229.598 142.04 221.948 140.47 214.128C140.02 211.878 139.85 209.288 137 208.588C134.03 207.858 132.42 209.948 130.81 211.908C125.09 218.848 119.4 225.808 113.64 232.718C112.3 234.318 111.55 235.988 111.49 238.128C111.32 244.678 109.95 251.028 107.81 257.198C106.89 259.848 106.88 261.898 109.3 263.808C112.8 266.558 111.16 268.128 107.8 269.088C106.84 269.358 105.9 269.708 104.96 270.018H99.96C96.82 269.228 94.17 268.098 95.26 263.958C95.57 262.768 94.82 261.738 94.19 260.728C91.97 257.168 90.67 253.228 89.39 249.248C85.28 236.478 83.14 223.058 76.28 211.168C74.15 207.478 73.44 203.018 75.35 198.618C76.31 196.408 75.8 194.008 75.31 191.718C74.42 187.468 74.36 183.118 73.84 178.838C72.38 166.828 66.93 156.488 59.45 147.158C58.43 145.888 57.03 143.928 54.89 145.688C52.86 147.358 51.33 149.368 52.72 152.178C53.38 153.508 54.35 154.678 55.14 155.958C61.23 165.788 66.04 176.068 59.1 187.208C54.97 193.838 57.41 198.368 61.72 203.078C62.62 204.058 63.46 205.128 64.47 205.978C70.34 210.898 70.41 218.118 71.9 224.748C72.56 227.678 68.5 227.058 68.1 229.388C67.88 230.688 67.37 231.948 66.87 233.178C66.23 234.748 65.38 236.548 63.57 236.588C61.03 236.648 59.34 237.818 57.45 239.288C55.32 240.948 41.04 239.558 39.16 237.708C36.44 235.018 33.32 232.508 31.35 229.318C20.89 212.228 6.44 197.558 0 177.998C0 174.328 0 170.668 0 166.998C0.79 163.258 1.12 159.348 2.48 155.828C4.37 150.958 4.37 146.398 3.43 141.278C1.34 129.908 1 118.628 10.49 109.668C11.98 108.258 12.32 106.098 12.52 104.118C14.87 80.8083 35.76 66.8783 55.2 65.8483C65.33 65.3183 75.46 67.5483 85.65 63.4683C91.67 61.0683 95.8 58.5983 98.56 52.5783C102.97 42.9283 106.67 32.8483 113.14 24.2583C116.51 19.7883 119.12 15.1583 118.95 9.28828C118.85 5.90828 119.76 2.68828 121.99 -0.0117188L122 -0.00171875Z" fill="black"/>
</svg>
