<svg width="249" height="261" viewBox="0 0 249 261" fill="none" xmlns="http://www.w3.org/2000/svg">
<path fill-rule="evenodd" clip-rule="evenodd" d="M64.1948 4.6512C64.1948 12.8991 61.7246 19.1505 53.3861 32.0044C50.772 36.0338 47.5571 41.5732 46.2424 44.3132C43.7079 49.5947 41.8268 58.3385 42.5781 61.3408C42.8266 62.3306 42.877 63.1409 42.6914 63.1409C42.505 63.1409 40.6078 61.2771 38.4753 58.9986C31.1241 51.1464 23.6464 47.4584 15.959 47.8943L11.9417 48.1221L14.9293 50.0716C17.0844 51.4768 18.3824 53.1032 19.5846 55.9055C22.1833 61.9614 21.4781 66.2699 16.024 77.6622C10.5853 89.0215 9.06232 95.3704 9.66524 104.168C9.89983 107.593 10.4107 111.495 10.8009 112.838C11.4082 114.931 11.3585 115.156 10.456 114.404C9.87572 113.922 8.71299 112.411 7.87183 111.046C7.02993 109.68 5.92568 108.564 5.41776 108.564C4.3062 108.564 1.74982 117.039 0.556401 124.681C-0.62386 132.24 0.122299 143.966 2.33301 152.608C7.5415 172.97 19.4654 187.969 38.6164 198.248L44.8283 201.582L41.8144 201.594C40.1562 201.601 37.3923 201.108 35.6712 200.5C33.9501 199.891 32.3723 199.563 32.1655 199.77C31.3389 200.599 33.725 208.197 36.7674 214.428C42.4626 226.089 50.0477 233.534 60.3682 237.59C63.7 238.899 66.4566 239.3 73.8013 239.542L83.0417 239.846L83.4846 242.064C83.7279 243.284 83.9318 247.62 83.9377 251.7C83.9442 255.78 84.2351 259.57 84.5844 260.123C85.1084 260.953 88.2758 260.54 102.782 257.756C120.22 254.407 123.872 253.892 144.954 251.796C157.913 250.507 162.433 249.423 171.05 245.533C174.582 243.938 177.771 242.634 178.136 242.634C178.5 242.634 180.671 241.105 182.96 239.235C185.249 237.366 191.774 233.545 197.461 230.744C210.368 224.385 218.567 218.968 224.919 212.6C236.181 201.31 243.934 185.091 247.289 165.805C248.651 157.978 248.645 149.998 247.269 138.94C246.066 129.272 245.848 114.855 246.839 110.575C247.639 107.123 246.744 106.474 244.821 109.109C243.702 110.643 243.262 110.863 242.992 110.029C242.795 109.424 241.923 106.457 241.053 103.435C239.145 96.8005 234.349 87.5116 228.959 80.0066C224.655 74.0137 214.341 63.2984 213.596 64.0457C213.344 64.2984 213.828 66.3534 214.67 68.6128C216.56 73.676 216.724 82.5158 215.048 89.0435C213.638 94.5352 209.889 102.655 203.874 113.244C196.643 125.972 194.954 133.371 197.576 140.821C198.183 142.546 198.503 144.135 198.289 144.35C198.073 144.566 196.168 143.031 194.056 140.939C189.606 136.534 187.801 136.208 185.337 139.364C183.286 141.992 182.279 141.767 179.457 138.052C176.104 133.637 176.147 132.49 179.841 127.767C181.642 125.466 185.187 119.956 187.72 115.523C193.738 104.993 197.458 99.4431 201.287 95.2796C207.364 88.6721 207.359 82.5744 201.271 76.7105C197.727 73.2965 197.326 72.5602 196.167 67.3381C194.211 58.5276 190.584 51.9962 183.908 45.2693C180.751 42.0882 177.935 39.7204 177.649 40.0068C177.363 40.2933 177.105 43.7198 177.076 47.6217C177.02 55.0066 175.762 61.2265 174.414 60.776C173.344 60.4192 169.166 50.1214 166.876 42.1967C164 32.2498 162.716 22.8137 162.67 11.3078C162.648 5.56551 162.398 0.867933 162.116 0.867933C161.071 0.867933 154.289 6.36114 149.098 11.4118C142.752 17.5864 137.704 23.7675 134.075 29.8065L131.433 34.2023L131.432 29.5868C131.43 26.898 130.967 24.0745 130.321 22.8224C128.159 18.6311 122.046 17.1761 117.956 19.878L115.811 21.2964L111.591 16.6794C106.086 10.6572 101.142 8.32237 96.5142 9.5605C90.5588 11.154 85.3964 15.8391 83.2368 21.6122C82.1121 24.6181 82.2926 30.5406 83.6044 33.6763C84.6663 36.2126 84.6546 36.4507 83.4393 37.1328C82.7216 37.5357 81.0583 38.9035 79.7421 40.1732C77.7053 42.1381 77.3494 42.993 77.3494 45.9235C77.3494 52.0849 80.1301 55.855 86.3018 58.0601C88.0214 58.6748 89.0424 59.5071 89.0424 60.2939C89.0424 61.798 73.4564 77.4402 73.0807 76.312C72.9375 75.8805 73.4279 71.5038 74.1711 66.5864C75.1825 59.8961 75.507 53.775 75.461 42.2611C75.4047 28.0666 75.2505 26.3178 73.4746 19.659C71.3414 11.6624 67.661 3.05261 65.5607 1.14706C64.2401 -0.0507767 64.1948 0.0657103 64.1948 4.6512Z" fill="black"/>
</svg>
