<svg width="1144" height="927" viewBox="0 0 1144 927" fill="none" xmlns="http://www.w3.org/2000/svg">
<g clip-path="url(#clip0_246_180)">
<path d="M587.331 0.130137C623.311 1.16014 659.31 0.650137 695.3 1.32014C730.95 1.98014 766.58 3.08014 802.24 3.02014C815.24 3.00014 828.211 2.20014 841.151 1.18014C869.051 -0.999863 893.801 6.67014 915.651 24.1501C945.481 48.0101 969.98 76.2001 986.35 110.96C993.17 125.45 998.13 140.72 1002.94 155.95C1012.21 185.28 1030.44 208.11 1052.94 228.17C1069.85 243.25 1087.71 257.26 1103.65 273.42C1123.03 293.07 1138.01 315.47 1141.63 343.34C1147.23 386.34 1139.36 425.91 1108.88 458.99C1095.42 473.6 1080.68 486.87 1066.68 500.9C1052.03 515.58 1038.42 531.04 1028.3 549.3C1022.11 560.47 1017.94 572.45 1014.83 584.71C1007.84 612.32 992.06 634.44 972.57 654.36C945.16 682.37 912.96 703.94 879.36 723.63C840.05 746.66 798.771 765.77 757.531 784.96C726.551 799.37 696.59 815.82 666.13 831.26C636.99 846.03 607.691 860.46 576.651 870.92C548.631 880.35 519.61 885.67 490.69 891.3C447.72 899.67 404.72 907.96 361.65 915.77C331.83 921.18 301.73 924.37 271.4 925.82C236.09 927.51 201.141 925.71 166.711 917.5C122.121 906.86 86.1805 883.18 59.8405 845.41C50.3405 831.79 46.0305 816.42 44.5305 800.03C41.6505 768.44 45.1005 737.2 49.2705 705.97C53.9905 670.67 60.0405 635.54 63.3505 600.07C66.2905 568.51 67.4105 536.94 61.7105 505.47C57.8305 484.08 49.6605 464.3 40.0405 445.01C29.3405 423.55 17.3205 402.72 9.2805 380C-2.6595 346.27 -3.6795 312.51 9.7305 278.96C15.5205 264.47 25.6805 252.93 36.7205 242.13C48.0405 231.07 60.2405 220.95 70.6505 208.94C87.7405 189.2 95.9605 166.21 96.6405 140.31C96.6705 139.14 96.8805 137.93 96.6405 136.82C93.7405 123.17 100.83 114.94 110.85 106.85C143.64 80.3801 180.041 60.6401 219.391 46.0801C260.331 30.9401 302.65 21.3701 345.74 14.8701C377.03 10.1501 408.46 6.92014 440.03 4.80014C471.61 2.68014 503.2 1.12014 534.85 0.980137C552.35 0.900137 569.82 -0.409863 587.32 0.130137H587.331ZM881.25 148.87C880.89 149.32 880.54 149.77 880.18 150.22C872.15 145.23 864.04 140.36 856.12 135.21C828.46 117.24 801.691 97.9301 773.201 81.2001C725.701 53.3101 674.88 38.4801 619.51 39.4501C582.39 40.1001 545.97 46.1501 509.49 52.0101C484.99 55.9501 460.47 59.5301 435.57 59.7001C422.91 59.7901 410.291 59.6401 397.671 58.6001C374.621 56.7001 351.56 54.7901 328.49 53.1301C310.02 51.8001 291.53 51.6701 273.22 55.0101C242.93 60.5401 214.771 72.0301 187.691 86.3201C169.361 95.9901 152.03 107.2 136.93 121.56C124.06 133.8 113.69 147.35 113.46 166.24C113.4 171.07 113.09 175.9 113.23 180.73C113.59 193.63 109.94 205.36 103.37 216.34C99.4205 222.94 95.1105 229.29 89.9505 234.96C77.8305 248.26 65.3805 261.25 53.3505 274.62C33.2305 296.98 24.1805 323.14 27.2605 353.26C29.7805 377.94 38.3105 400.07 54.5505 419.13C64.5305 430.84 73.0505 443.43 78.1205 458.27C88.6705 489.19 90.5805 521.17 90.5205 553.4C90.4705 581.72 87.9805 609.92 85.3005 638.1C82.7805 664.62 79.5405 691.03 75.6905 717.38C71.9105 743.25 68.3105 769.16 71.1405 795.43C72.5805 808.8 75.5805 821.66 82.4205 833.44C94.2505 853.79 112.281 866.76 133.321 875.95C168.121 891.16 205.121 895.48 242.551 896.85C275.891 898.07 309.14 896.03 342.23 891.84C372.98 887.95 403.57 882.99 433.24 873.84C453.28 867.66 472.94 860.25 492.87 853.66C507.98 848.66 523.27 845.6 539.49 847.74C561.28 850.62 581.92 846.17 601.13 835.36C608.39 831.28 615.94 827.66 622.94 823.18C664.34 796.67 708.851 776.24 753.451 755.95C793.491 737.74 833.46 719.35 871.51 697.16C901.26 679.81 929.48 660.42 953.73 635.68C973.04 615.97 988.051 593.77 995.701 566.89C999.341 554.09 1003.11 541.3 1008.17 528.93C1011.02 521.94 1015.19 516.17 1021.27 511.67C1025.01 508.9 1028.86 506.21 1031.91 502.62C1034.06 500.1 1035.91 497.41 1035.58 493.34C1033.76 494.08 1032.46 494.79 1031.07 495.14C1028.57 495.77 1025.67 496.15 1024.6 493.21C1023.46 490.1 1026.8 489.99 1028.5 489.15C1050.07 478.44 1069.1 464.34 1085.52 446.7C1105.8 424.92 1116.65 399.04 1117.42 369.46C1118.54 326.56 1099.63 293.31 1065.39 268.61C1034.75 246.51 999.79 237.66 962.37 237.44C960.07 237.43 957.631 237.95 954.271 236.41C975.371 229.36 995.48 236.63 1016 235.88C1011.65 229.35 1007.62 223.66 1003.95 217.73C990.501 195.99 980.52 172.49 969.6 149.47C957.44 123.87 945.201 98.3301 927.521 75.8701C906.821 49.5801 880.95 31.5201 847.32 26.7501C818.29 22.6301 788.96 21.2501 759.68 20.6801C706.54 19.6401 653.4 20.0001 600.32 23.3101C580.22 24.5601 560.07 25.1701 539.99 26.6801C504.64 29.3301 469.33 32.3701 434.01 35.3801C403.09 38.0201 372.19 40.8501 340.05 43.7001C342.33 44.3301 343.42 44.6701 344.52 44.9301C374.84 52.0801 405.67 52.2701 436.47 50.6501C472.06 48.7801 507.26 42.9601 542.61 38.6701C575.67 34.6601 608.72 31.3601 642.16 32.7201C684.32 34.4301 724 44.9901 761.68 63.5801C798.11 81.5501 830.35 105.68 861.24 131.76C867.94 137.42 874.58 143.14 881.26 148.84L881.25 148.87Z" fill="black"/>
<path d="M410.631 723.539C382.171 724.069 351.381 722.599 320.661 720.329C285.431 717.729 250.531 713.229 216.541 702.659C179.561 691.169 155.821 667.029 143.371 630.759C134.331 604.419 129.271 577.409 127.431 549.679C124.761 509.349 127.111 469.469 137.721 430.319C142.541 412.559 149.061 395.469 159.441 380.089C161.561 376.949 162.421 373.459 162.631 369.729C162.901 364.909 163.291 360.099 163.601 355.279C163.751 352.909 164.361 350.679 165.471 348.599C167.981 343.899 170.601 343.199 175.191 345.959C180.681 349.259 183.591 354.319 185.121 360.359C187.271 368.859 187.631 377.569 186.991 386.179C185.341 408.239 195.391 424.219 212.141 437.059C234.351 454.069 259.931 463.949 286.361 471.899C314.371 480.319 343.031 485.009 372.211 487.239C399.181 489.299 426.131 489.569 453.071 487.789C505.941 484.279 557.631 474.089 608.471 459.339C669.071 441.769 727.401 418.109 785.481 393.759C825.261 377.079 864.801 359.789 905.591 345.629C909.111 344.409 910.951 342.479 911.771 338.729C913.261 331.919 913.891 324.869 916.591 318.349C920.481 308.969 925.061 308.179 931.991 315.679C935.321 319.279 936.731 323.769 937.121 328.449C938.221 341.649 945.401 350.909 955.621 358.469C964.501 365.039 974.531 369.679 983.831 375.529C989.501 379.099 994.951 382.929 998.781 388.579C1000.93 391.759 1003.87 395.519 1002.36 399.009C1000.73 402.769 995.711 402.079 992.031 402.389C982.231 403.199 972.891 400.159 963.491 398.109C958.091 396.929 954.541 398.329 951.431 402.529C943.241 413.589 939.771 425.619 943.711 439.189C944.371 441.459 944.601 443.209 942.601 444.999C926.051 459.789 913.271 477.679 900.951 495.929C887.331 516.079 874.711 536.909 860.311 556.529C829.871 598.019 790.741 629.339 745.901 653.889C696.021 681.189 642.461 697.889 586.841 708.519C550.991 715.369 514.831 719.559 478.391 721.729C456.591 723.029 434.801 723.669 410.611 723.539H410.631ZM546.251 684.869C557.591 685.189 568.831 684.029 580.041 682.409C609.081 678.219 636.201 667.359 663.851 658.299C667.031 657.259 667.011 655.569 666.251 653.019C664.121 645.819 661.291 638.899 658.141 632.099C650.161 614.889 641.681 597.879 640.251 578.449C639.821 572.569 639.431 572.489 634.021 575.039C601.131 590.509 567.011 601.839 530.641 605.469C528.101 605.719 527.151 606.839 527.141 609.259C527.111 618.239 526.791 627.229 527.631 636.199C529.001 650.929 530.761 665.639 530.371 680.469C530.291 683.499 531.341 684.849 534.271 684.859C538.271 684.869 542.261 684.859 546.261 684.859L546.251 684.869ZM668.141 574.829C668.051 587.329 671.921 598.709 677.951 609.489C682.981 618.489 688.501 627.259 691.311 637.329C693.311 644.519 693.311 644.449 700.131 641.449C718.511 633.369 735.531 622.939 751.801 611.279C767.371 600.129 782.771 588.749 798.191 577.389C799.461 576.449 802.751 575.609 799.541 573.159C791.391 566.939 788.621 557.899 786.691 548.499C785.091 540.679 783.791 532.799 782.431 524.929C781.841 521.489 780.751 520.479 777.261 522.569C745.701 541.379 711.711 554.269 676.331 563.759C667.681 566.079 668.181 564.439 668.141 574.829ZM783.181 434.549C782.621 434.619 780.971 434.849 779.331 435.059C757.761 437.809 737.151 444.389 716.551 450.979C695.961 457.569 675.461 464.519 654.331 469.249C646.511 470.999 646.591 471.139 647.601 479.189C649.241 492.279 654.021 504.669 655.871 517.689C656.321 520.859 657.751 520.949 660.321 519.929C675.361 513.979 691.031 510.089 706.591 505.829C722.631 501.429 738.691 497.049 753.561 489.249C773.031 479.039 785.701 463.789 789.351 441.709C790.391 435.429 789.681 434.389 783.191 434.549H783.181ZM502.971 529.999C502.971 536.159 503.051 542.319 502.941 548.479C502.881 551.639 504.131 552.929 507.351 552.959C520.671 553.109 533.981 553.279 547.241 551.739C574.261 548.609 600.341 541.009 626.791 535.119C629.861 534.439 630.351 533.019 629.851 530.189C628.851 524.459 628.361 518.639 627.391 512.909C625.891 504.059 624.451 495.179 619.321 487.429C617.201 484.229 614.961 483.119 611.001 484.099C601.161 486.539 591.211 488.569 581.261 490.559C556.971 495.419 532.571 499.789 508.541 505.899C504.461 506.939 502.621 508.639 502.881 513.029C503.211 518.669 502.961 524.349 502.971 529.999ZM459.751 693.949C460.751 693.949 461.751 693.929 462.751 693.949C474.911 694.169 487.031 693.579 499.071 691.859C501.821 691.469 504.921 691.369 504.521 687.079C503.651 677.649 502.751 668.209 502.211 658.759C501.551 647.149 500.311 635.519 501.261 623.889C501.971 615.129 502.071 615.129 493.451 616.909C469.491 621.879 445.431 626.199 420.801 625.349C410.111 624.989 409.891 625.119 411.401 635.889C413.991 654.299 419.991 672.179 420.131 690.979C420.151 693.489 421.781 694.039 423.851 693.799C435.831 692.389 447.781 694.779 459.751 693.949ZM816.111 440.749C816.111 446.749 816.181 452.739 816.081 458.739C816.021 461.979 817.121 463.329 820.551 462.669C838.561 459.189 856.401 455.119 873.271 447.699C901.711 435.199 919.761 414.469 924.371 383.079C925.931 372.469 926.041 372.479 915.891 373.449C914.241 373.609 912.591 373.839 910.951 374.099C893.471 376.889 878.171 384.839 863.421 394.119C849.321 402.979 835.421 412.219 819.371 417.379C816.841 418.189 816.081 419.809 816.101 422.259C816.161 428.419 816.121 434.589 816.121 440.749H816.111ZM355.431 552.859C359.761 552.859 364.091 552.889 368.431 552.849C370.591 552.829 372.611 552.329 372.471 549.589C371.951 539.239 373.531 528.979 373.641 518.649C373.681 515.159 372.351 513.579 368.681 513.389C359.711 512.929 350.751 512.219 341.801 511.429C327.541 510.169 313.231 509.159 299.611 504.169C295.551 502.682 293.077 504.025 292.191 508.199C289.951 518.599 288.971 529.369 284.301 539.079C282.391 543.039 283.401 544.019 287.151 544.939C309.591 550.419 332.391 552.699 355.441 552.859H355.431ZM379.011 694.109C383.491 694.019 387.961 694.229 392.361 692.889C395.551 691.909 397.041 690.269 396.721 686.779C395.851 677.099 393.691 667.729 389.871 658.819C378.391 632.039 354.181 620.819 326.121 628.999C322.871 629.949 321.751 631.239 322.941 634.659C324.751 639.839 326.611 644.999 328.981 649.949C334.921 662.389 341.811 674.419 345.381 687.879C345.841 689.609 346.781 690.759 348.791 690.949C358.871 691.919 368.801 694.249 379.001 694.109H379.011ZM479.891 529.679C479.891 523.679 479.841 517.689 479.911 511.689C479.941 508.759 478.691 507.569 475.721 507.489C469.521 507.309 463.401 508.029 457.321 508.889C440.551 511.269 424.001 515.739 406.831 514.019C404.571 513.789 404.311 515.079 404.341 516.729C404.501 523.939 401.601 530.359 399.171 536.909C398.241 539.409 397.481 541.969 396.471 544.429C394.711 548.719 396.441 550.509 400.691 550.929C406.651 551.509 412.591 552.819 418.531 552.819C437.511 552.819 456.491 552.319 475.461 552.139C478.701 552.109 479.961 550.809 479.921 547.669C479.841 541.669 479.901 535.679 479.891 529.679ZM810.971 531.199C810.731 536.349 812.941 542.539 816.211 548.459C817.661 551.099 818.771 551.709 821.921 549.949C849.161 534.719 862.391 508.559 875.431 482.199C876.021 480.999 877.191 479.419 875.711 478.079C874.621 477.089 873.171 477.619 871.891 477.919C854.321 482.149 838.111 489.219 824.751 501.659C816.761 509.099 811.031 517.939 810.981 531.189L810.971 531.199ZM220.861 499.539C221.121 514.149 224.421 525.599 226.121 537.269C226.341 538.769 226.911 539.939 228.641 539.609C235.791 538.249 242.021 541.389 248.461 543.529C250.831 544.319 253.171 545.269 255.751 544.929C257.511 544.699 258.781 543.859 257.901 541.949C253.491 532.349 257.651 524.149 261.941 515.909C264.391 511.189 266.731 506.459 267.931 501.149C268.861 497.059 267.891 495.249 263.731 494.829C257.481 494.209 251.871 491.639 246.421 488.689C242.021 486.319 237.581 484.029 233.211 481.609C229.921 479.799 227.581 480.809 225.551 483.689C221.591 489.289 220.581 495.579 220.861 499.539ZM306.831 687.119C314.061 687.449 314.521 686.879 312.031 679.989C310.951 677.019 309.631 674.139 308.321 671.259C303.301 660.229 297.071 649.639 296.201 637.119C296.041 634.869 294.841 633.549 292.431 633.239C286.081 632.419 280.311 629.739 274.411 627.469C270.681 626.029 266.901 624.729 262.851 624.509C257.381 624.199 256.981 624.739 258.811 630.009C261.361 637.369 266.181 643.409 270.421 649.769C275.691 657.669 278.891 666.019 276.621 675.659C276.081 677.929 276.931 679.109 278.941 679.869C287.971 683.319 297.051 686.599 306.841 687.119H306.831ZM203.221 660.769C204.701 662.829 206.481 663.769 208.231 664.669C219.351 670.389 231.531 672.369 243.631 674.599C246.811 675.189 245.921 672.949 245.521 671.509C242.041 659.009 238.521 646.499 231.871 635.189C227.771 628.209 222.461 622.299 215.591 617.909C214.501 617.209 213.351 616.029 212.001 616.599C210.441 617.259 211.141 618.939 211.131 620.179C211.081 624.629 212.701 628.639 214.621 632.549C216.891 637.189 219.121 641.849 219.951 647.009C220.991 653.489 218.541 656.979 212.241 658.899C209.381 659.779 206.211 658.829 203.211 660.769H203.221ZM177.111 501.789C176.921 514.229 179.641 521.809 188.281 526.319C190.441 527.449 191.661 527.179 192.131 524.619C194.841 509.909 199.331 495.519 200.451 480.529C200.991 473.309 199.941 466.249 196.971 459.559C196.041 457.469 194.861 456.259 193.261 458.969C184.831 473.279 177.951 488.139 177.111 501.789ZM166.941 603.649C171.031 619.209 176.701 633.899 188.281 646.609C187.611 628.379 179.321 614.959 166.941 603.649Z" fill="black"/>
<path d="M248.99 429.21C255.45 425.83 261.97 422.57 268.35 419.06C293.55 405.17 316.38 387.84 339.08 370.32C354.78 358.2 370.36 345.93 386.82 334.84C389.57 332.99 390.96 330.91 390.91 327.49C390.76 316.33 390.75 305.16 390.91 293.99C390.97 290.33 389.46 288.16 386.42 286.39C371.98 277.99 356.02 274.81 339.79 272.57C313.07 268.89 286.01 268.6 259.32 264.57C247.42 262.77 235.74 260.17 224.67 255.31C219.02 252.83 218.8 252.21 221.51 246.79C230.85 228.11 246.81 218.01 266.36 213.08C293.8 206.16 320.93 209.29 347.72 216.9C369.89 223.2 390.65 232.39 407.89 248.23C408.14 248.46 408.46 248.64 408.62 248.91C413.72 257.8 420.94 257.81 429.7 254.86C437.19 252.34 445.03 252.15 452.61 255.74C455.98 257.34 456.9 259.49 456.12 262.9C454.46 270.12 450 275.11 443.45 278.04C437.08 280.89 430.53 283.41 423.92 285.69C418.8 287.46 416.71 290.32 416.86 296C417.26 311.32 416.87 326.66 417.08 341.99C417.14 346.1 415.75 348.86 412.54 351.29C402.94 358.55 392.28 364.14 382.3 370.8C376.16 374.9 370.67 379.67 365.61 385.04C362.32 388.52 361.78 391.67 363.9 396.21C373.9 417.61 389.4 433.8 409.43 445.99C412.79 448.03 415.86 448.21 419.34 446.78C423.85 444.92 427.71 441.98 431.86 439.51C436.5 436.74 441.33 435.48 446.63 437.5C449.12 438.45 450.53 439.69 449.47 442.74C446.72 450.68 443.39 458.26 437.51 464.45C430.73 471.59 422.43 473.9 412.9 471.93C404.24 470.14 396.72 465.86 389.64 460.77C372.55 448.49 358.77 432.86 345.74 416.57C342.57 412.61 340.65 413.19 337.5 416.08C333.24 419.99 329.12 424.31 322.68 424.6C319.63 424.74 317.51 424.32 317.5 420.48C317.49 415.72 314.23 412.21 312.12 408.29C310.84 405.92 308.87 407.24 307.26 407.76C299.42 410.31 292.5 414.68 285.56 418.98C277.3 424.1 268.79 428.6 259.02 430.12C255.75 430.63 252.47 430.89 248.98 429.22L248.99 429.21ZM311.35 237.07C296 232.68 281.05 234.46 266.36 239.95C281.68 243.84 296.67 242.72 311.35 237.07Z" fill="black"/>
<path d="M689.03 180.91C721.96 181.43 753.66 186.91 782.13 204.75C800.82 216.47 814.31 232.42 820.93 253.82C822.09 257.58 821.2 260.02 818.35 262.52C809.45 270.31 799.04 271.68 787.9 270.05C778.81 268.72 770.08 265.89 761.31 263.29C737.98 256.39 714.36 256.61 690.58 259.95C651.72 265.42 615.82 280.1 580.32 295.85C574.65 298.37 570.24 298.3 565.11 294.83C558.62 290.43 551.99 286.3 546.54 280.57C532.78 266.08 532.11 249.36 544.66 233.78C552.74 223.76 562.91 216.27 574.04 210.08C603.61 193.64 635.54 185.06 669.08 181.87C675.72 181.24 682.36 180.87 689.04 180.9L689.03 180.91ZM574.75 267.04C588.76 266.92 601.03 261.38 612.68 254.38C626.42 246.12 640.66 239.58 657.05 239.19C660.16 239.12 660.49 237.66 659.91 234.96C658.9 230.25 658.34 225.44 657.44 220.69C656.76 217.08 655.78 213.56 653.58 210.49C651.66 207.81 649.52 206.93 646.32 208.53C638.24 212.55 629.58 215.08 621.04 217.89C610.92 221.22 600.7 224.27 591.2 229.27C577.54 236.45 569.34 247.37 567.52 262.9C567.19 265.67 567.79 267.1 570.74 267.04C572.07 267.01 573.41 267.04 574.74 267.04H574.75ZM789.14 244.26C789.07 243.22 789.13 242.87 789.02 242.57C785.29 232.49 771.01 225.51 760.41 228.46C757.97 229.14 757.8 230.75 758.17 232.69C759.01 237.12 762.39 238.88 766.23 239.91C773.61 241.89 781.42 241.53 789.15 244.26H789.14Z" fill="black"/>
<path d="M1045.37 365.459C1045.24 393.509 1032.95 416.379 1015.05 436.899C1012.17 440.199 1010.83 438.809 1009.7 435.529C1006.42 425.979 1007.2 416.549 1010.19 407.089C1013.35 397.099 1017.89 387.559 1019.71 377.139C1025.35 344.729 1009.17 313.709 979.301 299.829C962.331 291.939 944.551 289.859 926.151 292.739C921.171 293.519 916.601 295.649 912.281 298.219C910.131 299.499 907.911 300.719 906.001 302.309C883.381 321.099 856.421 329.109 828.071 333.189C801.031 337.079 773.961 337.499 747.261 330.479C731.231 326.259 716.521 319.479 705.281 306.719C697.171 297.499 693.201 286.579 692.131 274.439C691.841 271.129 692.931 270.189 696.061 270.909C702.971 272.489 709.391 275.279 715.171 279.289C723.241 284.879 731.201 290.659 739.021 296.609C766.491 317.479 795.731 317.879 826.211 304.379C838.721 298.839 850.371 291.649 862.411 285.219C885.121 273.079 909.381 267.139 934.991 268.219C972.521 269.809 1004.86 282.969 1028.17 313.789C1039.65 328.969 1045.6 346.239 1045.35 365.479L1045.37 365.459Z" fill="black"/>
<path d="M887.73 661.352C875.16 670.662 861.96 678.702 848.43 686.192C776.44 726.032 699.77 754.112 620.85 776.452C571.61 790.392 521.68 801.262 471.14 809.192C441.21 813.892 411.13 817.312 380.91 819.732C346.65 822.472 312.36 823.212 278.05 822.312C246.21 821.472 214.46 819.132 184.09 808.272C165.5 801.622 148.19 792.812 136.2 776.292C127.27 763.982 124.2 750.132 126.5 735.102C126.69 733.852 126.41 732.042 128.16 731.902C129.71 731.772 130.29 733.402 130.66 734.642C131.63 737.852 131.82 741.112 131.65 744.502C130.63 764.592 128.25 760.042 143.82 770.892C171.38 790.092 202.66 800.272 235.25 806.872C275.34 814.992 315.97 816.612 356.62 814.712C462.82 809.732 565.78 787.692 666.2 753.362C698.08 742.462 728.48 727.902 758.92 713.542C795.83 696.132 832.51 678.172 871.41 665.392C876.73 663.642 882 661.702 887.73 661.352Z" fill="black"/>
<path d="M224.839 360.212C221.809 360.212 216.359 361.482 211.959 359.882C206.899 358.032 208.609 351.062 205.979 346.922C205.179 345.672 204.719 344.202 204.039 342.872C196.949 329.142 188.379 325.142 172.969 325.812C152.049 326.722 131.949 332.452 111.339 335.002C108.729 335.322 105.439 336.712 103.729 334.632C101.959 332.472 104.179 329.612 105.209 327.242C113.719 307.752 130.119 299.912 149.929 299.152C186.259 297.762 218.699 309.252 247.289 331.552C250.309 333.912 252.769 334.332 255.739 332.212C259.259 329.702 262.749 327.142 266.209 324.552C271.469 320.612 277.329 318.702 283.929 318.982C286.429 319.092 287.809 320.122 288.619 322.552C292.439 333.932 288.329 345.252 277.859 351.372C269.029 356.542 259.169 358.292 249.219 359.362C241.789 360.162 234.319 361.002 224.849 360.202L224.839 360.212Z" fill="black"/>
<path d="M225.869 98.0817C231.079 88.8917 238.479 83.2617 247.699 80.0617C258.879 76.1917 270.449 75.6117 282.209 76.4517C307.989 78.3117 333.179 84.2717 358.789 87.3017C375.389 89.2717 391.959 89.1917 408.629 88.3517C432.259 87.1517 455.699 84.3317 479.099 81.0417C504.309 77.5017 529.489 73.7717 554.739 70.5417C653.989 57.8617 744.269 79.6317 824.029 141.232C834.989 149.702 844.849 159.412 854.079 169.742C855.009 170.782 856.489 171.602 856.159 173.502C853.989 173.772 852.939 171.992 851.579 170.962C806.989 137.052 759.289 108.902 705.459 92.1117C673.509 82.1417 640.849 76.6117 607.359 75.2117C575.159 73.8617 543.639 78.5117 512.139 84.0017C472.109 90.9817 432.049 97.4917 391.179 96.6017C368.479 96.1117 346.099 92.9117 323.659 90.0117C304.689 87.5617 285.759 84.8617 266.509 86.3117C253.849 87.2617 241.899 90.2017 230.779 96.4117C229.529 97.1117 228.439 98.3017 225.879 98.0617L225.869 98.0817Z" fill="black"/>
<path d="M623.09 392.301C623.24 403.851 622.119 415.241 617.969 426.121C611.879 442.091 599.179 448.571 582.999 444.371C578.929 443.311 577.689 440.951 577.969 437.131C578.509 429.911 581.829 424.181 587.169 419.471C590.169 416.831 593.289 414.321 596.059 411.451C603.719 403.501 601.439 391.711 591.389 387.061C584.559 383.901 577.089 384.271 569.849 383.601C563.049 382.971 556.339 382.071 549.699 380.351C545.129 379.171 544.459 376.811 545.949 372.681C549.189 363.651 557.219 357.671 567.679 356.981C585.569 355.801 601.369 361.551 615.909 371.521C620.989 375.001 623.769 379.461 623.129 385.811C622.909 387.951 623.099 390.131 623.099 392.301H623.09Z" fill="black"/>
<path d="M204.739 249.329C200.939 249.329 197.139 249.389 193.339 249.329C160.399 248.689 128.559 253.669 98.9892 268.929C73.8392 281.899 54.8992 300.559 47.9292 328.999C43.2292 348.169 44.3792 367.309 49.8692 386.209C53.2792 397.949 60.8392 405.799 72.3192 409.859C79.2192 412.299 86.2192 414.499 93.0792 417.049C102.479 420.529 109.959 426.329 114.249 435.679C114.719 436.699 115.579 437.799 114.689 438.919C113.969 439.829 112.829 439.479 111.889 439.229C89.0092 433.029 67.7492 424.039 52.7492 404.449C41.0692 389.199 37.1792 371.519 37.2092 352.809C37.2392 335.319 40.0892 318.349 47.9192 302.459C61.4092 275.099 84.0692 259.049 112.549 250.539C143.039 241.429 173.879 242.329 204.719 249.349L204.739 249.329Z" fill="black"/>
<path d="M470.029 776.282C484.089 776.012 497.149 774.812 510.179 773.212C553.829 767.852 595.399 755.152 635.799 738.162C672.049 722.922 707.019 704.892 742.969 689.012C766.749 678.502 790.849 668.842 815.879 661.672C817.769 661.132 820.539 659.122 821.639 661.632C822.919 664.572 819.729 665.782 817.539 666.852C815.759 667.732 813.859 668.482 811.929 668.922C790.059 673.882 770.529 684.422 750.779 694.432C716.759 711.662 683.219 729.872 648.079 744.822C612.679 759.882 576.199 771.152 537.959 776.222C517.249 778.962 496.449 778.932 475.629 778.322C473.999 778.272 472.299 778.262 470.029 776.282Z" fill="black"/>
<path d="M567.151 417.16C567.011 421.46 567.781 425.83 566.131 430.01C565.161 432.48 564.011 434.03 560.961 432.25C551.341 426.62 540.761 426.4 530.011 426.94C515.771 427.65 501.501 429.59 487.281 426.55C479.801 424.95 478.981 423.58 482.201 416.48C487.101 405.68 496.871 401.93 507.481 400.17C526.191 397.05 544.571 399.82 562.801 404.17C565.801 404.89 567.451 406.37 567.171 409.69C566.971 412.17 567.131 414.68 567.131 417.17L567.151 417.16Z" fill="black"/>
<path d="M816.93 183.138C812.25 178.248 807.76 173.148 802.84 168.488C782.09 148.838 757.25 136.348 730.27 127.848C704.61 119.768 678.21 115.668 651.43 113.308C625.83 111.058 600.22 111.498 574.59 111.518C572.4 111.518 568.67 112.488 568.52 109.868C568.33 106.678 572.18 107.358 574.48 107.188C596.23 105.638 618 104.318 639.82 105.098C677.41 106.438 714.48 110.958 749.7 125.218C773.57 134.888 794.47 148.698 809.92 169.788C812.86 173.798 815.68 177.918 816.94 183.118L816.93 183.138Z" fill="black"/>
<path d="M216.191 180.432C214.831 173.542 215.491 167.312 218.121 161.262C222.631 150.872 230.711 143.802 240.081 138.032C256.841 127.712 275.451 122.632 294.631 119.592C324.311 114.882 353.991 115.562 383.541 120.992C388.461 121.892 393.231 123.432 397.861 125.332C403.181 127.512 407.851 130.652 411.481 135.192C412.091 135.952 413.011 136.852 412.511 137.822C411.801 139.222 410.471 138.432 409.421 138.162C402.971 136.522 396.561 134.712 390.081 133.192C362.791 126.792 335.071 124.982 307.201 126.752C287.331 128.012 267.931 131.922 250.141 141.662C235.091 149.902 223.911 161.452 218.301 177.942C218.091 178.562 217.771 179.152 217.461 179.732C217.401 179.852 217.181 179.902 216.191 180.442V180.432Z" fill="black"/>
<path d="M343.23 780.589C342.48 780.809 341.74 781.179 340.98 781.229C308.81 783.099 276.71 783.519 245.16 775.479C228.14 771.139 212.32 764.369 200.04 751.169C192.74 743.329 188.04 734.159 185.91 723.759C187.53 722.649 188.09 723.799 188.63 724.479C205.34 745.399 227.96 756.999 252.86 764.749C277.13 772.299 302.14 776.029 327.43 778.079C332.7 778.509 337.96 779.049 343.22 779.539C343.22 779.889 343.24 780.249 343.25 780.599L343.23 780.589Z" fill="black"/>
<path d="M1073.24 309.609C1078.04 316.689 1079.85 324.559 1081.15 332.569C1084.63 353.969 1081.42 375.029 1077.84 396.069C1075.55 409.519 1073.35 422.989 1071.19 436.459C1070.88 438.379 1070.38 439.909 1068.67 441.049C1059.8 446.969 1051.07 453.089 1042.12 458.869C1034.58 463.749 1026.1 466.189 1017.25 467.319C1015.4 467.559 1013.38 468.109 1011.58 466.849C1012 465.759 1012.97 465.869 1013.71 465.689C1039.55 459.349 1055.71 442.359 1065.38 418.419C1071.81 402.509 1074.53 385.809 1075.69 368.759C1076.99 349.729 1075.58 330.839 1073.42 311.969C1073.33 311.189 1073.29 310.399 1073.22 309.609H1073.24Z" fill="black"/>
<path d="M500.37 744.019C494.88 744.419 489.82 744.819 484.76 745.149C449.24 747.499 413.81 751.459 378.13 750.449C367.98 750.159 357.87 749.379 347.83 747.789C344.5 747.259 341.21 747.519 337.88 747.939C336.15 748.159 333.58 748.479 333.38 746.199C333.17 743.839 335.63 743.249 337.68 743.019C338.83 742.899 340.01 742.969 341.17 742.969C359.49 742.969 377.81 743.179 396.12 742.899C416.75 742.579 437.37 741.569 458.01 741.299C470.15 741.139 482.3 741.779 494.44 742.129C496.35 742.189 498.43 742.009 500.37 744.019Z" fill="black"/>
<path d="M939.869 251.781C946.639 249.581 952.739 248.931 958.799 248.481C987.089 246.391 1014.78 248.351 1040.5 261.871C1054.67 269.321 1065.69 279.811 1071.34 295.181C1072.15 297.391 1073.42 299.651 1072.68 302.211C1071.41 302.181 1070.99 301.401 1070.58 300.711C1055.95 275.961 1033.29 263.001 1006.08 256.611C987.079 252.151 967.799 251.941 948.449 252.411C945.899 252.471 943.299 252.891 939.869 251.771V251.781Z" fill="black"/>
<path d="M121.379 277.271C119.379 281.801 116.049 284.741 112.759 287.681C107.549 292.351 102.219 296.891 97.0291 301.581C80.2391 316.731 75.9591 335.571 80.7191 357.071C81.0691 358.651 81.8091 360.201 81.1591 362.571C76.6691 359.341 75.3891 354.881 74.6391 350.191C73.4991 343.001 74.8291 335.921 75.8491 328.841C77.1991 319.461 79.4291 310.161 78.2391 300.581C77.9891 298.551 79.0491 297.511 80.6691 296.701C93.6391 290.231 106.599 283.731 119.569 277.281C119.939 277.101 120.469 277.261 121.379 277.261V277.271Z" fill="black"/>
<path d="M722.739 393.25C716.129 390.56 710.029 388.76 703.519 388.33C690.019 387.44 676.579 388.89 663.099 388.8C655.459 388.75 647.799 389 640.379 386.47C628.239 382.34 627.239 370.46 630.429 361.34C631.509 358.24 634.109 358.82 636.249 359.99C638.599 361.27 637.449 362.97 636.349 364.59C635.009 366.56 631.729 367.58 632.569 370.58C633.539 374.02 635.859 376.72 638.889 378.71C643.489 381.72 648.629 382.75 654.049 383.05C668.259 383.83 682.229 380.61 696.409 380.79C703.119 380.88 709.789 380.95 715.769 384.5C718.859 386.34 721.809 388.42 722.729 393.25H722.739Z" fill="black"/>
<path d="M862.669 259.5C857.569 259.35 853.149 258.64 848.889 257.14C847.669 256.71 846.139 256.24 846.149 254.63C846.149 252.88 847.599 252.18 849.069 251.64C852.409 250.42 855.649 252.1 858.939 251.92C861.289 251.8 865.109 253.24 865.559 250.58C866.029 247.8 861.979 247.98 859.789 247.29C852.679 245.05 845.149 244.13 838.429 240.63C836.879 239.83 834.329 239.17 834.749 237.14C835.219 234.88 837.899 235.18 839.809 235.08C844.359 234.83 848.709 236.04 853.029 237.24C862.939 239.99 872.719 243.43 883.239 242.92C886.249 242.77 886.599 244.52 885.989 246.76C884.859 250.85 882.039 253.61 878.439 255.62C873.359 258.45 867.769 259.12 862.689 259.49L862.669 259.5Z" fill="black"/>
<path d="M398.499 220.639C396.929 218.109 397.659 215.749 397.659 213.529C397.619 202.749 398.329 191.929 395.719 181.299C393.569 172.539 390.169 164.579 382.229 159.389C381.319 158.789 379.829 158.079 380.579 156.769C381.059 155.939 382.429 155.379 383.499 155.159C389.409 153.959 393.849 156.399 397.249 161.089C401.659 167.189 403.399 174.259 404.639 181.509C406.399 191.799 406.109 202.009 403.219 212.069C402.339 215.139 401.399 218.319 398.499 220.629V220.639Z" fill="black"/>
<path d="M585.101 121.01C565.881 136.45 555.191 155.72 555.031 180.34C548.481 175.54 547.851 157.48 553.271 144.44C559.141 130.33 573.631 119.16 585.101 121.01Z" fill="black"/>
<path d="M104.241 398.99C96.481 398.84 90.451 395.59 85.511 390.28C80.541 384.94 77.341 378.57 75.781 371.46C75.461 370.01 74.161 367.93 76.031 366.95C77.531 366.17 78.581 368.11 79.601 369.08C85.501 374.69 91.281 380.43 97.201 386.02C100.471 389.11 104.161 391.67 108.071 393.91C109.291 394.61 111.461 394.93 111.131 396.69C110.841 398.21 108.821 398.3 107.371 398.55C106.231 398.75 105.071 398.88 104.241 398.99Z" fill="black"/>
<path d="M442.32 777.629C426.26 784.729 409.66 778.749 393.35 779.799C409.41 772.659 426 778.509 442.32 777.629Z" fill="black"/>
<path d="M845.941 274.732C841.921 274.272 838.231 271.942 835.091 268.962C832.541 266.542 834.951 265.132 836.991 264.272C839.271 263.312 850.591 268.202 851.741 270.452C852.751 272.412 849.811 274.802 845.931 274.732H845.941Z" fill="black"/>
</g>
<defs>
<clipPath id="clip0_246_180">
<rect width="1143.31" height="926.4" fill="white"/>
</clipPath>
</defs>
</svg>
