<svg width="320" height="260" viewBox="0 0 320 260" fill="none" xmlns="http://www.w3.org/2000/svg">
<path fill-rule="evenodd" clip-rule="evenodd" d="M129.34 0.398146C95.5465 2.49727 70.9871 7.60495 52.2252 16.4346C43.9141 20.346 33.6935 26.9082 29.7322 30.8753C27.432 33.1792 27.0763 33.9958 27.0763 36.9721C27.0763 47.8438 24.1019 53.9641 13.8689 64.1466C9.55334 68.4407 5.19616 73.3793 4.18593 75.1214C1.17425 80.3147 -0.160293 86.8535 0.253146 94.3852C0.68996 102.338 2.33787 107.161 9.90834 122.646C13.0537 129.08 15.8141 135.873 16.519 138.915C19.1508 150.281 18.7535 163.101 14.95 189.5C11.2714 215.035 11.2845 226.156 15.004 234.293C17.5986 239.97 27.2509 249.44 34.0273 252.956C44.6212 258.453 57.3472 260.57 75.605 259.871C89.1864 259.352 94.3369 258.618 123.132 253.102C150.608 247.839 158.012 246.008 167.324 242.174C171.543 240.437 190.814 231.081 210.15 221.384C247.898 202.452 258.401 196.238 268.296 186.983C277.857 178.039 280.656 173.583 284.806 160.705C287.241 153.148 290.515 148.587 302.203 136.47C317.43 120.685 319.718 115.827 319.151 100.483C318.888 93.3718 318.661 92.3731 316.164 87.3115C313.212 81.3302 309.693 77.4064 295.942 64.7655C286.414 56.0069 282.935 51.1246 280.133 42.5781C277.6 34.8518 274.017 27.0114 270.982 22.5549C263.769 11.9634 253.721 3.32331 245.891 0.97908C242.972 0.105484 142.144 -0.397895 129.34 0.398146Z" fill="black"/>
</svg>
