<svg width="435" height="353" viewBox="0 0 435 353" fill="none" xmlns="http://www.w3.org/2000/svg">
<g clip-path="url(#clip0_246_180)">
<path d="M223.353 0.529868C237.015 0.920848 250.684 0.727256 264.35 0.981583C277.886 1.23211 291.415 1.64967 304.956 1.62689C309.892 1.6193 314.817 1.31562 319.73 0.92844C330.324 0.100928 339.722 3.0124 348.019 9.64768C359.345 18.7048 368.648 29.4055 374.864 42.6001C377.454 48.1004 379.337 53.8968 381.163 59.678C384.683 70.8114 391.605 79.4775 400.149 87.0921C406.57 92.8164 413.351 98.1345 419.404 104.269C426.762 111.728 432.45 120.231 433.825 130.81C435.951 147.132 432.963 162.153 421.39 174.71C416.279 180.255 410.682 185.293 405.366 190.618C399.803 196.191 394.635 202.059 390.793 208.991C388.442 213.231 386.859 217.778 385.678 222.432C383.024 232.913 377.032 241.309 369.632 248.871C359.224 259.503 346.997 267.691 334.239 275.165C319.313 283.907 303.638 291.161 287.979 298.445C276.216 303.915 264.84 310.16 253.274 316.021C242.209 321.627 231.084 327.105 219.298 331.075C208.658 334.655 197.639 336.674 186.658 338.811C170.342 341.988 154.014 345.135 137.66 348.1C126.337 350.153 114.908 351.364 103.392 351.915C89.9841 352.556 76.7133 351.873 63.64 348.757C46.7088 344.718 33.0621 335.729 23.0606 321.392C19.4533 316.222 17.8168 310.387 17.2472 304.166C16.1537 292.175 17.4637 280.316 19.047 268.461C20.8393 255.062 23.1365 241.727 24.3933 228.263C25.5097 216.283 25.9349 204.299 23.7706 192.353C22.2973 184.234 19.1951 176.725 15.5423 169.403C11.4795 161.257 6.91537 153.35 3.86251 144.726C-0.671202 131.922 -1.0585 119.107 4.03338 106.372C6.23189 100.871 10.0897 96.4908 14.2817 92.3912C18.58 88.1929 23.2124 84.3515 27.1652 79.7926C33.6544 72.2994 36.7756 63.5726 37.0338 53.7411C37.0452 53.297 37.1249 52.8377 37.0338 52.4164C35.9327 47.2349 38.6248 44.1109 42.4295 41.04C54.8801 30.9922 68.7015 23.499 83.643 17.9721C99.1882 12.2251 115.257 8.59241 131.619 6.12506C143.5 4.33338 155.434 3.1073 167.422 2.30256C179.413 1.49783 191.408 0.905664 203.426 0.852521C210.071 0.822154 216.704 0.324888 223.349 0.529868H223.353ZM334.957 56.9904C334.82 57.1613 334.687 57.3321 334.55 57.5029C331.501 55.6087 328.422 53.7601 325.415 51.8052C314.912 44.9839 304.747 37.654 293.929 31.3034C275.893 20.7166 256.596 15.0872 235.572 15.4554C221.477 15.7022 207.648 17.9987 193.796 20.2231C184.493 21.7187 175.183 23.0777 165.728 23.1422C160.921 23.1764 156.129 23.1194 151.337 22.7246C142.585 22.0034 133.829 21.2784 125.069 20.6483C118.056 20.1434 111.035 20.0941 104.083 21.3619C92.5813 23.461 81.8887 27.8226 71.6062 33.2469C64.6462 36.9176 58.0658 41.1728 52.3323 46.6238C47.4454 51.27 43.5078 56.4135 43.4205 63.584C43.3977 65.4174 43.28 67.2508 43.3332 69.0843C43.4699 73.981 42.0839 78.4336 39.5893 82.6015C38.0894 85.1069 36.4529 87.5173 34.4936 89.6696C29.8915 94.7181 25.1641 99.649 20.5963 104.724C12.9565 113.212 9.52016 123.142 10.6897 134.575C11.6465 143.944 14.8854 152.344 21.0519 159.579C24.8414 164.024 28.0765 168.803 30.0016 174.436C34.0075 186.173 34.7328 198.313 34.71 210.547C34.691 221.297 33.7455 232.002 32.7279 242.698C31.7711 252.765 30.5408 262.79 29.0789 272.793C27.6436 282.613 26.2767 292.448 27.3513 302.42C27.898 307.495 29.0372 312.376 31.6344 316.848C36.1263 324.573 42.9725 329.496 50.9615 332.985C64.1754 338.758 78.2246 340.398 92.437 340.918C105.097 341.381 117.722 340.607 130.286 339.016C141.962 337.54 153.578 335.657 164.844 332.184C172.453 329.838 179.918 327.025 187.486 324.523C193.223 322.625 199.029 321.464 205.188 322.276C213.461 323.369 221.299 321.68 228.593 317.577C231.349 316.028 234.216 314.654 236.874 312.953C252.594 302.89 269.495 295.135 286.43 287.433C301.633 280.521 316.81 273.54 331.258 265.117C342.555 258.531 353.27 251.171 362.478 241.78C369.81 234.298 375.509 225.871 378.414 215.668C379.796 210.809 381.228 205.954 383.149 201.258C384.231 198.605 385.815 196.415 388.123 194.707C389.543 193.655 391.005 192.634 392.163 191.271C392.98 190.315 393.682 189.294 393.557 187.749C392.866 188.03 392.372 188.299 391.844 188.432C390.895 188.671 389.794 188.815 389.388 187.699C388.955 186.519 390.223 186.477 390.869 186.158C399.059 182.093 406.285 176.74 412.52 170.044C420.22 161.777 424.34 151.953 424.632 140.725C425.058 124.44 417.877 111.819 404.876 102.443C393.242 94.0538 379.967 90.6945 365.759 90.611C364.885 90.6072 363.959 90.8045 362.683 90.22C370.695 87.5438 378.331 90.3035 386.122 90.0188C384.471 87.5401 382.94 85.3802 381.547 83.1292C376.44 74.8768 372.65 65.9564 368.504 57.2182C363.887 47.5006 359.239 37.8058 352.526 29.2802C344.666 19.3007 334.843 12.4453 322.073 10.6346C311.05 9.0707 299.913 8.54686 288.795 8.33049C268.618 7.93572 248.44 8.07237 228.285 9.32882C220.653 9.80331 213.002 10.0349 205.377 10.608C191.955 11.614 178.547 12.7679 165.136 13.9105C153.395 14.9126 141.662 15.9869 129.459 17.0687C130.324 17.3079 130.738 17.4369 131.156 17.5356C142.669 20.2497 154.375 20.3218 166.07 19.7069C179.584 18.997 192.95 16.7878 206.372 15.1594C218.925 13.6372 231.475 12.3845 244.172 12.9008C260.181 13.5499 275.248 17.5584 289.555 24.615C303.388 31.4363 315.629 40.5958 327.359 50.4956C329.903 52.6441 332.424 54.8154 334.96 56.9791L334.957 56.9904Z" fill="black"/>
<path d="M156.259 275.129C145.452 275.33 133.761 274.772 122.097 273.91C108.72 272.923 95.4677 271.215 82.5614 267.203C68.5198 262.841 59.5055 253.678 54.7782 239.91C51.3456 229.912 49.4243 219.659 48.7256 209.133C47.7118 193.824 48.6041 178.686 52.6328 163.825C54.463 157.083 56.9387 150.596 60.8801 144.758C61.6851 143.566 62.0116 142.241 62.0914 140.825C62.1939 138.995 62.342 137.17 62.4597 135.34C62.5166 134.44 62.7482 133.594 63.1697 132.804C64.1228 131.02 65.1176 130.754 66.8605 131.802C68.9451 133.055 70.05 134.975 70.631 137.268C71.4474 140.495 71.5841 143.801 71.341 147.069C70.7145 155.443 74.5306 161.509 80.8907 166.383C89.324 172.84 99.0369 176.59 109.073 179.608C119.708 182.804 130.591 184.584 141.671 185.431C151.911 186.213 162.144 186.315 172.374 185.64C192.449 184.307 212.076 180.439 231.38 174.84C254.391 168.171 276.539 159.19 298.593 149.947C313.697 143.615 328.711 137.052 344.199 131.677C345.536 131.214 346.235 130.481 346.546 129.058C347.112 126.473 347.351 123.796 348.376 121.322C349.853 117.761 351.592 117.461 354.224 120.308C355.488 121.675 356.023 123.379 356.171 125.155C356.589 130.166 359.315 133.681 363.196 136.551C366.568 139.045 370.376 140.806 373.908 143.027C376.061 144.382 378.13 145.836 379.584 147.98C380.401 149.187 381.517 150.615 380.944 151.939C380.325 153.367 378.419 153.105 377.021 153.223C373.3 153.53 369.754 152.376 366.184 151.598C364.134 151.15 362.786 151.681 361.605 153.276C358.495 157.474 357.178 162.04 358.674 167.191C358.924 168.053 359.012 168.717 358.252 169.397C351.968 175.011 347.115 181.802 342.437 188.73C337.266 196.378 332.474 204.285 327.006 211.733C315.448 227.482 300.59 239.371 283.564 248.69C264.624 259.053 244.287 265.392 223.167 269.427C209.555 272.027 195.825 273.618 181.988 274.442C173.71 274.935 165.437 275.178 156.251 275.129H156.259ZM207.755 260.45C212.061 260.571 216.329 260.131 220.585 259.516C231.612 257.925 241.91 253.803 252.409 250.364C253.616 249.969 253.609 249.328 253.32 248.36C252.511 245.627 251.437 243 250.241 240.419C247.21 233.886 243.991 227.429 243.448 220.054C243.284 217.822 243.136 217.791 241.082 218.759C228.593 224.631 215.638 228.932 201.828 230.31C200.863 230.405 200.503 230.83 200.499 231.749C200.487 235.158 200.366 238.57 200.685 241.975C201.205 247.566 201.873 253.15 201.725 258.78C201.695 259.93 202.094 260.442 203.206 260.446C204.725 260.45 206.24 260.446 207.759 260.446L207.755 260.45ZM254.038 218.679C254.003 223.424 255.473 227.744 257.763 231.836C259.672 235.252 261.768 238.581 262.835 242.404C263.595 245.133 263.595 245.107 266.184 243.968C273.163 240.901 279.626 236.942 285.804 232.516C291.716 228.283 297.564 223.963 303.419 219.651C303.901 219.294 305.15 218.975 303.931 218.045C300.837 215.684 299.785 212.253 299.052 208.685C298.444 205.716 297.951 202.725 297.434 199.738C297.21 198.432 296.797 198.049 295.471 198.842C283.488 205.982 270.581 210.875 257.147 214.477C253.863 215.358 254.053 214.735 254.038 218.679ZM297.719 165.43C297.507 165.457 296.88 165.544 296.257 165.624C288.067 166.668 280.241 169.165 272.419 171.667C264.601 174.168 256.817 176.807 248.794 178.602C245.825 179.266 245.855 179.319 246.238 182.375C246.861 187.344 248.676 192.047 249.379 196.99C249.549 198.193 250.092 198.227 251.068 197.84C256.779 195.581 262.729 194.105 268.637 192.488C274.728 190.817 280.826 189.155 286.472 186.194C293.865 182.318 298.676 176.529 300.062 168.148C300.457 165.764 300.187 165.369 297.723 165.43H297.719ZM191.321 201.662C191.321 204.001 191.352 206.339 191.31 208.677C191.287 209.877 191.762 210.366 192.984 210.378C198.042 210.435 203.096 210.499 208.131 209.915C218.391 208.726 228.293 205.842 238.337 203.606C239.502 203.348 239.688 202.809 239.499 201.734C239.119 199.559 238.933 197.35 238.564 195.175C237.995 191.816 237.448 188.445 235.5 185.503C234.695 184.288 233.845 183.867 232.341 184.239C228.605 185.165 224.827 185.936 221.049 186.691C211.825 188.536 202.561 190.195 193.436 192.514C191.887 192.909 191.188 193.554 191.287 195.221C191.412 197.362 191.317 199.518 191.321 201.662ZM174.91 263.896C175.29 263.896 175.67 263.889 176.049 263.896C180.667 263.98 185.269 263.756 189.84 263.103C190.885 262.955 192.062 262.917 191.91 261.289C191.579 257.709 191.238 254.126 191.033 250.539C190.782 246.132 190.311 241.717 190.672 237.302C190.942 233.977 190.979 233.977 187.706 234.653C178.609 236.539 169.473 238.179 160.121 237.856C156.062 237.72 155.978 237.769 156.551 241.857C157.535 248.846 159.813 255.633 159.866 262.769C159.874 263.722 160.493 263.931 161.279 263.84C165.828 263.304 170.365 264.212 174.91 263.896ZM310.223 167.784C310.223 170.061 310.25 172.335 310.212 174.613C310.189 175.842 310.606 176.355 311.909 176.104C318.747 174.783 325.521 173.238 331.927 170.422C342.726 165.677 349.58 157.808 351.33 145.893C351.923 141.865 351.964 141.869 348.11 142.237C347.484 142.298 346.857 142.385 346.235 142.484C339.597 143.543 333.788 146.561 328.187 150.083C322.833 153.446 317.555 156.954 311.461 158.913C310.5 159.22 310.212 159.835 310.219 160.765C310.242 163.103 310.227 165.445 310.227 167.784H310.223ZM135.299 210.34C136.943 210.34 138.587 210.351 140.235 210.336C141.055 210.328 141.822 210.139 141.769 209.099C141.572 205.17 142.172 201.275 142.214 197.354C142.229 196.029 141.724 195.429 140.33 195.357C136.924 195.183 133.522 194.913 130.124 194.613C124.709 194.135 119.275 193.752 114.104 191.857C112.562 191.293 111.623 191.803 111.286 193.387C110.436 197.335 110.064 201.423 108.29 205.109C107.565 206.612 107.949 206.984 109.373 207.333C117.893 209.414 126.551 210.279 135.303 210.34H135.299ZM144.253 263.957C145.954 263.923 147.651 264.003 149.322 263.494C150.533 263.122 151.099 262.5 150.977 261.175C150.647 257.5 149.827 253.944 148.376 250.561C144.017 240.396 134.824 236.137 124.17 239.242C122.936 239.603 122.511 240.092 122.962 241.39C123.65 243.357 124.356 245.315 125.256 247.194C127.511 251.917 130.127 256.483 131.483 261.592C131.658 262.249 132.015 262.686 132.778 262.758C136.605 263.126 140.376 264.01 144.249 263.957H144.253ZM182.558 201.541C182.558 199.263 182.539 196.99 182.565 194.712C182.577 193.6 182.102 193.148 180.974 193.118C178.62 193.049 176.296 193.323 173.988 193.649C167.62 194.553 161.336 196.249 154.816 195.596C153.958 195.509 153.859 195.999 153.871 196.625C153.931 199.362 152.83 201.799 151.908 204.285C151.554 205.234 151.266 206.206 150.882 207.14C150.214 208.768 150.871 209.448 152.485 209.607C154.748 209.827 157.003 210.325 159.259 210.325C166.466 210.325 173.672 210.135 180.875 210.066C182.106 210.055 182.584 209.562 182.569 208.37C182.539 206.092 182.561 203.818 182.558 201.541ZM308.271 202.118C308.18 204.073 309.019 206.422 310.261 208.67C310.812 209.672 311.233 209.903 312.429 209.235C322.772 203.454 327.796 193.524 332.747 183.518C332.971 183.062 333.416 182.462 332.854 181.954C332.44 181.578 331.889 181.779 331.403 181.893C324.732 183.499 318.577 186.183 313.504 190.905C310.47 193.729 308.294 197.084 308.275 202.114L308.271 202.118ZM84.2018 190.1C84.3005 195.646 85.5535 199.992 86.199 204.422C86.2826 204.991 86.499 205.435 87.1559 205.31C89.8708 204.794 92.2364 205.986 94.6817 206.798C95.5816 207.098 96.4701 207.459 97.4498 207.33C98.1181 207.242 98.6003 206.923 98.2661 206.198C96.5916 202.554 98.1712 199.442 99.8002 196.314C100.73 194.522 101.619 192.727 102.075 190.711C102.428 189.159 102.059 188.471 100.48 188.312C98.1067 188.077 95.9765 187.101 93.9071 185.981C92.2364 185.082 90.5505 184.212 88.8912 183.294C87.6419 182.607 86.7534 182.99 85.9826 184.083C84.4789 186.209 84.0954 188.597 84.2018 190.1ZM116.845 261.304C119.591 261.429 119.765 261.213 118.82 258.597C118.41 257.47 117.908 256.377 117.411 255.284C115.505 251.097 113.139 247.077 112.809 242.324C112.748 241.47 112.293 240.969 111.377 240.851C108.966 240.54 106.775 239.523 104.535 238.661C103.119 238.115 101.684 237.621 100.146 237.538C98.0687 237.42 97.9168 237.625 98.6117 239.625C99.5799 242.419 101.41 244.712 103.02 247.126C105.021 250.125 106.236 253.294 105.374 256.954C105.169 257.815 105.492 258.263 106.255 258.552C109.684 259.861 113.132 261.106 116.849 261.304H116.845ZM77.5037 251.302C78.0657 252.084 78.7415 252.44 79.406 252.782C83.6284 254.953 88.2532 255.705 92.8477 256.551C94.0552 256.775 93.7172 255.925 93.5654 255.378C92.244 250.634 90.9074 245.885 88.3823 241.592C86.8255 238.942 84.8093 236.699 82.2007 235.032C81.7868 234.767 81.3501 234.319 80.8375 234.535C80.2452 234.786 80.511 235.423 80.5072 235.894C80.4882 237.583 81.1033 239.105 81.8324 240.589C82.6943 242.351 83.5411 244.12 83.8562 246.078C84.2511 248.538 83.3208 249.863 80.9287 250.592C79.8427 250.926 78.639 250.565 77.4999 251.302H77.5037ZM67.5895 190.954C67.5174 195.676 68.5502 198.553 71.8309 200.265C72.651 200.694 73.1143 200.592 73.2927 199.62C74.3218 194.036 76.0266 188.574 76.4519 182.884C76.657 180.143 76.2583 177.463 75.1305 174.924C74.7774 174.13 74.3293 173.671 73.7218 174.7C70.5209 180.132 67.9085 185.773 67.5895 190.954ZM63.7279 229.619C65.2809 235.526 67.4338 241.102 71.8309 245.927C71.5765 239.007 68.4287 233.912 63.7279 229.619Z" fill="black"/>
<path d="M94.8831 163.406C97.336 162.123 99.8117 160.885 102.234 159.553C111.803 154.28 120.472 147.702 129.091 141.052C135.052 136.451 140.968 131.793 147.218 127.584C148.262 126.881 148.79 126.092 148.771 124.794C148.714 120.557 148.711 116.317 148.771 112.077C148.794 110.688 148.221 109.864 147.066 109.192C141.583 106.004 135.523 104.797 129.361 103.946C119.215 102.55 108.94 102.439 98.8055 100.91C94.287 100.226 89.852 99.2395 85.6486 97.3946C83.5032 96.4532 83.4197 96.2179 84.4487 94.1605C87.9952 87.0697 94.0553 83.2358 101.479 81.3644C111.898 78.7377 122.199 79.9258 132.372 82.8145C140.79 85.2059 148.673 88.6944 155.219 94.7071C155.314 94.7944 155.435 94.8628 155.496 94.9652C157.432 98.3398 160.174 98.3436 163.5 97.2238C166.344 96.2672 169.321 96.1951 172.199 97.5579C173.479 98.1652 173.828 98.9813 173.532 100.276C172.902 103.016 171.208 104.911 168.721 106.023C166.302 107.105 163.815 108.061 161.305 108.927C159.361 109.599 158.568 110.684 158.625 112.84C158.777 118.656 158.628 124.479 158.708 130.298C158.731 131.858 158.203 132.906 156.984 133.828C153.339 136.584 149.291 138.706 145.502 141.234C143.171 142.79 141.086 144.601 139.165 146.639C137.915 147.96 137.71 149.156 138.515 150.879C142.312 159.002 148.198 165.148 155.803 169.775C157.079 170.55 158.245 170.618 159.566 170.075C161.279 169.369 162.745 168.253 164.32 167.316C166.082 166.264 167.916 165.786 169.929 166.553C170.874 166.913 171.409 167.384 171.007 168.542C169.963 171.556 168.698 174.433 166.466 176.783C163.891 179.493 160.74 180.37 157.121 179.622C153.833 178.942 150.977 177.318 148.289 175.386C141.8 170.724 136.567 164.791 131.62 158.608C130.416 157.105 129.687 157.325 128.491 158.422C126.873 159.906 125.309 161.546 122.864 161.656C121.706 161.709 120.901 161.55 120.897 160.092C120.893 158.285 119.655 156.953 118.854 155.465C118.368 154.565 117.62 155.066 117.009 155.264C114.032 156.231 111.404 157.89 108.769 159.523C105.633 161.466 102.401 163.174 98.6916 163.751C97.4499 163.945 96.2045 164.043 94.8793 163.41L94.8831 163.406ZM118.562 90.4709C112.733 88.8045 107.057 89.4801 101.479 91.5641C107.296 93.0407 112.988 92.6156 118.562 90.4709Z" fill="black"/>
<path d="M261.971 69.1529C274.474 69.3503 286.511 71.4304 297.321 78.2024C304.418 82.6512 309.54 88.7057 312.054 96.829C312.494 98.2562 312.157 99.1824 311.074 100.131C307.695 103.088 303.742 103.608 299.512 102.99C296.061 102.485 292.746 101.411 289.416 100.424C280.557 97.8045 271.589 97.888 262.559 99.1559C247.804 101.232 234.172 106.805 220.692 112.783C218.54 113.74 216.865 113.713 214.917 112.396C212.453 110.726 209.935 109.158 207.866 106.983C202.641 101.483 202.387 95.136 207.152 89.2219C210.22 85.4184 214.082 82.5753 218.308 80.2256C229.536 73.9851 241.66 70.7282 254.395 69.5173C256.917 69.2781 259.438 69.1377 261.974 69.1491L261.971 69.1529ZM218.577 101.847C223.897 101.802 228.556 99.6987 232.98 97.0415C238.197 93.9061 243.604 91.4236 249.827 91.2755C251.008 91.249 251.134 90.6948 250.913 89.6699C250.53 87.882 250.317 86.0561 249.976 84.2531C249.717 82.8827 249.345 81.5466 248.51 80.3812C247.781 79.3639 246.968 79.0299 245.753 79.6372C242.685 81.1632 239.397 82.1236 236.154 83.1902C232.312 84.4542 228.431 85.612 224.824 87.51C219.637 90.2354 216.523 94.3806 215.832 100.276C215.707 101.327 215.935 101.87 217.055 101.847C217.56 101.836 218.069 101.847 218.574 101.847H218.577ZM299.983 93.2001C299.957 92.8053 299.979 92.6724 299.938 92.5585C298.521 88.7323 293.099 86.0827 289.074 87.2025C288.148 87.4606 288.083 88.0718 288.224 88.8082C288.543 90.4898 289.826 91.1579 291.284 91.5488C294.086 92.3004 297.052 92.1638 299.987 93.2001H299.983Z" fill="black"/>
<path d="M397.276 139.205C397.227 149.853 392.56 158.534 385.763 166.323C384.67 167.576 384.161 167.048 383.732 165.803C382.486 162.178 382.783 158.598 383.918 155.008C385.118 151.215 386.842 147.594 387.533 143.639C389.674 131.336 383.531 119.561 372.189 114.292C365.745 111.297 358.994 110.508 352.007 111.601C350.116 111.897 348.381 112.706 346.741 113.681C345.924 114.167 345.081 114.63 344.356 115.234C335.767 122.366 325.53 125.407 314.765 126.956C304.498 128.432 294.219 128.592 284.081 125.927C277.995 124.325 272.409 121.751 268.141 116.908C265.062 113.408 263.554 109.263 263.148 104.655C263.038 103.398 263.452 103.041 264.64 103.315C267.264 103.914 269.702 104.973 271.896 106.496C274.961 108.618 277.983 110.812 280.952 113.07C291.383 120.992 302.486 121.144 314.059 116.02C318.809 113.917 323.233 111.187 327.805 108.747C336.428 104.138 345.64 101.884 355.364 102.294C369.614 102.897 381.894 107.893 390.745 119.592C395.104 125.354 397.363 131.909 397.268 139.213L397.276 139.205Z" fill="black"/>
<path d="M337.418 251.523C332.645 255.057 327.633 258.109 322.495 260.953C295.16 276.075 266.048 286.734 236.081 295.215C217.384 300.506 198.426 304.632 179.235 307.642C167.87 309.426 156.449 310.725 144.974 311.643C131.965 312.683 118.945 312.964 105.917 312.623C93.8273 312.304 81.7716 311.416 70.2399 307.293C63.1811 304.769 56.6084 301.425 52.0557 295.154C48.6649 290.481 47.4992 285.224 48.3725 279.518C48.4446 279.044 48.3383 278.357 49.0028 278.304C49.5914 278.254 49.8116 278.873 49.9521 279.344C50.3204 280.562 50.3925 281.8 50.328 283.087C49.9407 290.713 49.037 288.985 54.949 293.104C65.4138 300.392 77.2911 304.256 89.6657 306.762C104.888 309.844 120.316 310.459 135.751 309.738C176.076 307.847 215.171 299.481 253.301 286.45C265.406 282.312 276.949 276.785 288.507 271.334C302.522 264.726 316.45 257.908 331.221 253.057C333.241 252.393 335.242 251.656 337.418 251.523Z" fill="black"/>
<path d="M85.7128 137.213C84.5623 137.213 82.4929 137.695 80.8222 137.088C78.9009 136.385 79.5502 133.74 78.5515 132.168C78.2478 131.694 78.0731 131.136 77.8149 130.631C75.1228 125.419 71.8687 123.901 66.0174 124.155C58.0739 124.5 50.4417 126.675 42.616 127.643C41.6249 127.765 40.3757 128.293 39.7264 127.503C39.0543 126.683 39.8972 125.597 40.2883 124.698C43.5197 117.3 49.7469 114.324 57.2689 114.035C71.0637 113.507 83.3814 117.869 94.2373 126.334C95.384 127.23 96.3181 127.389 97.4458 126.584C98.7824 125.632 100.108 124.66 101.421 123.677C103.419 122.181 105.644 121.456 108.15 121.562C109.099 121.604 109.623 121.995 109.931 122.917C111.381 127.237 109.82 131.534 105.845 133.857C102.492 135.82 98.7482 136.484 94.9701 136.89C92.1489 137.194 89.3125 137.513 85.7166 137.209L85.7128 137.213Z" fill="black"/>
<path d="M86.1055 37.7116C88.0837 34.2232 90.8936 32.0861 94.3945 30.8714C98.6396 29.4023 103.033 29.1822 107.498 29.501C117.287 30.2071 126.852 32.4695 136.576 33.6196C142.879 34.3674 149.171 34.337 155.501 34.0182C164.473 33.5627 173.374 32.4922 182.259 31.2434C191.831 29.8996 201.392 28.4837 210.98 27.2576C248.666 22.4444 282.946 30.7081 313.232 54.091C317.393 57.3062 321.137 60.992 324.642 64.9132C324.995 65.308 325.557 65.6193 325.432 66.3405C324.608 66.443 324.209 65.7673 323.693 65.3763C306.761 52.5043 288.649 41.8188 268.21 35.4455C256.078 31.6609 243.677 29.5618 230.96 29.0303C218.734 28.5179 206.765 30.283 194.805 32.367C179.605 35.0165 164.394 37.4877 148.875 37.1498C140.256 36.9638 131.758 35.7491 123.237 34.6483C116.034 33.7183 108.846 32.6934 101.537 33.2438C96.7297 33.6044 92.1922 34.7204 87.9698 37.0777C87.4952 37.3434 87.0813 37.7951 86.1093 37.704L86.1055 37.7116Z" fill="black"/>
<path d="M236.934 149.395C236.991 153.779 236.565 158.103 234.99 162.233C232.677 168.295 227.855 170.754 221.711 169.16C220.166 168.758 219.695 167.862 219.801 166.412C220.006 163.671 221.267 161.496 223.295 159.708C224.434 158.706 225.618 157.753 226.67 156.664C229.579 153.646 228.713 149.171 224.897 147.406C222.304 146.206 219.467 146.347 216.718 146.092C214.136 145.853 211.588 145.512 209.067 144.859C207.332 144.411 207.077 143.515 207.643 141.947C208.873 138.519 211.922 136.249 215.894 135.988C222.687 135.54 228.687 137.722 234.207 141.507C236.136 142.828 237.192 144.521 236.949 146.931C236.865 147.744 236.938 148.571 236.938 149.395H236.934Z" fill="black"/>
<path d="M78.0813 95.1253C76.6384 95.1253 75.1955 95.1481 73.7526 95.1253C61.2451 94.8824 49.1552 96.7727 37.9272 102.565C28.3775 107.489 21.1859 114.572 18.5393 125.367C16.7547 132.644 17.1913 139.91 19.2759 147.084C20.5707 151.54 23.4413 154.52 27.8004 156.061C30.4204 156.987 33.0783 157.823 35.6831 158.791C39.2524 160.112 42.0926 162.313 43.7215 165.862C43.9 166.25 44.2265 166.667 43.8886 167.092C43.6152 167.438 43.1823 167.305 42.8254 167.21C34.1377 164.856 26.0651 161.444 20.3695 154.008C15.9345 148.219 14.4574 141.508 14.4688 134.406C14.4802 127.766 15.5624 121.325 18.5355 115.293C23.6578 104.907 32.2619 98.8149 43.076 95.5846C54.6533 92.1265 66.3635 92.4682 78.0737 95.1329L78.0813 95.1253Z" fill="black"/>
<path d="M178.814 295.152C184.153 295.05 189.112 294.594 194.06 293.987C210.634 291.952 226.418 287.132 241.759 280.682C255.523 274.897 268.801 268.053 282.452 262.025C291.481 258.036 300.632 254.369 310.136 251.647C310.854 251.442 311.906 250.679 312.324 251.632C312.81 252.748 311.598 253.207 310.767 253.614C310.091 253.948 309.369 254.232 308.637 254.399C300.332 256.282 292.917 260.283 285.418 264.083C272.5 270.623 259.764 277.536 246.421 283.21C232.98 288.927 219.128 293.205 204.608 295.13C196.744 296.17 188.846 296.158 180.941 295.927C180.322 295.908 179.676 295.904 178.814 295.152Z" fill="black"/>
<path d="M215.692 158.831C215.639 160.463 215.931 162.122 215.304 163.708C214.936 164.646 214.499 165.234 213.341 164.559C209.689 162.422 205.671 162.338 201.589 162.543C196.182 162.813 190.764 163.549 185.364 162.395C182.524 161.788 182.213 161.268 183.435 158.573C185.296 154.473 189.006 153.05 193.035 152.381C200.139 151.197 207.118 152.249 214.04 153.9C215.179 154.173 215.806 154.735 215.699 155.995C215.623 156.937 215.684 157.889 215.684 158.835L215.692 158.831Z" fill="black"/>
<path d="M310.535 69.9963C308.758 68.1401 307.053 66.2041 305.185 64.4352C297.306 56.9762 287.874 52.2351 277.629 49.0086C267.886 45.9415 257.862 44.3852 247.693 43.4893C237.973 42.6352 228.248 42.8023 218.516 42.8098C217.685 42.8098 216.269 43.1781 216.212 42.1835C216.139 40.9726 217.601 41.2307 218.475 41.1662C226.733 40.5778 235 40.0768 243.285 40.3729C257.558 40.8815 271.634 42.5973 285.007 48.0103C294.071 51.6809 302.007 56.9231 307.873 64.9287C308.989 66.4509 310.06 68.0148 310.539 69.9887L310.535 69.9963Z" fill="black"/>
<path d="M82.4295 68.9708C81.9131 66.3554 82.1637 63.9906 83.1623 61.694C84.8748 57.7501 87.9428 55.0664 91.5007 52.8761C97.8646 48.9587 104.931 47.0304 112.214 45.8764C123.483 44.0885 134.753 44.3467 145.974 46.4079C147.842 46.7495 149.653 47.3341 151.411 48.0553C153.431 48.8828 155.204 50.0747 156.583 51.7981C156.814 52.0866 157.164 52.4282 156.974 52.7964C156.704 53.3278 156.199 53.028 155.8 52.9255C153.351 52.3029 150.917 51.6159 148.457 51.0389C138.095 48.6095 127.569 47.9224 116.987 48.5943C109.442 49.0726 102.076 50.5568 95.3205 54.254C89.6059 57.3819 85.3608 61.7662 83.2306 68.0257C83.1509 68.261 83.0294 68.485 82.9117 68.7051C82.8889 68.7507 82.8054 68.7697 82.4295 68.9746V68.9708Z" fill="black"/>
<path d="M130.667 296.787C130.383 296.87 130.102 297.011 129.813 297.03C117.598 297.74 105.409 297.899 93.4293 294.847C86.9667 293.2 80.9597 290.63 76.2969 285.619C73.525 282.643 71.7404 279.162 70.9316 275.215C71.5468 274.793 71.7594 275.23 71.9644 275.488C78.3094 283.429 86.8984 287.832 96.3531 290.774C105.569 293.64 115.065 295.056 124.668 295.834C126.669 295.997 128.666 296.202 130.664 296.388C130.664 296.521 130.671 296.658 130.675 296.791L130.667 296.787Z" fill="black"/>
<path d="M407.858 118.008C409.681 120.695 410.368 123.683 410.862 126.723C412.183 134.847 410.964 142.841 409.605 150.827C408.735 155.933 407.9 161.046 407.08 166.159C406.962 166.888 406.772 167.469 406.123 167.901C402.755 170.149 399.44 172.472 396.042 174.666C393.179 176.518 389.959 177.444 386.598 177.873C385.896 177.964 385.129 178.173 384.445 177.695C384.605 177.281 384.973 177.323 385.254 177.255C395.066 174.848 401.202 168.399 404.874 159.311C407.315 153.272 408.348 146.933 408.788 140.461C409.282 133.237 408.747 126.067 407.926 118.904C407.892 118.608 407.877 118.308 407.851 118.008H407.858Z" fill="black"/>
<path d="M190.334 282.905C188.25 283.057 186.328 283.209 184.407 283.334C170.92 284.226 157.467 285.73 143.919 285.346C140.065 285.236 136.226 284.94 132.413 284.336C131.149 284.135 129.9 284.234 128.635 284.393C127.978 284.477 127.003 284.598 126.927 283.733C126.847 282.837 127.781 282.613 128.559 282.526C128.996 282.48 129.444 282.507 129.885 282.507C136.841 282.507 143.797 282.587 150.75 282.48C158.583 282.359 166.413 281.975 174.25 281.873C178.859 281.812 183.473 282.055 188.082 282.188C188.808 282.211 189.597 282.142 190.334 282.905Z" fill="black"/>
<path d="M357.217 96.0541C359.787 95.219 362.104 94.9723 364.405 94.8014C375.147 94.0081 385.661 94.7521 395.427 99.8842C400.807 102.712 404.992 106.694 407.137 112.528C407.445 113.367 407.927 114.225 407.646 115.197C407.164 115.186 407.004 114.889 406.848 114.628C401.293 105.233 392.689 100.313 382.357 97.8875C375.143 96.1945 367.822 96.1148 360.475 96.2932C359.506 96.316 358.519 96.4754 357.217 96.0503V96.0541Z" fill="black"/>
<path d="M46.4295 105.732C45.6701 107.451 44.4056 108.567 43.1564 109.683C41.1781 111.456 39.1543 113.179 37.1836 114.96C30.8083 120.711 29.1831 127.862 30.9905 136.023C31.1234 136.623 31.4044 137.211 31.1576 138.111C29.4527 136.885 28.9667 135.192 28.6819 133.412C28.2491 130.682 28.7541 127.995 29.1414 125.307C29.654 121.747 30.5007 118.217 30.0489 114.58C29.9539 113.81 30.3564 113.415 30.9716 113.107C35.8964 110.651 40.8174 108.184 45.7422 105.736C45.8827 105.667 46.0839 105.728 46.4295 105.728V105.732Z" fill="black"/>
<path d="M274.771 149.755C272.261 148.734 269.945 148.051 267.473 147.888C262.347 147.55 257.244 148.1 252.125 148.066C249.224 148.047 246.316 148.142 243.498 147.182C238.889 145.614 238.509 141.104 239.72 137.643C240.13 136.466 241.118 136.686 241.93 137.13C242.823 137.616 242.386 138.261 241.968 138.876C241.459 139.624 240.214 140.011 240.533 141.15C240.901 142.456 241.782 143.481 242.933 144.236C244.679 145.379 246.631 145.77 248.689 145.883C254.085 146.18 259.389 144.957 264.773 145.026C267.321 145.06 269.854 145.086 272.125 146.434C273.298 147.132 274.418 147.922 274.767 149.755H274.771Z" fill="black"/>
<path d="M327.902 98.9853C325.966 98.9284 324.287 98.6589 322.67 98.0895C322.207 97.9263 321.626 97.7479 321.629 97.1367C321.629 96.4724 322.18 96.2067 322.738 96.0017C324.006 95.5386 325.237 96.1763 326.486 96.108C327.378 96.0625 328.829 96.6091 328.999 95.5994C329.178 94.5441 327.64 94.6124 326.809 94.3505C324.109 93.5002 321.25 93.151 318.698 91.8224C318.109 91.5188 317.141 91.2682 317.301 90.4976C317.479 89.6398 318.497 89.7536 319.222 89.7157C320.95 89.6208 322.601 90.0801 324.242 90.5356C328.005 91.5795 331.718 92.8853 335.713 92.6917C336.856 92.6348 336.989 93.299 336.757 94.1493C336.328 95.7019 335.257 96.7495 333.89 97.5125C331.961 98.5868 329.839 98.8411 327.91 98.9815L327.902 98.9853Z" fill="black"/>
<path d="M151.653 84.2325C151.057 83.2722 151.334 82.3763 151.334 81.5336C151.319 77.4416 151.589 73.3344 150.598 69.2994C149.781 65.9741 148.49 62.9526 145.476 60.9825C145.13 60.7547 144.564 60.4852 144.849 59.988C145.031 59.6729 145.552 59.4603 145.958 59.3768C148.202 58.9213 149.888 59.8475 151.179 61.6278C152.853 63.9433 153.514 66.627 153.985 69.3791C154.653 73.2851 154.543 77.1607 153.446 80.9794C153.111 82.1448 152.755 83.3519 151.653 84.2287V84.2325Z" fill="black"/>
<path d="M222.507 46.4161C215.209 52.277 211.149 59.5918 211.089 68.9373C208.602 67.1153 208.362 60.2598 210.42 55.31C212.649 49.9539 218.151 45.7139 222.507 46.4161Z" fill="black"/>
<path d="M39.9207 151.934C36.9742 151.877 34.6845 150.643 32.8088 148.628C30.9216 146.601 29.7066 144.183 29.1142 141.484C28.9927 140.933 28.4991 140.144 29.2091 139.772C29.7787 139.476 30.1774 140.212 30.5647 140.58C32.805 142.71 34.9997 144.889 37.2476 147.011C38.4892 148.183 39.8903 149.155 41.375 150.005C41.8382 150.271 42.6622 150.393 42.5369 151.061C42.4268 151.638 41.6598 151.672 41.1092 151.767C40.6763 151.843 40.2359 151.892 39.9207 151.934Z" fill="black"/>
<path d="M168.292 295.662C162.193 298.358 155.89 296.088 149.697 296.486C155.795 293.776 162.095 295.997 168.292 295.662Z" fill="black"/>
<path d="M321.549 104.763C320.023 104.589 318.622 103.704 317.43 102.573C316.461 101.655 317.376 101.119 318.151 100.793C319.017 100.428 323.315 102.285 323.752 103.139C324.135 103.883 323.019 104.79 321.546 104.763H321.549Z" fill="black"/>
</g>
<defs>
<clipPath id="clip0_246_180">
<rect width="434.124" height="351.654" fill="white" transform="translate(0.339844 0.480469)"/>
</clipPath>
</defs>
</svg>
