<svg width="240" height="261" viewBox="0 0 240 261" fill="none" xmlns="http://www.w3.org/2000/svg">
<path fill-rule="evenodd" clip-rule="evenodd" d="M118.934 0.81041C117.532 1.15163 114.653 1.23639 112.537 0.997462C109.144 0.614589 108.023 0.874709 103.07 3.19679C91.6003 8.57162 83.8094 9.26649 68.6842 6.26489C63.6775 5.27117 57.0467 4.44989 53.9487 4.44039C48.8072 4.42505 48.1255 4.59895 46.1308 6.43294C44.6299 7.81318 43.5921 9.8145 42.8136 12.8263C41.7351 17.0029 41.7591 17.5209 43.319 23.7864C44.3626 27.9754 45.5315 30.9178 46.5401 31.8933C47.4111 32.735 48.6389 35.201 49.2689 37.3733C50.5805 41.8969 51.2221 42.8066 55.1299 45.6796C57.2149 47.2125 58.7027 49.349 60.7739 53.7835C62.3207 57.0949 63.5864 60.6233 63.5864 61.6244C63.5864 62.6254 62.5792 65.6029 61.3492 68.2413C57.7502 75.9572 54.674 97.3199 56.3526 102.94C57.0394 105.24 57.0525 106.889 56.4094 110.101C55.7067 113.613 55.7475 114.465 56.6673 115.485C58.067 117.037 58.0495 118.651 56.601 121.461C55.963 122.698 54.9624 125.33 54.3761 127.31C52.9735 132.05 48.7132 136.364 44.3466 137.468C39.7935 138.618 38.7623 140.048 38.5132 145.558C38.2241 151.947 34.5559 160.606 30.884 163.566C29.4027 164.761 27.3884 167.337 26.4081 169.291C25.4272 171.245 23.7238 173.924 22.6219 175.244C21.5208 176.564 20.6192 177.909 20.6192 178.232C20.6192 178.555 19.7781 179.204 18.7498 179.674C17.4841 180.254 16.1645 182.119 14.6628 185.454C13.443 188.164 11.3325 191.906 9.97354 193.772C8.61388 195.637 6.61919 199.09 5.54064 201.444C3.72436 205.406 3.57507 206.464 3.53429 215.703C3.49496 224.493 3.32236 225.867 2.08651 227.237C-0.162351 229.73 -0.678686 236.838 0.956253 242.782C2.47176 248.289 5.25297 252.229 10.7011 256.586L14.255 259.429L21.9891 259.44C26.2421 259.447 76.4358 259.656 133.53 259.905C230.787 260.329 237.416 260.279 238.582 259.11C240.271 257.415 240.212 251.288 238.456 246.168C237.703 243.973 236.845 240.733 236.548 238.968C236.251 237.204 234.759 232.619 233.233 228.78C230.556 222.04 228.173 212.557 228.173 208.641C228.173 206.678 225.43 199.038 221.093 188.919C219.715 185.704 218.156 181.594 217.63 179.785C215.788 173.457 212.755 166.254 211.252 164.635C210.417 163.738 209.159 160.678 208.455 157.836C206.858 151.39 201.129 141.963 195.001 135.699C187.446 127.977 183.174 124.404 180.891 123.901C175.604 122.736 172.008 116.129 173.545 110.402C173.972 108.811 174.649 107.307 175.051 107.058C175.451 106.809 177.282 103.604 179.119 99.935C183.252 91.6777 183.828 87.2973 181.896 78.8112C180.171 71.2312 180.606 70.4246 189.211 65.2587C192.816 63.0937 196.638 60.4874 197.705 59.4659C199.845 57.4186 207.76 43.2187 209.651 38.0346C210.448 35.8498 210.817 32.7204 210.751 28.709C210.556 16.8896 210.469 16.845 187.928 16.845H170.914L169.235 14.5653C167.695 12.4763 167.298 12.3214 164.48 12.7087C162.788 12.9418 161.107 12.8658 160.743 12.5399C160.378 12.2148 157.787 11.0457 154.983 9.9431C152.179 8.84051 147.989 6.76467 145.67 5.32962C142.084 3.10984 140.563 2.64367 135.474 2.20527C132.185 1.92249 128.571 1.31896 127.444 0.86521C125.115 -0.0729743 122.624 -0.089049 118.934 0.81041Z" fill="black"/>
</svg>
