<svg width="184" height="260" viewBox="0 0 184 260" fill="none" xmlns="http://www.w3.org/2000/svg">
<path d="M93.3506 259.983C81.2207 260.007 69.2187 258.577 57.5579 255.388C44.3132 251.772 32.2807 245.765 22.405 235.82C17.7748 231.158 12.9253 226.709 8.94699 221.468C3.34811 214.104 1.63007 205.4 0.533443 196.472C-0.319488 189.484 -0.142809 182.583 1.01474 175.632C1.69099 171.566 0.746675 167.348 1.83112 163.258C2.483 160.799 3.14097 158.365 4.66406 156.271C5.51699 155.096 5.85207 153.764 6.24199 152.382C7.66151 147.373 8.91044 142.309 9.2638 137.13C9.50749 133.539 9.79383 129.826 9.44048 126.314C7.91129 111.104 14.0524 98.4689 22.1309 86.4361C26.5844 79.802 32.0066 73.813 36.0397 66.905C39.8048 60.4595 43.5211 53.9227 46.5064 47.0999C50.9416 36.9844 53.5065 26.2602 55.2611 15.3473C56.7477 6.12037 63.5833 2.63288 71.4363 0.660897C77.4069 -0.842437 83.5297 0.447874 89.3784 2.24335C94.4228 3.78929 98.194 6.94812 100.716 11.7016C102.191 14.483 101.46 17.4593 102.142 20.2955C104.195 28.8712 104.195 37.7208 105.438 46.3817C106.108 51.0743 107.601 55.9312 110.318 60.1613C111.232 61.5855 111.798 63.2592 112.377 64.8721C114.528 70.9098 119.079 75.1216 123.429 79.4794C127.882 83.9407 131.367 89.1872 135.29 94.0684C144.204 105.14 151.124 117.598 157.387 130.191C162.31 140.081 168.274 149.314 173.24 159.126C177.297 167.148 181.117 175.309 183.213 184.122C184.31 188.748 183.999 193.386 182.768 197.938C180.593 205.96 177.626 213.702 174.324 221.334C171.394 228.109 166.24 232.302 159.562 234.931C158.058 235.522 156.589 236.264 155.042 236.703C149.607 238.248 145.702 242.046 141.358 245.351C131.056 253.191 119.006 257.013 106.382 259.234C102.063 259.995 97.7127 260.056 93.3506 259.971V259.983Z" fill="black"/>
</svg>
